<svg width="228" height="17" viewBox="0 0 228 17" fill="none" xmlns="http://www.w3.org/2000/svg">
<path d="M217.549 4.98103C216.7 5.04827 215.937 5.03598 215.088 5.10322C213.985 5.16637 212.88 5.31041 211.692 5.37219C209.824 5.50394 207.954 5.79749 206.167 6.17331C204.209 6.62729 202.334 7.24443 200.539 8.10564C200.198 8.26197 199.854 8.49921 199.429 8.57328C199.003 8.72825 198.661 8.88458 198.235 9.03955C197.637 9.27269 197.126 9.42629 196.53 9.57853C195.849 9.7294 195.168 9.88027 194.489 9.95024C193.894 10.0216 193.301 10.012 192.707 10.0025C192.114 9.9929 191.606 9.90381 191.013 9.89425C190.251 9.80106 189.491 9.62697 188.732 9.37199C187.973 9.117 187.214 8.86201 186.456 8.52613C185.193 7.93935 183.932 7.27167 182.671 6.604C182.083 6.27084 181.579 5.93906 180.992 5.525C180.321 5.10958 179.649 4.69417 178.977 4.27875C178.474 3.94696 177.884 3.6947 177.295 3.44245C176.958 3.27519 176.536 3.18746 176.113 3.09973C175.691 3.012 175.352 3.00654 174.929 2.91881C174.675 2.91472 174.42 2.91062 174.25 2.98879C173.909 3.06422 173.569 3.13966 173.228 3.21509C172.717 3.3687 172.204 3.6032 171.692 3.8377C170.667 4.30671 169.726 4.77708 168.701 5.24608C167.419 5.87278 166.223 6.41995 164.858 6.96439C164.09 7.2757 163.238 7.50474 162.471 7.73514C161.364 8.04098 160.344 8.18639 159.239 8.33044C158.219 8.47584 157.117 8.45809 156.098 8.5226C154.912 8.50348 153.726 8.40346 152.542 8.22255C151.02 7.95527 149.582 7.68936 148.062 7.34118C146.71 6.99573 145.361 6.56939 144.097 6.06351C142.834 5.47673 141.572 4.88996 140.31 4.22228C138.881 3.47098 137.452 2.71967 135.933 2.2097C135.344 1.95744 134.752 1.86699 134.076 1.69426C133.401 1.52154 132.638 1.50925 131.875 1.49696C131.112 1.48467 130.431 1.63554 129.665 1.78504C128.9 1.93455 128.216 2.24722 127.533 2.55989C125.909 3.34293 124.451 4.37139 122.993 5.39986C122.135 6.03339 121.276 6.66693 120.418 7.30046C119.732 7.77493 118.96 8.32892 118.189 8.80202C117.418 9.27513 116.564 9.66596 115.71 10.0568C115.283 10.2118 114.942 10.3681 114.517 10.4422C114.005 10.5958 113.411 10.6671 112.901 10.7398C112.646 10.7357 112.477 10.733 112.222 10.7289C112.053 10.7262 111.883 10.7234 111.714 10.7207C111.291 10.633 110.87 10.4643 110.449 10.2957C108.934 9.54305 107.508 8.62995 106.167 7.63731C105.496 7.141 104.911 6.64604 104.326 6.07019C103.909 5.65887 103.49 5.32845 103.073 4.91713C101.987 3.92859 100.988 2.77962 99.815 1.87061C99.3115 1.53882 98.8081 1.20703 98.2199 0.87388C97.8834 0.70662 97.5456 0.620259 97.2078 0.533897C97.123 0.532532 96.9548 0.448902 96.87 0.447536C96.6157 0.443439 96.3626 0.358443 96.1931 0.355712C96.1083 0.354346 95.9387 0.351615 95.854 0.350249L95.7692 0.348883C95.5997 0.346152 95.3453 0.342055 95.1745 0.420222C94.7493 0.494292 94.4089 0.569728 93.9837 0.643799C93.2168 0.874204 92.4499 1.10461 91.6817 1.41591C91.0844 1.64905 90.487 1.88218 89.8884 2.19622C89.4619 2.35119 89.0341 2.58706 88.6076 2.74203C87.9242 3.05469 87.3256 3.36873 86.6421 3.6814C86.3004 3.83773 85.9587 3.99407 85.7018 4.15177C85.1031 4.4658 84.5032 4.86074 83.9893 5.17614C83.5615 5.412 83.1338 5.64787 82.7047 5.96464C81.5922 6.59407 80.5631 7.30577 79.4506 7.93521C77.1382 9.35451 74.741 10.7724 72.1808 11.7832C71.5835 12.0163 71.0722 12.1699 70.4748 12.403C69.7927 12.6348 69.0271 12.7843 68.2629 12.8529C67.9238 12.8475 67.6681 12.9243 67.329 12.9188C66.8204 12.9106 66.3965 12.9038 65.8891 12.8147C65.2122 12.7229 64.5366 12.5501 63.9471 12.2979C63.2741 11.9634 62.6024 11.5479 62.0155 11.1339C61.0099 10.3894 60.1765 9.48587 59.3431 8.58233C58.9257 8.171 58.5097 7.67878 58.0923 7.26746C57.5915 6.77388 57.0058 6.27892 56.505 5.78534C56.0029 5.37265 55.5842 5.04223 54.9947 4.78997C54.4834 4.94357 54.1469 4.77631 53.8091 4.68995C53.4713 4.60359 53.1335 4.51723 52.7944 4.51177C52.5401 4.50767 52.3705 4.50494 52.1149 4.58174C51.7745 4.65718 51.5189 4.73398 51.1772 4.89031C50.9202 5.04801 50.5785 5.20435 50.3216 5.36205C50.0633 5.60065 49.8051 5.83925 49.6316 6.07921C49.1999 6.55777 48.7682 7.03634 48.4213 7.51627C48.0757 7.9153 47.7314 8.23343 47.4705 8.63383C47.1249 9.03286 46.6932 9.51142 46.3476 9.91045C45.5703 10.788 44.7108 11.5025 43.7665 12.2155C43.0805 12.69 42.311 13.0822 41.5415 13.4744C40.7746 13.7048 40.0938 13.8557 39.3282 14.0052C38.2248 14.0683 37.2075 14.052 36.1067 13.9533C34.4151 13.6833 32.8122 13.172 31.2119 12.4988C29.7811 11.8284 28.4351 11.1594 27.0918 10.3285C26.4201 9.91311 25.7484 9.49769 25.078 9.00137C24.4063 8.58595 23.7359 8.08964 23.0642 7.67422C22.3938 7.1779 21.7221 6.76248 21.0505 6.34706C20.3788 5.93164 19.6223 5.51486 18.8645 5.17897C17.4338 4.50857 15.9143 4.07949 14.387 4.13581C14.0479 4.13034 13.6228 4.20441 13.2837 4.19895C12.8585 4.27302 12.5181 4.34846 12.1777 4.42389C11.8373 4.49933 11.4955 4.65566 11.2399 4.73247C10.8982 4.8888 10.5565 5.04514 10.2161 5.12057C8.42667 5.65818 6.97245 6.44395 5.6017 7.31199C4.4018 8.10185 3.2006 8.97262 2.16635 10.0079C1.64988 10.4851 1.21818 10.9637 0.78648 11.4422C0.613018 11.6822 0.439557 11.9222 0.349568 12.2444C0.348265 12.3253 0.260882 12.4857 0.259579 12.5666C0.170894 12.808 0.166984 13.0507 0.0782983 13.292C-0.0116905 13.6142 0.0678725 13.9392 0.31829 14.186C0.570012 14.3519 0.907812 14.4382 1.24822 14.3628C1.50385 14.286 1.6747 14.2078 1.92903 14.2119C2.26944 14.1365 2.52637 13.9788 2.86808 13.8224C3.29587 13.5866 3.47455 13.023 3.22673 12.6144C3.06109 12.369 2.89284 12.2854 2.63982 12.2004C3.50191 11.3241 4.44748 10.5302 5.39305 9.73622C7.02203 8.62958 8.73189 7.76701 10.5252 6.9867C10.9517 6.83174 11.3782 6.67677 11.8047 6.5218C12.3146 6.44909 12.9107 6.29685 13.4206 6.22415C13.9306 6.15145 14.3545 6.15827 14.8618 6.24737C15.1996 6.33373 15.4539 6.33783 15.7917 6.42419C16.2978 6.59418 16.7191 6.7628 17.1403 6.93143C17.9816 7.34958 18.8228 7.76773 19.578 8.26541C20.5014 8.84673 21.3387 9.50757 22.2608 10.1698C23.0995 10.7497 24.0216 11.4119 24.945 11.9933C25.8684 12.5746 26.7918 13.1559 27.7165 13.6563C29.566 14.6571 31.5028 15.4975 33.4435 16.0952C35.469 16.6943 37.6693 16.9725 39.8786 16.6844C40.8986 16.539 41.835 16.3113 42.7728 16.0028C43.7118 15.6133 44.5661 15.2225 45.3382 14.6685C46.1951 14.1158 46.9698 13.4 47.7445 12.6842C48.1749 12.2866 48.5205 11.8875 48.8661 11.4885C49.3852 10.8495 49.903 10.2914 50.4221 9.65241C51.0272 8.93388 51.6337 8.13445 52.4084 7.41866C52.4932 7.42002 52.4945 7.33912 52.5793 7.34049C52.664 7.34186 52.7501 7.26232 52.8349 7.26369L52.9197 7.26505C53.0892 7.26779 53.1727 7.35005 53.3422 7.35278C53.6787 7.52004 54.0152 7.6873 54.3504 7.93546C55.2725 8.59767 56.0225 9.41895 56.7724 10.2402C57.7741 11.2274 58.7745 12.2955 59.8622 13.2031C60.3644 13.6158 60.8678 13.9476 61.3713 14.2794C61.9582 14.6934 62.6325 14.9471 63.3068 15.2007C63.8963 15.4529 64.5732 15.5448 65.2488 15.7175C66.0105 15.8107 66.8569 15.9052 67.6212 15.8366C68.2994 15.8475 68.9802 15.6967 69.575 15.6253C70.3405 15.4758 71.1074 15.2454 71.8743 15.015C73.3233 14.5528 74.6902 13.9275 75.9722 13.3008C77.9377 12.3614 79.7376 11.1766 81.5361 10.0727C82.393 9.52008 83.2499 8.96745 84.1915 8.41618C85.2193 7.78538 86.2457 7.23548 87.2734 6.60468C87.3595 6.52514 87.5304 6.44698 87.6151 6.44834C87.9569 6.29201 88.2986 6.13567 88.6416 5.89844C89.1541 5.66394 89.668 5.34854 90.2654 5.1154C90.3514 5.03587 90.521 5.0386 90.6071 4.95907C90.9488 4.80273 91.3753 4.64776 91.717 4.49143C92.3143 4.25829 92.9977 3.94562 93.5951 3.71249C94.1924 3.47935 94.8732 3.32848 95.554 3.17761C95.7236 3.18034 95.8084 3.1817 95.9779 3.18443C96.0627 3.1858 96.2323 3.18853 96.317 3.1899C96.5701 3.27489 96.8231 3.35989 97.1609 3.44625C97.5808 3.69577 98.0008 3.9453 98.4195 4.27572C99.6742 5.34789 100.758 6.49823 101.928 7.56903C102.68 8.22851 103.433 8.88799 104.186 9.54747C104.939 10.1261 105.695 10.6237 106.448 11.2023C107.287 11.7823 108.128 12.2004 108.968 12.6995C109.725 13.1163 110.653 13.374 111.499 13.5494C111.921 13.6372 112.26 13.6426 112.685 13.5685C113.194 13.5767 113.704 13.504 114.215 13.3504C115.066 13.2023 115.917 12.9732 116.686 12.6619C117.625 12.2725 118.479 11.8816 119.334 11.4099C120.533 10.7009 121.563 9.90834 122.678 9.1171C123.28 8.64127 123.966 8.1668 124.567 7.69097C125.082 7.29467 125.596 6.97927 126.111 6.58297C127.226 5.79174 128.339 5.1623 129.62 4.6165C130.217 4.38336 130.813 4.23112 131.492 4.16115C131.832 4.16661 132.087 4.08981 132.426 4.09527C132.681 4.09937 132.935 4.10347 133.273 4.18983C134.287 4.36802 135.216 4.62573 136.143 4.96435C136.901 5.30024 137.742 5.71839 138.5 6.05427C139.005 6.30516 139.425 6.55469 139.93 6.80558C140.35 7.0551 140.854 7.30599 141.359 7.55688C142.285 7.9764 143.211 8.39592 144.137 8.81543C145.148 9.23631 146.161 9.4954 147.175 9.75448C149.37 10.3563 151.569 10.7154 153.769 10.9936C154.869 11.1731 156.055 11.1923 157.157 11.21C158.26 11.2278 159.364 11.0837 160.469 10.9397C162.423 10.7284 164.382 10.1935 166.258 9.49547C167.453 9.0292 168.564 8.48066 169.76 7.93349C171.127 7.30815 172.495 6.60191 173.947 5.97794C174.203 5.90114 174.543 5.8257 174.799 5.7489C174.968 5.75163 175.138 5.75437 175.307 5.7571C175.73 5.84482 176.068 5.93118 176.489 6.09981C177.751 6.68659 178.841 7.51333 180.016 8.26054C181.189 9.08864 182.451 9.75632 183.712 10.424C184.973 11.0917 186.322 11.5989 187.67 12.1062C189.188 12.6161 190.795 12.8848 192.405 12.9916C193.845 13.0957 195.288 12.9572 196.65 12.6554C197.841 12.4318 199.035 11.9656 200.145 11.4979C200.658 11.2634 201.084 11.1085 201.597 10.8739C201.939 10.7176 202.196 10.5599 202.537 10.4036C202.965 10.1677 203.476 10.0141 203.904 9.77824C206.207 8.92523 208.589 8.47808 211.053 8.19409C212.327 8.05277 213.685 7.99373 215.044 7.85378C216.147 7.79064 217.335 7.72886 218.439 7.66571C220.73 7.54079 223.107 7.41723 225.394 7.535C226.327 7.55002 227.017 6.83286 227.03 6.02387C227.043 5.21489 226.291 4.47451 225.444 4.46085C223.663 4.43217 221.881 4.56529 220.184 4.61887C219.247 4.84655 218.398 4.91379 217.549 4.98103ZM174.543 5.8257C174.628 5.82707 174.628 5.82707 174.713 5.82844C174.628 5.82707 174.543 5.8257 174.543 5.8257Z" fill="#EB642A"/>
</svg>
