<svg width="382" height="18" viewBox="0 0 382 18" fill="none" xmlns="http://www.w3.org/2000/svg">
<path d="M365.45 6.72728C364.025 6.79279 362.743 6.77214 361.318 6.83765C359.466 6.89628 357.612 7.04336 355.617 7.09969C352.482 7.22613 349.344 7.52945 346.347 7.92352C343.063 8.40144 339.92 9.05855 336.914 9.9833C336.342 10.151 335.768 10.4072 335.055 10.4842C334.34 10.6496 333.767 10.8173 333.053 10.9827C332.052 11.232 331.195 11.3951 330.195 11.556C329.053 11.7145 327.911 11.8731 326.771 11.9432C325.773 12.0155 324.776 11.9995 323.78 11.9834C322.783 11.9674 321.93 11.8652 320.933 11.8491C319.653 11.74 318.375 11.5425 317.098 11.2565C315.82 10.9705 314.543 10.6845 313.268 10.3101C311.142 9.65659 309.018 8.91462 306.893 8.17264C305.902 7.8028 305.054 7.43525 304.064 6.97697C302.932 6.51638 301.8 6.0558 300.669 5.59522C299.82 5.22768 298.828 4.94628 297.835 4.66489C297.269 4.47882 296.558 4.3789 295.848 4.27899C295.137 4.17908 294.568 4.1699 293.857 4.06999C293.43 4.06311 293.003 4.05622 292.717 4.14008C292.146 4.21936 291.575 4.29863 291.004 4.3779C290.147 4.54103 289.288 4.79261 288.43 5.04418C286.713 5.54734 285.138 6.05279 283.421 6.55594C281.274 7.22911 279.27 7.81612 276.982 8.39855C275.695 8.73169 274.267 8.97409 272.981 9.21879C271.125 9.54276 269.413 9.69212 267.56 9.8392C265.848 9.98857 263.997 9.95875 262.287 10.0197C260.294 9.98756 258.302 9.86701 256.312 9.658C253.753 9.35138 251.337 9.04705 248.78 8.65198C246.507 8.26149 244.236 7.78256 242.109 7.21748C239.984 6.56395 237.858 5.91042 235.734 5.16845C233.326 4.33344 230.918 3.49843 228.364 2.92646C227.372 2.64507 226.376 2.54057 225.24 2.34533C224.104 2.15008 222.823 2.12944 221.541 2.1088C220.26 2.08816 219.118 2.2467 217.834 2.40295C216.549 2.5592 215.405 2.89463 214.26 3.23007C211.54 4.07096 209.101 5.18177 206.663 6.29258C205.227 6.97721 203.792 7.66185 202.357 8.34648C201.209 8.85881 199.918 9.45729 198.628 9.96732C197.338 10.4774 195.907 10.8967 194.476 11.316C193.761 11.4814 193.189 11.6491 192.476 11.7261C191.619 11.8892 190.621 11.9616 189.765 12.0363C189.338 12.0294 189.053 12.0248 188.626 12.0179C188.341 12.0133 188.056 12.0088 187.772 12.0042C187.061 11.9043 186.352 11.7159 185.643 11.5275C183.093 10.6902 180.688 9.67833 178.427 8.58027C177.297 8.03124 176.309 7.48451 175.322 6.84933C174.617 6.39563 173.911 6.03038 173.206 5.57668C171.372 4.4855 169.684 3.21973 167.706 2.21471C166.858 1.84716 166.009 1.47962 165.018 1.10977C164.451 0.923707 163.883 0.826087 163.315 0.728466C163.173 0.726172 162.889 0.633138 162.747 0.630845C162.32 0.623964 161.894 0.528636 161.609 0.524049C161.467 0.521755 161.182 0.517168 161.04 0.514874L160.898 0.512581C160.613 0.507994 160.186 0.501113 159.899 0.584972C159.186 0.66195 158.615 0.741222 157.902 0.8182C156.616 1.0629 155.33 1.30759 154.043 1.64074C153.042 1.89002 152.041 2.1393 151.039 2.47703C150.324 2.64246 149.608 2.89633 148.893 3.06175C147.749 3.39719 146.746 3.73492 145.602 4.07035C145.029 4.23807 144.457 4.40579 144.027 4.5758C143.025 4.91353 142.021 5.33971 141.161 5.67973C140.445 5.9336 139.728 6.18747 139.011 6.52979C137.149 7.20754 135.427 7.97604 133.565 8.65379C129.695 10.1839 125.683 11.7117 121.393 12.7927C120.392 13.042 119.535 13.2051 118.534 13.4544C117.39 13.7014 116.106 13.8576 114.823 13.9254C114.254 13.9163 113.825 13.9978 113.256 13.9887C112.402 13.9749 111.69 13.9634 110.837 13.8612C109.699 13.7544 108.563 13.5592 107.571 13.2778C106.437 12.9057 105.305 12.4451 104.316 11.9868C102.62 11.1632 101.212 10.1674 99.8038 9.17155C99.0991 8.71785 98.3957 8.17571 97.6909 7.72201C96.8452 7.17757 95.8571 6.63083 95.0114 6.08639C94.1642 5.6304 93.458 5.26515 92.4656 4.98375C91.6085 5.14688 91.0418 4.96081 90.4738 4.86319C89.9057 4.76557 89.3376 4.66795 88.768 4.65878C88.3409 4.6519 88.0561 4.64731 87.6276 4.72887C87.0566 4.80815 86.6281 4.88971 86.0557 5.05743C85.6257 5.22744 85.0534 5.39516 84.6234 5.56517C84.192 5.82363 83.7605 6.08209 83.4715 6.34284C82.7511 6.86205 82.0306 7.38126 81.4526 7.90276C80.8759 8.33582 80.3007 8.68043 79.8664 9.11578C79.2898 9.54884 78.5693 10.068 77.9927 10.5011C76.6956 11.4534 75.259 12.2265 73.68 12.9972C72.5324 13.5096 71.2439 13.9312 69.9553 14.3527C68.6697 14.5974 67.5278 14.756 66.2435 14.9122C64.3911 14.9709 62.6826 14.9433 60.8331 14.8251C57.9898 14.5139 55.2931 13.9396 52.5993 13.1885C50.1902 12.4419 47.9236 11.6976 45.6598 10.7765C44.5278 10.3159 43.3959 9.8553 42.2654 9.30628C41.1335 8.8457 40.003 8.29667 38.8711 7.83609C37.7406 7.28706 36.6087 6.82648 35.4768 6.3659C34.3449 5.90532 33.0706 5.44244 31.7949 5.06801C29.3859 4.32145 26.8302 3.83793 24.2659 3.8851C23.6964 3.87592 22.9831 3.9529 22.4135 3.94372C21.7002 4.0207 21.1293 4.09997 20.5583 4.17925C19.9874 4.25852 19.415 4.42624 18.9865 4.5078C18.4141 4.67552 17.8417 4.84324 17.2708 4.92251C14.2708 5.49347 11.8361 6.33894 9.5424 7.27515C7.53484 8.1275 5.52585 9.0683 3.79878 10.1906C2.93595 10.7075 2.2155 11.2267 1.49506 11.7459C1.20603 12.0067 0.916992 12.2674 0.768913 12.6189C0.767489 12.7074 0.62226 12.882 0.620835 12.9704C0.474181 13.2334 0.469906 13.4988 0.323253 13.7618C0.175174 14.1133 0.311854 14.4694 0.734718 14.7416C1.15901 14.9254 1.7271 15.023 2.29804 14.9437C2.7266 14.8622 3.01279 14.7783 3.43993 14.7852C4.01087 14.7059 4.44086 14.5359 5.01322 14.3682C5.7294 14.1143 6.02413 13.4998 5.60411 13.0507C5.32363 12.7808 5.0403 12.6877 4.61458 12.5924C6.05405 11.6424 7.63447 10.7832 9.21489 9.92395C11.9401 8.72928 14.8033 7.80225 17.8075 6.96595C18.5223 6.80052 19.237 6.6351 19.9518 6.46968C20.8075 6.39499 21.807 6.23415 22.6627 6.15947C23.5184 6.08479 24.2303 6.09625 25.0831 6.19846C25.6512 6.29608 26.0784 6.30296 26.6465 6.40058C27.4979 6.59124 28.2069 6.7796 28.916 6.96796C30.3326 7.43313 31.7493 7.8983 33.0222 8.44962C34.5784 9.09397 35.9908 9.82448 37.5456 10.5573C38.9594 11.1993 40.5141 11.9321 42.0703 12.5765C43.6265 13.2209 45.1827 13.8652 46.7404 14.4211C49.8556 15.5329 53.1161 16.4701 56.3809 17.142C59.788 17.8162 63.4856 18.1412 67.1931 17.847C68.9045 17.6977 70.475 17.4575 72.0469 17.129C73.6202 16.712 75.0511 16.2927 76.3425 15.6942C77.7762 15.098 79.0705 14.3226 80.3647 13.5473C81.0837 13.1165 81.6604 12.6835 82.237 12.2504C83.1027 11.5566 83.9669 10.9512 84.8326 10.2574C85.8421 9.47745 86.853 8.60905 88.1472 7.83367C88.2896 7.83596 88.291 7.74752 88.4334 7.74981C88.5758 7.75211 88.7196 7.66595 88.862 7.66825L89.0044 7.67054C89.2891 7.67513 89.4301 7.76587 89.7148 7.77045C90.2815 7.95652 90.8482 8.14259 91.4134 8.4171C92.9682 9.1499 94.2354 10.055 95.5025 10.9601C97.194 12.049 98.884 13.2263 100.719 14.2291C101.566 14.685 102.415 15.0526 103.264 15.4201C104.253 15.8784 105.388 16.1621 106.523 16.4458C107.515 16.7272 108.653 16.834 109.789 17.0292C111.069 17.1383 112.491 17.2497 113.774 17.1819C114.913 17.2003 116.055 17.0417 117.053 16.9693C118.337 16.8131 119.623 16.5684 120.909 16.3237C123.338 15.832 125.627 15.1611 127.774 14.488C131.066 13.4793 134.077 12.2008 137.087 11.0107C138.521 10.4145 139.955 9.81836 141.531 9.22447C143.251 8.54442 144.969 7.95282 146.689 7.27277C146.833 7.18662 147.119 7.10276 147.262 7.10505C147.834 6.93733 148.407 6.76962 148.98 6.51345C149.839 6.26188 150.699 5.92185 151.7 5.67257C151.844 5.58642 152.128 5.591 152.272 5.50485C152.844 5.33713 153.559 5.17171 154.132 5.00399C155.133 4.75471 156.277 4.41927 157.278 4.16999C158.279 3.9207 159.421 3.76216 160.563 3.60362C160.848 3.6082 160.99 3.6105 161.275 3.61508C161.417 3.61738 161.702 3.62196 161.844 3.62426C162.27 3.71959 162.696 3.81491 163.264 3.91253C163.971 4.18934 164.679 4.46615 165.385 4.8314C167.502 6.01561 169.333 7.28368 171.308 8.46559C172.578 9.1938 173.848 9.92202 175.118 10.6502C176.39 11.29 177.663 11.8413 178.934 12.4811C180.348 13.1231 181.765 13.5883 183.18 14.1419C184.454 14.6048 186.016 14.8954 187.437 15.0952C188.147 15.1951 188.717 15.2043 189.43 15.1273C190.284 15.1411 191.14 15.0664 191.997 14.9033C193.424 14.7493 194.852 14.5069 196.139 14.1738C197.712 13.7568 199.143 13.3375 200.576 12.8297C202.582 12.0658 204.305 11.2089 206.17 10.3542C207.175 9.8396 208.323 9.32728 209.328 8.81265C210.189 8.38418 211.049 8.04416 211.911 7.61569C213.776 6.76104 215.638 6.08329 217.784 5.49857C218.785 5.24929 219.784 5.08845 220.925 5.01835C221.494 5.02753 221.923 4.94596 222.492 4.95514C222.919 4.96202 223.347 4.9689 223.915 5.06652C225.62 5.27094 227.182 5.5615 228.743 5.94052C230.018 6.31495 231.435 6.78012 232.711 7.15455C233.561 7.43365 234.268 7.71045 235.118 7.98955C235.826 8.26636 236.676 8.54546 237.526 8.82456C239.085 9.29203 240.644 9.75949 242.203 10.2269C243.905 10.6967 245.609 10.9896 247.313 11.2824C251.005 11.9612 254.701 12.3746 258.399 12.6996C260.247 12.9063 262.24 12.9384 264.091 12.9682C265.942 12.998 267.796 12.851 269.65 12.7039C272.929 12.4913 276.213 11.9249 279.359 11.1794C281.36 10.6808 283.221 10.0915 285.225 9.50449C287.514 8.83362 289.805 8.0743 292.237 7.40572C292.665 7.32415 293.236 7.24488 293.665 7.16331C293.95 7.1679 294.234 7.17249 294.519 7.17708C295.23 7.27699 295.798 7.37461 296.507 7.56297C298.632 8.2165 300.469 9.13078 302.45 9.95891C304.429 10.8755 306.553 11.6175 308.677 12.3594C310.802 13.1014 313.071 13.6688 315.341 14.2362C317.895 14.8081 320.596 15.117 323.3 15.2491C325.719 15.3765 328.142 15.2386 330.426 14.9215C332.423 14.6883 334.425 14.1897 336.285 13.6889C337.143 13.4373 337.858 13.2719 338.717 13.0203C339.289 12.8526 339.719 12.6826 340.291 12.5148C341.007 12.261 341.865 12.0978 342.581 11.844C346.441 10.933 350.436 10.4665 354.57 10.1793C356.709 10.0368 358.989 9.98502 361.269 9.84483C363.122 9.7862 365.117 9.72987 366.969 9.67124C370.816 9.55627 374.805 9.4436 378.648 9.59398C380.214 9.61921 381.366 8.84154 381.381 7.95708C381.395 7.07261 380.126 6.25595 378.702 6.23302C375.712 6.18485 372.72 6.31358 369.871 6.35615C368.3 6.59626 366.875 6.66177 365.45 6.72728ZM293.236 7.24488C293.379 7.24717 293.379 7.24717 293.521 7.24947C293.379 7.24717 293.236 7.24488 293.236 7.24488Z" fill="#FCC614"/>
</svg>
