<svg width="31" height="31" viewBox="0 0 31 31" fill="none" xmlns="http://www.w3.org/2000/svg">
<path d="M14.6683 24.1951C12.2488 24.0691 10.2073 23.1366 8.5439 21.3976C6.88049 19.6585 6.04878 17.5667 6.04878 15.122C6.04878 12.6016 6.93089 10.4593 8.69512 8.69512C10.4593 6.93089 12.6016 6.04878 15.122 6.04878C17.5667 6.04878 19.6585 6.88049 21.3976 8.5439C23.1366 10.2073 24.0691 12.2488 24.1951 14.6683L21.0195 13.7232C20.6919 12.3622 19.9862 11.247 18.9024 10.3774C17.8187 9.50793 16.5585 9.07317 15.122 9.07317C13.4585 9.07317 12.0346 9.66545 10.85 10.85C9.66545 12.0346 9.07317 13.4585 9.07317 15.122C9.07317 16.5585 9.50793 17.8187 10.3774 18.9024C11.247 19.9862 12.3622 20.6919 13.7232 21.0195L14.6683 24.1951ZM16.4829 30.1683C16.2561 30.2187 16.0293 30.2439 15.8024 30.2439H15.122C13.0301 30.2439 11.0642 29.847 9.22439 29.053C7.38455 28.2591 5.78415 27.1817 4.42317 25.8207C3.0622 24.4598 1.98476 22.8594 1.19085 21.0195C0.396951 19.1797 0 17.2138 0 15.122C0 13.0301 0.396951 11.0642 1.19085 9.22439C1.98476 7.38455 3.0622 5.78415 4.42317 4.42317C5.78415 3.0622 7.38455 1.98476 9.22439 1.19085C11.0642 0.396951 13.0301 0 15.122 0C17.2138 0 19.1797 0.396951 21.0195 1.19085C22.8594 1.98476 24.4598 3.0622 25.8207 4.42317C27.1817 5.78415 28.2591 7.38455 29.053 9.22439C29.847 11.0642 30.2439 13.0301 30.2439 15.122V15.8024C30.2439 16.0293 30.2187 16.2561 30.1683 16.4829L27.2195 15.5756V15.122C27.2195 11.7447 26.0476 8.88415 23.7037 6.54024C21.3598 4.19634 18.4992 3.02439 15.122 3.02439C11.7447 3.02439 8.88415 4.19634 6.54024 6.54024C4.19634 8.88415 3.02439 11.7447 3.02439 15.122C3.02439 18.4992 4.19634 21.3598 6.54024 23.7037C8.88415 26.0476 11.7447 27.2195 15.122 27.2195H15.5756L16.4829 30.1683ZM28.0134 31L21.5488 24.5354L19.6585 30.2439L15.122 15.122L30.2439 19.6585L24.5354 21.5488L31 28.0134L28.0134 31Z" fill="#EB642A"/>
</svg>
