<svg width="512" height="512" viewBox="0 0 512 512" fill="none" xmlns="http://www.w3.org/2000/svg">
<path d="M256.012 511.999C229.188 511.999 202.785 507.872 177.532 499.731C127.597 483.66 84.37 453.06 52.405 411.177L48.358 408.028C45.003 405.421 43.006 401.579 42.667 397.522C36.489 388.234 30.922 378.558 26.063 368.662C25.981 368.495 25.714 367.914 25.714 367.914C21.652 359.625 17.982 350.894 14.803 341.954C14.658 341.574 14.527 341.204 14.408 340.826C4.848 313.675 0 285.132 0 255.989C0 202.91 16.031 152.194 46.414 108.989V60.277C42.827 57.563 40.507 53.257 40.507 48.411V40.183C40.507 31.969 47.166 25.31 55.38 25.31H144.925C179.718 8.51201 217.072 0.00100708 256.012 0.00100708C262.032 0.00100708 267.641 0.192007 273.146 0.587007C273.616 0.602007 274.093 0.633007 274.545 0.669007C288.28 1.62801 302.224 3.78201 315.833 7.06001C316.349 7.16201 316.859 7.28801 317.365 7.43801C334.453 11.626 351.163 17.632 367.091 25.31H390.177C398.391 25.31 405.05 31.969 405.05 40.183V47.85C406.452 48.854 407.834 49.866 409.194 50.885C451.467 82.492 482.551 125.581 499.075 175.487C500.121 178.643 501.113 181.858 502.05 185.114C504.352 186.082 506.405 187.626 507.988 189.641C510.808 193.233 511.823 197.92 510.741 202.355L508.269 212.481C510.745 226.908 511.999 241.529 511.999 255.991C511.999 312.527 493.979 365.993 459.852 410.83L458.421 416.695C457.664 419.798 455.925 422.577 453.466 424.616L444.817 431.788C443.202 433.129 441.334 434.102 439.342 434.662C405.951 468.939 364.029 493.038 317.739 504.502C297.641 509.477 276.871 511.999 256.012 511.999Z" fill="#F1F1F9"/>
<path d="M498.392 255.988C498.392 369.121 420.508 464.035 315.431 490.063L183.359 485.576C120.744 465.423 69.284 420.383 40.678 362.106C40.579 361.883 40.48 361.685 40.381 361.461C36.464 353.479 33.019 345.25 30.019 336.797C29.945 336.599 29.87 336.425 29.821 336.227C20.947 311.141 16.138 284.122 16.138 255.988C16.138 122.826 124.09 14.874 257.277 14.874C262.805 14.874 268.258 15.048 273.687 15.444C273.984 15.444 274.307 15.469 274.604 15.493C288.089 16.435 301.251 18.517 314.017 21.616C314.216 21.641 314.414 21.69 314.612 21.765C346.564 29.524 376.013 43.678 401.544 62.789L486.22 180.161C494.129 204.007 498.392 229.489 498.392 255.988Z" fill="#D4D4ED"/>
<path d="M486.221 180.161C472.364 200.363 449.113 213.6 422.763 213.6C380.301 213.6 345.87 179.169 345.87 136.707C345.87 101.582 369.394 71.985 401.544 62.789C440.636 92.014 470.555 132.84 486.221 180.161Z" fill="#43ACB5"/>
<path d="M121.849 308.977C126.114 282.697 108.268 257.936 81.9881 253.671C55.7086 249.406 30.9475 267.252 26.6825 293.532C22.4175 319.811 40.2637 344.572 66.5432 348.837C92.8226 353.102 117.584 335.256 121.849 308.977Z" fill="#454AB0"/>
<path d="M331.32 442.073C331.32 460.069 325.42 476.677 315.431 490.063C296.815 494.674 277.332 497.128 257.278 497.128C231.498 497.128 206.661 493.088 183.36 485.577C175.255 473.034 170.569 458.112 170.569 442.074C170.569 397.679 206.561 361.686 250.932 361.686C295.328 361.685 331.32 397.677 331.32 442.073Z" fill="#8F8FEF"/>
<path d="M180.691 66.118C180.539 66.118 180.386 66.062 180.265 65.949C180.016 65.714 180.006 65.322 180.241 65.073L223.277 19.505C223.398 19.376 223.58 19.311 223.752 19.311C223.931 19.318 224.098 19.402 224.209 19.541L259.651 63.421C259.866 63.687 259.825 64.078 259.559 64.292C259.288 64.507 258.901 64.465 258.688 64.2L223.69 20.872L181.141 65.924C181.02 66.052 180.856 66.118 180.691 66.118Z" fill="#17193B"/>
<path d="M387.435 45.035H62.552V288.908H387.435V45.035Z" fill="#F1F1F9"/>
<path d="M391.443 40.183H56.645V48.41H391.443V40.183Z" fill="#17193B"/>
<path d="M366.76 262.946H86.39C86.049 262.946 85.77 262.669 85.77 262.326V66.764C85.77 66.421 86.048 66.144 86.39 66.144C86.731 66.144 87.01 66.421 87.01 66.764V261.707H366.76C367.101 261.707 367.38 261.984 367.38 262.327C367.38 262.67 367.101 262.946 366.76 262.946Z" fill="#401A49"/>
<path d="M118.562 123.724H100.841V256.631H118.562V123.724Z" fill="#8ABB3F"/>
<path d="M118.561 256.617H100.21C99.869 256.617 99.59 256.34 99.59 255.997V73.726C99.59 73.383 99.868 73.106 100.21 73.106H118.561C118.902 73.106 119.181 73.383 119.181 73.726V255.997C119.181 256.34 118.902 256.617 118.561 256.617ZM100.829 255.378H117.941V74.346H100.829V255.378Z" fill="#401A49"/>
<path d="M149.785 163.596H132.064V256.631H149.785V163.596Z" fill="#454AB0"/>
<path d="M149.786 256.617H131.432C131.091 256.617 130.812 256.34 130.812 255.997V73.726C130.812 73.383 131.09 73.106 131.432 73.106H149.786C150.127 73.106 150.406 73.383 150.406 73.726V255.997C150.406 256.34 150.127 256.617 149.786 256.617ZM132.052 255.378H149.166V74.346H132.052V255.378Z" fill="#401A49"/>
<path d="M179.32 101.995H161.599V256.631H179.32V101.995Z" fill="#8ABB3F"/>
<path d="M179.319 256.617H160.965C160.624 256.617 160.345 256.34 160.345 255.997V73.726C160.345 73.383 160.623 73.106 160.965 73.106H179.319C179.66 73.106 179.939 73.383 179.939 73.726V255.997C179.938 256.34 179.66 256.617 179.319 256.617ZM161.585 255.378H178.7V74.346H161.585V255.378Z" fill="#401A49"/>
<path d="M208.854 114.653H191.133V256.631H208.854V114.653Z" fill="#454AB0"/>
<path d="M208.854 256.617H190.5C190.159 256.617 189.88 256.34 189.88 255.997V73.726C189.88 73.383 190.158 73.106 190.5 73.106H208.854C209.195 73.106 209.474 73.383 209.474 73.726V255.997C209.474 256.34 209.195 256.617 208.854 256.617ZM191.12 255.378H208.235V74.346H191.12V255.378Z" fill="#401A49"/>
<path d="M238.389 123.724H220.668V256.631H238.389V123.724Z" fill="#8ABB3F"/>
<path d="M238.389 256.617H220.035C219.694 256.617 219.415 256.34 219.415 255.997V73.726C219.415 73.383 219.693 73.106 220.035 73.106H238.389C238.73 73.106 239.009 73.383 239.009 73.726V255.997C239.009 256.34 238.73 256.617 238.389 256.617ZM220.655 255.378H237.769V74.346H220.655V255.378Z" fill="#401A49"/>
<path d="M267.924 107.48H250.203V256.631H267.924V107.48Z" fill="#454AB0"/>
<path d="M267.924 256.617H249.57C249.229 256.617 248.95 256.34 248.95 255.997V73.726C248.95 73.383 249.228 73.106 249.57 73.106H267.924C268.265 73.106 268.544 73.383 268.544 73.726V255.997C268.544 256.34 268.266 256.617 267.924 256.617ZM250.19 255.378H267.305V74.346H250.19V255.378Z" fill="#401A49"/>
<path d="M297.459 123.724H279.738V256.631H297.459V123.724Z" fill="#8ABB3F"/>
<path d="M297.459 256.617H279.105C278.764 256.617 278.485 256.34 278.485 255.997V73.726C278.485 73.383 278.763 73.106 279.105 73.106H297.459C297.8 73.106 298.079 73.383 298.079 73.726V255.997C298.079 256.34 297.801 256.617 297.459 256.617ZM279.725 255.378H296.84V74.346H279.725V255.378Z" fill="#401A49"/>
<path d="M326.994 143.344H309.273V256.631H326.994V143.344Z" fill="#454AB0"/>
<path d="M326.995 256.617H308.641C308.3 256.617 308.021 256.34 308.021 255.997V73.726C308.021 73.383 308.299 73.106 308.641 73.106H326.995C327.336 73.106 327.615 73.383 327.615 73.726V255.997C327.614 256.34 327.336 256.617 326.995 256.617ZM309.26 255.378H326.375V74.346H309.26V255.378Z" fill="#401A49"/>
<path d="M374.777 81.743H335.96V85.54H374.777V81.743Z" fill="#25285F"/>
<path d="M374.777 91.869H335.96V95.666H374.777V91.869Z" fill="#401A49"/>
<path d="M374.777 91.869H335.96V95.666H374.777V91.869Z" fill="#25285F"/>
<path d="M374.777 101.995H335.96V105.793H374.777V101.995Z" fill="#401A49"/>
<path d="M374.777 101.995H335.96V105.793H374.777V101.995Z" fill="#25285F"/>
<path d="M374.777 112.121H335.96V115.919H374.777V112.121Z" fill="#25285F"/>
<path d="M139.764 415.697L58.754 396.288H167.611L139.764 415.697Z" fill="#454AB0"/>
<path d="M139.764 415.697L197.99 198.827H497.557L445.238 413.165C445.238 413.165 139.764 416.541 139.764 415.697Z" fill="#17193B"/>
<path d="M361.667 309.519C362.453 295.325 351.585 283.182 337.392 282.396C323.199 281.61 311.057 292.479 310.271 306.672C309.484 320.865 320.353 333.009 334.546 333.795C348.738 334.581 360.881 323.712 361.667 309.519Z" fill="#F1F1F9"/>
<path d="M58.754 396.288L70.146 405.149L138.498 423.503L436.589 420.338L445.238 413.166L139.764 415.697L58.754 396.288Z" fill="#17193B"/>
<path d="M85.944 376.88H215.103C221.703 376.88 227.103 371.48 227.103 364.88V322.426C227.103 315.826 221.703 310.426 215.103 310.426H85.944C79.344 310.426 73.944 315.826 73.944 322.426V364.88C73.944 371.48 79.344 376.88 85.944 376.88Z" fill="#F1F1F9"/>
<path d="M183.433 372.449L179.003 397.132L161.915 371.184L183.433 372.449Z" fill="#F1F1F9"/>
<path d="M178.37 350.932C181.865 350.932 184.699 348.098 184.699 344.603C184.699 341.108 181.865 338.274 178.37 338.274C174.875 338.274 172.041 341.108 172.041 344.603C172.041 348.098 174.875 350.932 178.37 350.932Z" fill="#43ACB5"/>
<path d="M149.257 350.932C152.752 350.932 155.586 348.098 155.586 344.603C155.586 341.108 152.752 338.274 149.257 338.274C145.762 338.274 142.928 341.108 142.928 344.603C142.928 348.098 145.762 350.932 149.257 350.932Z" fill="#43ACB5"/>
<path d="M113.815 344.603C113.815 348.098 116.649 350.932 120.144 350.932C123.639 350.932 126.473 348.099 126.473 344.603C126.473 341.108 123.639 338.274 120.144 338.274C116.649 338.274 113.815 341.107 113.815 344.603Z" fill="#43ACB5"/>
<path d="M483.475 275.152C489.259 250.66 474.092 226.117 449.6 220.334C425.108 214.551 400.565 229.717 394.782 254.209C388.999 278.701 404.165 303.244 428.657 309.028C453.149 314.811 477.692 299.644 483.475 275.152Z" fill="#454AB0"/>
<path d="M464.002 262.194V285.097H418.178V262.194C418.178 249.537 428.443 239.272 441.1 239.272C447.429 239.272 453.14 241.838 457.288 245.987C461.436 250.135 464.002 255.865 464.002 262.194Z" fill="#FCC614"/>
<path d="M418.177 284.17C418.37 284.17 418.582 284.151 418.852 284.17L418.177 284.189L417.56 284.228C417.56 284.209 417.772 284.19 418.177 284.17Z" fill="#401A49"/>
<path d="M464.002 281.952V284.943C457.944 284.808 425.741 284.075 418.853 284.171L464.002 281.952Z" fill="#25285F"/>
<path d="M467.447 287.801H412.765C411.813 287.801 411.041 287.029 411.041 286.077C411.041 285.125 411.813 284.353 412.765 284.353H467.447C468.399 284.353 469.171 285.125 469.171 286.077C469.171 287.029 468.399 287.801 467.447 287.801Z" fill="#FCC614"/>
<path d="M446.756 290.264C446.756 293.257 444.33 295.683 441.337 295.683C438.344 295.683 435.918 293.257 435.918 290.264C435.918 287.271 438.344 284.845 441.337 284.845C444.33 284.845 446.756 287.271 446.756 290.264Z" fill="#FCC614"/>
<path d="M443.185 242.11H438.382V235.891C438.382 234.565 439.457 233.49 440.783 233.49C442.109 233.49 443.184 234.565 443.184 235.891V242.11H443.185Z" fill="#FCC614"/>
<path d="M220.069 459.581C222 447.686 213.922 436.478 202.027 434.548C190.132 432.617 178.925 440.695 176.994 452.59C175.064 464.485 183.142 475.692 195.036 477.623C206.931 479.553 218.139 471.476 220.069 459.581Z" fill="#FCC614"/>
<path d="M198.522 476.316C187.363 476.316 178.286 467.238 178.286 456.08C178.286 444.922 187.364 435.844 198.522 435.844C209.68 435.844 218.759 444.922 218.759 456.08C218.758 467.238 209.68 476.316 198.522 476.316ZM198.522 436.181C187.55 436.181 178.623 445.107 178.623 456.08C178.623 467.053 187.55 475.979 198.522 475.979C209.494 475.979 218.421 467.053 218.421 456.08C218.421 445.107 209.494 436.181 198.522 436.181Z" fill="#FFF5EE"/>
<path d="M200.031 464.434V466.575H198.912V464.458C196.295 464.338 194.342 463.124 193.604 461.078L194.699 460.459C195.247 462.126 196.699 463.125 198.912 463.243V456.175C196.484 455.319 194.39 454.437 194.39 451.605C194.39 449.129 196.389 447.463 198.912 447.297V445.154H200.031V447.297C201.911 447.51 203.506 448.511 204.244 450.295L203.173 450.891C202.626 449.534 201.554 448.725 200.031 448.535V455.295C202.459 456.151 204.648 457.103 204.648 459.936C204.648 462.434 202.744 464.172 200.031 464.434ZM198.912 454.89V448.511C196.961 448.677 195.651 449.939 195.651 451.605C195.652 453.485 197.032 454.199 198.912 454.89ZM203.363 459.935C203.363 458.031 201.982 457.245 200.031 456.555V463.195C202.173 462.958 203.363 461.648 203.363 459.935Z" fill="white"/>
<path d="M272.28 459.58C274.211 447.685 266.133 436.478 254.238 434.547C242.343 432.617 231.136 440.694 229.205 452.589C227.275 464.484 235.352 475.692 247.247 477.622C259.142 479.553 270.35 471.475 272.28 459.58Z" fill="#FCC614"/>
<path d="M250.732 476.316C239.574 476.316 230.496 467.238 230.496 456.08C230.496 444.922 239.574 435.844 250.732 435.844C261.89 435.844 270.968 444.922 270.968 456.08C270.968 467.238 261.89 476.316 250.732 476.316ZM250.732 436.181C239.76 436.181 230.833 445.107 230.833 456.08C230.833 467.053 239.76 475.979 250.732 475.979C261.704 475.979 270.631 467.053 270.631 456.08C270.631 445.107 261.704 436.181 250.732 436.181Z" fill="#FFF5EE"/>
<path d="M252.241 464.434V466.575H251.122V464.458C248.504 464.338 246.552 463.124 245.814 461.078L246.909 460.459C247.457 462.126 248.909 463.125 251.122 463.243V456.175C248.694 455.319 246.6 454.437 246.6 451.605C246.6 449.129 248.599 447.463 251.122 447.297V445.154H252.241V447.297C254.121 447.51 255.716 448.511 256.454 450.295L255.383 450.891C254.835 449.534 253.764 448.725 252.241 448.535V455.295C254.669 456.151 256.858 457.103 256.858 459.936C256.858 462.434 254.954 464.172 252.241 464.434ZM251.122 454.89V448.511C249.17 448.677 247.861 449.939 247.861 451.605C247.862 453.485 249.242 454.199 251.122 454.89ZM255.574 459.935C255.574 458.031 254.193 457.245 252.241 456.555V463.195C254.383 462.958 255.574 461.648 255.574 459.935Z" fill="white"/>
<path d="M326.319 456.079C326.319 468.129 316.55 477.898 304.5 477.898C292.449 477.898 282.681 468.129 282.681 456.079C282.681 444.029 292.45 434.26 304.5 434.26C316.55 434.26 326.319 444.029 326.319 456.079Z" fill="#FCC614"/>
<path d="M304.5 476.316C293.342 476.316 284.264 467.238 284.264 456.08C284.264 444.922 293.342 435.844 304.5 435.844C315.658 435.844 324.737 444.922 324.737 456.08C324.737 467.238 315.658 476.316 304.5 476.316ZM304.5 436.181C293.528 436.181 284.601 445.107 284.601 456.08C284.601 467.053 293.528 475.979 304.5 475.979C315.473 475.979 324.399 467.053 324.399 456.08C324.399 445.107 315.473 436.181 304.5 436.181Z" fill="#FFF5EE"/>
<path d="M306.009 464.434V466.575H304.89V464.458C302.273 464.338 300.32 463.124 299.582 461.078L300.677 460.459C301.225 462.126 302.677 463.125 304.89 463.243V456.175C302.462 455.319 300.368 454.437 300.368 451.605C300.368 449.129 302.367 447.463 304.89 447.297V445.154H306.009V447.297C307.889 447.51 309.484 448.511 310.222 450.295L309.151 450.891C308.604 449.534 307.532 448.725 306.009 448.535V455.295C308.437 456.151 310.626 457.103 310.626 459.936C310.627 462.434 308.723 464.172 306.009 464.434ZM304.891 454.89V448.511C302.939 448.677 301.63 449.939 301.63 451.605C301.63 453.485 303.01 454.199 304.891 454.89ZM309.342 459.935C309.342 458.031 307.961 457.245 306.01 456.555V463.195C308.151 462.958 309.342 461.648 309.342 459.935Z" fill="white"/>
<path d="M387.014 455.344H338.28C337.939 455.344 337.66 455.066 337.66 454.724C337.66 454.383 337.938 454.104 338.28 454.104H386.394V365.486C386.394 365.145 386.672 364.866 387.014 364.866C387.355 364.866 387.634 365.144 387.634 365.486V454.723C387.634 455.065 387.355 455.344 387.014 455.344Z" fill="#F1F1F9"/>
<path d="M389.455 362.867C390.978 364.39 390.978 366.861 389.455 368.384C387.932 369.907 385.461 369.907 383.938 368.384C382.415 366.861 382.415 364.39 383.938 362.867C385.461 361.343 387.931 361.343 389.455 362.867Z" fill="#F1F1F9"/>
<path d="M339.668 451.26C341.191 452.784 341.191 455.254 339.668 456.777C338.145 458.3 335.674 458.3 334.151 456.777C332.628 455.254 332.628 452.783 334.151 451.26C335.674 449.737 338.144 449.737 339.668 451.26Z" fill="#F1F1F9"/>
<path d="M428.488 181.09C428.411 181.09 428.338 181.06 428.285 181.005L413.277 165.997L398.59 180.682C398.479 180.793 398.295 180.793 398.183 180.682C398.069 180.569 398.069 180.386 398.183 180.273L413.073 165.383C413.18 165.274 413.373 165.274 413.48 165.383L428.469 180.372L456.426 146.63C456.533 146.506 456.712 146.491 456.833 146.591C456.956 146.693 456.973 146.875 456.872 146.998L428.712 180.985C428.659 181.048 428.584 181.086 428.504 181.089C428.498 181.09 428.493 181.09 428.488 181.09Z" fill="white"/>
<path d="M455.155 153.02C455.131 153.02 455.107 153.016 455.082 153.01C454.927 152.97 454.835 152.813 454.874 152.658L456.38 146.825L450.667 150.444C450.532 150.526 450.355 150.488 450.268 150.354C450.183 150.218 450.222 150.041 450.358 149.955L456.688 145.946C456.79 145.883 456.915 145.889 457.012 145.957C457.109 146.027 457.152 146.148 457.123 146.263L455.436 152.802C455.402 152.933 455.283 153.02 455.155 153.02Z" fill="white"/>
<path d="M158.997 457.089C151.878 457.089 146.085 451.296 146.085 444.177C146.085 437.058 151.878 431.265 158.997 431.265C166.116 431.265 171.907 437.058 171.907 444.177C171.907 451.296 166.116 457.089 158.997 457.089ZM158.997 431.841C152.195 431.841 146.661 437.375 146.661 444.177C146.661 450.979 152.195 456.513 158.997 456.513C165.797 456.513 171.331 450.979 171.331 444.177C171.33 437.375 165.797 431.841 158.997 431.841Z" fill="white"/>
<path d="M417.425 134.317C410.306 134.317 404.513 128.524 404.513 121.404C404.513 114.284 410.306 108.491 417.425 108.491C424.544 108.491 430.337 114.284 430.337 121.404C430.337 128.524 424.545 134.317 417.425 134.317ZM417.425 109.069C410.623 109.069 405.089 114.603 405.089 121.404C405.089 128.205 410.623 133.739 417.425 133.739C424.227 133.739 429.761 128.205 429.761 121.404C429.761 114.602 424.228 109.069 417.425 109.069Z" fill="white"/>
<path d="M34.308 220.516C27.194 220.516 21.394 226.317 21.394 233.431C21.394 240.545 27.194 246.345 34.308 246.345C41.447 246.345 47.223 240.545 47.223 233.431C47.223 226.317 41.447 220.516 34.308 220.516ZM34.308 245.75C27.516 245.75 21.988 240.222 21.988 233.431C21.988 226.614 27.516 221.086 34.308 221.086C41.125 221.086 46.653 226.614 46.653 233.431C46.653 240.223 41.125 245.75 34.308 245.75Z" fill="white"/>
<path d="M65.046 312.678C64.699 312.43 64.278 312.108 37.135 331.096C34.656 332.831 32.202 334.541 29.822 336.227C29.872 336.425 29.946 336.599 30.02 336.797C45.86 325.642 61.353 314.934 64.376 313.373C62.517 317.389 49.85 342.648 40.381 361.462C40.48 361.685 40.579 361.884 40.678 362.107C50.817 342.004 64.747 314.266 65.144 313.052C65.194 312.927 65.145 312.753 65.046 312.678Z" fill="white"/>
<path d="M314.613 21.765C314.415 21.691 314.217 21.641 314.018 21.616L314.266 25.83C290.246 29.003 254.874 33.415 249.718 33.415H249.619C251.924 31.655 262.633 24.02 274.605 15.493C274.308 15.469 273.985 15.444 273.688 15.444C260.749 24.616 249.396 32.746 248.776 33.341C248.702 33.416 248.652 33.614 248.702 33.713C248.752 33.837 248.826 33.961 249.842 33.961C252.123 33.961 259.237 33.341 281.992 30.54C298.154 28.532 314.44 26.4 314.613 26.376C314.762 26.351 314.861 26.227 314.861 26.078L314.613 21.765Z" fill="white"/>
</svg>
