<svg width="512" height="512" viewBox="0 0 512 512" fill="none" xmlns="http://www.w3.org/2000/svg">
<path d="M256.001 511.999C238.641 511.9 223.321 510.366 206.442 507.081C194.227 504.664 182.084 501.302 170.318 497.081C83.6675 466.796 17.2704 386.805 3.83933 295.942C-29.772 89.488 192.382 -68.9236 376.869 30.4364L376.618 30.3203C571.238 132.894 551.03 422.01 343.841 496.691C330.594 501.524 316.791 505.267 302.806 507.818C287.486 510.615 271.785 512.053 256.001 511.999Z" fill="#F1F1F9"/>
<path d="M495.978 256.192C495.086 463.247 250.156 571.265 96.8134 432.305C96.7844 432.305 96.7844 432.305 96.7844 432.305C-0.831514 345.794 -6.9502 186.752 83.7025 93.0191C167.507 1.12068 317.668 -7.57656 411.46 74.1278H411.489C464.59 118.566 496.388 186.85 495.978 256.192Z" fill="#D4D4ED"/>
<g opacity="0.47">
<path d="M98.2293 432.305L99.1539 434.442C98.7206 434.096 98.3163 433.72 97.9121 433.316L97.6229 432.651L97.3338 431.987L81.7063 395.62L81.4171 394.926L65.8477 358.676L65.5876 358.011L50.0472 321.875L49.758 321.211L34.3067 285.192L34.0175 284.528L19.1706 249.923L18.6222 248.681V248.652L18.3331 247.988C18.5352 247.844 18.7373 247.699 18.9685 247.583L19.2286 248.248H19.2576L34.6539 284.124L34.9431 284.817L50.3964 320.808L50.6856 321.472L66.197 357.637L66.4861 358.301L82.0555 394.552L82.3447 395.246L97.9691 431.641L98.2293 432.305Z" fill="#454AB0"/>
<path d="M149.76 449.231L160.419 474.043C160.101 473.899 159.783 473.783 159.465 473.639L149.124 449.577L148.835 448.913L133.092 412.2L132.803 411.535L117.09 374.909L116.8 374.245L101.116 337.705L100.827 337.04L85.1714 300.558L84.8822 299.894L69.2578 263.499L68.9686 262.835L53.3992 226.584L53.1101 225.89L45.3114 207.721C42.7408 201.742 40.1703 195.763 37.5987 189.754C37.5116 189.552 37.3966 189.321 37.3095 189.09C35.6635 185.278 34.0165 181.435 32.3705 177.623C32.4576 177.277 32.5727 176.93 32.7168 176.613C34.4498 180.656 36.2119 184.7 37.9159 188.716C38.032 188.947 38.118 189.149 38.2051 189.38C40.8046 195.417 43.4042 201.426 45.9748 207.433L53.7444 225.515L54.0336 226.208L69.603 262.459L69.8922 263.124L85.4906 299.52L85.7798 300.184L101.464 336.666L101.724 337.331L117.438 373.9L117.727 374.564L133.441 411.19L133.701 411.826V411.855L149.472 448.568L149.76 449.231Z" fill="#454AB0"/>
<path d="M149.76 449.231L160.419 474.043C160.101 473.899 159.783 473.783 159.465 473.639L149.124 449.577L148.835 448.913L133.092 412.2L132.803 411.535L117.09 374.909L116.8 374.245L101.116 337.705L100.827 337.04L85.1714 300.558L84.8822 299.894L69.2578 263.499L68.9686 262.835L53.3992 226.584L53.1101 225.89L45.3114 207.721C42.7408 201.742 40.1703 195.763 37.5987 189.754C37.5116 189.552 37.3966 189.321 37.3095 189.09C35.6635 185.278 34.0165 181.435 32.3705 177.623C32.4576 177.277 32.5727 176.93 32.7168 176.613C34.4498 180.656 36.2119 184.7 37.9159 188.716C38.032 188.947 38.118 189.149 38.2051 189.38C40.8046 195.417 43.4042 201.426 45.9748 207.433L53.7444 225.515L54.0336 226.208L69.603 262.459L69.8922 263.124L85.4906 299.52L85.7798 300.184L101.464 336.666L101.724 337.331L117.438 373.9L117.727 374.564L133.441 411.19L133.701 411.826V411.855L149.472 448.568L149.76 449.231Z" fill="#454AB0"/>
<path d="M201.668 467.025L211.604 490.22C211.315 490.191 211.055 490.133 210.766 490.076L201.032 467.372L200.743 466.708L184.914 429.85L184.624 429.186L168.796 392.329L168.536 391.693L152.735 354.864L152.446 354.229L136.674 317.458L136.385 316.793L120.643 280.109V280.08L120.354 279.474L104.611 242.819L104.351 242.154L89.5621 207.723C89.2439 207.001 88.9557 206.338 88.6375 205.615V205.586C88.5504 205.355 88.4634 205.153 88.3483 204.922C83.1782 192.818 77.95 180.658 72.6639 168.497C72.5478 168.266 72.4617 168.034 72.3467 167.803C67.1185 155.729 61.8033 143.655 56.402 131.61C56.315 131.408 56.2289 131.206 56.1129 130.975C55.9107 130.513 55.7086 130.05 55.4775 129.56C55.6216 129.3 55.7667 129.04 55.9398 128.809C56.1999 129.386 56.4891 129.993 56.7482 130.6C56.8353 130.802 56.9213 131.004 57.0374 131.235C62.4387 143.28 67.7539 155.383 72.982 167.457C73.0981 167.688 73.1842 167.919 73.2712 168.121C78.5574 180.282 83.7856 192.443 88.9847 204.545C89.0998 204.777 89.1868 205.008 89.2739 205.239C89.5921 205.961 89.9093 206.712 90.2274 207.434L104.958 241.779L105.248 242.443L120.99 279.098L121.25 279.734L137.022 316.418L137.311 317.111L153.082 353.883L153.372 354.518L169.172 391.346L169.432 391.982L185.262 428.839L185.551 429.503L201.381 466.36L201.668 467.025Z" fill="#454AB0"/>
<path d="M201.668 467.025L211.604 490.22C211.315 490.191 211.055 490.133 210.766 490.076L201.032 467.372L200.743 466.708L184.914 429.85L184.624 429.186L168.796 392.329L168.536 391.693L152.735 354.864L152.446 354.229L136.674 317.458L136.385 316.793L120.643 280.109V280.08L120.354 279.474L104.611 242.819L104.351 242.154L89.5621 207.723C89.2439 207.001 88.9557 206.338 88.6375 205.615V205.586C88.5504 205.355 88.4634 205.153 88.3483 204.922C83.1782 192.818 77.95 180.658 72.6639 168.497C72.5478 168.266 72.4617 168.034 72.3467 167.803C67.1185 155.729 61.8033 143.655 56.402 131.61C56.315 131.408 56.2289 131.206 56.1129 130.975C55.9107 130.513 55.7086 130.05 55.4775 129.56C55.6216 129.3 55.7667 129.04 55.9398 128.809C56.1999 129.386 56.4891 129.993 56.7482 130.6C56.8353 130.802 56.9213 131.004 57.0374 131.235C62.4387 143.28 67.7539 155.383 72.982 167.457C73.0981 167.688 73.1842 167.919 73.2712 168.121C78.5574 180.282 83.7856 192.443 88.9847 204.545C89.0998 204.777 89.1868 205.008 89.2739 205.239C89.5921 205.961 89.9093 206.712 90.2274 207.434L104.958 241.779L105.248 242.443L120.99 279.098L121.25 279.734L137.022 316.418L137.311 317.111L153.082 353.883L153.372 354.518L169.172 391.346L169.432 391.982L185.262 428.839L185.551 429.503L201.381 466.36L201.668 467.025Z" fill="#454AB0"/>
<path d="M253.632 484.992L257.763 494.669H256.983L252.997 485.339L252.708 484.675L236.878 447.816L236.589 447.152L220.788 410.295L220.499 409.63L204.641 372.744L204.38 372.08L188.551 335.251L188.262 334.587L172.461 297.73L172.143 297.065V297.036L156.342 260.237L156.082 259.573L140.282 222.773L139.992 222.109L133.811 207.724C130.634 200.272 127.427 192.819 124.192 185.339C124.105 185.137 124.019 184.906 123.903 184.675C118.675 172.514 113.36 160.296 107.987 148.105C107.901 147.874 107.785 147.672 107.698 147.441C102.355 135.31 96.9235 123.206 91.3491 111.161C91.2631 110.93 91.176 110.699 91.06 110.497C88.4604 104.835 85.8318 99.2029 83.1742 93.5695C83.3183 93.3964 83.4924 93.1943 83.6945 93.0212C86.4101 98.7116 89.0667 104.431 91.6953 110.151C91.8114 110.353 91.8975 110.555 91.9845 110.786C97.5589 122.86 102.99 134.962 108.333 147.095C108.449 147.326 108.535 147.557 108.623 147.759C113.995 159.949 119.31 172.167 124.538 184.328C124.654 184.559 124.74 184.791 124.827 184.993C128.062 192.503 131.269 199.985 134.475 207.436L140.628 221.763L140.917 222.427L156.717 259.227L156.977 259.891L172.806 296.69L173.095 297.384L188.895 334.241L189.184 334.905L205.014 371.733L205.274 372.398L221.131 409.284L221.392 409.948L237.22 446.806L237.509 447.47L253.338 484.327L253.632 484.992Z" fill="#454AB0"/>
<path d="M253.632 484.992L257.763 494.669H256.983L252.997 485.339L252.708 484.675L236.878 447.816L236.589 447.152L220.788 410.295L220.499 409.63L204.641 372.744L204.38 372.08L188.551 335.251L188.262 334.587L172.461 297.73L172.143 297.065V297.036L156.342 260.237L156.082 259.573L140.282 222.773L139.992 222.109L133.811 207.724C130.634 200.272 127.427 192.819 124.192 185.339C124.105 185.137 124.019 184.906 123.903 184.675C118.675 172.514 113.36 160.296 107.987 148.105C107.901 147.874 107.785 147.672 107.698 147.441C102.355 135.31 96.9235 123.206 91.3491 111.161C91.2631 110.93 91.176 110.699 91.06 110.497C88.4604 104.835 85.8318 99.2029 83.1742 93.5695C83.3183 93.3964 83.4924 93.1943 83.6945 93.0212C86.4101 98.7116 89.0667 104.431 91.6953 110.151C91.8114 110.353 91.8975 110.555 91.9845 110.786C97.5589 122.86 102.99 134.962 108.333 147.095C108.449 147.326 108.535 147.557 108.623 147.759C113.995 159.949 119.31 172.167 124.538 184.328C124.654 184.559 124.74 184.791 124.827 184.993C128.062 192.503 131.269 199.985 134.475 207.436L140.628 221.763L140.917 222.427L156.717 259.227L156.977 259.891L172.806 296.69L173.095 297.384L188.895 334.241L189.184 334.905L205.014 371.733L205.274 372.398L221.131 409.284L221.392 409.948L237.22 446.806L237.509 447.47L253.338 484.327L253.632 484.992Z" fill="#454AB0"/>
<path d="M289.479 465.465L300.368 490.826C300.137 490.884 299.906 490.913 299.646 490.942L288.842 465.812L288.582 465.148L272.754 428.291L272.464 427.626L256.636 390.769L256.347 390.104L240.517 353.218L240.228 352.554L224.427 315.697L224.138 315.032L208.309 278.174L208.02 277.51L192.191 240.623L191.931 239.988L178.065 207.723C177.401 206.192 176.766 204.662 176.072 203.131C176.014 202.928 175.899 202.697 175.783 202.466C170.555 190.248 165.269 177.942 159.897 165.667C159.809 165.436 159.723 165.205 159.607 165.003C154.321 152.784 148.949 140.566 143.461 128.376C143.374 128.174 143.258 127.943 143.171 127.712C137.683 115.581 132.138 103.448 126.418 91.4322C126.332 91.2301 126.216 90.9989 126.101 90.7968C122.144 82.4198 118.1 74.0717 113.998 65.7817C114.171 65.6376 114.373 65.4925 114.575 65.3484C118.706 73.6675 122.778 82.0445 126.735 90.4496C126.852 90.6517 126.967 90.8538 127.054 91.085C132.773 103.101 138.318 115.205 143.807 127.365C143.893 127.567 143.98 127.798 144.096 128.029C149.584 140.19 154.957 152.409 160.243 164.627C160.358 164.859 160.474 165.061 160.561 165.292C165.905 177.597 171.19 189.845 176.447 202.092V202.121C176.535 202.352 176.65 202.583 176.737 202.785C177.401 204.345 178.065 205.876 178.73 207.436L192.566 239.644L192.826 240.279L208.656 277.165L208.945 277.83L224.775 314.687L225.064 315.351L240.863 352.209L241.153 352.873L256.981 389.759L257.27 390.424L273.1 427.281L273.389 427.945L289.19 464.803L289.479 465.465Z" fill="#454AB0"/>
<path d="M289.479 465.465L300.368 490.826C300.137 490.884 299.906 490.913 299.646 490.942L288.842 465.812L288.582 465.148L272.754 428.291L272.464 427.626L256.636 390.769L256.347 390.104L240.517 353.218L240.228 352.554L224.427 315.697L224.138 315.032L208.309 278.174L208.02 277.51L192.191 240.623L191.931 239.988L178.065 207.723C177.401 206.192 176.766 204.662 176.072 203.131C176.014 202.928 175.899 202.697 175.783 202.466C170.555 190.248 165.269 177.942 159.897 165.667C159.809 165.436 159.723 165.205 159.607 165.003C154.321 152.784 148.949 140.566 143.461 128.376C143.374 128.174 143.258 127.943 143.171 127.712C137.683 115.581 132.138 103.448 126.418 91.4322C126.332 91.2301 126.216 90.9989 126.101 90.7968C122.144 82.4198 118.1 74.0717 113.998 65.7817C114.171 65.6376 114.373 65.4925 114.575 65.3484C118.706 73.6675 122.778 82.0445 126.735 90.4496C126.852 90.6517 126.967 90.8538 127.054 91.085C132.773 103.101 138.318 115.205 143.807 127.365C143.893 127.567 143.98 127.798 144.096 128.029C149.584 140.19 154.957 152.409 160.243 164.627C160.358 164.859 160.474 165.061 160.561 165.292C165.905 177.597 171.19 189.845 176.447 202.092V202.121C176.535 202.352 176.65 202.583 176.737 202.785C177.401 204.345 178.065 205.876 178.73 207.436L192.566 239.644L192.826 240.279L208.656 277.165L208.945 277.83L224.775 314.687L225.064 315.351L240.863 352.209L241.153 352.873L256.981 389.759L257.27 390.424L273.1 427.281L273.389 427.945L289.19 464.803L289.479 465.465Z" fill="#454AB0"/>
<path d="M325.353 445.938L339.998 480.023C339.767 480.11 339.536 480.196 339.305 480.254L324.718 446.284L324.429 445.62L308.629 408.763L308.34 408.098L292.511 371.241L292.221 370.548L276.392 333.69L276.103 333.026L260.274 296.169L259.985 295.504L244.184 258.647L243.895 257.983L228.066 221.096L227.776 220.461L222.317 207.722C218.88 199.693 215.414 191.663 211.919 183.603C211.861 183.372 211.746 183.17 211.63 182.938C206.373 170.691 201.058 158.415 195.656 146.167C195.54 145.936 195.454 145.734 195.367 145.503C189.966 133.314 184.477 121.123 178.874 109.021C178.787 108.79 178.701 108.588 178.556 108.356C172.98 96.2241 167.291 84.1789 161.426 72.2206C161.311 71.9895 161.195 71.7584 161.08 71.5562C156.661 62.4868 152.126 53.5033 147.504 44.606C147.706 44.4899 147.908 44.3748 148.139 44.2598C152.761 53.1852 157.296 62.1686 161.716 71.21C161.831 71.4122 161.947 71.6433 162.062 71.8744C167.925 83.8326 173.645 95.8779 179.219 108.01C179.335 108.212 179.421 108.414 179.508 108.646C185.112 120.778 190.6 132.966 195.973 145.157C196.089 145.388 196.175 145.619 196.262 145.821C201.693 158.068 207.008 170.344 212.294 182.563C212.381 182.794 212.496 183.026 212.554 183.257C216.078 191.345 219.545 199.403 222.982 207.433L228.412 220.114L228.701 220.749L244.53 257.636L244.819 258.3L260.647 295.157L260.907 295.822L276.737 332.679L277.026 333.343L292.855 370.2L293.144 370.894L308.973 407.751L309.262 408.416L325.062 445.273L325.353 445.938Z" fill="#454AB0"/>
<path d="M325.353 445.938L339.998 480.023C339.767 480.11 339.536 480.196 339.305 480.254L324.718 446.284L324.429 445.62L308.629 408.763L308.34 408.098L292.511 371.241L292.221 370.548L276.392 333.69L276.103 333.026L260.274 296.169L259.985 295.504L244.184 258.647L243.895 257.983L228.066 221.096L227.776 220.461L222.317 207.722C218.88 199.693 215.414 191.663 211.919 183.603C211.861 183.372 211.746 183.17 211.63 182.938C206.373 170.691 201.058 158.415 195.656 146.167C195.54 145.936 195.454 145.734 195.367 145.503C189.966 133.314 184.477 121.123 178.874 109.021C178.787 108.79 178.701 108.588 178.556 108.356C172.98 96.2241 167.291 84.1789 161.426 72.2206C161.311 71.9895 161.195 71.7584 161.08 71.5562C156.661 62.4868 152.126 53.5033 147.504 44.606C147.706 44.4899 147.908 44.3748 148.139 44.2598C152.761 53.1852 157.296 62.1686 161.716 71.21C161.831 71.4122 161.947 71.6433 162.062 71.8744C167.925 83.8326 173.645 95.8779 179.219 108.01C179.335 108.212 179.421 108.414 179.508 108.646C185.112 120.778 190.6 132.966 195.973 145.157C196.089 145.388 196.175 145.619 196.262 145.821C201.693 158.068 207.008 170.344 212.294 182.563C212.381 182.794 212.496 183.026 212.554 183.257C216.078 191.345 219.545 199.403 222.982 207.433L228.412 220.114L228.701 220.749L244.53 257.636L244.819 258.3L260.647 295.157L260.907 295.822L276.737 332.679L277.026 333.343L292.855 370.2L293.144 370.894L308.973 407.751L309.262 408.416L325.062 445.273L325.353 445.938Z" fill="#454AB0"/>
<path d="M377.03 463.27L376.423 463.588L376.192 463.097L360.594 426.73L360.304 426.065L344.475 389.237L344.186 388.573L328.385 351.686L328.096 351.022L312.266 314.165L311.977 313.5L296.148 276.643L295.859 275.979L280.058 239.121L279.769 238.457L266.568 207.723C265.701 205.672 264.806 203.622 263.91 201.571C263.823 201.369 263.737 201.166 263.65 200.935C258.393 188.688 253.107 176.412 247.735 164.107C247.648 163.876 247.561 163.645 247.445 163.443C242.13 151.195 236.729 138.977 231.241 126.788C231.153 126.556 231.038 126.354 230.951 126.123C225.463 113.963 219.889 101.86 214.14 89.8143C214.054 89.5831 213.967 89.381 213.822 89.1498C208.103 77.1046 202.239 65.1173 196.202 53.2742C196.115 53.0721 196 52.8409 195.884 52.6098C191.898 44.8111 187.854 37.0984 183.724 29.4148C183.955 29.2987 184.186 29.2417 184.417 29.1837C188.519 36.8093 192.563 44.5219 196.52 52.2626C196.635 52.4937 196.751 52.7249 196.838 52.927C202.874 64.7701 208.738 76.7284 214.457 88.8026C214.572 89.0048 214.689 89.2359 214.775 89.467C220.494 101.512 226.097 113.615 231.557 125.804C231.672 126.006 231.759 126.208 231.846 126.439V126.468C237.363 138.658 242.764 150.847 248.08 163.065C248.167 163.297 248.282 163.499 248.369 163.73C253.713 176.035 259.027 188.34 264.255 200.587C264.371 200.818 264.458 201.02 264.545 201.222C265.44 203.303 266.307 205.353 267.202 207.433L280.374 238.11L280.663 238.774L296.463 275.631L296.752 276.296L312.582 313.153L312.871 313.817L328.699 350.704L328.989 351.368L344.818 388.225L345.107 388.89L360.908 425.747L361.197 426.411L376.795 462.72L377.03 463.27Z" fill="#454AB0"/>
<path d="M377.03 463.27L376.423 463.588L376.192 463.097L360.594 426.73L360.304 426.065L344.475 389.237L344.186 388.573L328.385 351.686L328.096 351.022L312.266 314.165L311.977 313.5L296.148 276.643L295.859 275.979L280.058 239.121L279.769 238.457L266.568 207.723C265.701 205.672 264.806 203.622 263.91 201.571C263.823 201.369 263.737 201.166 263.65 200.935C258.393 188.688 253.107 176.412 247.735 164.107C247.648 163.876 247.561 163.645 247.445 163.443C242.13 151.195 236.729 138.977 231.241 126.788C231.153 126.556 231.038 126.354 230.951 126.123C225.463 113.963 219.889 101.86 214.14 89.8143C214.054 89.5831 213.967 89.381 213.822 89.1498C208.103 77.1046 202.239 65.1173 196.202 53.2742C196.115 53.0721 196 52.8409 195.884 52.6098C191.898 44.8111 187.854 37.0984 183.724 29.4148C183.955 29.2987 184.186 29.2417 184.417 29.1837C188.519 36.8093 192.563 44.5219 196.52 52.2626C196.635 52.4937 196.751 52.7249 196.838 52.927C202.874 64.7701 208.738 76.7284 214.457 88.8026C214.572 89.0048 214.689 89.2359 214.775 89.467C220.494 101.512 226.097 113.615 231.557 125.804C231.672 126.006 231.759 126.208 231.846 126.439V126.468C237.363 138.658 242.764 150.847 248.08 163.065C248.167 163.297 248.282 163.499 248.369 163.73C253.713 176.035 259.027 188.34 264.255 200.587C264.371 200.818 264.458 201.02 264.545 201.222C265.44 203.303 266.307 205.353 267.202 207.433L280.374 238.11L280.663 238.774L296.463 275.631L296.752 276.296L312.582 313.153L312.871 313.817L328.699 350.704L328.989 351.368L344.818 388.225L345.107 388.89L360.908 425.747L361.197 426.411L376.795 462.72L377.03 463.27Z" fill="#454AB0"/>
<path d="M397.076 406.886L410.796 438.862C410.623 439.035 410.421 439.208 410.218 439.353L396.439 407.233L396.15 406.568L380.322 369.711L380.032 369.047L364.203 332.19V332.161L363.943 331.496L348.113 294.639L347.824 293.974L331.994 257.117L331.705 256.453L315.876 219.596L315.615 218.931L310.792 207.723C307.123 199.202 303.455 190.652 299.729 182.074C299.671 181.843 299.556 181.641 299.469 181.41C294.183 169.162 288.867 156.886 283.437 144.638C283.351 144.407 283.235 144.205 283.148 143.974C277.747 131.785 272.287 119.595 266.655 107.492C266.568 107.261 266.482 107.059 266.366 106.828C260.761 94.7242 255.043 82.6509 249.179 70.7207C249.092 70.4896 248.977 70.2875 248.862 70.0854C242.97 58.0981 236.932 46.226 230.664 34.4989C230.577 34.2677 230.462 34.0656 230.346 33.8345C227.92 29.2707 225.464 24.736 222.952 20.2293C223.183 20.2002 223.443 20.1712 223.703 20.1422C226.158 24.5619 228.585 29.0106 230.982 33.4873C231.097 33.7184 231.214 33.9205 231.329 34.1517C237.568 45.8787 243.605 57.7509 249.498 69.7381C249.613 69.9403 249.729 70.1424 249.816 70.3735C255.708 82.3027 261.428 94.348 267.002 106.48C267.117 106.682 267.233 106.914 267.32 107.145C272.924 119.248 278.412 131.437 283.813 143.627C283.9 143.858 283.986 144.089 284.102 144.291C289.504 156.568 294.848 168.815 300.134 181.062C300.221 181.293 300.307 181.496 300.423 181.698C304.121 190.306 307.789 198.884 311.457 207.434L316.252 218.584L316.541 219.248L332.342 256.106L332.631 256.77L348.459 293.627L348.748 294.292L364.577 331.149L364.866 331.813L380.667 368.7L380.956 369.364L396.785 406.221L397.076 406.886Z" fill="#454AB0"/>
<path d="M397.076 406.886L410.796 438.862C410.623 439.035 410.421 439.208 410.218 439.353L396.439 407.233L396.15 406.568L380.322 369.711L380.032 369.047L364.203 332.19V332.161L363.943 331.496L348.113 294.639L347.824 293.974L331.994 257.117L331.705 256.453L315.876 219.596L315.615 218.931L310.792 207.723C307.123 199.202 303.455 190.652 299.729 182.074C299.671 181.843 299.556 181.641 299.469 181.41C294.183 169.162 288.867 156.886 283.437 144.638C283.351 144.407 283.235 144.205 283.148 143.974C277.747 131.785 272.287 119.595 266.655 107.492C266.568 107.261 266.482 107.059 266.366 106.828C260.761 94.7242 255.043 82.6509 249.179 70.7207C249.092 70.4896 248.977 70.2875 248.862 70.0854C242.97 58.0981 236.932 46.226 230.664 34.4989C230.577 34.2677 230.462 34.0656 230.346 33.8345C227.92 29.2707 225.464 24.736 222.952 20.2293C223.183 20.2002 223.443 20.1712 223.703 20.1422C226.158 24.5619 228.585 29.0106 230.982 33.4873C231.097 33.7184 231.214 33.9205 231.329 34.1517C237.568 45.8787 243.605 57.7509 249.498 69.7381C249.613 69.9403 249.729 70.1424 249.816 70.3735C255.708 82.3027 261.428 94.348 267.002 106.48C267.117 106.682 267.233 106.914 267.32 107.145C272.924 119.248 278.412 131.437 283.813 143.627C283.9 143.858 283.986 144.089 284.102 144.291C289.504 156.568 294.848 168.815 300.134 181.062C300.221 181.293 300.307 181.496 300.423 181.698C304.121 190.306 307.789 198.884 311.457 207.434L316.252 218.584L316.541 219.248L332.342 256.106L332.631 256.77L348.459 293.627L348.748 294.292L364.577 331.149L364.866 331.813L380.667 368.7L380.956 369.364L396.785 406.221L397.076 406.886Z" fill="#454AB0"/>
<path d="M441.675 407.723L441.154 408.329L432.316 387.705V387.676L432.027 387.012L416.197 350.183L415.908 349.519L400.078 312.633L399.789 311.968L383.961 275.111L383.701 274.447L367.872 237.589L367.583 236.925L355.046 207.722C353.949 205.181 352.851 202.638 351.753 200.068C351.667 199.866 351.58 199.635 351.464 199.403C346.207 187.156 340.921 174.88 335.549 162.575C335.461 162.344 335.375 162.113 335.259 161.911C329.944 149.663 324.543 137.445 319.026 125.256C318.939 125.054 318.852 124.822 318.736 124.62C313.277 112.46 307.674 100.357 301.925 88.3113C301.839 88.0802 301.752 87.8491 301.607 87.6469C295.888 75.5726 289.995 63.6144 283.958 51.7713C283.843 51.5692 283.727 51.367 283.612 51.1359C277.893 39.9281 272 28.8654 265.934 17.9178C266.223 17.8888 266.512 17.9178 266.771 17.9469C272.78 28.7504 278.585 39.726 284.247 50.7897C284.362 50.9918 284.478 51.2229 284.593 51.4251C290.629 63.2682 296.522 75.2264 302.241 87.3007C302.386 87.5028 302.473 87.734 302.56 87.9651C308.308 99.9814 313.911 112.114 319.371 124.274C319.487 124.476 319.573 124.678 319.66 124.909C325.177 137.099 330.579 149.346 335.923 161.565C336.009 161.767 336.125 161.998 336.212 162.2C341.556 174.505 346.87 186.81 352.128 199.057C352.215 199.288 352.301 199.519 352.388 199.722C353.514 202.292 354.612 204.864 355.71 207.434L368.217 236.58L368.506 237.244L384.336 274.101L384.596 274.766L400.425 311.623L400.714 312.288L416.542 349.174L416.832 349.838L432.66 386.666L432.949 387.331V387.36L441.675 407.723Z" fill="#454AB0"/>
<path d="M441.675 407.723L441.154 408.329L432.316 387.705V387.676L432.027 387.012L416.197 350.183L415.908 349.519L400.078 312.633L399.789 311.968L383.961 275.111L383.701 274.447L367.872 237.589L367.583 236.925L355.046 207.722C353.949 205.181 352.851 202.638 351.753 200.068C351.667 199.866 351.58 199.635 351.464 199.403C346.207 187.156 340.921 174.88 335.549 162.575C335.461 162.344 335.375 162.113 335.259 161.911C329.944 149.663 324.543 137.445 319.026 125.256C318.939 125.054 318.852 124.822 318.736 124.62C313.277 112.46 307.674 100.357 301.925 88.3113C301.839 88.0802 301.752 87.8491 301.607 87.6469C295.888 75.5726 289.995 63.6144 283.958 51.7713C283.843 51.5692 283.727 51.367 283.612 51.1359C277.893 39.9281 272 28.8654 265.934 17.9178C266.223 17.8888 266.512 17.9178 266.771 17.9469C272.78 28.7504 278.585 39.726 284.247 50.7897C284.362 50.9918 284.478 51.2229 284.593 51.4251C290.629 63.2682 296.522 75.2264 302.241 87.3007C302.386 87.5028 302.473 87.734 302.56 87.9651C308.308 99.9814 313.911 112.114 319.371 124.274C319.487 124.476 319.573 124.678 319.66 124.909C325.177 137.099 330.579 149.346 335.923 161.565C336.009 161.767 336.125 161.998 336.212 162.2C341.556 174.505 346.87 186.81 352.128 199.057C352.215 199.288 352.301 199.519 352.388 199.722C353.514 202.292 354.612 204.864 355.71 207.434L368.217 236.58L368.506 237.244L384.336 274.101L384.596 274.766L400.425 311.623L400.714 312.288L416.542 349.174L416.832 349.838L432.66 386.666L432.949 387.331V387.36L441.675 407.723Z" fill="#454AB0"/>
<path d="M468.567 367.284L468.798 367.804L468.163 368.15L468.134 368.093L467.873 367.487L452.073 330.658L451.784 329.964L435.954 293.107L435.665 292.443L419.835 255.585L419.546 254.921L403.746 218.064L403.457 217.399L399.297 207.722C395.427 198.681 391.527 189.611 387.599 180.542C387.512 180.311 387.425 180.109 387.31 179.878C382.024 167.63 376.68 155.354 371.278 143.107C371.163 142.905 371.076 142.674 370.989 142.472C365.588 130.283 360.099 118.093 354.467 105.961C354.38 105.759 354.294 105.528 354.149 105.326C348.574 93.1943 342.826 81.149 336.962 69.2188C336.846 68.9877 336.76 68.7855 336.644 68.5834C330.723 56.5962 324.657 44.724 318.389 33.026C318.302 32.8238 318.187 32.5927 318.071 32.3906C316.655 29.733 315.211 27.0764 313.766 24.4188C314.085 24.4768 314.373 24.5629 314.691 24.6499C316.049 27.1054 317.378 29.5609 318.706 32.0444C318.821 32.2465 318.937 32.4776 319.053 32.6797C325.292 44.3778 331.358 56.25 337.28 68.2372C337.395 68.4393 337.482 68.6415 337.598 68.8726C343.49 80.8028 349.21 92.8471 354.813 104.979C354.928 105.182 355.015 105.384 355.102 105.615C360.735 117.746 366.223 129.936 371.624 142.126C371.739 142.357 371.826 142.559 371.913 142.761C377.344 155.038 382.688 167.285 387.973 179.532C388.06 179.764 388.175 179.995 388.262 180.197C392.191 189.295 396.09 198.395 399.96 207.435L404.091 217.054L404.38 217.718L420.181 254.576L420.47 255.24L436.299 292.097L436.589 292.762L452.418 329.648L452.707 330.312L468.508 367.141L468.567 367.284Z" fill="#454AB0"/>
<path d="M468.567 367.284L468.798 367.804L468.163 368.15L468.134 368.093L467.873 367.487L452.073 330.658L451.784 329.964L435.954 293.107L435.665 292.443L419.835 255.585L419.546 254.921L403.746 218.064L403.457 217.399L399.297 207.722C395.427 198.681 391.527 189.611 387.599 180.542C387.512 180.311 387.425 180.109 387.31 179.878C382.024 167.63 376.68 155.354 371.278 143.107C371.163 142.905 371.076 142.674 370.989 142.472C365.588 130.283 360.099 118.093 354.467 105.961C354.38 105.759 354.294 105.528 354.149 105.326C348.574 93.1943 342.826 81.149 336.962 69.2188C336.846 68.9877 336.76 68.7855 336.644 68.5834C330.723 56.5962 324.657 44.724 318.389 33.026C318.302 32.8238 318.187 32.5927 318.071 32.3906C316.655 29.733 315.211 27.0764 313.766 24.4188C314.085 24.4768 314.373 24.5629 314.691 24.6499C316.049 27.1054 317.378 29.5609 318.706 32.0444C318.821 32.2465 318.937 32.4776 319.053 32.6797C325.292 44.3778 331.358 56.25 337.28 68.2372C337.395 68.4393 337.482 68.6415 337.598 68.8726C343.49 80.8028 349.21 92.8471 354.813 104.979C354.928 105.182 355.015 105.384 355.102 105.615C360.735 117.746 366.223 129.936 371.624 142.126C371.739 142.357 371.826 142.559 371.913 142.761C377.344 155.038 382.688 167.285 387.973 179.532C388.06 179.764 388.175 179.995 388.262 180.197C392.191 189.295 396.09 198.395 399.96 207.435L404.091 217.054L404.38 217.718L420.181 254.576L420.47 255.24L436.299 292.097L436.589 292.762L452.418 329.648L452.707 330.312L468.508 367.141L468.567 367.284Z" fill="#454AB0"/>
<path d="M488.584 310.756L489.306 312.46C489.219 312.864 489.104 313.239 489.017 313.615L487.948 311.102L487.659 310.437L471.83 273.579L471.541 272.915V272.886L455.711 236.057L455.422 235.393L443.551 207.72C442.251 204.659 440.922 201.597 439.593 198.535C439.506 198.333 439.419 198.102 439.304 197.87C434.076 185.652 428.761 173.347 423.388 161.071C423.301 160.84 423.215 160.609 423.099 160.407C417.784 148.159 412.383 135.941 406.866 123.752C406.778 123.521 406.663 123.318 406.547 123.087C401.059 110.927 395.456 98.7947 389.707 86.7784C389.62 86.5473 389.534 86.3451 389.389 86.143C383.67 74.0687 377.748 62.1105 371.711 50.2964C371.595 50.0943 371.48 49.8631 371.364 49.661C370.671 48.2451 369.948 46.8593 369.227 45.4725C369.602 45.6746 369.949 45.8767 370.324 46.0498C370.873 47.1475 371.451 48.2161 371.999 49.3138C372.115 49.5159 372.231 49.7471 372.318 49.9492C378.383 61.7923 384.305 73.7215 390.053 85.7668V85.7958C390.169 85.9979 390.255 86.2001 390.343 86.4312C396.091 98.4474 401.694 110.58 407.183 122.74C407.298 122.942 407.414 123.173 407.472 123.405C413.018 135.565 418.419 147.812 423.734 160.031C423.85 160.262 423.936 160.464 424.023 160.695V160.724C429.395 173.029 434.71 185.277 439.938 197.524C440.054 197.755 440.141 197.958 440.228 198.189C441.585 201.28 442.885 204.37 444.214 207.432L456.057 235.047L456.346 235.711L472.176 272.569L472.465 273.233L488.295 310.09L488.584 310.756Z" fill="#454AB0"/>
<path d="M488.584 310.756L489.306 312.46C489.219 312.864 489.104 313.239 489.017 313.615L487.948 311.102L487.659 310.437L471.83 273.579L471.541 272.915V272.886L455.711 236.057L455.422 235.393L443.551 207.72C442.251 204.659 440.922 201.597 439.593 198.535C439.506 198.333 439.419 198.102 439.304 197.87C434.076 185.652 428.761 173.347 423.388 161.071C423.301 160.84 423.215 160.609 423.099 160.407C417.784 148.159 412.383 135.941 406.866 123.752C406.778 123.521 406.663 123.318 406.547 123.087C401.059 110.927 395.456 98.7947 389.707 86.7784C389.62 86.5473 389.534 86.3451 389.389 86.143C383.67 74.0687 377.748 62.1105 371.711 50.2964C371.595 50.0943 371.48 49.8631 371.364 49.661C370.671 48.2451 369.948 46.8593 369.227 45.4725C369.602 45.6746 369.949 45.8767 370.324 46.0498C370.873 47.1475 371.451 48.2161 371.999 49.3138C372.115 49.5159 372.231 49.7471 372.318 49.9492C378.383 61.7923 384.305 73.7215 390.053 85.7668V85.7958C390.169 85.9979 390.255 86.2001 390.343 86.4312C396.091 98.4474 401.694 110.58 407.183 122.74C407.298 122.942 407.414 123.173 407.472 123.405C413.018 135.565 418.419 147.812 423.734 160.031C423.85 160.262 423.936 160.464 424.023 160.695V160.724C429.395 173.029 434.71 185.277 439.938 197.524C440.054 197.755 440.141 197.958 440.228 198.189C441.585 201.28 442.885 204.37 444.214 207.432L456.057 235.047L456.346 235.711L472.176 272.569L472.465 273.233L488.295 310.09L488.584 310.756Z" fill="#454AB0"/>
<path d="M492.859 217.687C493.033 218.641 493.206 219.623 493.351 220.605L491.589 216.504L491.3 215.839L487.804 207.722C483.703 198.191 479.601 188.601 475.442 179.01C475.355 178.779 475.269 178.577 475.153 178.346C469.867 166.098 464.523 153.851 459.121 141.604C459.005 141.372 458.919 141.17 458.803 140.939C453.748 129.529 448.607 118.148 443.35 106.796C443.003 106.016 442.656 105.237 442.281 104.457C442.194 104.255 442.108 104.024 441.963 103.822L442.627 103.446C442.713 103.649 442.829 103.88 442.916 104.111C443.696 105.786 444.476 107.461 445.256 109.166C450.08 119.593 454.787 130.108 459.467 140.593C459.554 140.824 459.64 141.055 459.756 141.257C465.187 153.505 470.531 165.781 475.788 177.999C475.904 178.231 475.99 178.462 476.077 178.664C480.237 188.283 484.367 197.872 488.469 207.433L491.935 215.492L492.224 216.156L492.859 217.687Z" fill="#454AB0"/>
<path d="M468.798 367.804L468.163 368.15L468.076 368.208L432.951 387.331V387.36L432.316 387.678V387.707L397.076 406.887L396.44 407.233L361.2 426.412L360.594 426.73L325.353 445.938L324.718 446.284L289.478 465.464L288.842 465.81L253.631 484.99L252.996 485.336L237.455 493.799H237.426C236.993 493.799 236.56 493.77 236.127 493.683L252.707 484.671L253.342 484.323L288.582 465.144L289.189 464.797L324.428 445.617L325.063 445.27L360.303 426.061L360.91 425.743L396.15 406.563L396.785 406.217L432.026 387.009L432.661 386.662L467.872 367.483L468.508 367.137L468.681 367.051C468.652 367.137 468.624 367.224 468.566 367.282L468.798 367.804Z" fill="#454AB0"/>
<path d="M468.798 367.804L468.163 368.15L468.076 368.208L432.951 387.331V387.36L432.316 387.678V387.707L397.076 406.887L396.44 407.233L361.2 426.412L360.594 426.73L325.353 445.938L324.718 446.284L289.478 465.464L288.842 465.81L253.631 484.99L252.996 485.336L237.455 493.799H237.426C236.993 493.799 236.56 493.77 236.127 493.683L252.707 484.671L253.342 484.323L288.582 465.144L289.189 464.797L324.428 445.617L325.063 445.27L360.303 426.061L360.91 425.743L396.15 406.563L396.785 406.217L432.026 387.009L432.661 386.662L467.872 367.483L468.508 367.137L468.681 367.051C468.652 367.137 468.624 367.224 468.566 367.282L468.798 367.804Z" fill="#454AB0"/>
<path d="M490.086 309.11C490.028 309.428 489.942 309.745 489.884 310.062L488.584 310.756L487.949 311.102L452.708 330.31L452.073 330.657L416.834 349.836L416.198 350.182L380.958 369.362L380.323 369.708L345.111 388.888L344.476 389.234L309.265 408.414L308.629 408.761L273.389 427.94L272.754 428.287L237.513 447.466L236.878 447.812L213.135 460.753C209.321 462.832 205.509 464.913 201.667 467.021C201.465 467.108 201.233 467.223 201.031 467.367C192.973 471.758 184.885 476.177 176.768 480.625C176.45 480.539 176.161 480.423 175.872 480.307C184.162 475.714 192.481 471.179 200.742 466.702C200.944 466.557 201.175 466.442 201.378 466.355C205.19 464.246 209.003 462.195 212.787 460.116L236.589 447.146L237.224 446.8L272.464 427.62L273.1 427.274L308.34 408.094L308.976 407.748L344.187 388.569L344.822 388.222L380.033 369.043L380.669 368.696L415.909 349.516L416.544 349.17L451.785 329.961L452.42 329.644L487.66 310.435L488.296 310.088L490.086 309.11Z" fill="#454AB0"/>
<path d="M490.086 309.11C490.028 309.428 489.942 309.745 489.884 310.062L488.584 310.756L487.949 311.102L452.708 330.31L452.073 330.657L416.834 349.836L416.198 350.182L380.958 369.362L380.323 369.708L345.111 388.888L344.476 389.234L309.265 408.414L308.629 408.761L273.389 427.94L272.754 428.287L237.513 447.466L236.878 447.812L213.135 460.753C209.321 462.832 205.509 464.913 201.667 467.021C201.465 467.108 201.233 467.223 201.031 467.367C192.973 471.758 184.885 476.177 176.768 480.625C176.45 480.539 176.161 480.423 175.872 480.307C184.162 475.714 192.481 471.179 200.742 466.702C200.944 466.557 201.175 466.442 201.378 466.355C205.19 464.246 209.003 462.195 212.787 460.116L236.589 447.146L237.224 446.8L272.464 427.62L273.1 427.274L308.34 408.094L308.976 407.748L344.187 388.569L344.822 388.222L380.033 369.043L380.669 368.696L415.909 349.516L416.544 349.17L451.785 329.961L452.42 329.644L487.66 310.435L488.296 310.088L490.086 309.11Z" fill="#454AB0"/>
<path d="M495.921 259.629C495.95 259.918 495.95 260.177 495.921 260.437L472.466 273.233L471.831 273.579L436.59 292.759L435.955 293.105L400.715 312.284L400.079 312.631L364.868 331.81L364.204 332.156V332.185L328.993 351.365L328.386 351.683L293.146 370.892L292.511 371.238L257.27 390.418L256.635 390.764L221.396 409.947L220.789 410.294L209.004 416.706C201.205 420.953 193.377 425.199 185.549 429.503C185.347 429.618 185.145 429.734 184.914 429.849C173.216 436.233 161.487 442.703 149.76 449.231C149.558 449.347 149.327 449.462 149.125 449.577C143.493 452.726 137.86 455.903 132.227 459.109C131.996 458.993 131.765 458.849 131.533 458.647C137.282 455.383 143.058 452.148 148.836 448.913C149.038 448.797 149.269 448.682 149.471 448.566C161.169 442.009 172.926 435.567 184.624 429.184C184.856 429.04 185.058 428.924 185.26 428.838C193.088 424.534 200.887 420.288 208.657 416.071L220.5 409.629L221.135 409.282L256.347 390.102L256.982 389.755L292.222 370.547L292.858 370.2L328.098 351.022L328.704 350.704L363.945 331.495L364.58 331.148L399.791 311.968L400.427 311.622L435.667 292.442L436.302 292.096L471.543 272.917V272.888L472.178 272.569L495.921 259.629Z" fill="#454AB0"/>
<path d="M495.921 259.629C495.95 259.918 495.95 260.177 495.921 260.437L472.466 273.233L471.831 273.579L436.59 292.759L435.955 293.105L400.715 312.284L400.079 312.631L364.868 331.81L364.204 332.156V332.185L328.993 351.365L328.386 351.683L293.146 370.892L292.511 371.238L257.27 390.418L256.635 390.764L221.396 409.947L220.789 410.294L209.004 416.706C201.205 420.953 193.377 425.199 185.549 429.503C185.347 429.618 185.145 429.734 184.914 429.849C173.216 436.233 161.487 442.703 149.76 449.231C149.558 449.347 149.327 449.462 149.125 449.577C143.493 452.726 137.86 455.903 132.227 459.109C131.996 458.993 131.765 458.849 131.533 458.647C137.282 455.383 143.058 452.148 148.836 448.913C149.038 448.797 149.269 448.682 149.471 448.566C161.169 442.009 172.926 435.567 184.624 429.184C184.856 429.04 185.058 428.924 185.26 428.838C193.088 424.534 200.887 420.288 208.657 416.071L220.5 409.629L221.135 409.282L256.347 390.102L256.982 389.755L292.222 370.547L292.858 370.2L328.098 351.022L328.704 350.704L363.945 331.495L364.58 331.148L399.791 311.968L400.427 311.622L435.667 292.442L436.302 292.096L471.543 272.917V272.888L472.178 272.569L495.921 259.629Z" fill="#454AB0"/>
<path d="M492.57 215.983L492.224 216.156L491.589 216.503L456.348 235.711L455.713 236.057L420.473 255.237L419.837 255.583L384.597 274.763L383.962 275.109L348.75 294.289L348.115 294.635L312.875 313.814L312.268 314.162L277.028 333.341L276.393 333.687L241.153 352.867L240.517 353.213L205.277 372.393L204.873 372.624C204.786 372.653 204.729 372.71 204.641 372.739C192.943 379.123 181.215 385.507 169.43 391.977C169.228 392.093 169.026 392.208 168.795 392.323C157.097 398.765 145.369 405.264 133.699 411.821V411.85C133.497 411.966 133.294 412.081 133.092 412.196C121.422 418.782 109.782 425.483 98.2273 432.3C98.0251 432.415 97.823 432.531 97.6209 432.647C97.5048 432.705 97.4188 432.763 97.3317 432.82C97.1296 432.647 96.9855 432.503 96.8114 432.3C96.9845 432.185 97.1576 432.069 97.3317 431.982C97.5338 431.838 97.765 431.722 97.9671 431.636C109.521 424.789 121.133 418.117 132.803 411.531C133.005 411.415 133.236 411.3 133.439 411.184C145.108 404.598 156.836 398.099 168.534 391.686C168.736 391.542 168.938 391.426 169.169 391.339C180.925 384.84 192.681 378.456 204.38 372.073C204.438 372.044 204.496 372.015 204.553 371.986L205.016 371.725L240.227 352.546L240.862 352.2L276.103 333.02L276.738 332.674L311.978 313.494L312.585 313.148L347.825 293.968L348.46 293.622L383.701 274.443L384.336 274.095L419.547 254.916L420.183 254.569L455.423 235.389L456.058 235.042L491.299 215.833L491.934 215.487L492.453 215.198C492.512 215.463 492.57 215.723 492.57 215.983Z" fill="#454AB0"/>
<path d="M492.57 215.983L492.224 216.156L491.589 216.503L456.348 235.711L455.713 236.057L420.473 255.237L419.837 255.583L384.597 274.763L383.962 275.109L348.75 294.289L348.115 294.635L312.875 313.814L312.268 314.162L277.028 333.341L276.393 333.687L241.153 352.867L240.517 353.213L205.277 372.393L204.873 372.624C204.786 372.653 204.729 372.71 204.641 372.739C192.943 379.123 181.215 385.507 169.43 391.977C169.228 392.093 169.026 392.208 168.795 392.323C157.097 398.765 145.369 405.264 133.699 411.821V411.85C133.497 411.966 133.294 412.081 133.092 412.196C121.422 418.782 109.782 425.483 98.2273 432.3C98.0251 432.415 97.823 432.531 97.6209 432.647C97.5048 432.705 97.4188 432.763 97.3317 432.82C97.1296 432.647 96.9855 432.503 96.8114 432.3C96.9845 432.185 97.1576 432.069 97.3317 431.982C97.5338 431.838 97.765 431.722 97.9671 431.636C109.521 424.789 121.133 418.117 132.803 411.531C133.005 411.415 133.236 411.3 133.439 411.184C145.108 404.598 156.836 398.099 168.534 391.686C168.736 391.542 168.938 391.426 169.169 391.339C180.925 384.84 192.681 378.456 204.38 372.073C204.438 372.044 204.496 372.015 204.553 371.986L205.016 371.725L240.227 352.546L240.862 352.2L276.103 333.02L276.738 332.674L311.978 313.494L312.585 313.148L347.825 293.968L348.46 293.622L383.701 274.443L384.336 274.095L419.547 254.916L420.183 254.569L455.423 235.389L456.058 235.042L491.299 215.833L491.934 215.487L492.453 215.198C492.512 215.463 492.57 215.723 492.57 215.983Z" fill="#454AB0"/>
<path d="M481.941 175.458L476.077 178.664L475.442 179.01L440.231 198.19L439.595 198.536L404.384 217.715L403.749 218.062L368.508 237.243L367.873 237.589L332.633 256.769L331.997 257.116L296.757 276.296L296.151 276.642L260.91 295.822L260.275 296.168L225.064 315.347L224.428 315.694L200.771 328.576C196.93 330.685 193.059 332.793 189.188 334.902C188.986 334.988 188.755 335.104 188.553 335.248C176.855 341.603 165.127 348.044 153.371 354.515C153.168 354.631 152.966 354.746 152.735 354.861C141.037 361.331 129.367 367.888 117.726 374.561C117.496 374.647 117.293 374.792 117.091 374.907C105.421 381.55 93.8387 388.339 82.3417 395.243C82.1396 395.359 81.9375 395.474 81.7063 395.618C77.6629 398.044 73.6184 400.5 69.603 402.955C69.4299 402.782 69.2858 402.58 69.1407 402.377C73.2132 399.893 77.3147 397.409 81.4172 394.924C81.6193 394.809 81.8214 394.693 82.0525 394.549C93.5485 387.646 105.16 380.887 116.802 374.243C117.004 374.127 117.235 373.983 117.437 373.897C129.078 367.224 140.747 360.696 152.446 354.226C152.677 354.082 152.879 353.966 153.081 353.88C164.838 347.381 176.565 340.939 188.264 334.584C188.466 334.439 188.697 334.324 188.899 334.238C192.74 332.129 196.583 330.02 200.424 327.941L224.139 315.029L224.775 314.682L259.986 295.502L260.65 295.156L295.862 275.977L296.468 275.63L331.708 256.451L332.344 256.105L367.583 236.925L368.218 236.579L403.459 217.399L404.094 217.052L439.305 197.872L439.941 197.526L475.152 178.347L475.787 178L481.709 174.766C481.796 174.996 481.883 175.226 481.941 175.458Z" fill="#454AB0"/>
<path d="M481.941 175.458L476.077 178.664L475.442 179.01L440.231 198.19L439.595 198.536L404.384 217.715L403.749 218.062L368.508 237.243L367.873 237.589L332.633 256.769L331.997 257.116L296.757 276.296L296.151 276.642L260.91 295.822L260.275 296.168L225.064 315.347L224.428 315.694L200.771 328.576C196.93 330.685 193.059 332.793 189.188 334.902C188.986 334.988 188.755 335.104 188.553 335.248C176.855 341.603 165.127 348.044 153.371 354.515C153.168 354.631 152.966 354.746 152.735 354.861C141.037 361.331 129.367 367.888 117.726 374.561C117.496 374.647 117.293 374.792 117.091 374.907C105.421 381.55 93.8387 388.339 82.3417 395.243C82.1396 395.359 81.9375 395.474 81.7063 395.618C77.6629 398.044 73.6184 400.5 69.603 402.955C69.4299 402.782 69.2858 402.58 69.1407 402.377C73.2132 399.893 77.3147 397.409 81.4172 394.924C81.6193 394.809 81.8214 394.693 82.0525 394.549C93.5485 387.646 105.16 380.887 116.802 374.243C117.004 374.127 117.235 373.983 117.437 373.897C129.078 367.224 140.747 360.696 152.446 354.226C152.677 354.082 152.879 353.966 153.081 353.88C164.838 347.381 176.565 340.939 188.264 334.584C188.466 334.439 188.697 334.324 188.899 334.238C192.74 332.129 196.583 330.02 200.424 327.941L224.139 315.029L224.775 314.682L259.986 295.502L260.65 295.156L295.862 275.977L296.468 275.63L331.708 256.451L332.344 256.105L367.583 236.925L368.218 236.579L403.459 217.399L404.094 217.052L439.305 197.872L439.941 197.526L475.152 178.347L475.787 178L481.709 174.766C481.796 174.996 481.883 175.226 481.941 175.458Z" fill="#454AB0"/>
<path d="M464.928 138.456L459.758 141.257L459.122 141.603L424.026 160.697V160.726L423.391 161.073L388.266 180.196L387.602 180.542L352.391 199.722L351.755 200.069L316.544 219.248L315.88 219.595L280.668 238.774L280.062 239.12L244.822 258.3L244.186 258.646L208.946 277.826L208.311 278.172L196.641 284.527C188.813 288.772 180.956 293.048 173.099 297.38C172.897 297.467 172.695 297.583 172.464 297.728C160.766 304.112 149.038 310.581 137.311 317.109C137.109 317.225 136.878 317.34 136.676 317.456C124.977 323.984 113.336 330.598 101.724 337.329C101.522 337.445 101.32 337.56 101.118 337.704C89.477 344.434 77.923 351.28 66.4851 358.299C66.283 358.414 66.0519 358.559 65.8498 358.674C59.8121 362.372 53.8335 366.127 47.8829 369.91C47.7959 369.708 47.6808 369.506 47.5357 369.275C53.5153 365.491 59.5229 361.735 65.5896 358.01C65.7917 357.894 65.9938 357.779 66.196 357.635C77.6339 350.616 89.1888 343.77 100.829 337.039C101.031 336.895 101.233 336.779 101.464 336.664C113.047 329.934 124.688 323.319 136.386 316.791C136.588 316.676 136.82 316.56 137.022 316.416C148.72 309.888 160.448 303.446 172.146 297.062V297.033C172.377 296.918 172.608 296.802 172.81 296.687C180.667 292.412 188.495 288.137 196.293 283.891L208.021 277.507L208.656 277.16L243.896 257.981L244.532 257.634L279.772 238.455L280.378 238.109L315.619 218.929L316.254 218.583L351.465 199.403L352.13 199.057L387.312 179.878L387.976 179.531L423.1 160.41L423.736 160.035L458.803 140.941L459.467 140.595L464.551 137.822C464.697 138.051 464.812 138.253 464.928 138.456Z" fill="#454AB0"/>
<path d="M464.928 138.456L459.758 141.257L459.122 141.603L424.026 160.697V160.726L423.391 161.073L388.266 180.196L387.602 180.542L352.391 199.722L351.755 200.069L316.544 219.248L315.88 219.595L280.668 238.774L280.062 239.12L244.822 258.3L244.186 258.646L208.946 277.826L208.311 278.172L196.641 284.527C188.813 288.772 180.956 293.048 173.099 297.38C172.897 297.467 172.695 297.583 172.464 297.728C160.766 304.112 149.038 310.581 137.311 317.109C137.109 317.225 136.878 317.34 136.676 317.456C124.977 323.984 113.336 330.598 101.724 337.329C101.522 337.445 101.32 337.56 101.118 337.704C89.477 344.434 77.923 351.28 66.4851 358.299C66.283 358.414 66.0519 358.559 65.8498 358.674C59.8121 362.372 53.8335 366.127 47.8829 369.91C47.7959 369.708 47.6808 369.506 47.5357 369.275C53.5153 365.491 59.5229 361.735 65.5896 358.01C65.7917 357.894 65.9938 357.779 66.196 357.635C77.6339 350.616 89.1888 343.77 100.829 337.039C101.031 336.895 101.233 336.779 101.464 336.664C113.047 329.934 124.688 323.319 136.386 316.791C136.588 316.676 136.82 316.56 137.022 316.416C148.72 309.888 160.448 303.446 172.146 297.062V297.033C172.377 296.918 172.608 296.802 172.81 296.687C180.667 292.412 188.495 288.137 196.293 283.891L208.021 277.507L208.656 277.16L243.896 257.981L244.532 257.634L279.772 238.455L280.378 238.109L315.619 218.929L316.254 218.583L351.465 199.403L352.13 199.057L387.312 179.878L387.976 179.531L423.1 160.41L423.736 160.035L458.803 140.941L459.467 140.595L464.551 137.822C464.697 138.051 464.812 138.253 464.928 138.456Z" fill="#454AB0"/>
<path d="M442.916 104.111L442.281 104.457L441.732 104.746L407.474 123.407L406.868 123.753L371.916 142.759L371.281 143.105L336.215 162.198L335.551 162.574L300.426 181.696L299.733 182.072L264.551 201.222L263.915 201.57L228.704 220.749L228.069 221.095L192.828 240.275L192.539 240.448C192.423 240.506 192.308 240.563 192.192 240.621C180.494 247.005 168.737 253.417 156.981 259.888C156.779 259.975 156.548 260.119 156.345 260.234C144.647 266.647 132.919 273.146 121.25 279.732C121.048 279.876 120.846 279.963 120.644 280.078V280.107C108.975 286.693 97.3338 293.365 85.7798 300.182C85.5777 300.297 85.3755 300.413 85.1734 300.557C73.5904 307.375 62.0655 314.336 50.6846 321.47C50.4825 321.586 50.2513 321.73 50.0492 321.874C43.9545 325.687 37.8889 329.558 31.8802 333.457C31.7932 333.226 31.7071 332.995 31.6491 332.764C37.6287 328.865 43.6654 325.022 49.76 321.21C49.9622 321.066 50.1643 320.95 50.3954 320.806C61.7473 313.7 73.2722 306.738 84.8842 299.893C85.0864 299.749 85.2885 299.633 85.4906 299.518C97.0156 292.73 108.657 286.029 120.355 279.472C120.557 279.328 120.759 279.212 120.99 279.096C132.66 272.511 144.387 266.012 156.086 259.57C156.317 259.454 156.519 259.339 156.722 259.223C168.478 252.754 180.235 246.341 191.933 239.986C192.02 239.928 192.106 239.899 192.193 239.842L192.569 239.64L227.78 220.46L228.416 220.114L263.656 200.934L264.262 200.588L299.474 181.409L300.138 181.062L335.262 161.912L335.927 161.566L370.993 142.473L371.628 142.126L406.55 123.09L407.186 122.744L441.27 104.2L441.964 103.825L442.628 103.449C442.714 103.649 442.83 103.88 442.916 104.111Z" fill="#454AB0"/>
<path d="M442.916 104.111L442.281 104.457L441.732 104.746L407.474 123.407L406.868 123.753L371.916 142.759L371.281 143.105L336.215 162.198L335.551 162.574L300.426 181.696L299.733 182.072L264.551 201.222L263.915 201.57L228.704 220.749L228.069 221.095L192.828 240.275L192.539 240.448C192.423 240.506 192.308 240.563 192.192 240.621C180.494 247.005 168.737 253.417 156.981 259.888C156.779 259.975 156.548 260.119 156.345 260.234C144.647 266.647 132.919 273.146 121.25 279.732C121.048 279.876 120.846 279.963 120.644 280.078V280.107C108.975 286.693 97.3338 293.365 85.7798 300.182C85.5777 300.297 85.3755 300.413 85.1734 300.557C73.5904 307.375 62.0655 314.336 50.6846 321.47C50.4825 321.586 50.2513 321.73 50.0492 321.874C43.9545 325.687 37.8889 329.558 31.8802 333.457C31.7932 333.226 31.7071 332.995 31.6491 332.764C37.6287 328.865 43.6654 325.022 49.76 321.21C49.9622 321.066 50.1643 320.95 50.3954 320.806C61.7473 313.7 73.2722 306.738 84.8842 299.893C85.0864 299.749 85.2885 299.633 85.4906 299.518C97.0156 292.73 108.657 286.029 120.355 279.472C120.557 279.328 120.759 279.212 120.99 279.096C132.66 272.511 144.387 266.012 156.086 259.57C156.317 259.454 156.519 259.339 156.722 259.223C168.478 252.754 180.235 246.341 191.933 239.986C192.02 239.928 192.106 239.899 192.193 239.842L192.569 239.64L227.78 220.46L228.416 220.114L263.656 200.934L264.262 200.588L299.474 181.409L300.138 181.062L335.262 161.912L335.927 161.566L370.993 142.473L371.628 142.126L406.55 123.09L407.186 122.744L441.27 104.2L441.964 103.825L442.628 103.449C442.714 103.649 442.83 103.88 442.916 104.111Z" fill="#454AB0"/>
<path d="M411.489 74.1277C411.691 74.2718 411.894 74.4459 412.068 74.619L390.346 86.4332L389.71 86.7794L355.106 105.613L354.471 105.959L319.664 124.907L319.029 125.254L284.107 144.289L283.442 144.636L248.376 163.73L247.741 164.105L212.558 183.256L211.923 183.602L188.411 196.399C184.54 198.507 180.641 200.644 176.741 202.781C176.51 202.868 176.307 203.013 176.076 203.129C164.378 209.483 152.65 215.924 140.923 222.424C140.721 222.51 140.519 222.626 140.288 222.77C128.59 229.24 116.891 235.797 105.251 242.441C105.019 242.556 104.817 242.672 104.615 242.817C92.9741 249.461 81.3621 256.22 69.8952 263.123C69.6931 263.239 69.491 263.383 69.2598 263.498C57.7059 270.459 46.2379 277.537 34.9441 284.816C34.713 284.931 34.5109 285.076 34.3087 285.191C30.1492 287.849 26.0477 290.534 21.9463 293.25C21.9173 292.99 21.8592 292.73 21.8302 292.471C25.8746 289.784 29.9471 287.126 34.0196 284.527C34.2217 284.382 34.4528 284.238 34.6549 284.122C45.9488 276.872 57.4157 269.796 68.9697 262.835C69.1718 262.719 69.3739 262.574 69.605 262.459C81.102 255.556 92.713 248.797 104.354 242.153C104.556 242.009 104.758 241.894 104.96 241.778C116.601 235.135 128.299 228.578 139.999 222.107C140.23 221.963 140.432 221.847 140.634 221.761C152.361 215.262 164.089 208.82 175.787 202.465C176.018 202.321 176.22 202.205 176.452 202.119V202.09C180.322 199.982 184.193 197.872 188.064 195.764L211.634 182.939L212.298 182.564L247.451 163.443L248.087 163.067L283.153 143.974L283.817 143.628L318.739 124.621L319.375 124.275L354.153 105.326L354.817 104.979L389.393 86.146L390.057 85.7988V85.7698L411.461 74.1287L411.489 74.1277Z" fill="#454AB0"/>
<path d="M411.489 74.1277C411.691 74.2718 411.894 74.4459 412.068 74.619L390.346 86.4332L389.71 86.7794L355.106 105.613L354.471 105.959L319.664 124.907L319.029 125.254L284.107 144.289L283.442 144.636L248.376 163.73L247.741 164.105L212.558 183.256L211.923 183.602L188.411 196.399C184.54 198.507 180.641 200.644 176.741 202.781C176.51 202.868 176.307 203.013 176.076 203.129C164.378 209.483 152.65 215.924 140.923 222.424C140.721 222.51 140.519 222.626 140.288 222.77C128.59 229.24 116.891 235.797 105.251 242.441C105.019 242.556 104.817 242.672 104.615 242.817C92.9741 249.461 81.3621 256.22 69.8952 263.123C69.6931 263.239 69.491 263.383 69.2598 263.498C57.7059 270.459 46.2379 277.537 34.9441 284.816C34.713 284.931 34.5109 285.076 34.3087 285.191C30.1492 287.849 26.0477 290.534 21.9463 293.25C21.9173 292.99 21.8592 292.73 21.8302 292.471C25.8746 289.784 29.9471 287.126 34.0196 284.527C34.2217 284.382 34.4528 284.238 34.6549 284.122C45.9488 276.872 57.4157 269.796 68.9697 262.835C69.1718 262.719 69.3739 262.574 69.605 262.459C81.102 255.556 92.713 248.797 104.354 242.153C104.556 242.009 104.758 241.894 104.96 241.778C116.601 235.135 128.299 228.578 139.999 222.107C140.23 221.963 140.432 221.847 140.634 221.761C152.361 215.262 164.089 208.82 175.787 202.465C176.018 202.321 176.22 202.205 176.452 202.119V202.09C180.322 199.982 184.193 197.872 188.064 195.764L211.634 182.939L212.298 182.564L247.451 163.443L248.087 163.067L283.153 143.974L283.817 143.628L318.739 124.621L319.375 124.275L354.153 105.326L354.817 104.979L389.393 86.146L390.057 85.7988V85.7698L411.461 74.1287L411.489 74.1277Z" fill="#454AB0"/>
<path d="M374.112 48.1601C374.372 48.2752 374.603 48.4203 374.863 48.5934L372.322 49.9512L371.715 50.2974L337.602 68.8706L336.966 69.2168L302.564 87.9631L301.928 88.3103L267.324 107.144L266.66 107.49L231.853 126.438V126.467L231.247 126.786L196.266 145.821L195.66 146.167L184.308 152.349C176.422 156.653 168.508 160.957 160.565 165.29C160.363 165.406 160.132 165.521 159.901 165.665C148.23 172.049 136.532 178.49 124.833 184.989C124.631 185.105 124.429 185.249 124.198 185.336C112.528 191.893 100.859 198.507 89.2759 205.238C89.0447 205.353 88.8426 205.469 88.6405 205.584V205.613C76.9995 212.314 65.4455 219.189 54.0356 226.209C53.8335 226.325 53.6024 226.44 53.4002 226.584C41.8753 233.661 30.4654 240.853 19.2576 248.248H19.2286V248.277C19.0265 248.393 18.8244 248.537 18.6222 248.652L18.3331 247.988C18.5352 247.844 18.7373 247.699 18.9685 247.583C19.0555 247.497 19.1416 247.439 19.2576 247.381C30.3783 240.045 41.6722 232.91 53.1111 225.89C53.3132 225.775 53.5153 225.631 53.7464 225.515C65.1563 218.525 76.7103 211.65 88.3513 204.92C88.5535 204.775 88.7846 204.66 88.9867 204.544C100.57 197.814 112.239 191.199 123.909 184.671C124.14 184.555 124.342 184.44 124.544 184.325C136.242 177.797 147.941 171.355 159.61 165.002C159.841 164.858 160.044 164.741 160.246 164.626C168.16 160.294 176.075 155.989 183.961 151.715L195.371 145.505L195.977 145.159L230.957 126.123L231.564 125.805L266.371 106.828L267.006 106.481L301.611 87.6479L302.246 87.3017L336.649 68.5844L337.285 68.2382L371.369 49.665L372.005 49.3188L374.112 48.1601Z" fill="#454AB0"/>
<path d="M374.112 48.1601C374.372 48.2752 374.603 48.4203 374.863 48.5934L372.322 49.9512L371.715 50.2974L337.602 68.8706L336.966 69.2168L302.564 87.9631L301.928 88.3103L267.324 107.144L266.66 107.49L231.853 126.438V126.467L231.247 126.786L196.266 145.821L195.66 146.167L184.308 152.349C176.422 156.653 168.508 160.957 160.565 165.29C160.363 165.406 160.132 165.521 159.901 165.665C148.23 172.049 136.532 178.49 124.833 184.989C124.631 185.105 124.429 185.249 124.198 185.336C112.528 191.893 100.859 198.507 89.2759 205.238C89.0447 205.353 88.8426 205.469 88.6405 205.584V205.613C76.9995 212.314 65.4455 219.189 54.0356 226.209C53.8335 226.325 53.6024 226.44 53.4002 226.584C41.8753 233.661 30.4654 240.853 19.2576 248.248H19.2286V248.277C19.0265 248.393 18.8244 248.537 18.6222 248.652L18.3331 247.988C18.5352 247.844 18.7373 247.699 18.9685 247.583C19.0555 247.497 19.1416 247.439 19.2576 247.381C30.3783 240.045 41.6722 232.91 53.1111 225.89C53.3132 225.775 53.5153 225.631 53.7464 225.515C65.1563 218.525 76.7103 211.65 88.3513 204.92C88.5535 204.775 88.7846 204.66 88.9867 204.544C100.57 197.814 112.239 191.199 123.909 184.671C124.14 184.555 124.342 184.44 124.544 184.325C136.242 177.797 147.941 171.355 159.61 165.002C159.841 164.858 160.044 164.741 160.246 164.626C168.16 160.294 176.075 155.989 183.961 151.715L195.371 145.505L195.977 145.159L230.957 126.123L231.564 125.805L266.371 106.828L267.006 106.481L301.611 87.6479L302.246 87.3017L336.649 68.5844L337.285 68.2382L371.369 49.665L372.005 49.3188L374.112 48.1601Z" fill="#454AB0"/>
<path d="M326.394 27.8538C326.712 27.9409 327.058 28.0269 327.376 28.143L319.057 32.6777L318.392 33.0239L284.597 51.424L283.961 51.7713L249.819 70.3735L249.183 70.7197L214.781 89.466L214.145 89.8122L180.177 108.298C179.946 108.414 179.744 108.53 179.512 108.646C179.31 108.79 179.079 108.877 178.877 109.021C167.323 115.318 155.711 121.643 144.099 128.027C143.897 128.143 143.666 128.258 143.464 128.373C131.852 134.757 120.212 141.198 108.628 147.755C108.425 147.871 108.194 147.986 107.992 148.101C96.3522 154.658 84.7692 161.331 73.2723 168.118C73.0701 168.235 72.868 168.35 72.6659 168.494C61.0829 175.282 49.587 182.243 38.2061 189.378C38.004 189.493 37.8018 189.638 37.5997 189.754C33.9025 192.093 30.2053 194.432 26.537 196.773C26.6231 196.427 26.7392 196.079 26.8262 195.733C30.2923 193.509 33.7874 191.284 37.3116 189.089C37.5137 188.945 37.7158 188.829 37.9179 188.714C49.2698 181.609 60.7657 174.646 72.3497 167.801C72.5518 167.685 72.7539 167.541 72.9851 167.455C84.481 160.638 96.064 153.995 107.705 147.438C107.907 147.322 108.109 147.178 108.34 147.092C119.923 140.535 131.564 134.065 143.175 127.71C143.407 127.566 143.609 127.45 143.811 127.364C155.423 120.951 167.034 114.654 178.56 108.357C178.791 108.241 178.993 108.126 179.224 108.01C179.426 107.895 179.628 107.779 179.831 107.664L213.828 89.1488L214.463 88.8016L248.866 70.0843L249.502 69.7371L283.615 51.1349L284.251 50.7887L318.075 32.3886L318.71 32.0423L326.394 27.8538Z" fill="#454AB0"/>
<path d="M326.394 27.8538C326.712 27.9409 327.058 28.0269 327.376 28.143L319.057 32.6777L318.392 33.0239L284.597 51.424L283.961 51.7713L249.819 70.3735L249.183 70.7197L214.781 89.466L214.145 89.8122L180.177 108.298C179.946 108.414 179.744 108.53 179.512 108.646C179.31 108.79 179.079 108.877 178.877 109.021C167.323 115.318 155.711 121.643 144.099 128.027C143.897 128.143 143.666 128.258 143.464 128.373C131.852 134.757 120.212 141.198 108.628 147.755C108.425 147.871 108.194 147.986 107.992 148.101C96.3522 154.658 84.7692 161.331 73.2723 168.118C73.0701 168.235 72.868 168.35 72.6659 168.494C61.0829 175.282 49.587 182.243 38.2061 189.378C38.004 189.493 37.8018 189.638 37.5997 189.754C33.9025 192.093 30.2053 194.432 26.537 196.773C26.6231 196.427 26.7392 196.079 26.8262 195.733C30.2923 193.509 33.7874 191.284 37.3116 189.089C37.5137 188.945 37.7158 188.829 37.9179 188.714C49.2698 181.609 60.7657 174.646 72.3497 167.801C72.5518 167.685 72.7539 167.541 72.9851 167.455C84.481 160.638 96.064 153.995 107.705 147.438C107.907 147.322 108.109 147.178 108.34 147.092C119.923 140.535 131.564 134.065 143.175 127.71C143.407 127.566 143.609 127.45 143.811 127.364C155.423 120.951 167.034 114.654 178.56 108.357C178.791 108.241 178.993 108.126 179.224 108.01C179.426 107.895 179.628 107.779 179.831 107.664L213.828 89.1488L214.463 88.8016L248.866 70.0843L249.502 69.7371L283.615 51.1349L284.251 50.7887L318.075 32.3886L318.71 32.0423L326.394 27.8538Z" fill="#454AB0"/>
<path d="M261.316 17.8017L231.333 34.1506L230.668 34.4968L196.844 52.9259L196.208 53.2722L176.075 64.2198C171.424 66.7613 166.746 69.3038 162.066 71.8744C161.864 71.9614 161.633 72.0765 161.43 72.2206C149.993 78.4313 138.525 84.7281 127.057 91.083C126.855 91.199 126.652 91.3141 126.421 91.4292C114.925 97.784 103.428 104.254 91.9905 110.782C91.7594 110.898 91.5573 111.042 91.3551 111.157C79.8302 117.743 68.3913 124.415 57.0394 131.232C56.8373 131.377 56.6062 131.492 56.404 131.607C55.2483 132.33 54.0646 133.023 52.9089 133.745C53.1401 133.311 53.4292 132.878 53.6884 132.445C54.4979 131.954 55.3064 131.463 56.1149 130.972C56.317 130.828 56.5481 130.712 56.7503 130.597C68.1021 123.78 79.541 117.079 91.066 110.493C91.2681 110.377 91.4702 110.262 91.7014 110.146C103.111 103.59 114.607 97.1476 126.104 90.7938C126.306 90.6487 126.537 90.5336 126.74 90.4476C138.207 84.0928 149.645 77.796 161.084 71.5562C161.286 71.4411 161.517 71.3251 161.72 71.209C166.398 68.6674 171.078 66.1249 175.729 63.5834L195.891 52.6068L196.527 52.2605L230.351 33.8314L230.986 33.4852L259.843 17.7717C260.333 17.7727 260.824 17.7727 261.316 17.8017Z" fill="#454AB0"/>
</g>
<path d="M189.354 337.092C205.515 297.351 186.4 252.032 146.659 235.871C106.918 219.709 61.6 238.824 45.4384 278.565C29.2768 318.307 48.3918 363.625 88.1329 379.786C127.874 395.948 173.192 376.833 189.354 337.092Z" fill="#F1F1F9"/>
<path d="M409.958 80.1944C409.958 123.088 375.18 157.866 332.258 157.866C289.363 157.866 254.586 123.088 254.586 80.1944C254.586 55.4685 266.14 33.4292 284.135 19.2176C294.217 20.3153 304.125 22.0773 313.771 24.4167C314.09 24.4748 314.378 24.5608 314.696 24.6479C318.624 25.6014 322.553 26.6701 326.395 27.8538C326.713 27.9409 327.059 28.0269 327.377 28.143C341.963 32.5917 355.973 38.4262 369.231 45.4744C369.606 45.6766 369.953 45.8787 370.328 46.0518C371.599 46.7452 372.87 47.4376 374.113 48.1601C374.373 48.2751 374.604 48.4202 374.864 48.5933C387.169 55.5255 398.781 63.5844 409.584 72.5678C409.843 75.0813 409.958 77.6228 409.958 80.1944Z" fill="#454AB0"/>
<path d="M67.4207 177.282C67.4207 177.282 184.401 397.82 211.249 479.323C211.249 479.323 312.889 519.596 453.841 387.273L296.589 57.4236C296.589 57.4236 148.924 105.367 67.4207 177.282Z" fill="white"/>
<path d="M222.398 323.346C222.146 323.346 221.905 323.204 221.789 322.96C221.631 322.624 221.775 322.223 222.112 322.064C267.134 300.852 312.204 278.211 356.07 254.77C356.398 254.595 356.807 254.718 356.98 255.046C357.156 255.375 357.032 255.782 356.704 255.957C312.818 279.409 267.728 302.059 222.684 323.283C222.592 323.326 222.493 323.346 222.398 323.346Z" fill="#454AB0"/>
<path d="M227.463 333.126C227.219 333.126 226.982 332.992 226.864 332.76C226.695 332.429 226.827 332.023 227.157 331.854L362.483 262.904C362.816 262.739 363.219 262.867 363.388 263.197C363.557 263.528 363.425 263.933 363.095 264.102L227.769 333.053C227.671 333.102 227.566 333.126 227.463 333.126Z" fill="#454AB0"/>
<path d="M233.602 343.047C233.357 343.047 233.119 342.912 233.002 342.676C232.834 342.343 232.97 341.939 233.301 341.773C278.114 319.309 323.295 295.934 367.589 272.3C367.916 272.129 368.323 272.248 368.5 272.576C368.676 272.906 368.551 273.313 368.224 273.488C323.919 297.126 278.726 320.505 233.905 342.975C233.806 343.024 233.704 343.047 233.602 343.047Z" fill="#454AB0"/>
<path d="M244.388 368.241C244.135 368.241 243.894 368.099 243.778 367.855C243.62 367.52 243.764 367.119 244.101 366.96C289.101 345.758 334.172 323.117 378.059 299.664C378.387 299.489 378.796 299.612 378.971 299.94C379.146 300.269 379.022 300.677 378.695 300.852C334.787 324.315 289.696 346.966 244.675 368.177C244.582 368.221 244.484 368.241 244.388 368.241Z" fill="#454AB0"/>
<path d="M249.454 378.02C249.209 378.02 248.972 377.886 248.854 377.653C248.685 377.322 248.818 376.916 249.147 376.747L384.474 307.797C384.804 307.632 385.211 307.758 385.38 308.09C385.549 308.421 385.417 308.826 385.086 308.995L249.76 377.946C249.661 377.996 249.557 378.02 249.454 378.02Z" fill="#454AB0"/>
<path d="M255.591 387.941C255.346 387.941 255.108 387.806 254.991 387.57C254.823 387.237 254.958 386.834 255.29 386.667C300.154 364.176 345.334 340.803 389.577 317.194C389.907 317.018 390.312 317.142 390.488 317.471C390.663 317.799 390.539 318.207 390.212 318.381C345.959 341.994 300.768 365.374 255.893 387.868C255.796 387.919 255.693 387.941 255.591 387.941Z" fill="#454AB0"/>
<path d="M265.918 409.013C265.666 409.013 265.425 408.871 265.309 408.627C265.151 408.291 265.295 407.89 265.632 407.731C310.632 386.53 355.703 363.889 399.59 340.436C399.917 340.261 400.326 340.384 400.502 340.713C400.677 341.041 400.553 341.449 400.226 341.623C356.318 365.086 311.228 387.738 266.206 408.949C266.114 408.993 266.015 409.013 265.918 409.013Z" fill="#454AB0"/>
<path d="M270.985 418.794C270.74 418.794 270.503 418.66 270.385 418.426C270.216 418.095 270.348 417.69 270.678 417.521L406.004 348.57C406.338 348.402 406.742 348.532 406.91 348.863C407.079 349.195 406.946 349.6 406.616 349.769L271.291 418.72C271.193 418.77 271.088 418.794 270.985 418.794Z" fill="#454AB0"/>
<path d="M277.123 428.714C276.878 428.714 276.639 428.579 276.523 428.342C276.355 428.009 276.49 427.606 276.822 427.44C321.678 404.952 366.859 381.579 411.11 357.967C411.437 357.792 411.844 357.915 412.021 358.243C412.196 358.571 412.072 358.98 411.744 359.154C367.483 382.77 322.29 406.149 277.425 428.641C277.327 428.691 277.224 428.714 277.123 428.714Z" fill="#454AB0"/>
<path d="M206.47 278.19C206.217 278.19 205.976 278.048 205.86 277.804C205.702 277.468 205.846 277.067 206.183 276.908C251.21 255.694 296.279 233.053 340.14 209.613C340.468 209.438 340.875 209.561 341.051 209.89C341.226 210.219 341.102 210.626 340.775 210.801C296.894 234.25 251.803 256.902 206.756 278.127C206.665 278.171 206.566 278.19 206.47 278.19Z" fill="#401A49"/>
<path d="M211.537 287.97C211.293 287.97 211.055 287.836 210.937 287.603C210.768 287.271 210.9 286.866 211.23 286.697L346.555 217.746C346.886 217.578 347.292 217.708 347.461 218.04C347.63 218.371 347.497 218.776 347.168 218.945L211.843 287.896C211.744 287.946 211.639 287.97 211.537 287.97Z" fill="#401A49"/>
<path d="M217.674 297.891C217.429 297.891 217.191 297.756 217.074 297.52C216.906 297.186 217.041 296.783 217.373 296.617C262.193 274.147 307.374 250.774 351.66 227.144C351.988 226.969 352.395 227.092 352.571 227.42C352.746 227.748 352.622 228.157 352.295 228.332C307.998 251.966 262.807 275.345 217.977 297.819C217.878 297.869 217.775 297.891 217.674 297.891Z" fill="#401A49"/>
<path d="M202.524 308.735L198.365 300.041V300.012L193.049 288.833L189.901 282.247C189.814 282.103 189.669 281.987 189.496 281.901C189.352 281.843 189.15 281.872 189.005 281.93L161.709 294.958C161.362 295.131 161.217 295.506 161.39 295.853L174.013 322.312C174.129 322.572 174.359 322.688 174.619 322.688C174.706 322.688 174.821 322.688 174.909 322.63L202.205 309.631C202.35 309.544 202.465 309.4 202.551 309.227C202.61 309.081 202.581 308.879 202.524 308.735ZM174.939 321.127L162.893 295.881L188.977 283.432L191.894 289.556L192.905 291.693C192.934 291.722 192.934 291.722 192.934 291.751L196.748 299.752L201.022 308.706L174.939 321.127Z" fill="#25285F"/>
<path d="M185.42 309.172C185.331 309.172 185.241 309.154 185.156 309.119L175.602 305.047C175.261 304.902 175.102 304.506 175.247 304.164C175.392 303.823 175.791 303.664 176.129 303.809L184.764 307.49L185.081 290.564C185.088 290.193 185.378 289.961 185.766 289.904C186.137 289.911 186.433 290.217 186.426 290.589L186.092 308.513C186.088 308.736 185.972 308.943 185.785 309.064C185.675 309.136 185.548 309.172 185.42 309.172Z" fill="#25285F"/>
<path d="M223.293 349.781L210.67 323.322C210.613 323.149 210.468 323.033 210.295 322.976C210.122 322.918 209.948 322.918 209.775 323.005L182.478 336.003C182.161 336.176 182.016 336.58 182.161 336.898L194.784 363.386C194.9 363.617 195.159 363.761 195.39 363.761C195.506 363.761 195.592 363.732 195.679 363.703L222.976 350.677C223.149 350.59 223.265 350.474 223.322 350.301C223.379 350.127 223.379 349.954 223.293 349.781ZM195.707 362.202L183.691 336.927L209.746 324.507L221.791 349.752L195.707 362.202Z" fill="#25285F"/>
<path d="M246.025 395.188L233.431 368.729C233.345 368.556 233.2 368.44 233.027 368.383C232.883 368.325 232.68 368.325 232.506 368.412L205.239 381.439C204.892 381.583 204.748 381.987 204.921 382.335L217.543 408.794C217.601 408.938 217.745 409.083 217.918 409.14C217.977 409.169 218.063 409.169 218.15 409.169C218.237 409.169 218.323 409.14 218.439 409.111L245.706 396.084C246.053 395.94 246.199 395.535 246.025 395.188ZM218.469 407.609L206.424 382.364L232.478 369.914L244.524 395.159L218.469 407.609Z" fill="#25285F"/>
<path d="M265.291 436.234L252.668 409.775C252.495 409.429 252.091 409.284 251.773 409.457L224.476 422.456C224.303 422.542 224.187 422.687 224.129 422.831C224.071 423.004 224.071 423.206 224.158 423.351L236.781 449.81C236.839 449.984 236.983 450.1 237.157 450.158C237.214 450.187 237.301 450.215 237.388 450.215C237.475 450.215 237.59 450.186 237.677 450.129L264.974 437.13C265.291 436.957 265.436 436.552 265.291 436.234ZM237.706 448.626L225.661 423.381L251.745 410.96L263.761 436.205L237.706 448.626Z" fill="#25285F"/>
<path d="M230.86 240.854L179.531 142.818C179.444 142.645 179.3 142.529 179.127 142.472C178.983 142.414 178.781 142.443 178.637 142.53L96.6313 186.955C96.2851 187.128 96.169 187.561 96.3421 187.879L147.642 284.53C147.786 284.761 148.017 284.905 148.248 284.905C148.365 284.905 148.451 284.876 148.566 284.818L182.015 267.227H182.044L191.836 262.085L212.633 251.167L225.314 244.523L230.571 241.75C230.889 241.577 231.033 241.173 230.86 240.854ZM224.997 243.166L223.812 243.801L213.096 249.434L205.527 253.391L200.241 256.164L190.767 261.161L182.361 265.551L181.176 266.187L175.14 269.364L155.96 279.416L148.537 283.315L148.103 282.505L146.63 279.704L146.601 279.675L97.843 187.82L178.664 144.03L229.357 240.882L224.997 243.166Z" fill="#25285F"/>
<path d="M130.282 196.574L124.562 199.491L124.937 200.82L132.101 197.181L130.282 196.574ZM130.282 196.574L124.562 199.491L124.937 200.82L132.101 197.181L130.282 196.574ZM175.199 269.48L175.141 269.365L137.07 198.769L136.607 197.931L134.989 194.928C134.816 194.581 134.412 194.465 134.094 194.638L131.118 196.14L130.281 196.574L124.562 199.491L123.984 199.81L117.254 203.218C117.081 203.305 116.965 203.449 116.908 203.622C116.85 203.795 116.879 203.969 116.966 204.142L135.135 239.18L135.164 239.238L136.665 242.185L136.695 242.214L155.961 279.419L156.134 279.737C156.221 279.881 156.365 279.997 156.538 280.055C156.597 280.084 156.655 280.084 156.712 280.084C156.827 280.084 156.943 280.055 157.03 279.997L174.91 270.378C175.083 270.292 175.199 270.147 175.227 269.974C175.285 269.827 175.257 269.625 175.199 269.48ZM134.845 235.713L134.816 235.627L133.343 232.826L133.314 232.797L118.468 204.113L124.331 201.109H124.36L124.937 200.82L132.101 197.181L132.938 196.748L134.123 196.141L134.758 197.326L135.221 198.193L173.667 269.51L157 278.493L134.845 235.713ZM130.282 196.574L124.562 199.491L124.937 200.82L132.101 197.181L130.282 196.574Z" fill="#25285F"/>
<path d="M200.502 256.655L200.242 256.164L172.425 204.864C172.338 204.72 172.194 204.604 172.021 204.546C171.848 204.488 171.646 204.517 171.471 204.634L155.008 214.946C154.689 215.119 154.603 215.495 154.747 215.812L181.177 266.188L181.553 266.91C181.64 267.054 181.784 267.17 181.957 267.228C181.986 267.228 181.986 267.228 182.014 267.228H182.043C182.072 267.257 182.101 267.257 182.159 267.257C182.275 267.257 182.361 267.228 182.476 267.17L191.835 262.086L200.212 257.551C200.385 257.465 200.501 257.32 200.558 257.147C200.588 256.973 200.588 256.8 200.502 256.655ZM156.25 215.753L171.589 206.134L199 256.684L190.768 261.161L182.42 265.666L182.362 265.551L156.25 215.753Z" fill="#25285F"/>
<path d="M225.343 243.801L224.997 243.166L193.05 185.395C192.962 185.251 192.818 185.135 192.645 185.078C192.472 185.02 192.27 185.049 192.125 185.136L174.939 194.986C174.62 195.188 174.505 195.563 174.678 195.881L205.528 253.392L205.846 253.969C205.962 254.2 206.192 254.316 206.424 254.316C206.54 254.316 206.655 254.287 206.741 254.229L212.633 251.168L225.054 244.726C225.141 244.669 225.227 244.611 225.314 244.524C225.343 244.466 225.372 244.408 225.401 244.321C225.459 244.147 225.43 243.974 225.343 243.801ZM206.712 252.727L176.18 195.822L192.211 186.637L223.811 243.801L223.84 243.858L213.095 249.433L206.712 252.727Z" fill="#25285F"/>
<path d="M303.827 161.418C303.827 184.439 285.13 203.111 262.135 203.111C239.089 203.111 220.417 184.438 220.417 161.418C220.417 146.199 228.577 132.847 240.803 125.584L262.135 161.418L286.128 127.348C296.845 134.868 303.827 147.325 303.827 161.418Z" fill="#17193B"/>
<path d="M283.717 126.304L262.266 156.748L243.21 124.727C248.777 121.399 255.298 119.491 262.266 119.491C270.267 119.492 277.664 122.003 283.717 126.304Z" fill="#FCC614"/>
<path d="M453.247 281.18L431.473 284.686L428.859 285.116L420.617 286.439L390.047 291.391C390.047 291.391 386.172 294.897 381.375 303.508C381.129 304 380.853 304.492 380.576 305.015C380.484 305.199 380.361 305.384 380.268 305.568C377.008 311.842 373.441 320.422 370.427 331.832C368.828 337.922 366.951 342.996 364.952 347.271C364.829 347.548 364.706 347.793 364.552 348.07C364.367 348.5 364.152 348.932 363.937 349.331C356.248 364.216 346.837 367.661 341.762 366.768C340.902 366.614 340.286 365.938 339.794 364.861C339.486 364.154 339.241 363.231 339.087 362.186C338.379 358.003 338.717 351.637 339.364 345.824C339.487 344.532 339.641 343.271 339.764 342.071C340.01 340.441 340.225 338.903 340.44 337.551C340.502 337.089 340.563 336.628 340.625 336.198C340.687 335.829 340.748 335.459 340.81 335.121C341.025 333.706 341.21 332.661 341.302 332.168C341.056 333.091 340.81 334.045 340.563 334.998C340.471 335.336 340.379 335.675 340.286 336.013V336.044C340.163 336.474 340.04 336.843 339.917 337.273C339.425 339.088 338.84 340.872 338.226 342.717C338.226 342.748 338.226 342.748 338.226 342.748C338.195 342.81 338.195 342.871 338.165 342.932C338.165 342.963 338.165 342.994 338.134 343.024C332.845 358.678 324.141 374.393 314.669 371.871C313.807 371.625 313.039 371.041 312.393 370.149C311.84 369.412 311.379 368.488 310.979 367.382V367.351C309.472 363.383 308.795 357.17 308.58 350.128V350.097C308.519 348.867 308.519 347.606 308.488 346.315C308.427 338.442 308.857 329.892 309.411 322.265V322.234C309.442 321.927 309.442 321.619 309.472 321.343C309.503 320.821 309.564 320.297 309.595 319.774C310.394 309.287 311.409 301.106 311.502 300.122C308.488 305.935 304.859 311.286 301.015 315.93C300.737 316.299 300.461 316.637 300.153 316.975C299.938 317.251 299.692 317.498 299.477 317.775C289.636 329.031 278.533 335.797 271.49 334.167C268.783 333.551 267.769 329.216 267.769 323.003C267.769 322.203 267.769 321.373 267.831 320.511C267.985 315.59 268.691 309.778 269.615 303.781C269.676 303.474 269.707 303.166 269.769 302.828C269.861 302.335 269.923 301.874 269.984 301.383C270.599 297.938 271.245 294.494 271.891 291.142C272.045 290.403 272.198 289.635 272.383 288.896C273.275 284.468 274.228 280.315 275.059 276.748C275.151 276.379 275.243 276.011 275.336 275.641C275.428 275.241 275.52 274.873 275.613 274.504C275.644 274.412 275.644 274.318 275.674 274.226V274.195C275.797 273.795 275.889 273.396 275.952 273.027H275.983C276.106 272.535 276.198 272.073 276.321 271.643C276.936 269.274 277.427 267.398 277.766 266.261C280.502 256.85 326.45 216.008 326.45 216.008L443.039 216.777L452.143 274.133L453.247 281.18Z" fill="#EB642A"/>
<path d="M495.651 240.45C495.968 245.476 496.142 250.56 496.142 255.701C496.142 256.856 496.142 258.012 496.084 259.138C496.113 259.428 496.113 259.688 496.084 259.947C496.055 261.218 496.026 262.488 495.968 263.759C495.968 264.915 495.91 266.071 495.853 267.196C495.824 268.236 495.766 269.304 495.68 270.345L453.653 278.433L452.815 278.462L428.06 279.473L426.992 279.531L424.392 280.079L423.005 280.368L420.435 277.306L420.406 277.277L418.558 275.053V275.024L417.979 274.389L407.927 262.286L407.898 262.257L405.934 259.947L405.905 259.918L400.012 252.841L394.813 246.631L394.784 246.602L393.716 245.331L385.57 244.031L339.296 236.579H339.267C339.267 236.579 339.267 236.579 339.238 236.579L338.227 236.435C337.158 237.445 336.09 238.399 335.05 239.38C335.05 239.38 335.05 239.38 335.021 239.38C329.735 244.146 324.622 248.306 319.683 251.888C319.683 251.917 319.654 251.917 319.625 251.945C319.596 251.974 319.596 251.974 319.567 252.003C310.989 258.3 302.958 262.98 295.621 266.388C292.935 267.629 290.364 268.699 287.852 269.623C287.765 269.652 287.708 269.681 287.65 269.681C283.461 271.212 279.591 272.309 275.981 273.032H275.952C271.734 273.869 267.95 274.216 264.629 274.187C263.675 274.187 262.751 274.129 261.885 274.042C258.217 273.782 255.241 273.003 253.046 271.905C251.284 271.039 250.013 269.999 249.262 268.843C249.031 268.526 248.858 268.179 248.713 267.833C248.684 267.776 248.655 267.689 248.655 267.63C248.569 267.37 248.54 267.082 248.597 266.735V266.706C248.684 265.753 249.146 264.569 249.926 263.096C250.272 262.489 250.677 261.796 251.111 261.103C252.381 259.109 254.085 256.827 256.137 254.285C256.83 253.448 257.522 252.61 258.303 251.715C262.548 246.718 267.922 240.969 273.814 235.019C274.479 234.325 275.114 233.69 275.778 233.055C296.028 212.69 326.473 193.574 327.772 185.654C334.436 145.034 346.433 139.174 357.206 184.527C363.285 210.121 419.28 193.395 434.531 196.254C439.124 197.121 441.868 197.669 441.868 197.669C441.868 197.669 443.109 197.64 445.19 197.583H445.219C454 197.323 477.599 196.544 486.9 196.11C487.42 196.081 488.027 196.197 488.691 196.457C490.251 202.436 491.551 208.531 492.619 214.712C492.676 214.972 492.734 215.232 492.734 215.491C492.849 216.04 492.966 216.618 493.024 217.195C493.197 218.149 493.371 219.13 493.515 220.113C494.524 226.817 495.247 233.576 495.651 240.45Z" fill="#EB642A"/>
<path d="M280.807 307.844C280.776 307.875 280.776 307.936 280.746 307.967C280.592 308.305 280.438 308.674 280.254 309.012C278.931 311.995 277.455 314.948 275.364 317.562C273.181 320.268 270.535 322.144 267.768 323.006C267.768 322.206 267.768 321.376 267.83 320.514C269.89 319.715 271.858 318.208 273.55 316.117C275.518 313.717 276.902 310.858 278.194 308.028C278.378 307.69 278.532 307.351 278.686 307.012C278.686 306.982 278.717 306.951 278.717 306.92C278.901 306.49 279.302 306.213 279.732 306.213H279.763C279.917 306.213 280.07 306.274 280.224 306.336C280.378 306.397 280.5 306.49 280.593 306.612C280.9 306.921 281.023 307.413 280.807 307.844Z" fill="#401A49"/>
<path d="M312.393 370.152C311.839 369.415 311.378 368.491 310.978 367.385V367.354C312.762 361.633 311.9 355.113 308.579 350.131V350.1C308.518 348.871 308.518 347.609 308.487 346.318C308.549 346.318 308.579 346.38 308.641 346.441C314.33 352.745 315.776 362.402 312.393 370.152Z" fill="#401A49"/>
<path d="M343.824 354.252C343.885 358.403 342.378 362.31 339.795 364.862C339.487 364.155 339.242 363.232 339.088 362.186C340.687 360.095 341.579 357.266 341.517 354.283C341.486 351.607 340.779 348.839 339.364 345.826C339.487 344.534 339.641 343.273 339.764 342.073C339.979 342.196 340.194 342.381 340.317 342.597C342.624 346.748 343.761 350.592 343.824 354.252Z" fill="#401A49"/>
<path d="M270.32 258.36C268.106 261.098 265.614 263.004 263.001 264.018C261.402 264.665 259.649 264.972 257.804 264.972C255.22 264.972 252.514 264.356 249.931 263.096C250.269 262.48 250.668 261.804 251.099 261.097C254.851 262.85 258.88 263.157 262.171 261.865C264.417 261.003 266.57 259.343 268.537 256.883C273.489 250.824 275.426 242.613 273.827 235.017C274.474 234.34 275.119 233.694 275.764 233.049C278.04 241.722 276.01 251.379 270.32 258.36Z" fill="#401A49"/>
<path d="M342.53 237.008C342.418 237.008 342.302 236.992 342.188 236.957C341.58 236.768 341.24 236.123 341.427 235.514C342.32 232.629 343.11 229.69 343.772 226.775C343.915 226.151 344.54 225.764 345.152 225.905C345.774 226.046 346.163 226.666 346.022 227.285C345.346 230.257 344.541 233.256 343.631 236.197C343.479 236.692 343.023 237.008 342.53 237.008Z" fill="#401A49"/>
<path d="M395.142 246.063C394.861 246.063 394.579 245.961 394.357 245.754C393.89 245.322 393.865 244.593 394.298 244.125L400.224 237.756C400.656 237.289 401.384 237.264 401.852 237.698C402.32 238.133 402.345 238.862 401.912 239.327L395.986 245.696C395.76 245.94 395.452 246.063 395.142 246.063Z" fill="#401A49"/>
<path d="M469.7 204.232C469.577 204.756 469.116 205.124 468.563 205.124C468.501 205.124 468.409 205.124 468.317 205.094L435.348 197.774C434.732 197.62 434.333 197.006 434.456 196.391C434.456 196.36 434.487 196.298 434.517 196.267C439.13 197.128 441.868 197.682 441.868 197.682C441.868 197.682 443.097 197.651 445.189 197.59H445.22L468.808 202.849C469.455 202.972 469.823 203.587 469.7 204.232Z" fill="#401A49"/>
<path d="M320.951 287.437C320.624 287.437 320.299 287.299 320.071 287.03C319.66 286.544 319.72 285.816 320.204 285.404L351.22 259.099C351.435 258.917 351.742 258.836 351.99 258.826L408.919 260.004C409.556 260.018 410.061 260.544 410.048 261.182C410.035 261.811 409.521 262.31 408.895 262.31C408.888 262.31 408.88 262.31 408.871 262.31L352.379 261.143L321.696 287.165C321.48 287.347 321.215 287.437 320.951 287.437Z" fill="#401A49"/>
<path d="M357.463 297.252C357.157 297.252 356.85 297.13 356.622 296.889C356.187 296.425 356.209 295.695 356.673 295.258L376.305 276.806C376.509 276.616 376.775 276.504 377.055 276.494L422.204 274.923C422.812 274.97 423.375 275.397 423.397 276.036C423.418 276.672 422.921 277.207 422.285 277.229L377.568 278.783L358.253 296.94C358.03 297.149 357.747 297.252 357.463 297.252Z" fill="#401A49"/>
<path d="M430.488 286.391C430.169 286.391 429.851 286.259 429.623 286.001L394.948 246.648L342.412 237.249C337.706 240.439 297.272 267.627 277.711 273.645C256.761 280.09 248.146 268.999 247.79 268.524C247.408 268.015 247.51 267.297 248.018 266.914C248.521 266.53 249.244 266.629 249.632 267.136C249.952 267.558 257.719 277.38 277.031 271.44C297.047 265.281 341.06 235.378 341.502 235.077C341.751 234.908 342.058 234.842 342.354 234.896L395.749 244.448C396.006 244.495 396.24 244.625 396.411 244.82L431.352 284.475C431.775 284.954 431.728 285.682 431.25 286.103C431.031 286.297 430.76 286.391 430.488 286.391Z" fill="#401A49"/>
<path d="M495.651 240.45C495.968 245.476 496.142 250.56 496.142 255.701C496.142 256.856 496.142 258.012 496.084 259.138C496.113 259.428 496.113 259.688 496.084 259.947C496.055 261.218 496.026 262.488 495.968 263.759L451.456 269.825L421.965 273.84L419.221 274.215L417.979 274.389L411.22 275.284L401.11 276.67L388.371 278.403L376.211 280.05L372.283 280.598L348.827 283.775L344.928 284.325L325.893 286.895L322.658 287.328L320.144 287.676L315.609 288.311L311.537 288.859L286.523 292.267L282.479 292.817H282.334L278.493 293.337L271.272 294.319L261.105 295.705L259.978 295.879L258.331 296.081L218.672 301.482L212.202 302.377L198.366 300.009L196.748 299.749L193.368 299.172L186.29 297.959L184.933 297.728L179.994 296.89L185.02 293.799L186.377 292.933L191.895 289.554L191.982 289.496L193.05 288.831L211.797 277.248L235.887 274.128L239.931 273.608L251.918 272.048L253.045 271.904L255.875 271.529L270.491 269.652L274.42 269.131L277.048 268.785L286.84 267.514L294.032 266.59L295.62 266.388L346.661 259.773L350.444 259.281L351.138 259.194L353.708 258.847L390.364 254.11L400.011 252.84L400.358 252.811L403.13 252.435L447.787 246.658L495.651 240.45Z" fill="#17193B"/>
<path d="M222.282 298.187L218.684 301.478L212.195 302.369L193.373 299.172L179.995 296.895L191.989 289.484L211.795 277.243L218.868 281.703L214.163 288.5L220.959 290.345L215.209 296.096L222.282 298.187Z" fill="#FFD0C4"/>
<path d="M193.373 299.171L179.995 296.896L191.989 289.485C192.358 290.1 192.634 290.776 192.849 291.453C193.65 293.912 193.834 296.588 193.373 299.171Z" fill="#17193B"/>
<path d="M495.853 267.198C495.824 268.238 495.766 269.307 495.68 270.347C494.901 283.432 493.052 296.199 490.25 308.62C490.192 308.938 490.106 309.256 490.048 309.573C489.846 310.382 489.672 311.162 489.47 311.97C489.384 312.375 489.268 312.75 489.181 313.126C484.53 331.93 477.656 349.839 468.846 366.564C468.817 366.65 468.788 366.737 468.73 366.795C468.586 367.085 468.441 367.344 468.297 367.604C468.297 367.661 468.268 367.69 468.24 367.719C461.914 379.62 454.576 390.943 446.373 401.543C444.755 400.504 443.196 399.464 441.665 398.395C434.069 393.109 427.223 387.708 421.995 382.48C418.239 378.725 411.394 373.988 402.555 368.702C401.226 367.893 399.839 367.084 398.424 366.246C397.962 365.986 397.5 365.697 397.039 365.438C393.862 363.617 390.482 361.74 386.957 359.805C386.466 359.545 385.975 359.256 385.485 359.026C382.567 357.408 379.534 355.82 376.414 354.173C375.952 353.942 375.461 353.681 374.97 353.421C371.59 351.659 368.096 349.868 364.543 348.078C359.43 345.479 354.174 342.85 348.859 340.221C348.367 339.99 347.876 339.759 347.386 339.499C345.132 338.401 342.88 337.304 340.627 336.206C340.51 336.148 340.395 336.09 340.28 336.033C338.864 335.368 337.45 334.675 336.034 333.982C335.542 333.75 335.023 333.519 334.532 333.259C331.383 331.757 328.235 330.255 325.144 328.753C324.625 328.522 324.105 328.291 323.613 328.031C318.818 325.749 314.081 323.525 309.459 321.359C306.282 319.857 303.162 318.412 300.129 316.997C297.442 315.727 294.786 314.485 292.243 313.3C291.723 313.069 291.233 312.838 290.741 312.607C287.246 310.961 283.895 309.43 280.747 307.956C280.083 307.638 279.448 307.349 278.812 307.06C278.783 307.031 278.725 307.002 278.697 307.002C278.206 306.771 277.715 306.54 277.253 306.309C274.596 305.067 272.082 303.911 269.772 302.843V302.814C268.963 302.438 268.183 302.062 267.432 301.716C267.345 301.687 267.259 301.629 267.172 301.601C266.739 301.399 266.335 301.197 265.929 300.966H265.9C263.33 299.551 261.366 297.789 259.979 295.882C259.401 295.131 258.939 294.322 258.564 293.513C258.188 292.791 257.929 292.04 257.727 291.289C255.935 284.79 259.46 277.973 266.566 276.326C269.107 275.719 271.996 275.459 275.347 275.661C275.549 275.661 275.722 275.69 275.924 275.69C282.308 276.124 292.592 278.55 304.203 281.814C304.838 282.016 305.473 282.189 306.138 282.363C309.864 283.432 313.705 284.588 317.576 285.771C318.182 285.974 318.817 286.147 319.453 286.35C319.568 286.379 319.713 286.436 319.828 286.465C320.492 286.667 321.128 286.869 321.792 287.071C322.081 287.158 322.369 287.244 322.659 287.331C326.125 288.429 329.562 289.527 332.971 290.595C333.548 290.798 334.156 291 334.762 291.174C340.828 293.138 346.692 295.073 352.035 296.806C352.15 296.864 352.267 296.893 352.383 296.922C352.527 296.98 352.672 297.009 352.874 297.095C360.586 299.637 367.143 301.775 371.591 303.104C372.256 303.306 372.862 303.479 373.44 303.623C375.058 304.115 376.271 304.403 376.964 304.49C376.993 304.49 377.052 304.49 377.081 304.519C378.005 304.635 379.189 304.808 380.547 305.039C390.772 306.714 410.991 310.759 410.991 310.759L411.107 310.469L413.88 303.45L420.639 286.437L423.036 280.4L424.451 280.14L427.109 279.649L428.061 279.476L452.296 275.085L495.853 267.198Z" fill="#EB642A"/>
<path d="M436.733 315.902C436.64 316.517 436.056 316.947 435.441 316.855C435.041 316.824 397.613 311.381 380.267 305.568C380.113 305.537 379.99 305.476 379.867 305.445C378.976 305.137 377.961 304.799 376.853 304.431C371.194 302.586 362.645 299.971 352.865 297.08C352.681 297.019 352.527 296.988 352.373 296.926C324.417 288.653 286.528 278.166 275.794 276.813C275.548 276.783 275.302 276.752 275.056 276.752C261.371 275.399 258.572 285.332 258.449 285.793C258.326 286.071 257.372 288.131 258.141 290.93V290.961C258.326 291.637 258.633 292.375 259.063 293.114C259.74 294.314 260.755 295.543 262.261 296.774C263.676 297.943 266.413 299.542 269.981 301.388C272.811 302.895 276.132 304.525 279.73 306.217H279.761C280.038 306.371 280.314 306.494 280.591 306.616C284.405 308.431 288.495 310.306 292.523 312.121C293.2 312.429 293.876 312.737 294.523 313.044C296.737 314.028 298.92 315.012 301.012 315.935C301.719 316.242 302.395 316.55 303.072 316.857C305.378 317.903 307.593 318.887 309.592 319.779C313.682 321.655 317.003 323.162 318.849 324.116C321.002 325.253 326.568 328.021 333.857 331.65C335.98 332.696 338.225 333.833 340.562 335.002C340.655 335.033 340.717 335.063 340.809 335.125C348.282 338.846 356.709 343.091 364.951 347.274C381.435 355.578 397.09 363.635 402.41 366.833C402.963 367.172 403.147 367.879 402.81 368.402C402.748 368.525 402.656 368.617 402.564 368.709C402.349 368.894 402.103 368.987 401.825 368.987C401.61 368.987 401.425 368.925 401.241 368.803C395.951 365.635 380.39 357.639 363.936 349.335C355.94 345.306 347.759 341.185 340.439 337.556C340.255 337.464 340.101 337.372 339.916 337.279C337.425 336.049 335.057 334.849 332.843 333.741C325.523 330.081 319.957 327.283 317.804 326.176C316.113 325.314 313.129 323.93 309.408 322.27V322.239C307.193 321.255 304.702 320.148 302.119 318.979C301.258 318.579 300.366 318.211 299.475 317.78C293.324 315.043 286.497 311.967 280.253 309.014C279.546 308.676 278.869 308.369 278.193 308.031C275.087 306.555 272.165 305.109 269.613 303.786C265.584 301.695 262.416 299.88 260.817 298.558C252.853 292.038 256.297 285.057 256.328 284.965C256.328 284.904 258.142 278.476 265.216 275.646C267.215 274.847 269.645 274.323 272.566 274.323C273.274 274.323 274.012 274.355 274.812 274.447C275.058 274.447 275.335 274.447 275.611 274.508C275.765 274.508 275.918 274.508 276.073 274.539C282.993 275.43 300.923 279.982 320.266 285.333C321.158 285.579 322.08 285.825 323.004 286.102C334.445 289.27 346.224 292.683 356.372 295.727C357.172 295.974 357.971 296.189 358.77 296.435H358.801C368.243 299.265 376.085 301.725 380.607 303.262C380.853 303.354 381.129 303.446 381.375 303.508C389.095 306.061 400.628 308.521 411.115 310.458C424.155 312.888 435.534 314.549 435.749 314.58C436.394 314.672 436.825 315.255 436.733 315.902Z" fill="#401A49"/>
<path d="M293.656 313.46C293.578 313.46 293.498 313.452 293.419 313.436C292.796 313.305 292.396 312.696 292.525 312.071C293.458 307.598 291.078 302.415 286.159 298.21C282.265 294.879 277.572 292.491 272.585 291.307C266.918 289.961 261.868 290.725 258.725 293.405C258.246 293.819 257.516 293.765 257.1 293.276C256.686 292.793 256.744 292.064 257.229 291.651C260.936 288.484 266.723 287.54 273.12 289.063C278.46 290.332 283.487 292.89 287.658 296.456C293.227 301.218 295.892 307.232 294.785 312.544C294.67 313.086 294.19 313.46 293.656 313.46Z" fill="#401A49"/>
<path d="M232.864 19.0144C232.835 28.4892 231.189 38.4542 226.827 48.2461C210.362 85.1033 161.893 92.3537 153.401 93.3653L185.579 28.8354C185.175 28.9224 184.8 29.0665 184.423 29.1816C184.192 29.2396 183.961 29.2977 183.73 29.4127C183.701 29.4127 183.672 29.4417 183.643 29.4417L151.522 93.8846C151.407 94.1448 151.465 94.405 151.61 94.6071C151.754 94.8382 151.986 94.9823 152.245 94.9253C152.303 94.9253 153.197 94.8672 154.728 94.6651C165.936 93.1922 212.008 84.9593 228.155 48.8535C232.632 38.8304 234.307 28.6042 234.307 18.8704C233.845 18.8994 233.355 18.9574 232.864 19.0144Z" fill="#17193B"/>
<path d="M159.598 405C161.021 405.398 162.264 406.4 162.918 407.853C164.089 410.453 162.931 413.51 160.332 414.68C157.732 415.852 154.675 414.693 153.505 412.094C152.333 409.494 153.492 406.437 156.091 405.267C157.239 404.75 158.475 404.687 159.598 405Z" fill="#17193B"/>
<path d="M164.682 429.858C164.022 429.858 163.361 429.738 162.725 429.499C161.345 428.977 160.251 427.948 159.644 426.601C159.039 425.258 158.994 423.757 159.515 422.375C160.039 420.996 161.067 419.902 162.412 419.297C163.591 418.765 164.922 418.668 166.165 419.012C167.747 419.451 169.043 420.566 169.718 422.065C170.967 424.839 169.725 428.117 166.951 429.368C166.224 429.695 165.454 429.858 164.682 429.858ZM164.686 419.532C164.009 419.532 163.335 419.674 162.709 419.956C161.54 420.481 160.646 421.432 160.192 422.632C159.737 423.831 159.777 425.135 160.304 426.306C160.83 427.475 161.782 428.37 162.98 428.824C164.18 429.273 165.485 429.238 166.654 428.709C169.066 427.622 170.146 424.774 169.059 422.359C168.472 421.057 167.347 420.091 165.97 419.706C165.55 419.589 165.118 419.532 164.686 419.532Z" fill="#17193B"/>
<path d="M171.159 444.216C169.051 444.216 167.035 443.004 166.113 440.959C165.508 439.615 165.461 438.116 165.985 436.736C166.508 435.357 167.536 434.263 168.882 433.656C170.059 433.128 171.391 433.021 172.635 433.374C174.219 433.816 175.513 434.927 176.188 436.423C177.438 439.201 176.196 442.478 173.421 443.73C172.685 444.059 171.916 444.216 171.159 444.216ZM171.149 433.89C170.474 433.89 169.801 434.032 169.178 434.314C168.009 434.841 167.115 435.79 166.661 436.992C166.206 438.19 166.246 439.494 166.773 440.664C167.858 443.076 170.705 444.158 173.122 443.069C175.536 441.983 176.615 439.133 175.528 436.718C174.943 435.419 173.817 434.452 172.439 434.067C172.017 433.95 171.583 433.89 171.149 433.89Z" fill="#17193B"/>
<path d="M334.326 72.2957C334.722 70.8718 335.723 69.628 337.174 68.9717C339.773 67.7969 342.831 68.9516 344.005 71.5502C345.178 74.1488 344.025 77.2066 341.426 78.3803C338.827 79.554 335.77 78.4003 334.596 75.8018C334.078 74.6561 334.013 73.4203 334.326 72.2957Z" fill="#F1F1F9"/>
<path d="M353.659 72.7149C351.553 72.7149 349.539 71.5062 348.618 69.468C348.086 68.2893 347.984 66.9574 348.328 65.7137C348.769 64.1327 349.879 62.836 351.377 62.1565C354.152 60.8998 357.43 62.1435 358.684 64.9162C359.938 67.6909 358.7 70.9709 355.926 72.2246C355.19 72.5568 354.418 72.7149 353.659 72.7149ZM349.026 65.9078C348.724 66.9865 348.815 68.1462 349.277 69.1698C350.365 71.5802 353.217 72.6569 355.629 71.5652C358.041 70.4766 359.117 67.6259 358.028 65.2154C357.5 64.0467 356.548 63.1521 355.347 62.6979C354.15 62.2456 352.842 62.2886 351.674 62.8149C350.373 63.4053 349.408 64.532 349.026 65.9078Z" fill="#F1F1F9"/>
<path d="M368.01 66.23C365.905 66.23 363.89 65.0213 362.969 62.983C362.437 61.8063 362.335 60.4725 362.679 59.2288C363.12 57.6478 364.23 56.351 365.728 55.6716C368.5 54.4148 371.781 55.6546 373.035 58.4293C374.289 61.2069 373.051 64.4869 370.276 65.7407C369.542 66.0729 368.769 66.23 368.01 66.23ZM363.377 59.4239C363.076 60.5055 363.165 61.6622 363.627 62.6838C364.719 65.0993 367.572 66.1759 369.98 65.0813C372.393 63.9926 373.468 61.1419 372.38 58.7265C371.851 57.5597 370.9 56.6662 369.699 56.2139C368.499 55.7647 367.194 55.8017 366.026 56.331C364.724 56.9204 363.759 58.047 363.377 59.4239Z" fill="#F1F1F9"/>
<path d="M108.78 374.633C111.048 376.527 112.491 379.376 112.491 382.562C112.491 388.264 107.868 392.887 102.166 392.887C96.4632 392.887 91.8405 388.264 91.8405 382.562C91.8405 376.859 96.4632 372.237 102.166 372.237C104.682 372.237 106.988 373.137 108.78 374.633Z" fill="#8ABB3F"/>
<path d="M100.419 124.996C103.741 127.769 105.854 131.942 105.854 136.606C105.854 144.956 99.0848 151.726 90.7348 151.726C82.3847 151.726 75.6166 144.956 75.6166 136.606C75.6166 128.256 82.3857 121.488 90.7348 121.488C94.419 121.488 97.796 122.806 100.419 124.996Z" fill="#FCC614"/>
<path d="M390.466 141.863C385.35 146.302 377.603 145.755 373.162 140.639C368.723 135.523 369.27 127.775 374.386 123.335C379.502 118.895 387.249 119.443 391.689 124.559C396.13 129.675 395.582 137.422 390.466 141.863Z" fill="#FCC614"/>
<path d="M451.153 174.361C446.037 178.802 438.289 178.254 433.85 173.138C429.41 168.021 429.957 160.274 435.074 155.834C440.19 151.393 447.937 151.942 452.377 157.058C456.818 162.174 456.269 169.921 451.153 174.361Z" fill="#8ABB3F"/>
<path d="M445.284 164.989C445.284 164.989 445.282 164.989 445.28 164.989L405.429 164.716C405.26 164.713 405.1 164.641 404.99 164.514L380.395 136.173L339.012 123.951C338.701 123.859 338.524 123.534 338.615 123.224C338.706 122.914 339.037 122.74 339.344 122.827L380.891 135.097C380.998 135.13 381.094 135.189 381.167 135.274L405.701 163.545L445.287 163.815C445.61 163.818 445.871 164.082 445.869 164.407C445.867 164.728 445.606 164.989 445.284 164.989Z" fill="#17193B"/>
<path d="M438.381 171.641C438.217 171.641 438.053 171.571 437.938 171.439C437.726 171.193 437.752 170.824 437.997 170.612L445.172 164.385L435.576 159.522C435.288 159.377 435.172 159.023 435.319 158.736C435.464 158.444 435.817 158.334 436.105 158.479L446.477 163.737C446.652 163.824 446.77 163.994 446.795 164.186C446.819 164.381 446.744 164.573 446.596 164.7L438.765 171.498C438.654 171.593 438.517 171.641 438.381 171.641Z" fill="#17193B"/>
</svg>
