<svg width="31" height="31" viewBox="0 0 31 31" fill="none" xmlns="http://www.w3.org/2000/svg">
<path d="M10.54 13.8725L13.8725 10.5013L11.7025 8.2925L9.9975 9.9975L7.8275 7.8275L9.49375 6.1225L7.75 4.37875L4.37875 7.75L10.54 13.8725ZM23.25 26.6213L26.6213 23.25L24.8775 21.5062L23.1725 23.1725L21.0025 21.0025L22.6687 19.2975L20.46 17.1275L17.1275 20.46L23.25 26.6213ZM8.1375 29.45H1.55V22.8625L8.33125 16.0812L0 7.75L7.75 0L16.12 8.37L21.9713 2.48C22.2812 2.17 22.63 1.9375 23.0175 1.7825C23.405 1.6275 23.8054 1.55 24.2188 1.55C24.6321 1.55 25.0325 1.6275 25.42 1.7825C25.8075 1.9375 26.1562 2.17 26.4662 2.48L28.52 4.5725C28.83 4.8825 29.0625 5.23125 29.2175 5.61875C29.3725 6.00625 29.45 6.40667 29.45 6.82C29.45 7.23333 29.3725 7.62729 29.2175 8.00187C29.0625 8.37646 28.83 8.71875 28.52 9.02875L22.6687 14.9187L31 23.25L23.25 31L14.9187 22.6687L8.1375 29.45ZM4.65 26.35H6.82L22.01 11.1987L19.8013 8.99L4.65 24.18V26.35Z" fill="#43ACB5"/>
</svg>
