<svg width="61" height="61" viewBox="0 0 61 61" fill="none" xmlns="http://www.w3.org/2000/svg">
<circle cx="30.5" cy="30.5" r="30.5" fill="#FCC614"/>
<path d="M27.26 40.4506H22.4933C21.8378 40.4506 21.2767 40.2172 20.81 39.7504C20.3432 39.2837 20.1099 38.7226 20.1099 38.0672V29.7253C20.1099 28.2357 20.3929 26.8404 20.9589 25.5394C21.525 24.2385 22.2897 23.1064 23.253 22.1431C24.2163 21.1798 25.3484 20.4151 26.6493 19.8491C27.9502 19.283 29.3455 19 30.8351 19C32.3248 19 33.72 19.283 35.021 19.8491C36.3219 20.4151 37.454 21.1798 38.4173 22.1431C39.3806 23.1064 40.1453 24.2385 40.7113 25.5394C41.2774 26.8404 41.5604 28.2357 41.5604 29.7253V38.0672C41.5604 38.7226 41.327 39.2837 40.8603 39.7504C40.3935 40.2172 39.8325 40.4506 39.177 40.4506H34.4102V30.917H39.177V29.7253C39.177 27.4015 38.3677 25.4302 36.7489 23.8115C35.1302 22.1928 33.1589 21.3834 30.8351 21.3834C28.5113 21.3834 26.5401 22.1928 24.9213 23.8115C23.3026 25.4302 22.4933 27.4015 22.4933 29.7253V30.917H27.26V40.4506Z" fill="#17193B"/>
</svg>
