<svg width="25" height="25" viewBox="0 0 25 25" fill="none" xmlns="http://www.w3.org/2000/svg">
<path d="M12.3012 0.0493164C15.6327 0.0493164 16.0484 0.0615781 17.3555 0.122887C18.6614 0.184196 19.5504 0.388968 20.3327 0.69306C21.142 1.00451 21.8237 1.42632 22.5055 2.10684C23.129 2.71981 23.6114 3.46127 23.9193 4.27963C24.2221 5.06071 24.4281 5.95091 24.4894 7.25679C24.5471 8.5639 24.563 8.97958 24.563 12.3111C24.563 15.6426 24.5507 16.0583 24.4894 17.3654C24.4281 18.6713 24.2221 19.5603 23.9193 20.3426C23.6123 21.1614 23.1297 21.903 22.5055 22.5154C21.8923 23.1387 21.1509 23.6211 20.3327 23.9291C19.5516 24.232 18.6614 24.438 17.3555 24.4993C16.0484 24.557 15.6327 24.5729 12.3012 24.5729C8.96969 24.5729 8.55401 24.5606 7.24691 24.4993C5.94103 24.438 5.05205 24.232 4.26975 23.9291C3.45106 23.622 2.70947 23.1394 2.09696 22.5154C1.47333 21.9025 0.990859 21.161 0.683173 20.3426C0.37908 19.5615 0.174308 18.6713 0.112999 17.3654C0.055369 16.0583 0.0394287 15.6426 0.0394287 12.3111C0.0394287 8.97958 0.0516904 8.5639 0.112999 7.25679C0.174308 5.94969 0.37908 5.06193 0.683173 4.27963C0.990007 3.46077 1.47259 2.7191 2.09696 2.10684C2.70964 1.483 3.45118 1.0005 4.26975 0.69306C5.05205 0.388968 5.9398 0.184196 7.24691 0.122887C8.55401 0.0652567 8.96969 0.0493164 12.3012 0.0493164ZM12.3012 6.18021C10.6752 6.18021 9.11579 6.82614 7.96602 7.97591C6.81625 9.12567 6.17032 10.6851 6.17032 12.3111C6.17032 13.9371 6.81625 15.4965 7.96602 16.6463C9.11579 17.7961 10.6752 18.442 12.3012 18.442C13.9272 18.442 15.4866 17.7961 16.6364 16.6463C17.7862 15.4965 18.4321 13.9371 18.4321 12.3111C18.4321 10.6851 17.7862 9.12567 16.6364 7.97591C15.4866 6.82614 13.9272 6.18021 12.3012 6.18021ZM20.2714 5.87367C20.2714 5.46716 20.1099 5.07731 19.8225 4.78987C19.535 4.50243 19.1452 4.34094 18.7387 4.34094C18.3322 4.34094 17.9423 4.50243 17.6549 4.78987C17.3674 5.07731 17.2059 5.46716 17.2059 5.87367C17.2059 6.28017 17.3674 6.67002 17.6549 6.95746C17.9423 7.24491 18.3322 7.40639 18.7387 7.40639C19.1452 7.40639 19.535 7.24491 19.8225 6.95746C20.1099 6.67002 20.2714 6.28017 20.2714 5.87367ZM12.3012 8.63257C13.2768 8.63257 14.2125 9.02013 14.9023 9.70999C15.5922 10.3998 15.9798 11.3355 15.9798 12.3111C15.9798 13.2867 15.5922 14.2224 14.9023 14.9122C14.2125 15.6021 13.2768 15.9896 12.3012 15.9896C11.3256 15.9896 10.39 15.6021 9.7001 14.9122C9.01024 14.2224 8.62268 13.2867 8.62268 12.3111C8.62268 11.3355 9.01024 10.3998 9.7001 9.70999C10.39 9.02013 11.3256 8.63257 12.3012 8.63257Z" fill="#D4D4ED"/>
</svg>
