<svg width="512" height="510" viewBox="0 0 512 510" fill="none" xmlns="http://www.w3.org/2000/svg">
<path d="M252.332 509.012C175.003 509.282 99.7871 472.058 52.8031 410.76C44.4578 400.002 36.9685 388.551 30.5362 376.72C30.4412 376.546 30.2102 376.095 30.1832 376.048C23.6719 363.994 18.1167 351.302 13.6665 338.322C-5.12724 284.005 -4.57822 222.61 15.5706 168.613C20.1078 156.279 25.659 144.245 32.1053 132.746C28.4841 119.786 27.3791 106.134 28.9142 92.8548C29.4862 87.8916 32.3793 83.7574 36.3835 81.4103C39.1616 68.0417 44.9328 55.3802 53.3042 44.3938C63.2076 31.3982 76.1061 21.4528 90.9457 15.2916C92.4938 10.9434 95.9859 7.34626 100.722 5.8412C110.87 2.61506 121.421 0.977997 132.079 0.977997C149.346 0.977997 166.239 5.28617 181.354 13.4925C187.649 11.6254 193.986 10.0224 200.256 8.71331C260.016 -4.13921 324.501 5.62618 377.556 36.0324C386.054 40.8486 394.442 46.3099 402.556 52.3011H468.672C492.564 52.3011 512.001 71.7379 512.001 95.6299V356.699C512.001 369.348 501.712 379.638 489.062 379.638H473.595C467.525 390.485 460.603 400.938 452.974 410.775C405.991 472.228 329.835 509.714 252.332 509.012Z" fill="#F1F1F9"/>
<path d="M491.765 256.1C491.836 294.361 482.312 333.231 464.442 366.792C393.645 503.598 206.994 536.459 94.0058 431.581C93.9808 431.581 93.9808 431.581 93.9808 431.581C-82.3394 265.451 64.9076 -22.0619 302.622 23.449C302.622 23.449 302.622 23.423 302.648 23.449C341.271 31.3733 377.596 49.2661 407.555 74.6791H407.58C460.489 118.961 492.183 187.013 491.765 256.1Z" fill="#D4D4ED"/>
<path d="M437.502 104.933C428.123 139.902 396.212 165.645 358.287 165.645C312.995 165.645 276.293 128.942 276.293 83.6515C276.293 59.8715 286.438 38.4366 302.621 23.45C302.621 23.424 302.621 23.424 302.647 23.45C305.197 23.96 307.694 24.5211 310.192 25.1321C310.523 25.2081 310.804 25.2851 311.135 25.3611C315.035 26.3301 318.959 27.3752 322.782 28.5722C323.088 28.6492 323.445 28.7252 323.75 28.8522C338.304 33.2874 352.245 39.0987 365.473 46.1329C365.83 46.311 366.187 46.515 366.569 46.693C367.818 47.381 369.092 48.07 370.341 48.8081C370.596 48.9101 370.825 49.0631 371.08 49.2161C383.34 56.1484 394.911 64.1777 405.667 73.1231C406.304 73.6331 406.941 74.1431 407.553 74.6781H407.578C407.782 74.8051 407.986 74.9841 408.139 75.1621C418.69 84.1085 428.402 93.9969 437.246 104.625C437.324 104.729 437.401 104.831 437.502 104.933Z" fill="#43ACB5"/>
<path d="M138.33 385.602C138.33 409.611 83.8104 421.752 83.8104 421.752C77.8232 415.604 72.1769 409.124 66.9127 402.347C66.7347 402.169 66.5817 401.964 66.4537 401.761C58.5524 391.616 51.4421 380.81 45.2478 369.417C45.1718 369.213 45.0438 369.009 44.9168 368.78C38.7746 357.413 33.5493 345.485 29.3182 333.098C29.2162 332.843 29.1402 332.614 29.0892 332.385C28.6561 331.111 28.2231 329.811 27.8151 328.511C25.929 322.699 24.298 316.761 22.8709 310.721C33.0913 306.159 44.4078 303.609 56.3363 303.609C101.627 303.608 138.33 340.311 138.33 385.602Z" fill="#454AB0"/>
<path d="M71.7809 365.621C66.8627 365.621 62.8605 361.619 62.8605 356.701V95.63C62.8605 79.4683 76.0091 66.3188 92.1707 66.3188H469.948C486.111 66.3188 499.258 79.4683 499.258 95.63V356.701C499.258 361.619 495.256 365.621 490.338 365.621H71.7809Z" fill="white"/>
<path d="M469.948 67.5938C485.42 67.5938 497.984 80.1593 497.984 95.63V356.699C497.984 360.93 494.543 364.345 490.338 364.345H71.7819C67.5757 364.345 64.1356 360.93 64.1356 356.699V95.63C64.1356 80.1593 76.7011 67.5938 92.1717 67.5938H469.948ZM469.948 65.0447H92.1717C75.307 65.0447 61.5865 78.7653 61.5865 95.63V356.699C61.5865 362.321 66.1597 366.894 71.7819 366.894H490.338C495.96 366.894 500.534 362.321 500.534 356.699V95.63C500.533 78.7653 486.813 65.0447 469.948 65.0447Z" fill="#401A49"/>
<path d="M84.9684 321.551C84.7264 321.551 84.4834 321.491 84.2594 321.364C83.5574 320.971 83.3084 320.082 83.7024 319.383L133.246 231.195C133.5 230.742 133.978 230.457 134.495 230.45C134.969 230.442 135.497 230.711 135.765 231.16L180.133 305.435L277.954 151.854C278.213 151.448 278.656 151.194 279.139 151.182C279.527 151.087 280.077 151.391 280.361 151.782L390.339 303.665L457.324 203.352C457.767 202.69 458.671 202.503 459.343 202.951C460.01 203.396 460.192 204.3 459.744 204.969L391.596 307.024C391.332 307.42 390.889 307.661 390.414 307.671C389.884 307.686 389.491 307.455 389.207 307.069L279.259 155.225L181.321 308.987C181.05 309.415 180.49 309.587 180.074 309.661C179.569 309.653 179.103 309.385 178.844 308.952L134.554 234.809L86.2405 320.806C85.9715 321.283 85.4785 321.551 84.9684 321.551Z" fill="#25285F"/>
<path d="M288.206 164.905C283.108 169.329 275.388 168.783 270.964 163.686C266.54 158.588 267.085 150.868 272.184 146.443C277.282 142.019 285.002 142.565 289.426 147.662C293.85 152.76 293.304 160.481 288.206 164.905Z" fill="#43ACB5"/>
<path d="M397.531 313.275C392.433 317.699 384.714 317.153 380.289 312.055C375.864 306.957 376.41 299.237 381.509 294.812C386.607 290.388 394.326 290.934 398.751 296.031C403.174 301.13 402.629 308.851 397.531 313.275Z" fill="#B22025"/>
<path d="M144.391 241.693C139.293 246.117 131.573 245.571 127.148 240.473C122.724 235.375 123.27 227.655 128.368 223.231C133.466 218.807 141.186 219.353 145.611 224.451C150.035 229.548 149.489 237.269 144.391 241.693Z" fill="#8ABB3F"/>
<path d="M276.523 404.055C276.319 414.504 250.118 454.444 223.993 491.808C218.743 491.145 213.544 490.305 208.395 489.285C208.115 489.259 207.86 489.208 207.553 489.158C195.931 486.838 184.615 483.678 173.68 479.728C173.374 479.651 173.094 479.524 172.788 479.422C167.563 477.511 162.44 475.445 157.393 473.177C157.087 473.024 156.756 472.922 156.45 472.769C147.071 468.512 137.998 463.67 129.306 458.293C129.077 458.165 128.847 458.038 128.618 457.834C122.756 454.215 117.073 450.315 111.568 446.186C106.317 442.261 101.245 438.081 96.3519 433.723C95.9189 433.366 95.5109 432.984 95.1029 432.576C94.8989 432.449 94.7209 432.27 94.5429 432.091C94.3389 431.913 94.1859 431.785 94.0078 431.581C93.9828 431.581 93.9828 431.581 93.9828 431.581C90.5417 428.446 87.1776 425.208 83.9404 421.87C93.0388 393.375 111.111 353.003 125.408 339.699C142.434 323.846 153.979 322.902 153.979 322.902C153.979 322.902 228.836 190.724 258.606 164.854C259.829 163.783 260.976 162.917 262.021 162.229C264.111 160.878 265.869 160.292 267.246 160.547C270.279 161.184 272.012 163.325 272.776 166.638C273.056 167.785 273.184 169.059 273.209 170.486C273.209 170.511 273.209 170.537 273.209 170.537C273.795 197.809 233.653 271.671 225.777 285.868C225.752 285.944 225.701 286.021 225.65 286.097C224.885 287.499 224.452 288.263 224.452 288.263C224.452 288.263 224.478 288.263 224.554 288.263C225.013 288.339 226.975 288.645 229.524 289.69C236.024 292.315 246.346 299.604 245.403 319.179C245.403 319.179 254.374 321.753 261.053 328.916C264.927 333.045 268.011 338.703 268.164 346.323C268.291 353.435 267.501 359.704 266.38 364.879C264.265 374.768 260.977 380.605 260.977 380.605C260.977 380.605 276.956 383.13 276.523 404.055Z" fill="#EB642A"/>
<path d="M272.783 166.644C273.055 167.784 273.184 169.065 273.203 170.478C273.211 170.512 273.219 170.545 273.219 170.545C271.542 174.951 269.541 179.185 267.215 183.251C265.777 185.686 264.103 188.177 261.621 189.655C260.939 190.066 260.167 190.392 259.328 190.592C257.148 191.113 254.726 190.769 253.039 189.046C250.971 186.917 250.772 183.562 252.436 178.804C254.159 173.997 256.198 169.328 258.604 164.855C259.836 163.781 260.974 162.907 262.018 162.232C258.817 167.675 256.147 173.416 254.06 179.373C252.621 183.439 252.683 186.224 254.28 187.863C255.926 189.561 258.873 189.283 260.766 188.157C263.004 186.843 264.492 184.467 265.694 182.372C268.607 177.353 270.969 172.11 272.783 166.644Z" fill="#401A49"/>
<path d="M201.693 334.092C201.561 334.092 201.427 334.062 201.302 334C200.876 333.783 200.71 333.263 200.924 332.84C201.347 332.009 243.307 249.569 250.777 234.666C250.991 234.24 251.504 234.066 251.934 234.28C252.36 234.494 252.531 235.012 252.32 235.437C244.846 250.346 202.886 332.79 202.463 333.621C202.308 333.92 202.007 334.092 201.693 334.092Z" fill="#401A49"/>
<path d="M236.369 357.68C236.267 357.68 236.162 357.663 236.06 357.623C235.614 357.454 235.393 356.954 235.565 356.51C238.639 348.51 241.817 340.241 243.435 331.699C245.242 322.143 244.799 313.594 242.113 306.286C238.972 297.746 232.571 291.147 224.983 288.636C224.532 288.487 224.286 287.999 224.435 287.546C224.584 287.095 225.077 286.852 225.525 286.999C233.605 289.675 240.41 296.663 243.73 305.692C246.523 313.296 246.993 322.154 245.126 332.018C243.481 340.714 240.273 349.057 237.171 357.127C237.041 357.471 236.715 357.68 236.369 357.68Z" fill="#401A49"/>
<path d="M256.378 393.867C256.293 393.867 256.209 393.855 256.124 393.83C255.669 393.688 255.414 393.205 255.553 392.752C257.032 387.973 258.817 383.299 260.544 378.782C262.535 373.567 264.596 368.176 266.166 362.648C268.209 355.455 270.534 341.974 263.154 332.496C258.49 326.504 251.56 323.338 245.397 321.031C244.952 320.864 244.725 320.369 244.892 319.924C245.059 319.478 245.552 319.247 245.999 319.419C252.388 321.808 259.585 325.106 264.513 331.437C272.363 341.515 269.956 355.615 267.823 363.122C266.23 368.72 264.157 374.148 262.153 379.398C260.436 383.89 258.661 388.537 257.2 393.261C257.087 393.631 256.746 393.867 256.378 393.867Z" fill="#401A49"/>
<path d="M497.984 95.63V118.799H64.1356V95.63C64.1356 80.1593 76.7011 67.5938 92.1718 67.5938H469.948C485.419 67.5938 497.984 80.1593 497.984 95.63Z" fill="#454AB0"/>
<path d="M422.346 95.8776C422.346 100.63 418.494 104.482 413.742 104.482C408.99 104.482 405.138 100.63 405.138 95.8776C405.138 91.1256 408.99 87.2736 413.742 87.2736C418.494 87.2736 422.346 91.1256 422.346 95.8776Z" fill="#F1F1F9"/>
<path d="M448.159 95.8776C448.159 100.63 444.307 104.482 439.555 104.482C434.803 104.482 430.951 100.63 430.951 95.8776C430.951 91.1256 434.803 87.2736 439.555 87.2736C444.307 87.2736 448.159 91.1256 448.159 95.8776Z" fill="#F1F1F9"/>
<path d="M473.465 95.8776C473.465 100.63 469.613 104.482 464.861 104.482C460.109 104.482 456.257 100.63 456.257 95.8776C456.257 91.1256 460.109 87.2736 464.861 87.2736C469.613 87.2736 473.465 91.1256 473.465 95.8776Z" fill="#F1F1F9"/>
<path d="M458.911 223.326C458.898 223.326 458.889 223.326 458.876 223.326C458.072 223.309 457.437 222.642 457.457 221.838L457.845 205.682L442.598 215.03C441.906 215.453 441.017 215.232 440.597 214.552C440.176 213.865 440.39 212.969 441.075 212.551L458.602 201.804C459.06 201.523 459.628 201.518 460.09 201.782C460.551 202.048 460.829 202.546 460.817 203.079L460.364 221.908C460.347 222.699 459.7 223.326 458.911 223.326Z" fill="#25285F"/>
<path d="M397.057 220.911C419.819 220.911 438.271 202.459 438.271 179.697C438.271 156.936 419.819 138.484 397.057 138.484C374.296 138.484 355.844 156.936 355.844 179.697C355.844 202.459 374.296 220.911 397.057 220.911Z" fill="#8ABB3F"/>
<path d="M397.057 217.921C375.98 217.921 358.834 200.774 358.834 179.697C358.834 158.621 375.98 141.474 397.057 141.474C418.134 141.474 435.282 158.621 435.282 179.697C435.282 200.774 418.134 217.921 397.057 217.921ZM397.057 142.111C376.332 142.111 359.471 158.972 359.471 179.697C359.471 200.423 376.332 217.284 397.057 217.284C417.783 217.284 434.645 200.423 434.645 179.697C434.645 158.972 417.783 142.111 397.057 142.111Z" fill="#FFF5EE"/>
<path d="M399.908 195.478V199.522H397.795V195.522C392.851 195.295 389.163 193.003 387.77 189.138L389.838 187.968C390.872 191.116 393.615 193.003 397.795 193.227V179.875C393.209 178.257 389.254 176.592 389.254 171.244C389.254 166.567 393.03 163.421 397.795 163.108V159.061H399.908V163.108C403.461 163.511 406.472 165.4 407.866 168.77L405.844 169.895C404.81 167.331 402.786 165.803 399.908 165.445V178.213C404.495 179.831 408.63 181.628 408.63 186.98C408.63 191.7 405.033 194.983 399.908 195.478ZM397.795 177.45V165.401C394.109 165.714 391.636 168.099 391.636 171.245C391.636 174.796 394.243 176.145 397.795 177.45ZM406.203 186.981C406.203 183.385 403.595 181.9 399.908 180.596V193.139C403.954 192.69 406.203 190.216 406.203 186.981Z" fill="white"/>
<path d="M186.87 34.3545C225.708 63.9507 233.171 119.502 203.607 158.298C173.978 197.179 118.47 204.674 79.6322 175.078C53.9562 155.511 41.9207 124.58 45.3838 94.6129L133.268 104.694L106.634 20.4139C133.098 12.0005 163.092 16.2347 186.87 34.3545Z" fill="#FCC614"/>
<path d="M106.965 20.4139L133.613 105.133L45.0348 94.5629C46.8559 79.2133 52.7461 64.1307 62.8885 50.9801C74.532 35.8815 90.0366 25.5771 106.965 20.4139Z" fill="#17193B"/>
<path d="M310.17 434.77C313.346 440.726 311.092 448.129 305.135 451.306C299.179 454.482 291.775 452.228 288.6 446.271C285.424 440.315 287.678 432.912 293.634 429.736C299.59 426.559 306.994 428.813 310.17 434.77Z" fill="#F1F1F9"/>
<path d="M355.225 383.042C358.401 388.998 356.147 396.401 350.19 399.577C344.234 402.754 336.831 400.499 333.655 394.543C330.478 388.587 332.733 381.184 338.689 378.008C344.645 374.831 352.048 377.085 355.225 383.042Z" fill="#EB642A"/>
<path d="M280.828 481.068C280.731 481.068 280.63 481.043 280.541 480.991C280.26 480.834 280.16 480.478 280.32 480.197L301.472 442.567C301.524 442.47 301.606 442.39 301.706 442.338L334.619 424.788L343.681 386.395C343.753 386.081 344.067 385.877 344.383 385.962C344.697 386.034 344.891 386.35 344.816 386.664L335.694 425.313C335.657 425.475 335.55 425.614 335.4 425.694L302.405 443.289L281.336 480.769C281.228 480.961 281.032 481.068 280.828 481.068Z" fill="#401A49"/>
<path d="M349.173 395.298C348.964 395.298 348.762 395.186 348.658 394.987L344.203 386.637L337.346 394.875C337.142 395.126 336.771 395.159 336.525 394.95C336.276 394.743 336.244 394.377 336.45 394.129L343.862 385.224C343.989 385.075 344.18 385.005 344.37 385.017C344.564 385.037 344.733 385.151 344.826 385.323L349.689 394.44C349.841 394.724 349.734 395.077 349.448 395.229C349.359 395.276 349.265 395.298 349.173 395.298Z" fill="#401A49"/>
<path d="M394.075 395.365C394.075 397.521 392.327 399.269 390.17 399.269C388.014 399.269 386.266 397.521 386.266 395.365C386.266 393.209 388.014 391.461 390.17 391.461C392.327 391.461 394.075 393.209 394.075 395.365Z" fill="#17193B"/>
<path d="M410.343 395.365C410.343 397.521 408.595 399.269 406.439 399.269C404.283 399.269 402.535 397.521 402.535 395.365C402.535 393.209 404.283 391.461 406.439 391.461C408.595 391.461 410.343 393.209 410.343 395.365Z" fill="#17193B"/>
<path d="M426.612 395.365C426.612 397.521 424.864 399.269 422.708 399.269C420.552 399.269 418.804 397.521 418.804 395.365C418.804 393.209 420.552 391.461 422.708 391.461C424.863 391.461 426.612 393.209 426.612 395.365Z" fill="#17193B"/>
<path d="M260.02 49.8189C260.02 51.9749 258.272 53.7229 256.116 53.7229C253.96 53.7229 252.212 51.9749 252.212 49.8189C252.212 47.6629 253.96 45.9149 256.116 45.9149C258.272 45.9149 260.02 47.6629 260.02 49.8189Z" fill="#17193B"/>
<path d="M276.289 49.8189C276.289 51.9749 274.541 53.7229 272.385 53.7229C270.229 53.7229 268.481 51.9749 268.481 49.8189C268.481 47.6629 270.229 45.9149 272.385 45.9149C274.541 45.9149 276.289 47.6629 276.289 49.8189Z" fill="#17193B"/>
<path d="M292.559 49.8189C292.559 51.9749 290.811 53.7229 288.654 53.7229C286.498 53.7229 284.75 51.9749 284.75 49.8189C284.75 47.6629 286.498 45.9149 288.654 45.9149C290.81 45.9149 292.559 47.6629 292.559 49.8189Z" fill="#17193B"/>
<path d="M43.9736 257.408C46.1296 257.408 47.8776 259.156 47.8776 261.313C47.8776 263.469 46.1296 265.217 43.9736 265.217C41.8176 265.217 40.0696 263.469 40.0696 261.313C40.0686 259.156 41.8166 257.408 43.9736 257.408Z" fill="#17193B"/>
<path d="M43.9736 241.139C46.1296 241.139 47.8776 242.887 47.8776 245.043C47.8776 247.199 46.1296 248.947 43.9736 248.947C41.8176 248.947 40.0696 247.199 40.0696 245.043C40.0686 242.887 41.8166 241.139 43.9736 241.139Z" fill="#17193B"/>
<path d="M43.9736 224.87C46.1296 224.87 47.8776 226.618 47.8776 228.774C47.8776 230.93 46.1296 232.678 43.9736 232.678C41.8176 232.678 40.0696 230.93 40.0696 228.774C40.0686 226.618 41.8166 224.87 43.9736 224.87Z" fill="#17193B"/>
</svg>
