<svg width="427" height="8" viewBox="0 0 427 8" fill="none" xmlns="http://www.w3.org/2000/svg">
<path d="M426.905 7.00369C424.74 6.85323 422.752 6.79358 420.584 6.7285C418.416 6.66343 416.431 6.5184 414.265 6.36794C409.573 6.05619 405.064 5.66449 400.371 5.35274C391.528 4.74551 382.504 4.13285 373.654 3.78175C365.528 3.36696 357.22 3.03212 349.089 2.78808C346.921 2.723 344.753 2.65792 342.766 2.59827C334.633 2.4396 326.502 2.19556 318.369 2.0369C299.39 1.72359 280.23 1.40486 261.246 1.26231C242.624 1.1306 224.001 0.998894 205.557 0.957983C196.515 0.942952 187.293 0.922497 178.251 0.907464C168.301 1.03607 158.356 0.993918 148.589 1.04257C128.15 1.19813 107.893 1.27374 87.4535 1.4293C69.7265 1.58083 52.1726 1.99391 34.6109 2.66311C23.3833 3.18062 11.9724 3.77809 0.742134 4.38098C13.5575 5.19289 26.5612 5.75411 39.5674 6.22995C48.0593 6.48483 56.5537 6.65435 64.8674 6.81844C70.2904 6.89575 75.7158 6.8877 81.322 6.88507C84.7574 6.90273 88.0147 6.8296 91.2721 6.75646C100.138 6.59532 109.182 6.52498 118.048 6.36384C128.36 6.24608 138.493 6.03753 148.805 5.91978C159.297 5.80744 169.97 5.70053 180.462 5.5882C189.867 5.5287 199.453 5.47463 209.04 5.42056C218.264 5.35564 227.667 5.38152 236.89 5.40197C246.293 5.42785 255.515 5.4483 264.918 5.47418C274.501 5.50548 283.899 5.70211 293.48 5.81879C310.836 5.99791 328.183 6.43315 345.712 6.87382C355.468 7.16667 365.049 7.28335 374.811 7.40545C384.392 7.52212 393.973 7.6388 403.376 7.66468C407.173 7.69319 411.15 7.72712 414.95 7.67026C416.759 7.63912 418.749 7.61339 420.561 7.49688C422.192 7.37493 423.826 7.16762 425.455 7.13105C425.999 7.06195 426.363 6.98742 426.905 7.00369Z" fill="#8ABB3F"/>
</svg>
