<svg width="202" height="9" viewBox="0 0 202 9" fill="none" xmlns="http://www.w3.org/2000/svg">
<path d="M4.45233 3.06694C6.0258 3.09441 7.67506 3.07377 9.24939 3.05183C9.92374 3.0636 10.524 3.02466 11.1984 3.03643C14.0473 2.98732 16.8963 2.93821 19.7452 2.8891C23.1936 2.85045 26.5679 2.76109 30.0163 2.72244C34.89 2.60983 39.7629 2.54662 44.6366 2.43401C45.7614 2.40422 46.8853 2.42384 48.0101 2.39405C50.859 2.34494 53.708 2.29583 56.5561 2.29612C59.405 2.24701 62.254 2.1979 65.1021 2.19819C66.2269 2.1684 67.3516 2.13861 68.4755 2.15823C72.9729 2.13789 77.5452 2.11886 82.0426 2.09852C84.8157 2.0975 87.5889 2.09649 90.4378 2.04737C91.5618 2.06699 92.6116 2.03589 93.7355 2.05551C98.0822 2.08196 102.504 2.10972 106.85 2.13616C111.197 2.16261 115.469 2.18775 119.815 2.2142C120.939 2.23382 122.063 2.25343 123.262 2.27436C126.109 2.32405 128.882 2.37244 131.729 2.42214C136.15 2.4993 140.495 2.57515 144.917 2.60291C146.34 2.62775 147.764 2.6526 149.188 2.67745C152.185 2.72976 155.182 2.78207 158.179 2.83438C158.404 2.83831 158.703 2.84354 158.928 2.84746C152.184 2.77917 145.365 2.70956 138.62 2.69067C135.771 2.69038 132.999 2.64199 130.151 2.64169C128.952 2.62077 127.678 2.59854 126.479 2.62702C122.357 2.60449 118.309 2.63268 114.187 2.61016C109.465 2.62657 104.744 2.59359 100.022 2.61C99.1974 2.59562 98.4473 2.63194 97.6231 2.61756C95.0739 2.6719 92.6004 2.67815 90.0511 2.73249C84.9535 2.79177 79.8559 2.85106 74.7582 2.91034C74.009 2.89726 73.2588 2.93359 72.5087 2.96991C70.0344 3.02556 67.4842 3.12931 65.0099 3.18496C60.5108 3.30411 56.0867 3.42457 51.5876 3.54372C50.3879 3.5722 49.1124 3.64877 47.9127 3.67725C45.0629 3.77577 42.2131 3.87428 39.3624 4.0222C35.7624 4.15705 32.0875 4.29058 28.4876 4.42542C23.4623 4.63423 18.3621 4.84172 13.3368 5.05052C12.1371 5.079 10.9365 5.15689 9.66188 5.18406C7.4864 5.29434 5.31092 5.40463 3.13545 5.51492C2.91067 5.51099 2.68416 5.60588 2.68071 5.80349C2.67812 5.95171 2.90032 6.10384 3.1251 6.10776C3.9493 6.12215 4.69771 6.18463 5.52191 6.19902C5.36774 6.44342 5.29023 6.59033 5.28764 6.73854C5.27816 7.28198 5.94388 7.7878 6.84301 7.80349C13.0663 7.66502 19.2155 7.47583 25.4379 7.38676C30.8352 7.33271 36.2335 7.22925 41.6308 7.1752C47.5535 7.0809 53.5511 6.98791 59.473 6.94301C61.347 6.9263 63.2211 6.90959 65.096 6.84348C65.6205 6.85263 66.1458 6.81239 66.7452 6.82285C76.3385 6.84203 85.9326 6.81181 95.5259 6.831C100.623 6.82112 105.794 6.81255 110.89 6.85208C112.764 6.83537 114.563 6.86675 116.437 6.85004C126.254 6.92256 136.071 6.99507 145.888 7.06758C150.085 7.09141 154.282 7.11525 158.479 7.13908C162.076 7.15245 165.672 7.21522 169.271 7.17919C172.269 7.1821 175.193 7.13429 178.19 7.1372C179.69 7.11395 181.188 7.14011 182.613 7.11555C185.987 7.02619 189.362 6.93683 192.736 6.84747C192.508 7.04116 192.502 7.33758 192.574 7.53651C192.645 7.78484 192.866 7.98637 193.239 8.09172C193.537 8.19576 193.985 8.30242 194.286 8.20884C195.039 8.0243 195.791 7.83976 196.469 7.65392C196.469 7.65392 196.469 7.65392 196.394 7.65261C196.469 7.65392 196.47 7.60451 196.545 7.60582C196.62 7.60713 196.696 7.55903 196.696 7.55903L196.621 7.55772C196.997 7.46545 197.374 7.37319 197.826 7.23282C198.202 7.14055 198.654 7.00019 199.031 6.90792C199.483 6.76755 199.86 6.62588 200.312 6.48551C200.764 6.34515 201.071 5.95515 201.077 5.60932C201.08 5.4117 201.008 5.26218 200.862 5.06195C200.715 4.86172 200.345 4.60816 199.971 4.55221C199.597 4.49627 199.224 4.44033 198.849 4.43379C198.774 4.43248 198.699 4.43117 198.624 4.42987C198.399 4.42594 198.1 4.42071 197.874 4.46619C197.274 4.50513 196.748 4.54538 196.149 4.53492C195.699 4.52707 195.249 4.56863 194.725 4.55948C193.45 4.58665 192.25 4.61513 190.975 4.6917C190.675 4.68647 190.299 4.72934 190 4.72411C190.151 4.62791 190.228 4.53041 190.23 4.43161C190.306 4.3341 190.308 4.2353 190.31 4.13649C190.311 4.08708 190.312 3.98828 190.388 3.94018C190.39 3.84137 190.392 3.74256 190.318 3.69185C190.318 3.69185 190.393 3.69316 190.393 3.64376C190.62 3.54887 190.846 3.45399 191 3.25899C191.152 3.11339 191.231 2.91708 191.234 2.71946C191.237 2.52185 191.165 2.37233 191.019 2.1721C190.945 2.12138 190.871 2.02127 190.797 1.97056C190.575 1.81842 190.351 1.76509 190.127 1.71177C189.679 1.60511 189.156 1.54655 188.631 1.5374C188.182 1.52955 187.807 1.52301 187.358 1.51516C186.758 1.5047 186.159 1.49424 185.559 1.48378C184.735 1.46939 183.836 1.4537 183.012 1.43931C180.764 1.40008 178.516 1.36085 176.268 1.32161C174.17 1.28499 171.997 1.24707 169.9 1.21045C167.951 1.17645 166.078 1.14375 164.13 1.10975C156.413 0.975047 148.769 0.891056 141.051 0.805758C135.281 0.754462 129.51 0.703166 123.741 0.602465C121.193 0.558001 118.57 0.561632 116.022 0.566571C110.251 0.564679 104.48 0.513384 98.7092 0.511492C97.0608 0.48272 95.4115 0.503353 93.7631 0.474581C92.7891 0.45758 91.8891 0.491291 90.915 0.474289C85.2179 0.52311 79.5209 0.57193 73.8238 0.62075C72.0996 0.640075 70.3755 0.659399 68.5763 0.677416C67.6023 0.660415 66.6274 0.692818 65.6525 0.725221C59.9545 0.823445 54.3315 0.922977 48.6336 1.0212C45.7097 1.06901 42.7859 1.11681 39.8611 1.21402C34.8375 1.32401 29.8139 1.43401 24.8644 1.59471C20.5152 1.71648 16.1668 1.78884 11.8185 1.8612C11.1433 1.89883 10.4689 1.88706 9.71879 1.92339C8.59402 1.95317 7.47011 1.93356 6.34534 1.96334C5.36784 2.14396 4.31885 2.12565 3.3448 2.10865C3.27332 1.90973 2.9762 1.75628 2.75056 1.80176C2.07621 1.78999 1.47593 1.82893 0.800723 1.86657C0.500152 1.91074 0.198719 2.00432 0.120342 2.20063C0.0411034 2.44634 0.261574 2.69728 0.56042 2.75192C0.859267 2.80655 1.15811 2.86119 1.45696 2.91582C1.75581 2.97046 1.98059 2.97438 2.2803 2.97961C3.02871 3.0421 3.70305 3.05387 4.45233 3.06694ZM179.81 4.54625C180.709 4.56194 181.683 4.57894 182.582 4.59463C182.654 4.74415 182.802 4.84558 182.951 4.947C182.576 4.94046 182.2 4.98333 181.901 4.9781C181.226 4.96633 180.551 5.00396 179.877 4.99219C176.879 4.98928 173.955 5.03709 170.957 5.03418C169.607 5.06004 168.258 5.08591 166.909 5.06237C164.811 5.02575 162.638 5.03723 160.54 5.00061C155.668 4.96501 150.872 4.93071 146.001 4.89511C136.559 4.82914 127.191 4.76447 117.748 4.6985C111.004 4.6302 104.258 4.66071 97.512 4.69122C87.3933 4.71229 77.2006 4.68264 67.082 4.7037C65.0581 4.7178 63.0342 4.73189 61.0095 4.79539C55.2366 4.8923 49.4646 4.93982 43.6918 5.03673C38.0688 5.13627 32.3717 5.18509 26.7487 5.28462C26.2242 5.27546 25.6989 5.31571 25.1744 5.30656C26.6747 5.2339 28.249 5.21196 29.7493 5.13931C35.0734 4.98515 40.3984 4.78157 45.7226 4.62741C47.5975 4.56129 49.4724 4.49518 51.2724 4.42776C52.2473 4.39536 53.2222 4.36295 54.1213 4.37865C59.7443 4.27912 65.2932 4.12887 70.8413 4.02803C71.8912 3.99694 73.0159 3.96715 74.0658 3.93605C75.6401 3.91411 77.2144 3.89217 78.713 3.91833C84.41 3.86951 90.1071 3.82069 95.8042 3.77187C97.0788 3.7447 98.3525 3.76693 99.5522 3.73845C99.8519 3.74368 100.227 3.75022 100.526 3.75545C101.425 3.77115 102.325 3.78684 103.15 3.75182C108.846 3.7524 114.616 3.8037 120.312 3.80428C122.936 3.80065 125.559 3.79702 128.181 3.84279C136.649 3.94117 145.192 4.04085 153.659 4.13923C162.501 4.29355 171.193 4.39585 179.81 4.54625Z" fill="#454AB0"/>
</svg>
