<svg width="445" height="9" viewBox="0 0 445 9" fill="none" xmlns="http://www.w3.org/2000/svg">
<path d="M444.66 3.7659C442.399 3.64324 440.324 3.60909 438.061 3.57183C435.798 3.53457 433.725 3.41502 431.464 3.29236C426.564 3.04083 421.853 2.70701 416.953 2.45548C407.718 1.96174 398.295 1.46489 389.056 1.22736C380.573 0.916838 371.899 0.688617 363.413 0.548902C361.15 0.511644 358.887 0.474387 356.813 0.440234C348.326 0.38592 339.84 0.246205 331.352 0.191892C311.547 0.122095 291.553 0.0491925 271.746 0.150198C252.315 0.257414 232.884 0.36463 213.641 0.560352C204.207 0.661317 194.586 0.759178 185.152 0.860144C174.774 1.11639 164.397 1.20183 154.209 1.37578C132.886 1.79355 111.754 2.12903 90.4321 2.5468C71.9401 2.92575 53.6324 3.564 35.3206 4.45846C23.6146 5.11998 11.7186 5.8638 0.0112186 6.61072C13.3933 7.25817 26.9682 7.65251 40.5445 7.96146C49.4078 8.10738 58.2724 8.16791 66.9485 8.22533C72.6073 8.23307 78.2674 8.15541 84.1162 8.08085C87.7006 8.05444 91.0979 7.93953 94.4951 7.82461C103.743 7.54973 113.177 7.36337 122.425 7.08849C133.181 6.83846 143.749 6.49992 154.506 6.24988C165.45 6.00295 176.583 5.75912 187.528 5.51219C197.34 5.33204 207.34 5.15498 217.34 4.97793C226.964 4.79467 236.774 4.69991 246.396 4.60205C256.206 4.50729 265.828 4.40943 275.638 4.31468C285.637 4.22302 295.445 4.29907 305.442 4.29282C323.551 4.24927 341.656 4.46193 359.95 4.67769C370.133 4.84535 380.131 4.8391 390.317 4.83596C400.314 4.82971 410.312 4.82346 420.122 4.7287C424.084 4.7085 428.234 4.6914 432.197 4.5858C434.084 4.53145 436.16 4.4802 438.049 4.34044C439.749 4.19758 441.45 3.96932 443.149 3.91186C443.716 3.83578 444.094 3.75658 444.66 3.7659Z" fill="#454AB0"/>
</svg>
