<svg width="181" height="8" viewBox="0 0 181 8" fill="none" xmlns="http://www.w3.org/2000/svg">
<path d="M180.088 6.99506C179.182 6.84307 178.345 6.78184 177.432 6.71504C176.519 6.64824 175.689 6.50182 174.782 6.34983C172.817 6.03472 170.934 5.63999 168.968 5.32489C165.266 4.71137 161.487 4.09229 157.766 3.73433C154.355 3.31345 150.862 2.97219 147.439 2.72169C146.526 2.65488 145.614 2.58808 144.777 2.52685C141.347 2.36153 137.924 2.11102 134.495 1.9457C126.489 1.61674 118.407 1.28221 110.388 1.12362C102.522 0.976169 94.6555 0.828713 86.859 0.772011C83.0368 0.749226 79.1385 0.720875 75.3163 0.69809C71.1013 0.817842 66.8988 0.767224 62.7661 0.807357C54.1141 0.944976 45.5444 1.00298 36.8924 1.14059C29.3877 1.27653 21.9403 1.67359 14.4743 2.3262C9.69561 2.83291 4.83464 3.41924 0.0497321 4.01114C5.41952 4.83231 10.8841 5.40349 16.3549 5.88949C19.9302 6.15113 23.5117 6.32758 27.0171 6.49847C29.3055 6.58029 31.6 6.57692 33.9707 6.57913C35.4222 6.59971 36.8039 6.52954 38.1857 6.45937C41.9443 6.30622 45.7727 6.24382 49.5313 6.09067C53.8984 5.98205 58.1957 5.78268 62.5629 5.67406C67.0061 5.57101 71.5254 5.47352 75.9686 5.37047C79.9492 5.3192 84.0058 5.2735 88.0625 5.2278C91.967 5.17097 95.9413 5.20489 99.8396 5.23324C103.814 5.26716 107.712 5.29551 111.687 5.32943C115.737 5.36891 119.699 5.5732 123.743 5.69787C131.071 5.89154 138.38 6.34077 145.765 6.79557C149.872 7.09617 153.916 7.22084 158.037 7.35108C162.081 7.47575 166.125 7.60042 170.099 7.63434C171.703 7.66606 173.383 7.70334 174.993 7.64988C175.76 7.62036 176.603 7.59641 177.376 7.48171C178.073 7.36144 178.776 7.15598 179.467 7.1209C179.702 7.05241 179.86 6.97836 180.088 6.99506Z" fill="#8ABB3F"/>
</svg>
