<svg width="13" height="100" viewBox="0 0 13 100" fill="none" xmlns="http://www.w3.org/2000/svg">
<path d="M8.55135 2.57031C8.50599 3.34681 8.5339 4.16469 8.56398 4.94559C8.54454 5.27838 8.60269 5.57859 8.58325 5.91137C8.65203 7.32528 8.72081 8.73918 8.7896 10.1531C8.8411 11.8628 8.97019 13.5399 9.0217 15.2496C9.18302 17.6707 9.26892 20.0874 9.43024 22.5084C9.47327 23.0675 9.44087 23.6221 9.4839 24.1812C9.55269 25.5951 9.62147 27.009 9.61482 28.4185C9.6836 29.8324 9.75239 31.2463 9.74574 32.6558C9.78877 33.2148 9.8318 33.7738 9.7994 34.3285C9.82066 36.5559 9.83977 38.8202 9.86103 41.0476C9.85654 42.4201 9.85205 43.7926 9.92084 45.2065C9.88844 45.7612 9.93363 46.2832 9.90123 46.8379C9.85138 48.9869 9.79937 51.1729 9.74952 53.3219C9.69968 55.4709 9.65199 57.583 9.60214 59.732C9.56974 60.2866 9.53734 60.8413 9.50278 61.4329C9.4207 62.838 9.34078 64.2061 9.2587 65.6112C9.13126 67.7927 9.00598 69.9373 8.95397 72.1233C8.91293 72.8259 8.87189 73.5284 8.83085 74.231C8.74445 75.71 8.65805 77.1891 8.57165 78.6681C8.56517 78.779 8.55653 78.9269 8.55005 79.0378C8.66902 75.7056 8.79015 72.3364 8.83369 68.9997C8.84033 67.5902 8.92025 66.2221 8.9269 64.8126C8.96146 64.221 8.99818 63.5924 8.95731 62.9964C9.00068 60.9583 8.96646 58.9528 9.00983 56.9147C8.99504 54.5764 9.05569 52.2425 9.04091 49.9042C9.06467 49.4975 9.01084 49.1233 9.0346 48.7166C8.95717 47.4506 8.95302 46.226 8.8756 44.96C8.79618 42.4324 8.71677 39.9048 8.63736 37.3772C8.65896 37.0074 8.60512 36.6333 8.55129 36.2591C8.47171 35.0301 8.31885 33.7597 8.23927 32.5307C8.06715 30.2945 7.89286 28.0953 7.72074 25.8591C7.67986 25.263 7.56572 24.6256 7.52485 24.0296C7.38064 22.6113 7.23642 21.193 7.01678 19.7703C6.81873 17.9778 6.62284 16.1484 6.4248 14.3559C6.11693 11.8521 5.81122 9.31125 5.50335 6.80742C5.46248 6.2114 5.34618 5.61097 5.30747 4.97797C5.14381 3.89245 4.98016 2.80692 4.81651 1.7214C4.82299 1.61047 4.6786 1.49073 4.37688 1.47311C4.15058 1.45989 3.91781 1.5576 3.91133 1.66852C3.88757 2.07526 3.79054 2.44061 3.76678 2.84735C3.39394 2.75137 3.16981 2.70117 2.94351 2.68795C2.11377 2.63948 1.34002 2.9282 1.3141 3.37191C1.51197 6.46296 1.78744 9.52143 1.90989 12.6081C1.98066 15.2836 2.12687 17.9635 2.19764 20.6389C2.32873 23.5777 2.45765 26.5534 2.51331 29.4877C2.53474 30.4165 2.55617 31.3453 2.65303 32.2785C2.63791 32.5374 2.69823 32.8006 2.68095 33.0964C2.63076 37.8426 2.65601 42.5931 2.60582 47.3393C2.60981 49.8624 2.61163 52.4226 2.54018 54.9414C2.56161 55.8702 2.50977 56.7576 2.5312 57.6864C2.39911 62.5391 2.26701 67.3918 2.13491 72.2444C2.08938 74.3195 2.04386 76.3946 1.99833 78.4696C1.97008 80.2489 1.8664 82.0237 1.91358 83.8074C1.90262 85.2908 1.96924 86.7417 1.95827 88.2251C1.9905 88.9691 1.9473 89.7086 1.98169 90.4156C2.11079 92.0927 2.23988 93.7698 2.36897 95.447C2.07373 95.3184 1.62114 95.292 1.31726 95.3113C0.937939 95.3263 0.629736 95.4196 0.468073 95.5956C0.30857 95.7347 0.144746 95.9478 0.286969 96.1045C0.567094 96.4919 0.847221 96.8793 1.12951 97.2297C1.12951 97.2297 1.12951 97.2297 1.13167 97.1927C1.12951 97.2297 1.20494 97.2341 1.20278 97.2711C1.20062 97.308 1.27389 97.3494 1.27389 97.3494L1.27605 97.3124C1.41611 97.5061 1.55617 97.6998 1.76951 97.9349C1.90957 98.1286 2.1229 98.3637 2.26297 98.5574C2.4763 98.7924 2.69179 98.9905 2.90513 99.2256C3.11846 99.4607 3.71327 99.6438 4.24129 99.6747C4.54302 99.6923 4.77147 99.6686 5.07752 99.6122C5.38356 99.5559 5.77152 99.3931 5.85775 99.2126C5.94398 99.0321 6.03021 98.8516 6.04101 98.6668C6.04317 98.6298 6.04533 98.5928 6.04749 98.5558C6.05397 98.4449 6.06261 98.297 5.99366 98.1817C5.93551 97.8814 5.8752 97.6182 5.89248 97.3224C5.90544 97.1005 5.84297 96.8743 5.85809 96.6155C5.81938 95.9825 5.7785 95.3864 5.66436 94.749C5.673 94.6011 5.60837 94.4118 5.61701 94.2639C5.76355 94.3467 5.91226 94.3925 6.06312 94.4013C6.21182 94.4471 6.36268 94.4559 6.51355 94.4647C6.58898 94.4691 6.73984 94.4779 6.81311 94.5193C6.96397 94.5281 7.11484 94.5369 7.19243 94.5044C7.19243 94.5044 7.19027 94.5413 7.2657 94.5457C7.41008 94.6655 7.55446 94.7852 7.85187 94.8768C8.07384 94.964 8.37341 95.0186 8.67513 95.0362C8.97686 95.0538 9.20531 95.0301 9.51136 94.9737C9.58895 94.9412 9.74197 94.913 9.81956 94.8804C10.0523 94.7827 10.1342 94.6762 10.2162 94.5697C10.38 94.3566 10.4705 94.1022 10.4857 93.8434C10.4986 93.6215 10.5094 93.4367 10.5224 93.2148C10.5397 92.919 10.5569 92.6232 10.5742 92.3274C10.598 91.9206 10.6239 91.4769 10.6477 91.0702C10.7125 89.9609 10.7773 88.8516 10.8421 87.7423C10.9025 86.707 10.9652 85.6347 11.0257 84.5994C11.0818 83.638 11.1358 82.7136 11.192 81.7522C11.4145 77.9437 11.5593 74.1678 11.7064 70.3548C11.7973 67.5033 11.8882 64.6517 12.0545 61.8045C12.1279 60.5474 12.1281 59.2488 12.1261 57.9872C12.1416 55.1312 12.2324 52.2797 12.2479 49.4237C12.2954 48.6102 12.2675 47.7924 12.315 46.9789C12.3431 46.4982 12.2936 46.0501 12.3217 45.5694C12.2595 42.746 12.1974 39.9226 12.1353 37.0992C12.1095 36.2443 12.0838 35.3895 12.0602 34.4977C12.0883 34.017 12.0409 33.5319 11.9936 33.0468C11.856 30.219 11.7163 27.4282 11.5787 24.6003C11.5121 23.1495 11.4455 21.6986 11.3034 20.2433C11.1464 17.7483 10.9894 15.2533 10.7548 12.7908C10.5783 10.6286 10.4773 8.47076 10.3763 6.31294C10.3203 5.97575 10.3398 5.64296 10.2859 5.26879C10.2429 4.70975 10.2753 4.15511 10.2323 3.59606C9.95863 3.09775 9.98887 2.58008 10.0169 2.09939C10.3208 2.08004 10.5558 1.94536 10.4868 1.83003C10.5063 1.49724 10.4481 1.19703 10.3921 0.859836C10.3253 0.707526 10.1831 0.550809 9.88353 0.496207C9.50854 0.437199 9.1249 0.526095 9.04083 0.669593C8.95676 0.81309 8.87269 0.956588 8.78861 1.10009C8.70454 1.24358 8.69806 1.35451 8.68942 1.50242C8.59239 1.86777 8.57295 2.20055 8.55135 2.57031ZM5.91077 89.2352C5.88485 89.6789 5.85677 90.1596 5.83085 90.6033C5.6024 90.6271 5.44721 90.6922 5.29203 90.7573C5.30283 90.5725 5.2382 90.3832 5.24684 90.2353C5.26628 89.9025 5.21029 89.5653 5.22973 89.2325C5.2407 87.7491 5.17407 86.2982 5.18504 84.8147C5.14849 84.1448 5.11194 83.4748 5.15082 82.8092C5.2113 81.7739 5.19851 80.6972 5.25899 79.6619C5.32395 77.254 5.38676 74.8831 5.45173 72.4753C5.57303 67.8075 5.69216 63.1767 5.81346 58.5089C5.93243 55.1766 5.90054 51.8356 5.86864 48.4945C5.85851 43.4851 5.92598 38.4432 5.91585 33.4338C5.89874 32.431 5.88163 31.4283 5.78909 30.4211C5.65368 27.5563 5.59371 24.696 5.4583 21.8312C5.31858 19.0404 5.25644 16.217 5.11671 13.4261C5.13183 13.1673 5.07152 12.9041 5.08664 12.6452C5.19431 13.3936 5.22438 14.1745 5.33204 14.9228C5.55584 17.5701 5.85507 20.2219 6.07886 22.8692C6.17573 23.8024 6.27259 24.7356 6.37161 25.6319C6.41896 26.1169 6.46631 26.602 6.44039 27.0458C6.58012 29.8366 6.79744 32.5948 6.93932 35.3487C6.98451 35.8708 7.02755 36.4298 7.07274 36.9519C7.10281 37.7328 7.13288 38.5137 7.08968 39.2532C7.15181 42.0766 7.21395 44.9 7.27608 47.7234C7.3148 48.3564 7.27808 48.985 7.31895 49.581C7.31031 49.7289 7.29951 49.9138 7.29087 50.0617C7.26495 50.5054 7.23903 50.9491 7.2907 51.3603C7.2774 54.1792 7.18651 57.0308 7.17322 59.8498C7.17305 61.1484 7.17288 62.4469 7.09728 63.7411C6.92863 67.9238 6.75782 72.1435 6.58918 76.3262C6.3343 80.6893 6.15917 84.9829 5.91077 89.2352Z" fill="#454AB0"/>
</svg>
