<svg width="396" height="10" viewBox="0 0 396 10" fill="none" xmlns="http://www.w3.org/2000/svg">
<path d="M395.417 4.06128C393.409 3.94278 391.566 3.91245 389.556 3.87935C387.546 3.84626 385.705 3.73052 383.696 3.61202C379.344 3.36951 375.16 3.04436 370.808 2.80185C362.605 2.32511 354.236 1.84561 346.029 1.62507C338.494 1.33017 330.79 1.1179 323.252 0.993799C321.242 0.960705 319.232 0.92761 317.389 0.897273C309.85 0.858571 302.312 0.734466 294.773 0.695763C277.18 0.662391 259.42 0.626261 241.824 0.763692C224.564 0.906639 207.304 1.04959 190.209 1.28069C181.83 1.399 173.282 1.51456 164.903 1.63287C155.683 1.90819 146.465 2.01271 137.414 2.20539C118.473 2.66237 99.701 3.0367 80.7598 3.49367C64.3327 3.90662 48.0688 4.57852 31.8008 5.50663C21.4012 6.18966 10.8326 6.95533 0.431629 7.72376C12.3177 8.34657 24.3756 8.71594 36.4348 8.99991C44.3077 9.12953 52.182 9.17375 59.8889 9.21521C64.9155 9.21255 69.9436 9.12448 75.1392 9.03917C78.3233 9.00617 81.3412 8.88501 84.3592 8.76385C92.5742 8.47197 100.955 8.26826 109.17 7.97639C118.725 7.70658 128.114 7.34861 137.669 7.0788C147.392 6.81175 157.282 6.54746 167.004 6.28041C175.72 6.08221 184.604 5.88677 193.488 5.69133C202.036 5.49038 210.751 5.37758 219.298 5.26203C228.013 5.14923 236.56 5.03368 245.275 4.92088C254.157 4.81085 262.869 4.86886 271.749 4.84422C287.836 4.76737 303.918 4.94672 320.168 5.12884C329.213 5.27776 338.094 5.25313 347.143 5.23125C356.023 5.20661 364.904 5.18198 373.619 5.06918C377.138 5.04169 380.825 5.01697 384.345 4.90408C386.022 4.84626 387.866 4.79119 389.543 4.64797C391.054 4.50198 392.566 4.2706 394.075 4.21002C394.579 4.13289 394.915 4.05301 395.417 4.06128Z" fill="#454AB0"/>
</svg>
