<svg width="27" height="25" viewBox="0 0 27 25" fill="none" xmlns="http://www.w3.org/2000/svg">
<path d="M5.56471 2.73698C5.56434 3.46251 5.27085 4.15817 4.74879 4.67094C4.22674 5.18371 3.51889 5.47158 2.78096 5.47122C2.04304 5.47086 1.33548 5.18229 0.813949 4.66901C0.292417 4.15573 -0.000368615 3.45977 3.48297e-07 2.73424C0.000369311 2.00871 0.293863 1.31304 0.815917 0.800274C1.33797 0.287505 2.04582 -0.000362422 2.78375 3.42446e-07C3.52167 0.000363107 4.22923 0.288926 4.75076 0.802209C5.27229 1.31549 5.56508 2.01145 5.56471 2.73698ZM5.64818 7.49694H0.0834709V24.6218H5.64818V7.49694ZM14.4404 7.49694H8.90353V24.6218H14.3848V15.6354C14.3848 10.6292 21.0207 10.1642 21.0207 15.6354V24.6218H26.5158V13.7752C26.5158 5.3358 16.6941 5.6504 14.3848 9.79485L14.4404 7.49694Z" fill="#D4D4ED"/>
</svg>
