<svg width="30" height="31" viewBox="0 0 30 31" fill="none" xmlns="http://www.w3.org/2000/svg">
<path d="M24.5455 11.4091C23.25 11.4091 22.125 11.0227 21.1705 10.25C20.2159 9.47727 19.5795 8.5 19.2614 7.31818H10.7045C10.4545 8.27273 9.98295 9.09659 9.28977 9.78977C8.59659 10.483 7.77273 10.9545 6.81818 11.2045V19.7614C8 20.0795 8.97727 20.7159 9.75 21.6705C10.5227 22.625 10.9091 23.75 10.9091 25.0455C10.9091 26.5455 10.375 27.8295 9.30682 28.8977C8.23864 29.9659 6.95455 30.5 5.45455 30.5C3.95455 30.5 2.67045 29.9659 1.60227 28.8977C0.534091 27.8295 0 26.5455 0 25.0455C0 23.75 0.386364 22.625 1.15909 21.6705C1.93182 20.7159 2.90909 20.0795 4.09091 19.7614V11.2045C2.90909 10.8864 1.93182 10.25 1.15909 9.29545C0.386364 8.34091 0 7.22727 0 5.95455C0 4.45455 0.534091 3.17045 1.60227 2.10227C2.67045 1.03409 3.95455 0.5 5.45455 0.5C6.72727 0.5 7.84091 0.886364 8.79545 1.65909C9.75 2.43182 10.3864 3.40909 10.7045 4.59091H19.2614C19.5795 3.40909 20.2159 2.43182 21.1705 1.65909C22.125 0.886364 23.25 0.5 24.5455 0.5C26.0455 0.5 27.3295 1.03409 28.3977 2.10227C29.4659 3.17045 30 4.45455 30 5.95455C30 7.45455 29.4659 8.73864 28.3977 9.80682C27.3295 10.875 26.0455 11.4091 24.5455 11.4091ZM5.45455 27.7727C6.20455 27.7727 6.84659 27.5 7.38068 26.9545C7.91477 26.4091 8.18182 25.7727 8.18182 25.0455C8.18182 24.2955 7.91477 23.6534 7.38068 23.1193C6.84659 22.5852 6.20455 22.3182 5.45455 22.3182C4.72727 22.3182 4.09091 22.5852 3.54545 23.1193C3 23.6534 2.72727 24.2955 2.72727 25.0455C2.72727 25.7727 3 26.4091 3.54545 26.9545C4.09091 27.5 4.72727 27.7727 5.45455 27.7727ZM5.45455 8.68182C6.20455 8.68182 6.84659 8.41477 7.38068 7.88068C7.91477 7.34659 8.18182 6.70455 8.18182 5.95455C8.18182 5.20455 7.91477 4.5625 7.38068 4.02841C6.84659 3.49432 6.20455 3.22727 5.45455 3.22727C4.72727 3.22727 4.09091 3.49432 3.54545 4.02841C3 4.5625 2.72727 5.20455 2.72727 5.95455C2.72727 6.70455 3 7.34659 3.54545 7.88068C4.09091 8.41477 4.72727 8.68182 5.45455 8.68182ZM24.5455 30.5C23.0455 30.5 21.7614 29.9659 20.6932 28.8977C19.625 27.8295 19.0909 26.5455 19.0909 25.0455C19.0909 23.5455 19.625 22.2614 20.6932 21.1932C21.7614 20.125 23.0455 19.5909 24.5455 19.5909C26.0455 19.5909 27.3295 20.125 28.3977 21.1932C29.4659 22.2614 30 23.5455 30 25.0455C30 26.5455 29.4659 27.8295 28.3977 28.8977C27.3295 29.9659 26.0455 30.5 24.5455 30.5ZM24.5455 27.7727C25.2955 27.7727 25.9375 27.5 26.4716 26.9545C27.0057 26.4091 27.2727 25.7727 27.2727 25.0455C27.2727 24.2955 27.0057 23.6534 26.4716 23.1193C25.9375 22.5852 25.2955 22.3182 24.5455 22.3182C23.7955 22.3182 23.1534 22.5852 22.6193 23.1193C22.0852 23.6534 21.8182 24.2955 21.8182 25.0455C21.8182 25.7727 22.0852 26.4091 22.6193 26.9545C23.1534 27.5 23.7955 27.7727 24.5455 27.7727ZM24.5455 8.68182C25.2955 8.68182 25.9375 8.41477 26.4716 7.88068C27.0057 7.34659 27.2727 6.70455 27.2727 5.95455C27.2727 5.20455 27.0057 4.5625 26.4716 4.02841C25.9375 3.49432 25.2955 3.22727 24.5455 3.22727C23.7955 3.22727 23.1534 3.49432 22.6193 4.02841C22.0852 4.5625 21.8182 5.20455 21.8182 5.95455C21.8182 6.70455 22.0852 7.34659 22.6193 7.88068C23.1534 8.41477 23.7955 8.68182 24.5455 8.68182Z" fill="#EB642A"/>
</svg>
