<svg width="31" height="31" viewBox="0 0 31 31" fill="none" xmlns="http://www.w3.org/2000/svg">
<path d="M20.6667 31L10.3333 27.3833L2.325 30.4833C1.75093 30.713 1.21991 30.6484 0.731944 30.2896C0.243981 29.9308 0 29.45 0 28.8472V4.73611C0 4.36296 0.107639 4.03287 0.322917 3.74583C0.538194 3.4588 0.832407 3.24352 1.20556 3.1L10.3333 0L20.6667 3.61667L28.675 0.516667C29.2491 0.287037 29.7801 0.35162 30.2681 0.710417C30.756 1.06921 31 1.55 31 2.15278V26.2639C31 26.637 30.8924 26.9671 30.6771 27.2542C30.4618 27.5412 30.1676 27.7565 29.7944 27.9L20.6667 31ZM18.9444 26.7806V6.63056L12.0556 4.21944V24.3694L18.9444 26.7806ZM22.3889 26.7806L27.5556 25.0583V4.65L22.3889 6.63056V26.7806ZM3.44444 26.35L8.61111 24.3694V4.21944L3.44444 5.94167V26.35Z" fill="#8ABB3F"/>
</svg>
