<?xml version="1.0" encoding="UTF-8"?>
<svg id="Layer_1" data-name="Layer 1" xmlns="http://www.w3.org/2000/svg" xmlns:xlink="http://www.w3.org/1999/xlink" viewBox="0 0 296.75 260.2">
  <defs>
    <style>
      .cls-1 {
        fill: #454ab0;
      }

      .cls-1, .cls-2, .cls-3, .cls-4, .cls-5, .cls-6, .cls-7, .cls-8 {
        stroke-width: 0px;
      }

      .cls-2 {
        fill: #fcc614;
      }

      .cls-3 {
        fill: none;
      }

      .cls-4 {
        fill: #8abb3f;
      }

      .cls-9 {
        clip-path: url(#clippath);
      }

      .cls-5 {
        fill: #25285f;
      }

      .cls-6 {
        fill: #eb642a;
      }

      .cls-7 {
        fill: #17193b;
      }

      .cls-8 {
        fill: #f1f1f9;
      }
    </style>
    <clipPath id="clippath">
      <rect class="cls-3" width="296.75" height="260.2"/>
    </clipPath>
  </defs>
  <g class="cls-9">
    <path class="cls-5" d="M181.58,46.38l-23.87-42.37c-3.04-5.39-10.81-5.33-13.76.11-5.36,9.87-13.75,24.64-23.88,42.19-3.03,5.24.75,11.8,6.81,11.8h47.86c6.02,0,9.8-6.48,6.85-11.72h0Z"/>
    <path class="cls-2" d="M109.58,65.06c-5.86,10.07-12.08,20.71-18.48,31.62-3.08,5.24.7,11.85,6.78,11.85h105.66c6.02,0,9.8-6.48,6.85-11.72l-17.83-31.65c-1.39-2.47-4.01-4-6.85-4h-69.33c-2.8,0-5.39,1.49-6.79,3.9h-.01Z"/>
    <path class="cls-6" d="M79.78,115.44c-6.21,10.55-12.49,21.18-18.67,31.64-3.1,5.24.68,11.86,6.77,11.86h163.78c6.02,0,9.8-6.48,6.85-11.72l-17.83-31.65c-1.39-2.47-4.01-4-6.85-4h-127.27c-2.79,0-5.36,1.47-6.77,3.87h-.01Z"/>
    <path class="cls-4" d="M266.8,197.64l-17.83-31.65c-1.39-2.47-4.01-4-6.85-4H56.66c-2.78,0-5.35,1.47-6.77,3.86-6.55,11.06-12.88,21.72-18.78,31.64-3.11,5.24.66,11.88,6.76,11.88h222.08c6.02,0,9.8-6.48,6.85-11.72h0Z"/>
    <path class="cls-1" d="M20.22,216.26c-7.9,13.27-14.5,24.34-19.1,32.05-3.13,5.24.65,11.89,6.75,11.89h281c6.02,0,9.8-6.48,6.85-11.72l-18.06-32.06c-1.39-2.47-4.01-4-6.85-4H26.98c-2.77,0-5.34,1.47-6.76,3.85h0Z"/>
    <path class="cls-8" d="M163.93,53.13l.56-2.13c-.23,0-.45-.04-.64-.13-.19-.09-.35-.23-.48-.4s-.24-.41-.32-.69l-.99-3.59h1.15l.87,3.37c.04.14.09.24.15.32.06.07.12.13.18.16.06.03.11.05.16.05.05,0,.09,0,.11,0l1-3.91h1.13l-1.55,6.07-.43.89h-.91ZM160.81,51c-.35,0-.63-.05-.85-.15-.22-.11-.38-.28-.49-.53-.1-.25-.14-.57-.13-.97l.04-2.27h-.76v-.72l.79-.18.16-1.35h.87v1.35h1.22v.9h-1.22v2.26c0,.16.01.29.05.39.03.1.07.17.13.23.06.05.12.09.19.12.07.02.14.04.21.04l.6.06v.82h-.8ZM156.8,51v-4.82h1.12v4.82h-1.12ZM156.94,45.41c-.11,0-.17-.05-.17-.16v-.82c0-.12.06-.18.17-.18h.85c.05,0,.09.02.12.05.03.04.04.08.04.13v.82c0,.11-.05.16-.16.16h-.85ZM155.13,51c-.35,0-.63-.05-.85-.15-.22-.11-.38-.28-.49-.53-.1-.25-.14-.57-.13-.97l.04-2.27h-.76v-.72l.79-.18.16-1.35h.87v1.35h1.22v.9h-1.22v2.26c0,.16.01.29.05.39.03.1.07.17.13.23.06.05.12.09.19.12.07.02.14.04.21.04l.6.06v.82h-.8ZM148.04,51v-4.82h.91l.21.5c.2-.15.44-.29.72-.4.29-.12.58-.18.89-.18.38,0,.68.08.89.23.22.15.37.35.46.61.1.26.14.54.14.85v3.21h-1.12v-3.08c0-.17-.03-.32-.1-.44-.07-.12-.16-.21-.28-.28-.11-.07-.26-.1-.42-.1-.16,0-.3.01-.44.04-.13.03-.26.07-.38.13-.12.06-.24.13-.37.22v3.5h-1.12ZM144.13,48.32h1.31c.21,0,.36-.04.46-.12.1-.08.15-.23.15-.45s-.03-.38-.09-.49c-.06-.12-.16-.2-.3-.25-.14-.05-.32-.08-.54-.08-.25,0-.45.04-.59.12s-.25.22-.32.42c-.06.2-.09.48-.09.85ZM145.16,51.05c-.52,0-.94-.07-1.25-.22-.31-.14-.53-.39-.67-.75-.14-.36-.21-.86-.21-1.49s.07-1.15.2-1.5c.13-.36.35-.61.66-.76s.72-.22,1.24-.22c.46,0,.83.05,1.11.14.28.09.49.26.61.5.13.23.2.57.2,1,0,.31-.06.55-.18.74-.12.18-.29.31-.52.39-.22.08-.49.12-.79.12h-1.41c.01.3.05.54.12.72.07.17.2.3.38.38.19.08.46.12.81.12h1.46v.66c-.25.05-.51.09-.78.13-.27.04-.59.05-.96.05ZM139.92,50.15c.22,0,.41-.03.59-.1.17-.07.32-.14.45-.22v-2.68c-.15-.05-.3-.1-.46-.14-.16-.04-.33-.06-.51-.06-.25,0-.46.05-.61.14-.16.09-.27.25-.34.49-.07.23-.1.57-.1,1,0,.4.03.72.1.95.07.23.17.39.32.49.15.09.34.13.58.13ZM139.54,51.05c-.38,0-.7-.08-.95-.24-.26-.17-.45-.43-.58-.78-.13-.36-.19-.83-.19-1.4,0-.6.06-1.08.17-1.45.11-.37.3-.64.57-.81.27-.17.63-.26,1.08-.26.24,0,.48.02.71.07.23.05.44.1.61.17v-2.22h1.12v6.87h-.93l-.19-.47c-.1.09-.23.17-.39.25-.16.08-.32.14-.5.2-.17.05-.35.07-.52.07ZM135.67,51v-6.64h1.11v6.64h-1.11Z"/>
    <path class="cls-7" d="M162.85,102.13l.56-2.13c-.23,0-.45-.05-.64-.14-.19-.09-.35-.23-.48-.4-.13-.18-.24-.41-.32-.69l-.99-3.59h1.15l.87,3.37c.04.14.09.24.15.32.06.07.12.13.18.16.06.03.11.05.16.05.05,0,.09,0,.11,0l1-3.91h1.13l-1.55,6.07-.43.89h-.91ZM157.88,97.62h.52c.22,0,.39-.03.51-.1.13-.07.21-.17.25-.28.05-.12.07-.25.07-.4,0-.2-.03-.37-.1-.49-.06-.13-.15-.22-.27-.27-.11-.05-.26-.08-.42-.08h-.5c-.27,0-.48.06-.62.18-.14.12-.21.32-.21.61s.07.5.2.63c.13.13.32.19.57.19ZM157.42,102.22c-.31,0-.58-.04-.82-.13-.24-.08-.43-.22-.57-.4-.13-.17-.2-.39-.2-.64v-.17c0-.26.08-.49.23-.68.15-.18.34-.32.58-.41.23-.1.48-.14.73-.14l.32.37c-.15,0-.29.02-.4.07-.12.05-.22.12-.29.22-.07.1-.11.22-.11.36v.14c0,.22.07.37.22.47.14.1.35.15.61.15h.98c.28,0,.49-.05.65-.16.16-.1.24-.26.24-.48v-.15c0-.13-.03-.24-.08-.33-.05-.09-.14-.16-.26-.22-.12-.05-.28-.07-.49-.07h-1.21c-.48,0-.84-.09-1.09-.28-.24-.19-.36-.42-.36-.7,0-.24.07-.44.21-.59.14-.16.34-.26.59-.32-.2-.1-.37-.22-.49-.37-.11-.15-.2-.31-.24-.49-.05-.17-.07-.35-.07-.53,0-.37.07-.66.23-.89.15-.23.37-.4.66-.51.29-.11.65-.17,1.07-.17h2.6v.62l-.85.12c.06.06.12.13.19.22.07.08.13.2.18.33.05.14.07.32.07.54,0,.27-.06.52-.17.74-.11.22-.29.4-.54.53-.25.13-.59.2-1.02.2h-.82c-.19,0-.35.03-.47.09s-.18.16-.18.31c0,.12.05.2.14.25.1.05.2.07.31.07h1.43c.37,0,.68.05.93.14.26.1.45.25.58.45s.2.47.2.81v.15c0,.46-.15.82-.45,1.09-.29.26-.75.4-1.36.4h-1.41ZM152.28,97.32h1.31c.21,0,.36-.04.46-.12.1-.08.15-.23.15-.45s-.03-.38-.09-.49c-.06-.12-.16-.2-.3-.25-.14-.05-.32-.08-.54-.08-.25,0-.45.04-.59.12s-.25.22-.32.42c-.06.2-.09.48-.09.85ZM153.31,100.05c-.52,0-.94-.07-1.25-.22-.31-.14-.53-.39-.67-.75-.14-.36-.21-.86-.21-1.49s.07-1.15.2-1.5c.13-.36.35-.61.66-.76s.72-.22,1.24-.22c.46,0,.83.05,1.11.14.28.09.49.26.61.5.13.23.2.57.2,1,0,.31-.06.55-.18.74-.12.18-.29.31-.52.39-.22.08-.49.12-.79.12h-1.41c.01.3.05.54.12.72.07.17.2.3.38.38.19.08.46.12.81.12h1.46v.66c-.25.05-.51.09-.78.13-.27.04-.59.05-.96.05ZM149.67,100c-.35,0-.63-.05-.85-.15-.22-.11-.38-.29-.49-.53-.1-.25-.14-.57-.13-.97l.04-2.27h-.76v-.72l.79-.18.16-1.35h.87v1.35h1.22v.9h-1.22v2.26c0,.16.01.29.05.39.03.1.07.17.13.23.06.05.12.09.19.12.07.02.14.04.21.04l.6.06v.82h-.8ZM144.52,99.27c.08,0,.17,0,.26-.03.1-.02.2-.05.31-.07.1-.03.2-.06.28-.08.09-.03.16-.06.22-.08.06-.02.1-.04.11-.04v-1.26l-1.04.05c-.28.02-.48.1-.6.22-.12.12-.18.28-.18.48v.2c0,.15.03.27.09.37.07.09.15.15.24.19.1.04.21.06.32.06ZM143.98,100.05c-.36,0-.65-.11-.88-.32s-.34-.51-.34-.89v-.4c0-.37.13-.68.38-.91.26-.23.65-.35,1.18-.35h1.38v-.42c0-.17-.03-.31-.09-.42s-.17-.2-.32-.25c-.16-.06-.39-.09-.71-.09h-1.46v-.65c.22-.06.48-.11.78-.15.3-.05.66-.07,1.07-.07.4,0,.73.04,1.01.14.28.1.48.26.62.49.14.23.22.54.22.94v3.32h-.87l-.19-.52s-.12.08-.22.14-.24.13-.4.2c-.16.07-.34.12-.54.17-.19.04-.39.06-.59.06ZM139.39,100v-4.82h.86l.25.77c.19-.23.4-.43.64-.59.23-.16.51-.24.84-.24.07,0,.13,0,.21.02.07,0,.14.02.2.04v1.13c-.08-.01-.17-.02-.27-.03-.1,0-.19,0-.28,0-.19,0-.36.02-.51.06-.15.04-.29.11-.42.2-.13.08-.26.19-.4.32v3.15h-1.12ZM137.71,100c-.35,0-.63-.05-.85-.15-.22-.11-.38-.29-.49-.53-.1-.25-.14-.57-.13-.97l.04-2.27h-.76v-.72l.79-.18.16-1.35h.87v1.35h1.22v.9h-1.22v2.26c0,.16.01.29.04.39.03.1.07.17.13.23.06.05.12.09.19.12.07.02.14.04.21.04l.6.06v.82h-.8ZM132.71,100.05c-.16,0-.34,0-.52-.02-.18,0-.37-.02-.56-.04-.19-.02-.36-.05-.53-.06-.17-.02-.32-.05-.45-.08v-.87c.17.01.36.02.59.04.23.01.46.02.71.03s.48,0,.71,0c.24,0,.45-.02.64-.06.19-.05.33-.13.43-.24s.15-.28.15-.49v-.31c0-.23-.07-.41-.2-.54-.13-.13-.33-.19-.59-.19h-.62c-.61,0-1.07-.13-1.4-.4-.32-.26-.49-.72-.49-1.36v-.34c0-.64.18-1.1.53-1.39.36-.29.87-.43,1.54-.43.23,0,.46.01.7.04.25.02.48.04.7.07s.41.06.57.1v.87c-.26-.02-.57-.04-.91-.05-.34-.02-.65-.03-.94-.03-.23,0-.43.02-.6.07-.17.05-.31.13-.4.26-.09.12-.13.3-.13.54v.22c0,.28.07.48.22.59.16.11.38.17.67.17h.69c.39,0,.71.07.96.22.25.14.44.34.56.59.13.25.19.53.19.85v.42c0,.49-.1.87-.29,1.13-.19.26-.46.44-.79.54-.34.1-.72.14-1.15.14Z"/>
    <path class="cls-8" d="M178.21,147.32h1.31c.21,0,.36-.04.46-.12.1-.08.15-.23.15-.45s-.03-.38-.09-.49c-.06-.12-.16-.2-.3-.25-.14-.05-.32-.08-.54-.08-.25,0-.45.04-.59.12-.14.08-.25.22-.32.42-.06.2-.09.48-.09.85ZM179.23,150.05c-.52,0-.94-.07-1.25-.22-.31-.14-.53-.39-.67-.75-.14-.36-.21-.86-.21-1.49s.07-1.15.2-1.5c.13-.36.35-.61.66-.76s.72-.22,1.24-.22c.46,0,.83.05,1.11.14.28.09.49.25.61.5.13.23.2.57.2,1,0,.31-.06.55-.18.74-.12.18-.29.31-.52.39-.22.08-.49.12-.79.12h-1.41c.01.3.05.54.12.72.07.17.2.3.38.38.19.08.46.12.81.12h1.46v.66c-.25.05-.51.09-.78.13-.27.04-.59.05-.96.05ZM174.7,150.05c-.29,0-.55-.04-.8-.11-.24-.08-.45-.21-.63-.39-.18-.19-.32-.44-.42-.76-.1-.32-.14-.72-.14-1.2s.04-.9.13-1.22c.1-.32.23-.58.4-.76.17-.19.38-.32.63-.39.25-.08.54-.12.85-.12.27,0,.54.01.82.04.28.02.55.07.83.14v.64h-1.31c-.29,0-.52.05-.7.14-.18.09-.32.25-.4.5-.09.24-.13.58-.13,1.03s.04.78.13,1.02c.09.23.23.38.4.47.19.08.42.12.71.12h1.38v.63c-.14.04-.31.08-.5.12-.19.03-.4.05-.61.07-.21.02-.42.03-.63.03ZM167.52,150v-4.82h.91l.21.5c.2-.15.44-.28.72-.4.29-.12.58-.18.89-.18.38,0,.68.08.89.23.22.15.37.35.46.61.1.26.14.54.14.85v3.21h-1.12v-3.08c0-.17-.03-.32-.1-.44-.07-.12-.16-.21-.28-.28-.11-.07-.25-.1-.42-.1-.16,0-.3.01-.44.04-.13.03-.26.07-.38.14-.12.06-.24.13-.37.22v3.5h-1.12ZM164.12,149.27c.08,0,.17,0,.26-.03.1-.02.2-.05.31-.07.1-.03.2-.06.28-.08.09-.03.16-.06.22-.08.06-.02.1-.04.11-.04v-1.26l-1.04.05c-.28.02-.48.1-.6.22-.12.12-.18.28-.18.48v.2c0,.15.03.27.09.37.07.09.15.15.24.19.1.04.21.06.32.06ZM163.58,150.05c-.36,0-.65-.11-.88-.32-.23-.22-.34-.51-.34-.89v-.4c0-.37.13-.68.38-.91.26-.23.65-.35,1.18-.35h1.38v-.42c0-.17-.03-.31-.09-.42-.06-.11-.17-.2-.32-.25-.16-.06-.39-.09-.71-.09h-1.46v-.65c.22-.06.48-.11.78-.15.3-.05.66-.07,1.07-.07.4,0,.73.04,1.01.14.28.1.48.26.62.49.14.23.22.54.22.94v3.32h-.87l-.19-.52s-.12.08-.23.14c-.11.06-.24.13-.4.2-.16.07-.34.12-.54.17-.19.04-.39.06-.59.06ZM157.25,150v-4.82h.91l.21.5c.2-.15.44-.28.72-.4.29-.12.58-.18.89-.18.38,0,.68.08.89.23.22.15.37.35.46.61.1.26.14.54.14.85v3.21h-1.12v-3.08c0-.17-.03-.32-.1-.44-.07-.12-.16-.21-.28-.28-.11-.07-.25-.1-.42-.1-.16,0-.3.01-.44.04-.13.03-.26.07-.38.14-.12.06-.24.13-.37.22v3.5h-1.12ZM153.48,150v-4.82h.86l.25.77c.19-.23.4-.43.64-.59.23-.16.51-.24.84-.24.07,0,.13,0,.21.02.07,0,.14.02.2.04v1.13c-.08-.01-.17-.02-.27-.03-.1,0-.19,0-.28,0-.19,0-.36.02-.51.06-.15.04-.29.11-.42.2-.13.08-.26.19-.4.32v3.15h-1.12ZM149.57,147.32h1.31c.21,0,.36-.04.46-.12.1-.08.15-.23.15-.45s-.03-.38-.09-.49c-.06-.12-.16-.2-.3-.25-.14-.05-.32-.08-.54-.08-.25,0-.45.04-.59.12-.14.08-.25.22-.32.42-.06.2-.09.48-.09.85ZM150.6,150.05c-.52,0-.94-.07-1.25-.22-.31-.14-.53-.39-.67-.75-.14-.36-.21-.86-.21-1.49s.07-1.15.2-1.5c.13-.36.35-.61.66-.76s.72-.22,1.24-.22c.46,0,.83.05,1.11.14.28.09.49.25.61.5.13.23.2.57.2,1,0,.31-.06.55-.18.74-.12.18-.29.31-.52.39-.22.08-.49.12-.79.12h-1.41c.01.3.05.54.12.72.07.17.2.3.38.38.19.08.46.12.81.12h1.46v.66c-.25.05-.51.09-.78.13-.27.04-.59.05-.96.05ZM145.07,150l-1.68-4.82h1.14l1.21,3.79,1.23-3.79h1.13l-1.76,4.82h-1.28ZM140.83,149.15c.19,0,.35-.01.48-.05.13-.04.24-.1.32-.21.09-.11.16-.27.2-.48.04-.22.06-.5.06-.86s-.02-.63-.06-.84c-.04-.21-.11-.37-.2-.47-.08-.11-.19-.18-.32-.21-.13-.04-.29-.05-.48-.05s-.34.02-.47.05c-.13.03-.24.1-.32.21-.08.1-.15.26-.2.47-.04.21-.06.49-.06.84s.02.64.06.86c.05.21.11.37.2.48.08.1.19.17.32.21.13.03.29.05.47.05ZM140.83,150.05c-.38,0-.71-.04-.98-.12-.28-.08-.5-.21-.68-.4-.17-.19-.3-.44-.39-.76-.08-.32-.13-.72-.13-1.2s.04-.91.13-1.22c.08-.32.21-.58.39-.76.18-.19.41-.31.68-.38.28-.07.6-.11.97-.11s.71.04.99.12c.28.07.5.2.68.38.17.18.3.43.39.76.08.32.13.72.13,1.21s-.04.89-.13,1.22c-.08.32-.2.57-.38.76-.17.18-.4.31-.67.39-.28.07-.61.11-1,.11ZM134.82,150.05c-.42,0-.76-.08-1.04-.23-.26-.15-.47-.37-.63-.66-.15-.29-.26-.64-.32-1.06-.06-.42-.09-.9-.09-1.43s.03-1.03.1-1.45c.07-.42.19-.77.37-1.05.17-.29.41-.5.72-.65.31-.15.71-.22,1.2-.22.28,0,.54.01.79.04.25.02.49.05.73.09.23.04.46.09.68.14v.86c-.13-.02-.3-.04-.51-.05-.21-.02-.44-.03-.7-.04-.26-.02-.53-.03-.8-.03-.4,0-.7.08-.91.23-.21.15-.35.4-.43.75-.08.35-.12.82-.12,1.4,0,.46.02.85.06,1.15.04.3.11.54.21.72.1.17.24.3.4.37.17.07.38.1.63.1.26,0,.52-.02.76-.07.25-.05.46-.11.63-.17v-1.53h-1.34v-.86c.12-.02.26-.03.43-.04.17-.01.35-.02.54-.03.19-.01.37-.02.55-.02s.34,0,.49,0c.15,0,.29,0,.4.02v3.68h-.84l-.15-.46c-.19.11-.44.22-.76.33-.32.11-.68.17-1.05.17ZM127.24,149.15c.22,0,.41-.03.58-.1.17-.07.32-.14.45-.22v-2.68c-.15-.05-.3-.1-.46-.14-.16-.04-.33-.06-.51-.06-.25,0-.46.05-.61.14-.16.09-.27.25-.34.49-.07.23-.1.57-.1,1,0,.4.03.72.1.95.07.23.17.39.32.49.15.09.34.14.58.14ZM126.86,150.05c-.38,0-.7-.08-.95-.24-.26-.17-.45-.43-.58-.78-.13-.36-.19-.82-.19-1.39,0-.6.06-1.08.17-1.45.11-.37.3-.64.57-.81.27-.17.63-.26,1.08-.26.24,0,.48.02.71.07.23.05.44.1.61.17v-2.22h1.12v6.87h-.93l-.19-.47c-.1.09-.23.17-.39.25-.16.08-.32.14-.5.2-.17.05-.35.07-.52.07ZM119.95,150v-4.82h.91l.21.5c.2-.15.44-.28.72-.4.29-.12.58-.18.89-.18.38,0,.67.08.89.23.22.15.37.35.46.61.1.26.14.54.14.85v3.21h-1.12v-3.08c0-.17-.03-.32-.1-.44-.07-.12-.16-.21-.28-.28-.11-.07-.26-.1-.42-.1-.16,0-.3.01-.44.04-.13.03-.26.07-.38.14-.12.06-.24.13-.37.22v3.5h-1.12ZM116.56,149.27c.08,0,.17,0,.26-.03.1-.02.2-.05.31-.07.1-.03.19-.06.28-.08.09-.03.16-.06.22-.08.06-.02.1-.04.11-.04v-1.26l-1.04.05c-.28.02-.48.1-.6.22-.12.12-.18.28-.18.48v.2c0,.15.03.27.09.37.07.09.15.15.24.19.1.04.21.06.32.06ZM116.02,150.05c-.36,0-.65-.11-.88-.32-.23-.22-.34-.51-.34-.89v-.4c0-.37.13-.68.38-.91.26-.23.65-.35,1.18-.35h1.38v-.42c0-.17-.03-.31-.09-.42s-.17-.2-.32-.25c-.16-.06-.39-.09-.71-.09h-1.46v-.65c.22-.06.48-.11.78-.15.3-.05.66-.07,1.07-.07.4,0,.73.04,1.01.14.28.1.48.26.62.49.14.23.22.54.22.94v3.32h-.87l-.19-.52s-.12.08-.22.14c-.11.06-.24.13-.4.2-.16.07-.34.12-.54.17-.19.04-.39.06-.59.06ZM174.4,141c-.35,0-.63-.05-.85-.15-.22-.11-.38-.29-.49-.53-.1-.25-.14-.57-.13-.97l.04-2.27h-.76v-.72l.79-.18.16-1.35h.87v1.35h1.22v.9h-1.22v2.26c0,.16.01.28.05.39.03.1.07.17.13.23.06.05.12.09.19.12.07.02.14.04.21.04l.6.06v.82h-.8ZM167.31,141v-4.82h.91l.21.5c.2-.15.44-.28.72-.4.29-.12.58-.18.89-.18.38,0,.68.08.89.23.22.15.37.35.46.61.1.26.14.54.14.85v3.21h-1.12v-3.08c0-.17-.03-.32-.1-.44-.07-.12-.16-.21-.28-.28-.11-.07-.25-.1-.42-.1-.16,0-.3.01-.44.04-.13.03-.26.07-.38.14-.12.06-.24.13-.37.22v3.5h-1.12ZM163.41,138.32h1.31c.21,0,.36-.04.46-.12.1-.08.15-.23.15-.45s-.03-.38-.09-.49c-.06-.12-.16-.2-.3-.25-.14-.05-.32-.08-.54-.08-.25,0-.45.04-.59.12-.14.08-.25.22-.32.42-.06.2-.09.48-.09.85ZM164.43,141.05c-.52,0-.94-.07-1.25-.22-.31-.14-.53-.39-.67-.75-.14-.36-.21-.86-.21-1.49s.07-1.15.2-1.5c.13-.36.35-.61.66-.76s.72-.22,1.24-.22c.46,0,.83.05,1.11.14.28.09.49.25.61.5.13.23.2.57.2,1,0,.31-.06.55-.18.74-.12.18-.29.31-.52.39-.22.08-.49.12-.79.12h-1.41c.01.3.05.54.12.72.07.17.2.3.38.38.19.08.46.12.81.12h1.46v.66c-.25.05-.51.09-.78.13-.27.04-.59.05-.96.05ZM154.03,141v-4.82h.91l.21.5c.22-.16.46-.29.73-.4.27-.12.59-.18.95-.18.3,0,.55.07.76.2.21.13.37.29.47.49.14-.11.3-.21.49-.32.2-.11.41-.2.63-.27s.44-.11.66-.11c.37,0,.67.08.89.22.23.14.39.35.49.61.1.26.14.56.14.9v3.17h-1.12v-3.08c0-.17-.03-.32-.1-.44s-.16-.21-.28-.28c-.11-.07-.26-.1-.42-.1-.22,0-.43.04-.66.13-.22.08-.41.19-.59.31.02.06.04.13.04.2.01.07.02.14.02.22v3.05h-1.12v-3.08c0-.17-.03-.32-.1-.44-.07-.12-.16-.21-.28-.28-.11-.07-.25-.1-.42-.1-.16,0-.3.01-.44.04-.13.03-.26.07-.38.14-.12.06-.24.13-.37.22v3.5h-1.12ZM150.13,138.32h1.31c.21,0,.36-.04.46-.12.1-.08.15-.23.15-.45s-.03-.38-.09-.49c-.06-.12-.16-.2-.3-.25-.14-.05-.32-.08-.54-.08-.25,0-.45.04-.59.12-.14.08-.25.22-.32.42-.06.2-.09.48-.09.85ZM151.15,141.05c-.52,0-.94-.07-1.25-.22-.31-.14-.53-.39-.67-.75-.14-.36-.21-.86-.21-1.49s.07-1.15.2-1.5c.13-.36.35-.61.66-.76s.72-.22,1.24-.22c.46,0,.83.05,1.11.14.28.09.49.25.61.5.13.23.2.57.2,1,0,.31-.06.55-.18.74-.12.18-.29.31-.52.39-.22.08-.49.12-.79.12h-1.41c.01.3.05.54.12.72.07.17.2.3.38.38.19.08.46.12.81.12h1.46v.66c-.25.05-.51.09-.78.13-.27.04-.59.05-.96.05ZM145.65,138.62h.52c.22,0,.39-.03.51-.1.13-.07.21-.17.25-.28.05-.12.07-.25.07-.4,0-.2-.03-.37-.1-.49-.06-.13-.15-.22-.27-.27-.11-.05-.26-.08-.42-.08h-.5c-.27,0-.48.06-.62.18-.14.12-.21.32-.21.61s.07.5.2.63c.13.13.32.19.57.19ZM145.19,143.22c-.31,0-.58-.05-.82-.14-.24-.08-.43-.22-.57-.4-.13-.17-.2-.39-.2-.64v-.17c0-.26.08-.49.23-.68.15-.18.34-.32.58-.41.23-.1.48-.14.73-.14l.32.37c-.15,0-.29.02-.4.07-.12.05-.22.12-.29.22-.07.1-.11.22-.11.36v.14c0,.22.07.37.22.47.14.1.35.15.61.15h.98c.28,0,.49-.05.65-.16.16-.1.24-.26.24-.48v-.15c0-.13-.03-.24-.08-.33-.05-.09-.14-.16-.26-.22-.12-.05-.28-.07-.49-.07h-1.21c-.48,0-.84-.09-1.09-.28-.24-.19-.36-.42-.36-.7,0-.24.07-.44.21-.59.14-.16.34-.26.59-.31-.2-.1-.37-.22-.49-.37-.11-.15-.2-.31-.24-.49-.05-.17-.07-.35-.07-.53,0-.37.07-.66.23-.89.15-.23.37-.4.66-.51.29-.11.65-.17,1.07-.17h2.6v.62l-.85.12c.06.06.12.13.19.22.07.08.13.19.18.33.05.14.07.32.07.54,0,.27-.06.52-.17.74-.11.22-.29.4-.54.53-.25.13-.59.2-1.02.2h-.82c-.19,0-.35.03-.47.09s-.18.16-.18.31c0,.12.05.2.14.25.1.05.2.07.31.07h1.43c.37,0,.68.05.93.14.26.1.45.25.58.45.13.2.2.47.2.81v.15c0,.46-.15.82-.45,1.09-.29.26-.75.4-1.36.4h-1.41ZM140.57,140.27c.08,0,.17,0,.26-.03.1-.02.2-.05.31-.07.1-.03.2-.06.28-.08.09-.03.16-.06.22-.08.06-.02.1-.04.11-.04v-1.26l-1.04.05c-.28.02-.48.1-.6.22-.12.12-.18.28-.18.48v.2c0,.15.03.27.09.37.07.09.15.15.24.19.1.04.21.06.32.06ZM140.03,141.05c-.36,0-.65-.11-.88-.32s-.34-.51-.34-.89v-.4c0-.37.13-.68.38-.91.26-.23.65-.35,1.18-.35h1.38v-.42c0-.17-.03-.31-.09-.42s-.17-.2-.32-.25c-.16-.06-.39-.09-.71-.09h-1.46v-.65c.22-.06.48-.11.78-.15.3-.05.66-.07,1.07-.07.4,0,.73.04,1.01.14.28.1.48.26.62.49.14.23.22.54.22.94v3.32h-.87l-.19-.52s-.12.08-.22.14-.24.13-.4.2c-.16.07-.34.12-.54.17-.19.04-.39.06-.59.06ZM133.7,141v-4.82h.91l.21.5c.2-.15.44-.28.72-.4.29-.12.58-.18.89-.18.38,0,.68.08.89.23.22.15.37.35.46.61.1.26.14.54.14.85v3.21h-1.12v-3.08c0-.17-.03-.32-.1-.44-.07-.12-.16-.21-.28-.28-.11-.07-.26-.1-.42-.1-.16,0-.3.01-.44.04-.13.03-.26.07-.38.14s-.24.13-.37.22v3.5h-1.12ZM130.3,140.27c.08,0,.17,0,.26-.03.1-.02.2-.05.31-.07.1-.03.2-.06.28-.08.09-.03.16-.06.22-.08.06-.02.1-.04.11-.04v-1.26l-1.04.05c-.28.02-.48.1-.6.22-.12.12-.18.28-.18.48v.2c0,.15.03.27.09.37.07.09.15.15.24.19.1.04.21.06.32.06ZM129.76,141.05c-.36,0-.65-.11-.88-.32s-.34-.51-.34-.89v-.4c0-.37.13-.68.38-.91.26-.23.65-.35,1.18-.35h1.38v-.42c0-.17-.03-.31-.09-.42s-.17-.2-.32-.25c-.16-.06-.39-.09-.71-.09h-1.46v-.65c.22-.06.48-.11.78-.15.3-.05.66-.07,1.07-.07.4,0,.73.04,1.01.14.28.1.48.26.62.49.14.23.22.54.22.94v3.32h-.87l-.19-.52s-.12.08-.22.14-.24.13-.4.2c-.16.07-.34.12-.54.17-.19.04-.39.06-.59.06ZM120.93,141l.76-6.64h1.08l1.61,5.32,1.6-5.32h1.08l.78,6.64h-1.08l-.61-5.22.18.02-1.44,5.2h-1.04l-1.46-5.2h.19s-.58,5.2-.58,5.2h-1.07Z"/>
    <path class="cls-7" d="M195.79,201.89c.31-.52.57-1.04.78-1.55.22-.5.39-1.02.5-1.56.12-.54.18-1.11.18-1.72s-.06-1.16-.17-1.68c-.11-.53-.28-1.05-.5-1.56-.22-.51-.48-1.03-.79-1.57h.5c.31.5.58,1,.8,1.5.22.5.39,1.02.5,1.56.12.53.18,1.12.18,1.75s-.06,1.22-.18,1.76c-.11.54-.28,1.06-.5,1.56-.22.5-.49,1.01-.8,1.51h-.5ZM193.72,200.05c-.11,0-.25,0-.42,0s-.36-.02-.55-.03c-.19,0-.37-.01-.52-.03-.16-.01-.27-.02-.35-.04v-.31h1.92c.22,0,.41-.02.58-.05.17-.04.3-.11.39-.23.1-.11.14-.29.14-.53v-.23c0-.23-.08-.42-.23-.55-.16-.14-.4-.21-.74-.21h-.65c-.29,0-.55-.03-.76-.1-.21-.07-.38-.19-.49-.36-.12-.17-.18-.4-.18-.69v-.24c0-.3.06-.54.17-.73.12-.19.3-.32.53-.41.24-.1.55-.14.92-.14.16,0,.34,0,.56.02.22,0,.43.02.65.04.22.01.39.03.52.05v.32h-1.8c-.35,0-.62.06-.8.18-.19.11-.28.34-.28.67v.21c0,.21.04.37.13.48.09.11.21.18.37.22.16.03.34.05.54.05h.66c.43,0,.76.1,1,.3.25.2.37.49.37.86v.31c0,.32-.07.57-.22.75-.14.17-.34.28-.59.35-.25.07-.53.1-.85.1ZM190.36,200c-.29,0-.53-.05-.73-.15-.19-.1-.34-.26-.43-.49-.1-.22-.14-.51-.14-.86l.03-2.85h-.76v-.34l.76-.1.1-1.34h.4v1.34h1.46v.44h-1.46v2.85c0,.23.02.41.07.56.05.14.12.24.2.31.08.07.17.12.26.15.1.02.19.04.27.04l.59.05v.38h-.6ZM186.14,200.05c-.27,0-.52-.04-.75-.11-.23-.07-.43-.19-.6-.37-.17-.18-.3-.43-.4-.75-.1-.32-.14-.73-.14-1.22s.04-.91.13-1.22c.09-.32.22-.57.38-.75.17-.18.37-.3.6-.37.23-.07.49-.11.78-.11.22,0,.47,0,.76.03.29.01.55.04.8.07v.32h-1.44c-.32,0-.59.05-.81.16-.22.1-.38.3-.5.6-.12.29-.18.73-.18,1.3,0,.54.06.96.19,1.25.13.29.3.49.52.59.22.1.48.15.78.15h1.51v.31c-.14.02-.29.04-.47.05-.17.02-.36.03-.56.04-.2.01-.4.02-.61.02ZM179.89,197.46h1.9c.29,0,.51-.05.66-.15.14-.11.22-.31.22-.59s-.04-.53-.14-.7c-.08-.17-.22-.28-.41-.35-.19-.07-.44-.11-.76-.11-.38,0-.68.05-.89.16-.21.11-.36.3-.45.58-.08.28-.13.67-.13,1.17ZM181.33,200.05c-.49,0-.88-.08-1.17-.22-.28-.16-.48-.41-.6-.77-.12-.36-.18-.85-.18-1.47s.06-1.12.19-1.48c.13-.35.33-.6.62-.75.29-.14.68-.22,1.17-.22.41,0,.74.05,1,.14.26.09.46.25.58.48.13.23.2.54.2.94,0,.27-.05.49-.16.66-.1.16-.25.28-.45.35-.2.07-.43.11-.7.11h-1.93c0,.44.04.79.13,1.05s.23.46.45.58c.22.12.55.18.97.18h1.58v.31c-.29.03-.56.05-.82.07-.25.02-.55.03-.88.03ZM177.57,202.13v-6.93h.52v4.61c0,.45-.01.88-.04,1.29-.03.41-.06.76-.1,1.03h-.38ZM177.65,194.3c-.08,0-.13-.04-.13-.13v-.64c0-.09.04-.14.13-.14h.36s.07.01.09.04c.02.02.03.06.03.1v.64c0,.09-.04.13-.12.13h-.36ZM174.23,199.61c.24,0,.46-.02.65-.06.19-.05.35-.14.48-.27.13-.14.22-.34.29-.61.07-.27.11-.63.11-1.07s-.04-.81-.11-1.07c-.07-.27-.16-.47-.29-.6-.13-.14-.29-.23-.48-.27-.19-.05-.41-.07-.65-.07s-.46.02-.65.07c-.19.04-.35.13-.48.27-.13.13-.22.33-.29.6-.07.26-.1.62-.1,1.07s.03.8.1,1.07c.07.27.16.47.29.61.13.13.29.22.48.27.19.04.4.06.65.06ZM174.23,200.05c-.33,0-.62-.03-.88-.1-.25-.07-.46-.19-.64-.37-.17-.18-.3-.43-.39-.75-.08-.32-.13-.74-.13-1.24s.04-.92.13-1.24c.09-.32.22-.57.39-.75.17-.17.39-.29.64-.36.26-.07.55-.1.88-.1s.62.03.87.1c.26.07.47.19.65.36.17.17.3.42.39.75.09.32.13.73.13,1.24s-.04.92-.13,1.24c-.08.32-.21.57-.39.75-.17.17-.38.3-.64.37-.26.07-.55.1-.88.1ZM168.69,200v-4.8h.39l.13.86c.23-.26.48-.48.76-.66.28-.17.61-.26.97-.26.09,0,.17,0,.25.02.08,0,.15.02.22.04v.53c-.08-.01-.16-.02-.24-.04s-.17-.02-.27-.02c-.23,0-.44.03-.63.09-.18.06-.35.15-.52.27-.17.11-.35.26-.53.43v3.53h-.52ZM163.82,197.11h1.94c.23,0,.44-.05.63-.14.19-.1.35-.26.46-.49.11-.24.17-.58.17-1.02s-.06-.75-.17-.98c-.11-.23-.26-.39-.44-.48-.17-.09-.37-.14-.58-.14h-2.02v3.25ZM163.3,200v-6.61h2.57c.19,0,.38.03.58.08.2.05.38.14.55.29.17.14.3.35.4.62.1.27.15.63.15,1.07s-.05.82-.16,1.1c-.11.28-.25.49-.42.64-.17.15-.36.25-.57.31-.2.05-.39.08-.57.08h-.41c-.18,0-.38-.01-.58-.02-.21-.01-.41-.02-.59-.03-.18-.01-.32-.02-.41-.04v2.5h-.52ZM157.36,199.61c.31,0,.58-.05.83-.14.25-.1.48-.19.68-.3v-3.36c-.25-.07-.48-.13-.69-.18-.22-.05-.46-.07-.74-.07-.34,0-.61.06-.82.19-.2.13-.35.34-.45.64-.1.29-.14.7-.14,1.22,0,.47.04.85.13,1.15.09.29.23.51.42.65.2.13.46.2.77.2ZM157.23,200.05c-.4,0-.73-.09-.99-.26-.25-.17-.44-.44-.56-.8s-.18-.81-.18-1.36c0-.59.06-1.07.18-1.44.13-.37.32-.63.59-.79.26-.17.61-.25,1.05-.25.28,0,.56.03.83.1.28.06.52.13.72.2v-2.31h.52v6.87h-.41l-.11-.49c-.08.08-.22.16-.4.24s-.39.16-.61.22c-.22.06-.43.09-.62.09ZM150.41,200v-4.8h.39l.13.54c.24-.16.52-.31.83-.43.32-.13.65-.19,1-.19s.61.08.83.23c.22.14.39.34.49.58.11.24.16.5.16.77v3.29h-.52v-3.24c0-.22-.04-.42-.13-.59-.09-.17-.22-.31-.38-.41-.16-.1-.36-.15-.59-.15s-.43.02-.62.06c-.18.04-.36.09-.53.17-.17.08-.35.17-.53.27v3.9h-.52ZM146.61,199.64c.12,0,.26,0,.41-.04.16-.04.32-.07.49-.12.16-.05.31-.09.45-.14.14-.05.26-.09.34-.13.09-.04.14-.05.14-.05v-1.63l-1.67.06c-.37.01-.64.1-.8.28-.16.17-.23.39-.23.66v.23c0,.22.04.39.13.52.09.13.2.22.33.27.14.05.27.08.4.08ZM146.43,200.05c-.35,0-.64-.1-.87-.31-.23-.21-.34-.51-.34-.89v-.32c0-.38.12-.68.37-.92.25-.23.62-.35,1.11-.35h1.76v-.67c0-.22-.04-.4-.12-.56-.07-.16-.2-.28-.39-.36-.19-.08-.45-.13-.8-.13h-1.5v-.31c.2-.02.43-.05.7-.07.28-.02.59-.04.95-.04.39,0,.71.04.95.15.25.1.43.26.55.48.12.22.18.49.18.82v3.43h-.4l-.11-.56s-.09.05-.23.12c-.13.06-.29.13-.49.21-.2.08-.42.15-.65.21-.23.05-.45.08-.67.08ZM140.19,200.05c-.11,0-.25,0-.42,0s-.36-.02-.55-.03c-.19,0-.37-.01-.52-.03-.16-.01-.27-.02-.35-.04v-.31h1.92c.22,0,.41-.02.58-.05.17-.04.3-.11.39-.23.1-.11.14-.29.14-.53v-.23c0-.23-.08-.42-.23-.55-.16-.14-.4-.21-.74-.21h-.65c-.29,0-.55-.03-.76-.1-.21-.07-.38-.19-.49-.36s-.18-.4-.18-.69v-.24c0-.3.06-.54.17-.73.12-.19.3-.32.53-.41.24-.1.55-.14.92-.14.16,0,.34,0,.56.02.22,0,.43.02.65.04.22.01.39.03.52.05v.32h-1.8c-.35,0-.62.06-.8.18-.19.11-.28.34-.28.67v.21c0,.21.04.37.13.48.09.11.21.18.37.22.16.03.34.05.54.05h.66c.43,0,.76.1,1,.3.25.2.37.49.37.86v.31c0,.32-.07.57-.22.75-.14.17-.34.28-.59.35-.25.07-.53.1-.85.1ZM134.03,197.46h1.9c.29,0,.51-.05.66-.15.14-.11.22-.31.22-.59s-.04-.53-.13-.7c-.08-.17-.22-.28-.41-.35-.19-.07-.44-.11-.76-.11-.38,0-.68.05-.89.16-.21.11-.36.3-.45.58-.08.28-.13.67-.13,1.17ZM135.47,200.05c-.49,0-.88-.08-1.17-.22-.28-.16-.48-.41-.6-.77-.12-.36-.18-.85-.18-1.47s.06-1.12.19-1.48c.13-.35.33-.6.62-.75.29-.14.68-.22,1.17-.22.41,0,.74.05,1,.14.26.09.46.25.59.48.13.23.2.54.2.94,0,.27-.05.49-.16.66-.1.16-.25.28-.45.35-.2.07-.43.11-.7.11h-1.93c0,.44.04.79.13,1.05s.23.46.45.58c.22.12.55.18.97.18h1.58v.31c-.29.03-.56.05-.82.07-.25.02-.55.03-.88.03ZM130.83,200.05c-.11,0-.25,0-.42,0s-.36-.02-.55-.03c-.19,0-.37-.01-.52-.03-.16-.01-.27-.02-.35-.04v-.31h1.92c.22,0,.41-.02.58-.05.17-.04.3-.11.39-.23.1-.11.14-.29.14-.53v-.23c0-.23-.08-.42-.23-.55-.16-.14-.4-.21-.74-.21h-.65c-.29,0-.55-.03-.76-.1-.21-.07-.38-.19-.49-.36-.12-.17-.18-.4-.18-.69v-.24c0-.3.06-.54.17-.73.12-.19.3-.32.53-.41.24-.1.55-.14.92-.14.16,0,.34,0,.56.02.22,0,.43.02.65.04.22.01.39.03.52.05v.32h-1.8c-.35,0-.62.06-.8.18-.19.11-.28.34-.28.67v.21c0,.21.04.37.13.48.09.11.21.18.37.22.16.03.34.05.54.05h.66c.43,0,.76.1,1,.3.25.2.37.49.37.86v.31c0,.32-.07.57-.22.75-.14.17-.34.28-.59.35-.25.07-.53.1-.85.1ZM126.35,200.05c-.11,0-.25,0-.42,0s-.36-.02-.55-.03c-.19,0-.37-.01-.52-.03s-.27-.02-.35-.04v-.31h1.92c.22,0,.41-.02.58-.05.17-.04.3-.11.39-.23.1-.11.14-.29.14-.53v-.23c0-.23-.08-.42-.23-.55-.16-.14-.4-.21-.74-.21h-.65c-.29,0-.55-.03-.76-.1-.21-.07-.38-.19-.5-.36s-.18-.4-.18-.69v-.24c0-.3.06-.54.17-.73.12-.19.3-.32.53-.41.24-.1.55-.14.92-.14.16,0,.34,0,.56.02.22,0,.43.02.65.04.22.01.39.03.52.05v.32h-1.8c-.35,0-.61.06-.8.18-.19.11-.28.34-.28.67v.21c0,.21.04.37.13.48.09.11.21.18.37.22.16.03.34.05.54.05h.66c.43,0,.76.1,1,.3.25.2.37.49.37.86v.31c0,.32-.07.57-.22.75-.14.17-.34.28-.58.35-.25.07-.53.1-.85.1ZM120.19,197.46h1.9c.29,0,.51-.05.66-.15.14-.11.22-.31.22-.59s-.04-.53-.13-.7c-.08-.17-.22-.28-.41-.35-.19-.07-.44-.11-.76-.11-.38,0-.67.05-.89.16-.21.11-.36.3-.45.58-.08.28-.13.67-.13,1.17ZM121.63,200.05c-.49,0-.88-.08-1.17-.22-.28-.16-.48-.41-.6-.77-.12-.36-.18-.85-.18-1.47s.06-1.12.19-1.48c.13-.35.33-.6.62-.75.29-.14.68-.22,1.17-.22.41,0,.74.05,1,.14.26.09.46.25.58.48.13.23.2.54.2.94,0,.27-.05.49-.16.66-.1.16-.25.28-.45.35-.2.07-.43.11-.7.11h-1.93c0,.44.04.79.13,1.05.08.26.23.46.45.58.22.12.55.18.97.18h1.58v.31c-.29.03-.56.05-.82.07-.25.02-.55.03-.88.03ZM117.15,200.05c-.27,0-.52-.04-.75-.11-.23-.07-.43-.19-.6-.37-.17-.18-.3-.43-.4-.75-.1-.32-.14-.73-.14-1.22s.04-.91.14-1.22c.09-.32.22-.57.38-.75.17-.18.37-.3.6-.37.23-.07.5-.11.78-.11.22,0,.47,0,.76.03.29.01.56.04.8.07v.32h-1.44c-.32,0-.59.05-.81.16-.22.1-.38.3-.5.6-.12.29-.18.73-.18,1.3,0,.54.06.96.19,1.25.13.29.3.49.52.59.22.1.48.15.78.15h1.51v.31c-.14.02-.29.04-.47.05-.17.02-.36.03-.56.04-.2.01-.4.02-.61.02ZM112.1,199.61c.24,0,.46-.02.65-.06.19-.05.35-.14.48-.27.13-.14.22-.34.29-.61.07-.27.11-.63.11-1.07s-.04-.81-.11-1.07c-.07-.27-.16-.47-.29-.6-.13-.14-.28-.23-.48-.27-.19-.05-.41-.07-.65-.07s-.46.02-.65.07c-.19.04-.35.13-.48.27-.13.13-.22.33-.29.6-.07.26-.1.62-.1,1.07s.03.8.1,1.07c.07.27.16.47.29.61.13.13.29.22.48.27.19.04.4.06.65.06ZM112.1,200.05c-.33,0-.62-.03-.88-.1-.25-.07-.47-.19-.64-.37-.17-.18-.3-.43-.39-.75-.08-.32-.13-.74-.13-1.24s.04-.92.13-1.24c.09-.32.22-.57.39-.75.17-.17.39-.29.64-.36.26-.07.55-.1.88-.1s.62.03.87.1c.26.07.47.19.65.36.17.17.3.42.39.75.09.32.13.73.13,1.24s-.04.92-.13,1.24c-.08.32-.21.57-.39.75-.17.17-.38.3-.64.37-.26.07-.55.1-.88.1ZM106.56,200v-4.8h.39l.13.86c.23-.26.48-.48.76-.66.28-.17.61-.26.97-.26.09,0,.17,0,.25.02.08,0,.15.02.22.04v.53c-.08-.01-.16-.02-.24-.04s-.17-.02-.27-.02c-.23,0-.44.03-.63.09-.18.06-.35.15-.52.27-.17.11-.35.26-.53.43v3.53h-.52ZM101.69,197.11h1.94c.23,0,.44-.05.63-.14.19-.1.35-.26.46-.49.11-.24.17-.58.17-1.02s-.06-.75-.17-.98c-.11-.23-.26-.39-.44-.48-.17-.09-.37-.14-.58-.14h-2.02v3.25ZM101.17,200v-6.61h2.57c.19,0,.38.03.58.08.2.05.38.14.55.29.17.14.3.35.4.62.1.27.15.63.15,1.07s-.05.82-.16,1.1c-.11.28-.25.49-.42.64-.17.15-.36.25-.57.31-.2.05-.39.08-.57.08h-.41c-.18,0-.38-.01-.58-.02-.21-.01-.41-.02-.59-.03-.18-.01-.32-.02-.41-.04v2.5h-.52ZM99.71,201.89c-.29-.49-.55-.98-.77-1.48-.22-.49-.4-1.01-.52-1.57-.13-.55-.19-1.15-.19-1.78s.06-1.21.19-1.75c.13-.55.31-1.08.53-1.58.23-.5.48-.99.76-1.47h.5c-.28.49-.53.99-.76,1.5-.22.51-.39,1.04-.52,1.58-.13.54-.19,1.11-.19,1.72s.06,1.18.18,1.72c.13.53.3,1.05.52,1.56.22.51.48,1.03.77,1.55h-.51ZM168.58,191.05c-.14,0-.3,0-.48-.02-.17,0-.35-.02-.53-.04-.17-.01-.34-.03-.49-.05-.15-.02-.27-.05-.37-.08v-.66h2.08c.15,0,.28-.01.38-.04.11-.02.19-.07.24-.14.05-.07.08-.18.08-.32v-.17c0-.15-.05-.27-.15-.35-.1-.09-.27-.14-.51-.14h-.73c-.28,0-.53-.04-.76-.12-.22-.08-.39-.21-.51-.4-.13-.19-.19-.44-.19-.76v-.27c0-.31.06-.56.17-.76.12-.2.32-.36.59-.46.28-.11.64-.16,1.1-.16.19,0,.4,0,.62.03.22.02.43.04.64.07.2.02.37.05.49.09v.66h-1.96c-.22,0-.39.04-.51.12-.11.07-.17.21-.17.41v.17c0,.13.03.23.08.3.05.07.14.11.24.13.11.02.24.04.39.04h.75c.47,0,.82.11,1.05.32.23.22.34.52.34.92v.4c0,.32-.07.58-.22.76-.15.19-.37.32-.65.4-.28.07-.61.11-1,.11ZM161.51,191v-4.82h.91l.21.5c.2-.15.44-.28.72-.4.29-.12.58-.18.89-.18.38,0,.68.08.89.23.22.15.37.35.46.61.1.26.14.54.14.85v3.21h-1.12v-3.08c0-.17-.03-.32-.1-.44-.07-.12-.16-.21-.28-.28-.11-.07-.25-.1-.42-.1-.16,0-.3.01-.44.04-.13.03-.26.07-.38.14-.12.06-.24.13-.37.22v3.5h-1.12ZM158.34,190.15c.19,0,.35-.01.48-.04.13-.04.24-.1.32-.21.09-.11.16-.27.2-.48.04-.22.06-.5.06-.86s-.02-.63-.06-.84c-.04-.21-.11-.37-.2-.47-.08-.11-.19-.18-.32-.21-.13-.04-.29-.05-.48-.05s-.34.02-.47.05c-.13.03-.24.1-.32.21-.08.1-.15.26-.2.47-.04.21-.06.49-.06.84s.02.64.06.86c.05.21.11.37.2.48.08.1.19.17.32.21.13.03.29.04.47.04ZM158.34,191.05c-.38,0-.71-.04-.98-.12-.28-.08-.5-.21-.67-.4-.17-.19-.3-.44-.39-.76s-.13-.72-.13-1.2.04-.91.13-1.22c.08-.32.21-.58.39-.76.18-.19.41-.31.68-.38.28-.07.6-.11.97-.11s.71.04.99.12c.28.07.5.2.68.38.17.18.3.43.39.76.08.32.13.72.13,1.21s-.04.89-.13,1.22c-.08.32-.2.57-.38.76-.17.18-.4.31-.67.39-.28.07-.61.11-1,.11ZM154.07,191v-4.82h1.12v4.82h-1.12ZM154.21,185.41c-.11,0-.17-.05-.17-.16v-.82c0-.12.06-.18.17-.18h.85c.05,0,.09.02.12.05.03.04.04.08.04.13v.82c0,.11-.05.16-.16.16h-.85ZM152.4,191c-.35,0-.63-.05-.85-.15-.22-.11-.38-.29-.49-.53-.1-.25-.14-.57-.13-.97l.04-2.27h-.76v-.72l.79-.18.16-1.35h.87v1.35h1.22v.9h-1.22v2.26c0,.16.01.28.05.39.03.1.07.17.13.23.06.05.12.09.19.12.07.02.14.04.21.04l.6.06v.82h-.8ZM147.25,190.27c.08,0,.17,0,.26-.03.1-.02.2-.05.31-.07.1-.03.2-.06.28-.08.09-.03.16-.06.22-.08.06-.02.1-.04.11-.04v-1.26l-1.04.05c-.28.02-.48.1-.6.22-.12.12-.18.28-.18.48v.2c0,.15.03.27.09.37.07.09.15.15.24.19.1.04.21.06.32.06ZM146.71,191.05c-.36,0-.65-.11-.88-.32-.23-.22-.34-.51-.34-.89v-.4c0-.37.13-.68.38-.91.26-.23.65-.35,1.18-.35h1.38v-.42c0-.17-.03-.31-.09-.42-.06-.11-.17-.2-.32-.25-.16-.06-.39-.09-.71-.09h-1.46v-.65c.22-.06.48-.11.78-.15.3-.05.66-.07,1.07-.07.4,0,.73.04,1.01.14.28.1.48.26.62.49.14.23.22.54.22.94v3.32h-.87l-.19-.52s-.12.08-.23.14-.24.13-.4.2c-.16.07-.34.12-.54.17-.19.04-.39.06-.59.06ZM142.12,191v-4.82h.86l.25.77c.19-.23.4-.43.64-.59.23-.16.51-.24.84-.24.07,0,.13,0,.21.02.07,0,.14.02.2.04v1.13c-.08-.01-.17-.02-.27-.03-.1,0-.19,0-.28,0-.19,0-.36.02-.51.06-.15.04-.29.11-.42.2-.13.08-.26.19-.4.32v3.15h-1.12ZM138.21,188.32h1.31c.21,0,.36-.04.46-.12.1-.08.15-.23.15-.45s-.03-.38-.09-.49c-.06-.12-.16-.2-.3-.25-.14-.05-.32-.08-.54-.08-.25,0-.45.04-.59.12-.14.08-.25.22-.32.42-.06.2-.09.48-.09.85ZM139.24,191.05c-.52,0-.94-.07-1.25-.22-.31-.14-.53-.39-.67-.75-.14-.36-.21-.86-.21-1.49s.07-1.15.2-1.5c.13-.36.35-.61.66-.76s.72-.22,1.24-.22c.46,0,.83.05,1.11.14.28.09.49.25.61.5.13.23.2.57.2,1,0,.31-.06.55-.18.74-.12.18-.29.31-.52.39-.22.08-.49.12-.79.12h-1.41c.01.3.05.54.12.72.07.17.2.3.38.38.19.08.46.12.81.12h1.46v.66c-.25.05-.51.09-.78.13-.27.04-.59.05-.96.05ZM134.2,190.15c.17,0,.33-.04.48-.14.14-.1.26-.25.34-.48.09-.22.13-.54.13-.94s-.04-.7-.13-.94-.2-.4-.34-.49c-.14-.1-.3-.14-.48-.14-.22,0-.42.04-.6.11-.18.07-.34.14-.48.21v2.52c.16.09.33.16.51.22.19.05.37.08.56.08ZM132.02,193.13v-6.96h.93l.19.48c.11-.09.25-.18.4-.26s.31-.15.49-.2c.17-.05.35-.08.54-.08.31,0,.57.06.78.18.22.12.4.29.54.51.14.22.24.48.3.78.07.3.1.63.1,1,0,.53-.06.98-.17,1.35-.11.37-.29.64-.54.84-.25.19-.58.29-1.01.29-.24,0-.49-.03-.74-.1-.25-.07-.47-.15-.68-.26v2.43h-1.12ZM128.32,190.06c.29,0,.54-.03.74-.09.2-.07.37-.18.49-.34.12-.17.21-.4.26-.71.05-.31.08-.72.08-1.21,0-.53-.03-.95-.09-1.26-.05-.32-.14-.56-.26-.72-.12-.17-.28-.28-.48-.33-.2-.06-.44-.09-.74-.09-.28,0-.51.03-.71.09-.2.05-.36.17-.49.33-.12.16-.21.4-.27.72-.06.31-.09.73-.09,1.26,0,.5.02.9.07,1.21.05.31.14.54.26.71.12.16.28.28.48.34.2.06.45.09.75.09ZM128.32,191.05c-.44,0-.83-.04-1.17-.13-.33-.09-.61-.25-.84-.48-.22-.23-.39-.57-.5-1.02-.11-.44-.16-1.02-.16-1.74s.06-1.3.17-1.75c.11-.45.28-.79.5-1.03.23-.24.51-.4.84-.5.34-.09.72-.13,1.16-.13s.84.04,1.18.13c.34.09.61.26.84.5.22.23.39.58.49,1.03.11.44.17,1.03.17,1.75s-.06,1.29-.17,1.74c-.11.44-.28.78-.5,1.02-.22.23-.5.39-.84.48-.33.08-.72.13-1.17.13Z"/>
    <path class="cls-8" d="M228.04,251.89c.31-.52.57-1.04.78-1.55.22-.5.39-1.02.5-1.56.12-.54.18-1.11.18-1.72s-.06-1.16-.17-1.68c-.11-.53-.28-1.05-.5-1.56-.22-.51-.48-1.03-.79-1.57h.5c.31.5.58,1,.8,1.5.22.5.39,1.02.5,1.56.12.53.18,1.12.18,1.75s-.06,1.22-.18,1.76c-.11.54-.28,1.06-.5,1.56-.22.5-.49,1.01-.8,1.51h-.5ZM227,250c-.08,0-.13-.04-.13-.13v-.66c0-.08.04-.13.13-.13h.29c.08,0,.13.04.13.13v.66s-.01.08-.04.1c-.02.02-.05.03-.09.03h-.29ZM224.33,250.05c-.27,0-.52-.04-.75-.11-.23-.07-.43-.2-.6-.37-.17-.18-.3-.43-.4-.75-.1-.32-.14-.73-.14-1.22s.04-.91.13-1.22c.09-.32.22-.57.38-.75.17-.18.37-.3.6-.37.23-.07.49-.11.78-.11.22,0,.47,0,.76.03.29.01.56.04.8.07v.31h-1.44c-.32,0-.59.05-.81.16-.22.1-.38.3-.5.6-.12.29-.18.73-.18,1.3,0,.54.06.96.19,1.25.13.29.3.49.52.59.22.1.48.15.78.15h1.51v.31c-.14.02-.29.04-.47.05-.17.02-.36.03-.56.04-.2.01-.4.02-.61.02ZM220.88,250c-.29,0-.53-.05-.73-.15-.19-.1-.34-.26-.43-.49s-.14-.51-.14-.86l.03-2.85h-.76v-.34l.76-.1.1-1.34h.4v1.34h1.46v.44h-1.46v2.85c0,.23.02.41.07.56.05.14.12.24.2.32.08.07.17.12.26.15.1.02.19.04.27.05l.58.05v.38h-.6ZM214.82,247.46h1.9c.29,0,.51-.05.66-.15.14-.11.22-.31.22-.59s-.04-.53-.13-.7c-.08-.17-.22-.28-.41-.35-.19-.07-.44-.11-.76-.11-.38,0-.68.05-.89.16-.21.11-.36.3-.45.58-.08.28-.13.67-.13,1.17ZM216.26,250.05c-.49,0-.88-.08-1.17-.23-.28-.16-.48-.41-.6-.77-.12-.36-.18-.85-.18-1.47s.06-1.12.19-1.48c.13-.35.33-.6.62-.75.29-.14.68-.22,1.17-.22.41,0,.74.05,1,.14.26.09.46.25.58.48.13.23.2.54.2.95,0,.27-.05.49-.16.66-.1.16-.25.28-.45.35-.2.07-.43.11-.7.11h-1.93c0,.44.04.79.13,1.05s.23.46.45.58c.22.12.55.18.97.18h1.58v.32c-.29.03-.56.05-.82.07-.25.02-.55.03-.88.03ZM210.34,250.68s-.08,0-.12-.02c-.03,0-.04,0-.04,0v-.15c.07,0,.11-.01.14-.04.02-.02.04-.05.04-.11v-.38h-.06s-.07-.01-.09-.04c-.02-.02-.04-.06-.04-.1v-.61c0-.09.04-.14.13-.14h.28s.08.01.1.04c.02.02.03.06.03.1v1.06c0,.11-.02.19-.05.24-.04.06-.08.1-.13.12-.05.02-.11.03-.16.03ZM205.77,247.46h1.9c.29,0,.51-.05.66-.15.14-.11.22-.31.22-.59s-.04-.53-.13-.7c-.08-.17-.22-.28-.41-.35-.19-.07-.44-.11-.76-.11-.38,0-.68.05-.89.16-.21.11-.36.3-.45.58-.08.28-.13.67-.13,1.17ZM207.21,250.05c-.49,0-.88-.08-1.17-.23-.28-.16-.48-.41-.6-.77-.12-.36-.18-.85-.18-1.47s.06-1.12.19-1.48c.13-.35.33-.6.62-.75.29-.14.68-.22,1.17-.22.41,0,.74.05,1,.14.26.09.46.25.58.48.13.23.2.54.2.95,0,.27-.05.49-.16.66-.1.16-.25.28-.45.35-.2.07-.43.11-.7.11h-1.93c0,.44.04.79.13,1.05s.23.46.45.58c.22.12.55.18.97.18h1.58v.32c-.29.03-.56.05-.82.07-.25.02-.55.03-.88.03ZM201.75,250v-4.8h.39l.13.86c.23-.26.48-.48.76-.66.28-.17.61-.26.97-.26.09,0,.17,0,.25.02.08,0,.15.02.22.04v.53c-.08-.01-.16-.02-.24-.04s-.17-.02-.27-.02c-.23,0-.44.03-.63.09-.18.06-.35.15-.52.27-.17.11-.35.26-.53.43v3.53h-.52ZM197.92,250.05c-.46,0-.82-.12-1.07-.35-.25-.23-.38-.61-.38-1.12v-3.38h.52v3.26c0,.44.1.74.3.9.2.15.48.22.85.22.31,0,.59-.04.85-.12.25-.08.52-.21.79-.37v-3.9h.52v4.8h-.39l-.13-.54c-.25.16-.53.3-.85.42-.32.11-.65.17-1.01.17ZM194.74,250c-.29,0-.53-.05-.73-.15-.19-.1-.34-.26-.43-.49-.1-.22-.14-.51-.14-.86l.03-2.85h-.76v-.34l.76-.1.1-1.34h.4v1.34h1.46v.44h-1.46v2.85c0,.23.02.41.07.56.05.14.12.24.2.32.08.07.17.12.26.15.1.02.19.04.27.05l.58.05v.38h-.6ZM190.53,250.05c-.27,0-.52-.04-.75-.11-.23-.07-.43-.2-.6-.37-.17-.18-.3-.43-.4-.75-.1-.32-.14-.73-.14-1.22s.04-.91.13-1.22c.09-.32.22-.57.38-.75.17-.18.37-.3.6-.37.23-.07.49-.11.78-.11.22,0,.47,0,.76.03.29.01.55.04.8.07v.31h-1.44c-.32,0-.59.05-.81.16-.22.1-.38.3-.5.6-.12.29-.18.73-.18,1.3,0,.54.06.96.19,1.25.13.29.3.49.52.59.22.1.48.15.78.15h1.51v.31c-.14.02-.29.04-.47.05-.17.02-.36.03-.56.04-.2.01-.4.02-.61.02ZM184.98,250.05c-.46,0-.82-.12-1.07-.35-.25-.23-.38-.61-.38-1.12v-3.38h.52v3.26c0,.44.1.74.3.9.2.15.48.22.86.22.31,0,.59-.04.85-.12.25-.08.52-.21.79-.37v-3.9h.52v4.8h-.39l-.13-.54c-.25.16-.53.3-.86.42-.32.11-.65.17-1.01.17ZM179.86,250v-4.8h.39l.13.86c.23-.26.48-.48.76-.66.28-.17.61-.26.97-.26.09,0,.17,0,.25.02.08,0,.15.02.22.04v.53c-.08-.01-.16-.02-.24-.04s-.17-.02-.27-.02c-.23,0-.44.03-.63.09-.18.06-.35.15-.52.27-.17.11-.35.26-.53.43v3.53h-.52ZM178.12,250c-.29,0-.53-.05-.73-.15-.19-.1-.34-.26-.43-.49-.1-.22-.14-.51-.14-.86l.03-2.85h-.76v-.34l.76-.1.1-1.34h.4v1.34h1.46v.44h-1.46v2.85c0,.23.02.41.07.56.05.14.12.24.2.32.08.07.17.12.26.15.1.02.19.04.27.05l.59.05v.38h-.6ZM173.74,250.05c-.11,0-.25,0-.42,0-.17,0-.36-.02-.55-.03-.19,0-.37-.01-.52-.03-.16-.01-.27-.02-.35-.04v-.32h1.92c.22,0,.41-.02.58-.05.17-.04.3-.11.39-.22.1-.11.14-.29.14-.53v-.23c0-.23-.08-.42-.23-.55-.16-.14-.4-.21-.74-.21h-.65c-.29,0-.55-.03-.76-.1-.21-.07-.38-.19-.49-.36-.12-.17-.18-.4-.18-.69v-.24c0-.3.06-.54.17-.73.12-.19.3-.32.53-.41.24-.1.55-.14.92-.14.16,0,.34,0,.56.02.22,0,.43.02.65.04.22.01.39.03.52.05v.32h-1.8c-.35,0-.62.06-.8.18-.19.11-.28.34-.28.68v.21c0,.21.04.37.13.48.09.11.21.18.37.22.16.03.34.04.54.04h.66c.43,0,.76.1,1,.3.25.2.37.49.37.86v.31c0,.32-.07.57-.22.75-.14.17-.34.28-.59.35s-.53.1-.85.1ZM168.33,249.64c.12,0,.26,0,.41-.04.16-.04.32-.08.49-.12.16-.05.31-.09.45-.14.14-.05.26-.09.34-.13.09-.04.14-.05.14-.05v-1.63l-1.67.06c-.37.01-.64.1-.8.28-.16.17-.23.39-.23.66v.22c0,.22.04.39.13.52.09.13.2.22.33.27.14.05.27.08.4.08ZM168.15,250.05c-.35,0-.64-.1-.87-.31-.23-.21-.34-.51-.34-.89v-.32c0-.38.12-.68.37-.92.25-.23.62-.35,1.11-.35h1.76v-.67c0-.22-.04-.4-.12-.56-.07-.16-.2-.28-.39-.36s-.45-.13-.8-.13h-1.5v-.32c.2-.02.43-.05.7-.07.28-.02.59-.04.95-.05.39,0,.71.05.95.15.25.1.43.26.55.48.12.22.18.49.18.82v3.43h-.4l-.11-.56s-.09.05-.23.12c-.13.06-.29.13-.49.21-.2.08-.42.15-.65.21-.23.05-.45.08-.67.08ZM163.73,250v-4.8h.39l.13.86c.23-.26.48-.48.76-.66.28-.17.61-.26.97-.26.09,0,.17,0,.25.02.08,0,.15.02.22.04v.53c-.08-.01-.16-.02-.24-.04s-.17-.02-.27-.02c-.23,0-.44.03-.63.09-.18.06-.35.15-.52.27-.17.11-.35.26-.53.43v3.53h-.52ZM160.73,250v-4.36h-.76v-.34l.76-.1v-.62c0-.32.04-.59.11-.81.08-.22.21-.39.4-.51.19-.12.46-.18.8-.18.21,0,.38,0,.52.03.14.02.26.03.38.05v.37h-.82c-.25,0-.43.04-.56.12-.12.08-.2.19-.24.35-.04.16-.06.35-.06.58v.64h1.57v.44h-1.57v4.36h-.52ZM155.21,250v-4.8h.39l.13.54c.24-.16.52-.31.83-.43.32-.13.65-.19,1-.19s.61.07.83.23c.22.14.39.34.5.59.11.24.16.5.16.77v3.29h-.52v-3.24c0-.22-.04-.42-.14-.59-.09-.17-.22-.31-.38-.41-.16-.1-.36-.15-.59-.15s-.43.02-.62.06c-.18.04-.36.09-.53.17-.17.08-.35.17-.53.27v3.9h-.52ZM153.22,250v-6.61h.52v6.61h-.52ZM149.08,250.68s-.08,0-.12-.02c-.03,0-.04,0-.04,0v-.15c.07,0,.11-.01.13-.04.02-.02.04-.05.04-.11v-.38h-.06s-.07-.01-.09-.04c-.02-.02-.04-.06-.04-.1v-.61c0-.09.04-.14.13-.14h.28s.08.01.1.04c.02.02.03.06.03.1v1.06c0,.11-.02.19-.05.24-.04.06-.08.1-.13.12-.05.02-.11.03-.16.03ZM146.01,252.13l.64-2.13c-.12,0-.26-.04-.4-.09-.15-.05-.29-.16-.43-.31-.13-.16-.25-.38-.35-.68l-1.22-3.73h.55l1.17,3.61c.07.2.15.36.23.46.09.1.18.16.26.21.08.04.16.06.22.06h.1l1.35-4.34h.54l-1.85,6.04-.41.89h-.38ZM141.05,247.91h.55c.34,0,.6-.05.78-.15.18-.11.3-.24.37-.4.07-.16.1-.34.1-.53,0-.3-.05-.54-.15-.71-.1-.18-.24-.31-.41-.39-.17-.08-.37-.12-.59-.12h-.51c-.38,0-.68.09-.9.26-.22.17-.32.46-.32.88s.1.71.3.89c.2.18.46.27.8.27ZM140.77,252.2c-.31,0-.59-.05-.83-.14-.23-.08-.42-.22-.56-.4-.13-.17-.2-.4-.2-.67v-.23c0-.29.08-.52.23-.71.16-.18.35-.32.59-.41.23-.1.47-.14.71-.14l.11.24c-.19,0-.38.03-.55.1-.17.07-.32.16-.43.3-.11.14-.16.32-.16.55v.22c0,.32.11.55.32.68.22.13.51.2.87.2h1.16c.41,0,.73-.08.95-.23.23-.16.35-.39.35-.71v-.21c0-.18-.04-.34-.11-.48-.07-.13-.2-.23-.37-.31-.17-.08-.41-.12-.72-.12h-1.56c-.32,0-.58-.07-.77-.22-.19-.14-.28-.34-.28-.58s.07-.43.22-.56c.14-.13.34-.22.6-.27-.23-.09-.42-.21-.55-.36-.13-.16-.22-.32-.27-.5-.05-.18-.07-.36-.07-.53,0-.38.07-.68.23-.9.16-.23.37-.39.64-.49.28-.1.59-.15.95-.15h2.56v.31l-1.19.07c.08.05.18.13.29.22.11.08.2.21.28.39.08.17.13.4.13.7,0,.23-.05.46-.15.68-.1.22-.28.41-.52.56-.25.14-.58.22-1.01.22h-.74c-.29,0-.51.04-.68.13-.16.08-.23.22-.23.43,0,.16.06.28.17.34.11.07.23.1.36.1h1.67c.37,0,.67.05.91.14.24.1.42.24.53.43.12.19.18.42.18.7v.22c0,.43-.15.77-.44,1.01-.29.24-.73.36-1.31.36h-1.31ZM136.28,249.61c.24,0,.46-.02.65-.06.19-.05.35-.14.48-.27.13-.14.22-.34.29-.61.07-.27.11-.63.11-1.07s-.04-.81-.11-1.07c-.07-.27-.16-.47-.29-.6-.13-.14-.29-.23-.48-.27-.19-.05-.41-.07-.65-.07s-.46.02-.65.07c-.19.04-.35.13-.48.27-.13.13-.22.33-.29.6-.07.26-.1.62-.1,1.07s.03.8.1,1.07c.07.27.16.47.29.61.13.13.29.22.48.27.19.04.4.06.65.06ZM136.28,250.05c-.33,0-.62-.03-.88-.1-.25-.07-.46-.2-.64-.37-.17-.18-.3-.43-.39-.75-.08-.32-.13-.74-.13-1.24s.04-.92.13-1.24c.09-.32.22-.57.39-.75.17-.17.39-.29.64-.36.26-.07.55-.1.88-.1s.62.03.87.1c.26.07.47.19.65.36.17.17.3.42.39.75.09.32.13.73.13,1.24s-.04.92-.13,1.24c-.08.32-.21.57-.39.75-.17.17-.38.3-.64.37-.26.07-.55.1-.88.1ZM133.01,250.01c-.25,0-.47-.05-.65-.14-.17-.1-.31-.25-.4-.48-.09-.22-.14-.53-.14-.92v-5.34h.52v5.28c0,.31.03.55.08.71.06.16.14.27.25.33.11.06.24.1.39.12l.52.06v.37h-.59ZM128.5,249.61c.24,0,.46-.02.65-.06.19-.05.35-.14.48-.27.13-.14.22-.34.29-.61.07-.27.11-.63.11-1.07s-.04-.81-.11-1.07c-.07-.27-.16-.47-.29-.6-.13-.14-.29-.23-.48-.27-.19-.05-.41-.07-.65-.07s-.46.02-.65.07c-.19.04-.35.13-.48.27-.13.13-.22.33-.29.6-.07.26-.1.62-.1,1.07s.03.8.1,1.07c.07.27.16.47.29.61.13.13.29.22.48.27.19.04.4.06.65.06ZM128.5,250.05c-.33,0-.62-.03-.88-.1-.25-.07-.47-.2-.64-.37-.17-.18-.3-.43-.39-.75-.08-.32-.13-.74-.13-1.24s.04-.92.13-1.24c.09-.32.22-.57.39-.75.17-.17.39-.29.64-.36.26-.07.55-.1.88-.1s.62.03.87.1c.26.07.47.19.65.36.17.17.3.42.39.75.09.32.13.73.13,1.24s-.04.92-.13,1.24c-.08.32-.21.57-.39.75-.17.17-.38.3-.64.37-.26.07-.55.1-.88.1ZM121.37,250v-4.8h.39l.13.54c.24-.16.52-.31.83-.43.32-.13.65-.19,1-.19s.61.07.83.23c.22.14.39.34.49.59.11.24.16.5.16.77v3.29h-.52v-3.24c0-.22-.04-.42-.13-.59-.09-.17-.22-.31-.38-.41-.16-.1-.36-.15-.59-.15s-.44.02-.62.06c-.18.04-.36.09-.53.17-.17.08-.35.17-.53.27v3.9h-.52ZM116.09,250v-6.87h.52v2.61c.23-.16.51-.31.83-.43.32-.13.66-.19,1-.19s.6.07.82.22c.22.14.39.34.5.59.11.24.17.5.17.78v3.29h-.52v-3.25c0-.22-.04-.41-.13-.59-.09-.17-.22-.31-.38-.41-.16-.1-.36-.15-.59-.15s-.44.02-.62.06c-.18.04-.35.1-.52.18-.17.07-.35.16-.54.26v3.9h-.52ZM113.39,250.05c-.27,0-.52-.04-.75-.11-.23-.07-.43-.2-.6-.37-.17-.18-.3-.43-.4-.75-.1-.32-.14-.73-.14-1.22s.04-.91.14-1.22c.09-.32.22-.57.38-.75.17-.18.37-.3.6-.37.23-.07.5-.11.78-.11.22,0,.47,0,.76.03.29.01.56.04.8.07v.31h-1.44c-.32,0-.59.05-.81.16-.22.1-.38.3-.5.6-.12.29-.18.73-.18,1.3,0,.54.06.96.19,1.25.13.29.3.49.52.59.22.1.48.15.78.15h1.51v.31c-.14.02-.29.04-.47.05-.17.02-.36.03-.56.04-.2.01-.4.02-.61.02ZM107.14,247.46h1.9c.29,0,.51-.05.66-.15.14-.11.22-.31.22-.59s-.04-.53-.13-.7c-.08-.17-.22-.28-.41-.35-.19-.07-.44-.11-.76-.11-.38,0-.67.05-.89.16-.21.11-.36.3-.45.58-.08.28-.13.67-.13,1.17ZM108.58,250.05c-.49,0-.88-.08-1.17-.23-.28-.16-.48-.41-.6-.77-.12-.36-.18-.85-.18-1.47s.06-1.12.19-1.48c.13-.35.33-.6.62-.75.29-.14.68-.22,1.17-.22.41,0,.74.05,1,.14.26.09.46.25.59.48.13.23.2.54.2.95,0,.27-.05.49-.16.66-.1.16-.25.28-.45.35-.2.07-.43.11-.7.11h-1.93c0,.44.04.79.13,1.05s.23.46.45.58c.22.12.55.18.97.18h1.58v.32c-.29.03-.56.05-.82.07-.25.02-.55.03-.88.03ZM103.74,250v-6.14h-2.11v-.47h4.75v.47h-2.11v6.14h-.52ZM98.07,250.68s-.08,0-.12-.02c-.03,0-.04,0-.04,0v-.15c.07,0,.11-.01.14-.04.02-.02.04-.05.04-.11v-.38h-.06s-.07-.01-.09-.04c-.02-.02-.04-.06-.04-.1v-.61c0-.09.04-.14.13-.14h.28s.08.01.1.04c.02.02.03.06.03.1v1.06c0,.11-.02.19-.05.24-.04.06-.08.1-.13.12-.05.02-.11.03-.16.03ZM93.5,247.46h1.9c.29,0,.51-.05.66-.15.14-.11.22-.31.22-.59s-.04-.53-.13-.7c-.08-.17-.22-.28-.41-.35-.19-.07-.44-.11-.76-.11-.38,0-.67.05-.89.16-.21.11-.36.3-.45.58-.08.28-.13.67-.13,1.17ZM94.94,250.05c-.49,0-.88-.08-1.17-.23-.28-.16-.48-.41-.6-.77-.12-.36-.18-.85-.18-1.47s.06-1.12.19-1.48c.13-.35.33-.6.62-.75.29-.14.68-.22,1.17-.22.41,0,.74.05,1,.14.26.09.46.25.58.48.13.23.2.54.2.95,0,.27-.05.49-.16.66-.1.16-.25.28-.45.35-.2.07-.43.11-.7.11h-1.93c0,.44.04.79.13,1.05.08.26.23.46.45.58.22.12.55.18.97.18h1.58v.32c-.29.03-.56.05-.82.07-.25.02-.55.03-.88.03ZM91.75,250.01c-.25,0-.47-.05-.65-.14-.17-.1-.31-.25-.4-.48-.09-.22-.13-.53-.13-.92v-5.34h.52v5.28c0,.31.03.55.08.71.06.16.14.27.25.33.11.06.24.1.39.12l.52.06v.37h-.58ZM87.43,249.61c.26,0,.48-.06.67-.19.2-.13.35-.35.47-.64.12-.29.18-.69.18-1.2s-.06-.87-.19-1.16c-.13-.29-.29-.51-.5-.64-.2-.14-.41-.21-.64-.21-.31,0-.58.05-.84.15-.25.1-.48.2-.68.3v3.14c.23.13.48.24.74.32.26.08.52.12.78.12ZM85.39,252.13v-6.93h.4l.12.5c.1-.07.24-.15.42-.24.19-.09.38-.16.59-.23.22-.06.42-.09.62-.09.32,0,.58.07.8.21.22.14.4.32.54.56s.24.49.3.78.09.59.09.89c0,.55-.07,1-.2,1.38-.13.37-.31.64-.57.82-.25.18-.57.27-.96.27-.28,0-.56-.05-.85-.14-.29-.1-.55-.22-.79-.36v2.57h-.52ZM82.05,249.61c.24,0,.46-.02.65-.06.19-.05.35-.14.48-.27.13-.14.22-.34.29-.61.07-.27.11-.63.11-1.07s-.04-.81-.11-1.07c-.07-.27-.16-.47-.29-.6-.13-.14-.28-.23-.48-.27-.19-.05-.41-.07-.65-.07s-.46.02-.65.07c-.19.04-.35.13-.48.27-.13.13-.22.33-.29.6-.07.26-.1.62-.1,1.07s.03.8.1,1.07c.07.27.16.47.29.61.13.13.29.22.48.27.19.04.4.06.65.06ZM82.05,250.05c-.33,0-.62-.03-.88-.1-.25-.07-.47-.2-.64-.37-.17-.18-.3-.43-.39-.75-.08-.32-.13-.74-.13-1.24s.04-.92.13-1.24c.09-.32.22-.57.39-.75.17-.17.39-.29.64-.36.26-.07.55-.1.88-.1s.62.03.87.1c.26.07.47.19.65.36.17.17.3.42.39.75.09.32.13.73.13,1.24s-.04.92-.13,1.24c-.08.32-.21.57-.39.75-.17.17-.38.3-.64.37-.26.07-.55.1-.88.1ZM75.65,247.46h1.9c.29,0,.51-.05.66-.15.14-.11.22-.31.22-.59s-.04-.53-.14-.7c-.08-.17-.22-.28-.41-.35-.19-.07-.44-.11-.76-.11-.38,0-.67.05-.89.16-.21.11-.36.3-.45.58-.08.28-.13.67-.13,1.17ZM77.09,250.05c-.49,0-.88-.08-1.17-.23-.28-.16-.48-.41-.6-.77-.12-.36-.18-.85-.18-1.47s.06-1.12.19-1.48.33-.6.62-.75c.29-.14.68-.22,1.17-.22.41,0,.74.05,1,.14.26.09.46.25.58.48.13.23.2.54.2.95,0,.27-.05.49-.16.66-.1.16-.25.28-.45.35-.2.07-.43.11-.7.11h-1.93c0,.44.04.79.13,1.05s.23.46.45.58c.22.12.55.18.97.18h1.58v.32c-.29.03-.56.05-.82.07-.25.02-.55.03-.88.03ZM70.44,247.11h1.94c.23,0,.44-.05.63-.14.19-.1.35-.26.46-.5.11-.24.17-.58.17-1.02s-.06-.75-.17-.98c-.11-.23-.26-.39-.44-.48-.17-.09-.37-.14-.58-.14h-2.02v3.25ZM69.92,250v-6.61h2.57c.19,0,.38.03.58.08.2.05.38.14.55.29.17.14.3.35.4.62.1.27.15.63.15,1.07s-.05.82-.16,1.1c-.11.28-.25.49-.42.64-.17.15-.36.25-.57.31-.2.05-.39.08-.57.08h-.41c-.18,0-.38-.01-.58-.02-.21-.01-.41-.02-.59-.03-.18-.01-.32-.02-.41-.04v2.5h-.52ZM68.46,251.89c-.29-.49-.55-.98-.77-1.48-.22-.49-.4-1.01-.52-1.57s-.19-1.15-.19-1.78.06-1.21.19-1.76c.13-.55.31-1.08.53-1.58.23-.5.48-.99.76-1.47h.5c-.28.49-.53.99-.76,1.5-.22.51-.39,1.04-.52,1.58-.13.54-.19,1.11-.19,1.72s.06,1.18.18,1.72c.13.53.3,1.05.52,1.56.22.51.48,1.03.77,1.55h-.51ZM164.65,241.05c-.14,0-.3,0-.48-.02-.17,0-.35-.02-.53-.04-.17-.01-.34-.03-.49-.05-.15-.02-.27-.05-.37-.08v-.66h2.08c.15,0,.28-.01.38-.04.11-.02.19-.07.24-.14.05-.07.08-.18.08-.32v-.17c0-.15-.05-.27-.15-.35-.1-.09-.27-.14-.51-.14h-.73c-.28,0-.53-.04-.76-.12-.22-.08-.39-.21-.51-.4-.13-.19-.19-.44-.19-.76v-.27c0-.31.06-.56.17-.76.12-.2.32-.36.59-.46.28-.11.64-.16,1.1-.16.19,0,.4,0,.62.03.22.02.43.04.64.07.2.02.37.05.49.09v.66h-1.96c-.22,0-.39.04-.51.12-.11.07-.17.21-.17.41v.17c0,.13.03.23.08.3.05.07.14.11.24.14s.24.04.39.04h.75c.47,0,.82.11,1.05.32.23.22.34.52.34.92v.4c0,.32-.07.58-.22.77-.15.19-.37.32-.65.4-.28.07-.61.11-1,.11ZM159.15,241v-4.82h.86l.25.77c.19-.23.4-.43.64-.59.23-.16.51-.24.84-.24.07,0,.13,0,.21.02.07,0,.14.02.2.04v1.13c-.08-.01-.17-.02-.27-.03-.1,0-.19,0-.28,0-.19,0-.36.02-.51.06-.15.04-.29.11-.42.2-.13.08-.26.19-.4.32v3.15h-1.12ZM155.24,238.32h1.31c.21,0,.36-.04.46-.12.1-.08.15-.23.15-.45s-.03-.38-.09-.49c-.06-.12-.16-.2-.3-.25-.14-.05-.32-.08-.54-.08-.25,0-.45.04-.59.12-.14.08-.25.22-.32.42-.06.2-.09.48-.09.86ZM156.27,241.05c-.52,0-.94-.07-1.25-.22-.31-.14-.53-.39-.67-.75-.14-.36-.21-.86-.21-1.49s.07-1.15.2-1.5c.13-.36.35-.61.66-.76.31-.14.72-.22,1.24-.22.46,0,.83.05,1.11.14.28.09.49.25.61.5.13.23.2.57.2,1,0,.31-.06.55-.18.74-.12.18-.29.31-.52.39-.22.08-.49.12-.79.12h-1.41c.01.3.05.54.12.72.07.17.2.3.38.38.19.08.46.12.81.12h1.46v.66c-.25.05-.51.09-.78.13-.27.04-.59.05-.96.05ZM152.98,241.02c-.32,0-.59-.05-.8-.16-.21-.11-.37-.28-.48-.5-.1-.23-.15-.53-.15-.91v-5.31h1.12v5.16c0,.22.02.38.06.5.05.12.11.21.2.26.08.05.19.08.31.1l.4.05v.81h-.66ZM148.49,240.15c.2,0,.37-.05.5-.15.14-.1.26-.27.33-.5.08-.23.12-.53.12-.92,0-.46-.04-.8-.13-1.02s-.2-.37-.34-.44c-.14-.07-.31-.11-.49-.11-.21,0-.4.03-.58.1-.17.06-.34.13-.49.22v2.52c.14.07.29.14.47.21.18.06.38.09.6.09ZM148.89,241.05c-.22,0-.41-.02-.59-.07-.17-.05-.33-.12-.48-.2-.14-.08-.28-.17-.4-.25l-.19.47h-.93v-6.87h1.12v2.41c.2-.11.43-.21.69-.3.26-.09.51-.14.73-.14.41,0,.74.08.99.25.25.17.43.44.55.81.12.37.18.85.18,1.46,0,.53-.06.97-.18,1.33-.11.36-.29.63-.54.82-.24.18-.56.27-.95.27ZM142.91,240.27c.08,0,.16,0,.26-.03.1-.02.2-.05.31-.07.1-.03.2-.06.28-.08.09-.03.16-.06.22-.08.06-.02.1-.04.11-.05v-1.26l-1.04.05c-.28.02-.48.1-.6.22-.12.12-.18.28-.18.48v.2c0,.15.03.27.09.37.07.09.15.15.24.19.1.04.21.06.32.06ZM142.37,241.05c-.36,0-.65-.11-.88-.32-.23-.22-.34-.51-.34-.89v-.41c0-.37.13-.67.38-.91.26-.23.65-.35,1.18-.35h1.38v-.42c0-.17-.03-.31-.09-.42-.06-.11-.17-.2-.32-.25-.16-.06-.39-.09-.71-.09h-1.46v-.65c.22-.06.48-.11.78-.15.3-.05.66-.07,1.07-.07.4,0,.73.04,1.01.14.28.1.48.26.62.49.14.23.22.54.22.94v3.32h-.87l-.19-.52s-.12.08-.23.14-.24.13-.4.2c-.16.07-.34.12-.54.17-.19.04-.39.06-.59.06ZM136.03,241v-4.82h.91l.21.5c.2-.15.44-.28.72-.41.29-.12.58-.18.89-.18.38,0,.68.08.89.23.22.15.37.35.46.61.1.26.14.54.14.85v3.21h-1.12v-3.08c0-.17-.03-.32-.1-.44-.07-.12-.16-.21-.28-.28-.11-.07-.25-.1-.42-.1-.16,0-.3.01-.44.04-.13.03-.26.08-.38.14-.12.06-.24.13-.37.22v3.5h-1.12ZM132.28,241.05c-.14,0-.31-.01-.49-.05-.17-.02-.34-.08-.5-.17-.16-.1-.29-.24-.4-.42-.1-.19-.15-.44-.15-.76v-3.83c0-.28.04-.52.13-.7.08-.19.2-.34.33-.45.14-.11.3-.18.47-.22.17-.05.35-.07.51-.07.42,0,.8,0,1.13.02.34.01.64.02.92.04.28.01.54.03.78.05v.93h-2.51c-.2,0-.37.05-.49.15-.11.1-.17.26-.17.48v1.18l2.76.06v.87l-2.76.06v1.14c0,.18.03.32.09.41.07.1.15.16.24.2.1.04.21.05.32.05h2.52v.93c-.26.02-.55.05-.86.06-.31.01-.63.02-.95.03-.32.01-.62.02-.92.03Z"/>
  </g>
</svg>