<?xml version="1.0" encoding="UTF-8"?>
<svg id="Layer_1" data-name="Layer 1" xmlns="http://www.w3.org/2000/svg" viewBox="0 0 886 897.48">
  <defs>
    <style>
      .cls-1 {
        font-family: Exo2-Regular, 'Exo 2';
        font-size: 27px;
      }

      .cls-1, .cls-2 {
        fill: #fff;
      }

      .cls-3 {
        fill: #b54a24;
      }

      .cls-3, .cls-4, .cls-5, .cls-6, .cls-7, .cls-8, .cls-2, .cls-9 {
        stroke-width: 0px;
      }

      .cls-4 {
        fill: #6d8e32;
      }

      .cls-5 {
        fill: #358a8c;
      }

      .cls-6 {
        fill: #8abb3f;
      }

      .cls-7 {
        fill: #43acb5;
      }

      .cls-8 {
        fill: #25285f;
      }

      .cls-10 {
        fill: none;
        stroke: #25285f;
        stroke-miterlimit: 10;
        stroke-width: 2px;
      }

      .cls-9 {
        fill: #eb642a;
      }
    </style>
  </defs>
  <path class="cls-4" d="M433,44.06v73.03c-83.33,2.49-161.3,36.12-220.52,95.33-24.28,24.29-44.27,51.73-59.56,81.41-3.06,5.93-5.93,11.95-8.6,18.05-17.91,40.77-27.32,85.19-27.32,131.06s9.41,90.29,27.32,131.06l-65.87,31.34c-22.15-49.61-34.45-104.57-34.45-162.4s12.3-112.79,34.45-162.4c2.71-6.1,5.58-12.12,8.6-18.06C151.51,135.59,281.82,47.78,433,44.06Z"/>
  <path class="cls-3" d="M798.95,623.4c-64.46,126.89-194.77,214.7-345.95,218.42-3.32.08-6.66.12-10,.12s-6.68-.04-10-.12c-151.18-3.72-281.49-91.53-345.95-218.42l65.87-31.35c15.29,29.68,35.28,57.12,59.56,81.41,59.22,59.21,137.19,92.84,220.52,95.33,3.33.1,6.66.15,10,.15s6.67-.05,10-.15c83.33-2.49,161.3-36.12,220.52-95.33,24.28-24.29,44.27-51.73,59.56-81.41l65.87,31.35Z"/>
  <path class="cls-5" d="M842,442.94c0,57.83-12.3,112.79-34.45,162.4l-65.87-31.34c17.91-40.77,27.32-85.19,27.32-131.06s-9.41-90.29-27.32-131.06c-2.67-6.1-5.54-12.12-8.6-18.05-15.29-29.68-35.28-57.12-59.56-81.41-59.22-59.21-137.19-92.84-220.52-95.33V44.06c151.18,3.72,281.49,91.53,345.95,218.42,3.02,5.94,5.89,11.96,8.6,18.06,22.15,49.61,34.45,104.57,34.45,162.4Z"/>
  <path class="cls-6" d="M345.03,478.49l-182.48,86.83c-16.43-37.5-25.55-78.89-25.55-122.38s9.12-84.88,25.55-122.38c2.68-6.12,5.55-12.14,8.63-18.04,49.51-95.5,147.9-161.74,261.82-165.42v202.08c0,15.07-8.86,28.58-22.47,35.03-12.78,6.05-23.61,15.56-31.27,27.33-3.62,5.56-6.53,11.62-8.6,18.05-2.38,7.36-3.66,15.2-3.66,23.35,0,.08,0,.16,0,.24.05,15.05-8.38,28.84-21.97,35.3Z"/>
  <path class="cls-9" d="M538.22,499.32l176.6,84.04c-49.51,95.5-147.9,161.74-261.82,165.42-3.32.11-6.65.16-10,.16s-6.68-.05-10-.16c-113.92-3.68-212.31-69.92-261.82-165.42l176.6-84.04c16.47-7.84,35.77-5.66,50.51,5.09,10,7.29,21.85,12.19,34.71,13.87,3.27.44,6.61.66,10,.66s6.73-.22,10-.66c12.86-1.69,24.71-6.59,34.71-13.87,14.74-10.74,34.04-12.92,50.51-5.09Z"/>
  <path class="cls-7" d="M749,442.94c0,43.49-9.12,84.88-25.55,122.38l-182.48-86.83c-13.59-6.47-22.02-20.25-21.97-35.3,0-.08,0-.16,0-.24,0-8.15-1.28-15.99-3.66-23.35-2.07-6.43-4.98-12.49-8.6-18.05-7.65-11.77-18.48-21.28-31.27-27.33-13.62-6.44-22.47-19.96-22.47-35.03v-202.08c113.92,3.68,212.31,69.92,261.82,165.42,3.08,5.9,5.95,11.92,8.63,18.04,16.43,37.5,25.55,78.89,25.55,122.38Z"/>
  <g>
    <text class="cls-1" transform="translate(94.27 473.96) rotate(-93.76)"><tspan x="0" y="0">C</tspan></text>
    <text class="cls-1" transform="translate(93.19 457.78) rotate(-90.93)"><tspan x="0" y="0">O</tspan></text>
    <text class="cls-1" transform="translate(92.95 438.62) rotate(-88.08)"><tspan x="0" y="0">S</tspan></text>
    <text class="cls-1" transform="translate(93.51 422.36) rotate(-85.4)"><tspan x="0" y="0">T</tspan></text>
    <text class="cls-1" transform="translate(94.86 405.59) rotate(-82.47)"><tspan x="0" y="0">U</tspan></text>
    <text class="cls-1" transform="translate(97.3 386.72) rotate(-78.88)"><tspan x="0" y="0">M</tspan></text>
    <text class="cls-1" transform="translate(102.23 362.46) rotate(-75.5)"><tspan x="0" y="0">E</tspan></text>
    <text class="cls-1" transform="translate(106.3 346.73) rotate(-72.69)"><tspan x="0" y="0">R</tspan></text>
    <text class="cls-1" transform="translate(111.74 329.69) rotate(-70.62)"><tspan x="0" y="0"> </tspan></text>
    <text class="cls-1" transform="translate(114.07 322.87) rotate(-68.68)"><tspan x="0" y="0">S</tspan></text>
    <text class="cls-1" transform="translate(119.98 307.71) rotate(-65.77)"><tspan x="0" y="0">U</tspan></text>
    <text class="cls-1" transform="translate(127.88 290.3) rotate(-62.84)"><tspan x="0" y="0">C</tspan></text>
    <text class="cls-1" transform="translate(135.3 275.89) rotate(-60.18)"><tspan x="0" y="0">C</tspan></text>
    <text class="cls-1" transform="translate(143.54 261.56) rotate(-57.5)"><tspan x="0" y="0">E</tspan></text>
    <text class="cls-1" transform="translate(152.3 247.87) rotate(-54.84)"><tspan x="0" y="0">S</tspan></text>
    <text class="cls-1" transform="translate(161.71 234.55) rotate(-52.18)"><tspan x="0" y="0">S</tspan></text>
    <text class="cls-1" transform="translate(171.79 221.72) rotate(-50.27)"><tspan x="0" y="0"> </tspan></text>
    <text class="cls-1" transform="translate(176.26 216.08) rotate(-47.66)"><tspan x="0" y="0">M</tspan></text>
    <text class="cls-1" transform="translate(193.01 197.88) rotate(-44.09)"><tspan x="0" y="0">O</tspan></text>
    <text class="cls-1" transform="translate(206.76 184.58) rotate(-40.9)"><tspan x="0" y="0">N</tspan></text>
    <text class="cls-1" transform="translate(222.12 171.47) rotate(-38.59)"><tspan x="0" y="0">I</tspan></text>
    <text class="cls-1" transform="translate(228.55 166.26) rotate(-36.53)"><tspan x="0" y="0">T</tspan></text>
    <text class="cls-1" transform="translate(241.75 156.47) rotate(-33.66)"><tspan x="0" y="0">O</tspan></text>
    <text class="cls-1" transform="translate(257.7 145.9) rotate(-30.64)"><tspan x="0" y="0">R</tspan></text>
    <text class="cls-1" transform="translate(273.12 136.9) rotate(-28.5)"><tspan x="0" y="0">I</tspan></text>
    <text class="cls-1" transform="translate(280.33 132.87) rotate(-26.16)"><tspan x="0" y="0">N</tspan></text>
    <text class="cls-1" transform="translate(298.43 124.05) rotate(-23.02)"><tspan x="0" y="0">G</tspan></text>
  </g>
  <g>
    <path class="cls-8" d="M364.78,863.8l-4.47,25.71-4.58-.8,4.47-25.71,4.58.8ZM369.72,864.32c2.14.37,3.83.9,5.08,1.57,1.25.68,2.09,1.61,2.51,2.8.42,1.19.46,2.76.12,4.72-.22,1.29-.57,2.36-1.04,3.22-.47.85-1.1,1.48-1.9,1.9-.8.41-1.81.59-3.03.53l-.03.19c.4.17.81.44,1.22.81.41.37.76.84,1.06,1.43.29.59.47,1.31.53,2.16l.95,8.46-4.92-.85-.74-8.3c-.12-.94-.38-1.63-.79-2.08-.41-.44-1.02-.73-1.84-.88-1.61-.28-2.99-.53-4.13-.74-1.14-.21-2.09-.39-2.84-.55-.75-.16-1.42-.28-1.99-.38l.73-3.52,8.87,1.54c1.12.17,2.03.19,2.71.07.69-.12,1.22-.47,1.6-1.03.38-.56.67-1.4.86-2.52.19-1.09.2-1.96.03-2.6-.17-.64-.56-1.14-1.16-1.49-.61-.35-1.47-.62-2.58-.81-2.19-.38-4.06-.69-5.63-.94-1.57-.25-2.64-.41-3.22-.48l.07-3.52c1.01.07,1.96.16,2.85.27.89.1,1.86.24,2.9.41,1.05.17,2.3.38,3.77.64Z"/>
    <path class="cls-8" d="M392.16,867.86c1.3.15,2.64.29,4,.45,1.37.15,2.71.33,4.03.53,1.32.2,2.57.41,3.73.65l-.62,3.47-10.15-1.14c-.7-.08-1.24.04-1.62.35-.38.31-.61.85-.69,1.6l-1.58,14.13c-.08.75.02,1.32.32,1.71.3.39.8.62,1.5.7l10.15,1.13-.17,3.52c-1.19-.03-2.45-.1-3.78-.21s-2.68-.24-4.05-.38c-1.37-.14-2.7-.28-4-.43-1.6-.18-2.84-.77-3.7-1.76-.87-1-1.23-2.25-1.08-3.75l1.82-16.23c.19-1.5.82-2.64,1.89-3.42,1.06-.78,2.4-1.08,4-.9ZM386.31,878.04l14.81,1.66-.39,3.46-14.81-1.66.39-3.46Z"/>
    <path class="cls-8" d="M419.72,869.79c1.28.09,2.63.24,4.05.44,1.42.2,2.79.52,4.13.94l-.47,3.19c-1.08-.08-2.33-.18-3.75-.3-1.42-.11-2.79-.21-4.09-.28-.81-.04-1.49-.06-2.06-.04-.57.02-1.04.12-1.4.3-.36.18-.64.48-.82.88s-.3.98-.34,1.71c-.06,1.13.13,1.95.57,2.45.44.5,1.18.92,2.22,1.26l5.05,1.79c2.03.74,3.4,1.73,4.12,2.97.72,1.24,1.02,2.85.91,4.84-.08,1.49-.32,2.7-.73,3.63-.4.94-.99,1.65-1.74,2.14-.76.49-1.74.82-2.93.98s-2.62.2-4.28.11c-.86-.05-2.03-.16-3.52-.34-1.49-.18-3.18-.52-5.08-1.03l.48-3.38c1.48.13,2.73.24,3.73.33,1,.09,1.87.16,2.6.2.73.04,1.41.08,2.04.11,1.16.06,2.07.04,2.73-.08.66-.12,1.14-.41,1.43-.87s.46-1.15.51-2.06c.04-.78-.02-1.4-.18-1.85-.17-.45-.46-.81-.87-1.09s-.96-.52-1.63-.73l-5.24-1.91c-1.93-.71-3.26-1.68-3.99-2.9-.73-1.23-1.04-2.83-.93-4.82.08-1.49.32-2.69.72-3.62.4-.92.98-1.61,1.74-2.07.76-.45,1.71-.74,2.87-.87s2.54-.15,4.15-.06Z"/>
    <path class="cls-8" d="M456.46,870.73l.26,15.88c.04,2.6-.24,4.68-.84,6.25-.61,1.57-1.62,2.72-3.05,3.45-1.42.73-3.35,1.11-5.77,1.15-2.52.04-4.54-.28-6.07-.96s-2.63-1.8-3.33-3.35c-.69-1.55-1.06-3.63-1.1-6.22l-.26-15.88,4.73-.08.26,15.88c.03,1.71.22,3.07.58,4.08.36,1,.93,1.71,1.72,2.11.79.4,1.85.59,3.19.57,1.34-.02,2.38-.25,3.15-.67.76-.43,1.31-1.15,1.63-2.16.32-1.01.47-2.38.44-4.09l-.26-15.88,4.73-.08Z"/>
    <path class="cls-8" d="M469.88,870.08l1.35,20c.05.73.28,1.26.7,1.6.41.34.99.48,1.72.43l9.21-.62.47,3.57c-1.7.27-3.47.48-5.32.64-1.85.16-3.67.31-5.49.43-1.91.13-3.35-.27-4.31-1.19-.96-.92-1.49-2.14-1.59-3.64l-1.41-20.9,4.68-.32Z"/>
    <path class="cls-8" d="M503.27,866.83l.45,3.83-20.77,2.41-.44-3.83,20.77-2.41ZM495.23,867.76l3.01,25.92-4.7.54-3.01-25.92,4.7-.54Z"/>
    <path class="cls-8" d="M517.86,863.89c1.27-.2,2.62-.36,4.04-.48,1.42-.12,2.84-.13,4.24-.02l.26,3.22c-1.07.16-2.31.35-3.72.56-1.41.21-2.76.43-4.05.66-.79.14-1.47.28-2.02.43s-.98.35-1.29.61c-.31.26-.51.61-.6,1.05-.09.44-.07,1.02.06,1.74.2,1.12.57,1.87,1.11,2.26.54.39,1.36.63,2.45.72l5.33.6c2.14.26,3.71.91,4.68,1.96.98,1.04,1.64,2.55,1.99,4.51.26,1.47.3,2.7.12,3.7-.18,1.01-.59,1.83-1.21,2.48s-1.51,1.19-2.63,1.62c-1.13.43-2.51.79-4.15,1.08-.84.15-2.01.3-3.51.47-1.5.16-3.22.21-5.18.15l-.29-3.4c1.47-.21,2.71-.38,3.71-.52,1-.14,1.86-.27,2.58-.4.72-.13,1.39-.25,2.01-.36,1.14-.2,2.02-.43,2.64-.7s1.02-.65,1.2-1.17.19-1.22.03-2.12c-.14-.77-.33-1.35-.6-1.76-.26-.4-.63-.69-1.09-.86-.47-.17-1.05-.29-1.75-.34l-5.53-.67c-2.04-.25-3.56-.89-4.54-1.92-.99-1.03-1.65-2.52-2-4.49-.26-1.46-.3-2.69-.11-3.69.18-.99.59-1.79,1.23-2.41s1.5-1.11,2.6-1.5,2.44-.72,4.03-1Z"/>
  </g>
  <g>
    <path class="cls-2" d="M601.02,108.11c.64.28.81.75.52,1.41l-6.95,17.74-2.34-1.04,6.63-16.74-.56-.25-10.12,11.74c-.38.47-.83.59-1.37.35l-2.1-.93c-.55-.24-.79-.67-.71-1.27l1.92-15.38-.53-.24-7.94,16.16-2.34-1.04,8.44-17.08c.33-.64.8-.82,1.42-.55l2.66,1.18c.5.22.71.63.63,1.24l-1.54,12.74c-.04.47-.1.93-.18,1.39-.08.45-.16.92-.22,1.4l.48.21c.31-.37.61-.74.9-1.1s.59-.74.91-1.12l8.39-9.64c.38-.47.83-.59,1.37-.35l2.64,1.17Z"/>
    <path class="cls-2" d="M617.02,115.84c1.29.69,2.3,1.42,3.03,2.21s1.18,1.68,1.35,2.68c.16,1,.05,2.16-.33,3.47-.38,1.32-1.04,2.84-1.96,4.57-.92,1.73-1.83,3.12-2.7,4.17s-1.78,1.79-2.7,2.21c-.92.42-1.91.55-2.98.38-1.06-.17-2.24-.6-3.53-1.29s-2.3-1.42-3.03-2.21-1.19-1.69-1.36-2.69c-.17-1-.06-2.16.32-3.48s1.03-2.84,1.96-4.57c.92-1.73,1.82-3.12,2.7-4.17.88-1.05,1.78-1.79,2.71-2.21.93-.42,1.92-.54,2.99-.37,1.07.17,2.24.6,3.53,1.29ZM615.94,117.87c-1.17-.62-2.21-.89-3.12-.8-.92.08-1.79.57-2.63,1.46-.84.89-1.74,2.24-2.71,4.06-.96,1.8-1.58,3.3-1.85,4.5-.28,1.2-.19,2.2.25,3.01.44.81,1.24,1.52,2.41,2.14,1.17.62,2.21.89,3.12.8.91-.08,1.79-.57,2.63-1.47.84-.9,1.74-2.24,2.7-4.04.97-1.82,1.59-3.32,1.86-4.51.27-1.19.19-2.19-.25-2.99-.44-.81-1.24-1.52-2.41-2.14Z"/>
    <path class="cls-2" d="M644.16,132.18l-10.05,16.23c-.36.58-.82.69-1.38.35l-2.13-1.32c-.25-.15-.41-.33-.49-.54-.08-.21-.09-.46-.05-.75l1.73-15.7c.05-.42.11-.9.17-1.44.06-.54.14-1.01.26-1.42l-.4-.25c-.19.38-.4.77-.62,1.16-.22.39-.45.78-.68,1.16l-7.93,12.81-2.18-1.35,10.05-16.23c.36-.58.83-.69,1.4-.33l2.06,1.27c.25.15.41.33.49.54s.09.46.05.75l-1.72,15.29c-.03.46-.08.97-.15,1.54-.07.57-.14,1.12-.22,1.66l.42.26c.26-.46.51-.9.76-1.34.25-.44.51-.87.77-1.3l7.67-12.39,2.16,1.33Z"/>
    <path class="cls-2" d="M653.48,138.52l-11.39,16.58-2.11-1.45,11.39-16.58,2.11,1.45Z"/>
    <path class="cls-2" d="M666.3,147.81l-12.09,16.07-2.05-1.54,12.09-16.07,2.05,1.54ZM671.5,151.72l-1.37,1.82-12.42-9.34,1.37-1.82,12.42,9.34Z"/>
    <path class="cls-2" d="M682.41,160.24c1.11.94,1.94,1.88,2.5,2.8.55.93.8,1.9.75,2.91-.05,1.01-.41,2.12-1.06,3.32s-1.61,2.56-2.88,4.05-2.44,2.67-3.53,3.51c-1.08.84-2.12,1.37-3.11,1.59-.99.22-1.99.13-2.99-.26-1-.39-2.06-1.06-3.17-2-1.11-.94-1.95-1.88-2.5-2.8s-.8-1.9-.76-2.92c.05-1.02.4-2.13,1.05-3.33.65-1.21,1.61-2.56,2.88-4.05,1.27-1.5,2.44-2.67,3.53-3.51,1.08-.84,2.12-1.37,3.12-1.58,1-.21,2-.12,3,.27,1,.39,2.06,1.06,3.17,2ZM680.92,161.99c-1.01-.85-1.97-1.34-2.88-1.45-.91-.11-1.87.18-2.88.87-1,.69-2.17,1.82-3.5,3.39-1.32,1.56-2.24,2.89-2.76,4-.52,1.11-.65,2.11-.39,2.99.26.88.89,1.75,1.9,2.6s1.97,1.34,2.88,1.45,1.87-.18,2.88-.88c1.01-.7,2.18-1.82,3.5-3.38,1.33-1.57,2.26-2.91,2.77-4.01.52-1.1.64-2.1.38-2.98-.26-.88-.89-1.75-1.9-2.6Z"/>
    <path class="cls-2" d="M696.07,172.89l-13.91,14.53-1.83-1.75,13.91-14.53,1.83,1.75ZM699.43,175.75c1.12,1.07,1.91,2.06,2.36,2.97.45.9.55,1.81.29,2.72-.26.91-.92,1.91-1.97,3-.75.79-1.47,1.35-2.16,1.71-.69.35-1.36.49-2.02.4-.66-.08-1.36-.39-2.08-.92l-.1.1c.19.28.31.63.37,1.02.06.4.06.83-.02,1.31-.08.48-.26.96-.55,1.47l-2.98,5.94-1.98-1.9,3.07-5.78c.34-.72.47-1.35.38-1.87-.09-.53-.38-1.03-.87-1.5-.86-.82-1.6-1.54-2.22-2.15s-1.14-1.13-1.55-1.54c-.41-.42-.74-.75-.99-.99l1.54-1.48,4.7,4.5c.73.67,1.37,1.13,1.94,1.37.56.24,1.13.25,1.69.03.57-.23,1.19-.7,1.88-1.41s1.12-1.35,1.31-1.92c.19-.56.15-1.12-.12-1.67-.27-.55-.76-1.17-1.47-1.85-1.15-1.1-2.15-2.05-3-2.83s-1.42-1.32-1.71-1.6l1.1-1.74c.59.45,1.13.89,1.62,1.3.49.42,1.02.89,1.58,1.41.56.52,1.23,1.16,2,1.89Z"/>
    <path class="cls-2" d="M712.33,189.09c.66.71,1.33,1.42,2,2.14.67.72,1.32,1.44,1.96,2.16.64.72,1.24,1.43,1.8,2.12l-1.55,1.29-5.51-5.9c-.41-.44-.82-.66-1.24-.66-.41,0-.87.23-1.36.7l-8.74,8.16c-.5.46-.76.91-.8,1.32-.04.42.15.85.56,1.29l5.51,5.9-1.37,1.44c-.65-.61-1.31-1.27-1.98-1.96-.67-.69-1.34-1.39-2.02-2.1-.68-.71-1.35-1.42-2.01-2.13-.81-.87-1.22-1.77-1.23-2.7,0-.94.37-1.77,1.14-2.52l9.63-8.99c.81-.73,1.68-1.05,2.6-.97.92.08,1.79.55,2.6,1.42ZM703.84,192.43l7.32,7.84-1.51,1.41-7.32-7.84,1.51-1.41Z"/>
    <path class="cls-2" d="M728.15,206.62c.92,1.11,1.56,2.16,1.93,3.15s.44,1.98.22,2.96-.75,2-1.59,3.06-2,2.21-3.5,3.45c-1.5,1.24-2.84,2.18-4.04,2.8-1.2.63-2.3.96-3.3,1-1,.04-1.96-.22-2.87-.76s-1.82-1.37-2.74-2.48c-.88-1.06-1.68-2.06-2.39-3-.71-.94-1.38-1.83-1.99-2.69l2.32-.49c.51.64,1.07,1.35,1.68,2.14.62.79,1.32,1.65,2.1,2.6.82.99,1.66,1.61,2.53,1.88.87.27,1.85.15,2.96-.36,1.11-.5,2.45-1.41,4.02-2.71s2.71-2.45,3.41-3.45c.7-1,1-1.95.91-2.86-.1-.91-.55-1.85-1.37-2.84-.77-.93-1.47-1.75-2.1-2.48s-1.24-1.44-1.84-2.13l.86-2.16c.73.76,1.49,1.57,2.28,2.45.79.87,1.62,1.84,2.5,2.9ZM725,203.24l-15.48,12.85-1.64-1.97,15.48-12.85,1.64,1.97Z"/>
    <path class="cls-2" d="M745.1,229.12l-16.37,11.69-1.49-2.09,16.37-11.69,1.49,2.09Z"/>
    <path class="cls-2" d="M760.41,252.33c.38.59.26,1.08-.35,1.46l-15.62,10.91-1.37-2.17,14.8-10.25-.33-.52-14.93,4.16c-.58.18-1.02.03-1.33-.47l-1.23-1.94c-.32-.51-.28-.99.11-1.45l10.12-11.74-.31-.49-15.56,9.05-1.38-2.17,16.49-9.54c.63-.35,1.12-.24,1.49.33l1.56,2.46c.29.46.24.92-.16,1.38l-8.35,9.75c-.29.37-.6.72-.92,1.05-.32.33-.64.68-.96,1.04l.28.44c.47-.14.92-.27,1.36-.41.44-.14.9-.28,1.38-.43l12.33-3.37c.58-.18,1.02-.03,1.33.47l1.55,2.44Z"/>
    <path class="cls-2" d="M766.88,263.71l-17.68,9.59-1.22-2.25,17.68-9.59,1.22,2.25ZM769.18,267.4c.77,1.42,1.21,2.63,1.34,3.63.12,1-.11,1.9-.71,2.69-.6.79-1.63,1.58-3.08,2.37s-2.67,1.22-3.67,1.31c-.99.08-1.86-.18-2.61-.81-.75-.62-1.48-1.6-2.21-2.93-.39-.72-.75-1.41-1.07-2.09-.32-.68-.6-1.3-.84-1.88-.24-.58-.43-1.08-.57-1.5s-.23-.72-.26-.9l1.43-.67c.49.91,1,1.84,1.53,2.82.53.97,1.05,1.94,1.57,2.9.48.84.96,1.47,1.43,1.86.47.4,1.02.56,1.66.49.64-.07,1.42-.36,2.36-.87.96-.52,1.63-1.02,2.03-1.52.4-.49.56-1.04.49-1.66-.07-.62-.33-1.35-.8-2.2-.76-1.4-1.42-2.6-1.99-3.61-.57-1.01-.97-1.68-1.2-2.02l1.62-1.35c.42.61.8,1.19,1.14,1.74.34.55.7,1.15,1.06,1.81.37.66.81,1.46,1.32,2.4Z"/>
    <path class="cls-2" d="M776.47,282.22l-14.48,6.88c-.6.28-.97.64-1.11,1.06-.14.42-.07.93.21,1.53l3.11,6.56-1.74.96c-.63-1.1-1.23-2.24-1.81-3.41-.58-1.18-1.15-2.35-1.71-3.53-.63-1.33-.76-2.44-.38-3.31.38-.87,1.07-1.54,2.05-2.01l14.77-7.01,1.09,2.29Z"/>
    <path class="cls-2" d="M784.66,300.36c.37.9.74,1.8,1.12,2.71.37.91.73,1.81,1.07,2.71.34.9.65,1.77.94,2.62l-1.9.66-3.07-7.47c-.23-.56-.54-.91-.92-1.05-.39-.15-.89-.09-1.52.17l-11.05,4.55c-.63.26-1.03.58-1.21.96-.18.38-.16.85.07,1.4l3.07,7.47-1.79.86c-.39-.8-.78-1.65-1.17-2.53-.38-.88-.77-1.78-1.15-2.68-.38-.9-.76-1.81-1.13-2.7-.45-1.1-.52-2.08-.2-2.96.32-.88.97-1.53,1.95-1.96l12.18-5.02c1.01-.4,1.94-.39,2.78,0,.84.4,1.48,1.15,1.93,2.25ZM775.54,300.49l4.08,9.92-1.91.79-4.08-9.92,1.91-.79Z"/>
    <path class="cls-2" d="M796.84,333.78c.22.66,0,1.11-.69,1.34l-17.78,6.84-.81-2.43,16.83-6.4-.19-.58-15.5.45c-.6.04-1-.22-1.18-.77l-.73-2.18c-.19-.57-.04-1.03.46-1.38l12.65-8.97-.18-.55-17.28,5.04-.81-2.43,18.3-5.29c.69-.19,1.15.04,1.37.68l.92,2.76c.17.52.01.95-.49,1.3l-10.45,7.46c-.38.29-.76.56-1.15.8-.39.24-.79.5-1.18.78l.17.5c.49-.02.96-.04,1.42-.08s.94-.06,1.45-.08l12.78-.31c.6-.04,1,.22,1.18.77l.92,2.74Z"/>
    <path class="cls-2" d="M800.69,347.44c.25.94.49,1.88.74,2.83.25.95.48,1.89.69,2.83s.41,1.85.58,2.73l-1.98.4-2.04-7.81c-.15-.58-.41-.97-.77-1.17-.36-.2-.87-.21-1.53-.04l-11.56,3.02c-.66.17-1.1.43-1.33.78-.23.35-.27.82-.12,1.4l2.04,7.81-1.89.61c-.28-.85-.55-1.74-.81-2.66-.26-.93-.52-1.86-.78-2.81-.26-.95-.51-1.89-.75-2.83-.3-1.15-.23-2.13.21-2.96.44-.83,1.17-1.39,2.2-1.67l12.75-3.33c1.06-.26,1.97-.13,2.75.38.78.51,1.31,1.34,1.61,2.49ZM791.63,346.33l2.71,10.38-2,.52-2.71-10.38,2-.52Z"/>
    <path class="cls-2" d="M807.61,378.6l-18.73,3.69c-.67.13-1.06-.13-1.19-.77l-.49-2.46c-.06-.29-.03-.53.07-.73.1-.2.27-.38.52-.55l12.67-9.42c.35-.25.74-.53,1.17-.85s.84-.58,1.21-.77l-.09-.46c-.41.12-.84.23-1.27.34-.44.11-.87.2-1.31.29l-14.79,2.92-.5-2.52,18.73-3.69c.67-.13,1.07.14,1.2.8l.47,2.37c.06.29.04.53-.06.73-.1.2-.27.38-.52.55l-12.37,9.15c-.36.29-.77.6-1.23.94-.46.34-.92.66-1.37.97l.1.49c.51-.12,1.01-.24,1.5-.36.49-.12.99-.22,1.48-.32l14.3-2.82.49,2.49Z"/>
    <path class="cls-2" d="M809.97,394.54l-19.94,2.68-.34-2.54,19.94-2.68.34,2.54ZM810.84,400.98l-2.25.3-2.07-15.4,2.25-.3,2.07,15.4Z"/>
    <path class="cls-2" d="M812,414.05c.02.23-.03.44-.14.63-.11.18-.27.31-.48.39l-18.83,8.02-.21-2.64,16.02-6.53c.26-.1.53-.2.81-.31s.53-.21.78-.31l-.07-.81c-.26-.06-.53-.11-.82-.17s-.57-.12-.85-.19l-16.87-3.87-.21-2.64,19.87,4.88c.22.04.4.14.54.31.14.16.22.36.24.59l.22,2.67ZM800.74,418.7l-2.21.18-.82-10.17,2.21-.18.83,10.17Z"/>
    <path class="cls-2" d="M813,433.46l-20.11.58-.07-2.56,20.11-.58.07,2.56ZM813.18,439.96l-2.27.06-.45-15.53,2.27-.06.45,15.53Z"/>
    <path class="cls-2" d="M813.06,449.34l-20.11-.33.04-2.56,20.11.33-.04,2.56Z"/>
    <path class="cls-2" d="M812.84,465.19c-.09,1.46-.33,2.68-.74,3.68s-1.04,1.78-1.88,2.34c-.84.56-1.94.95-3.29,1.15-1.36.2-3.01.25-4.97.13-1.96-.12-3.6-.35-4.92-.71-1.32-.36-2.37-.87-3.14-1.53-.77-.66-1.3-1.51-1.59-2.55s-.39-2.29-.3-3.74.33-2.68.74-3.68c.41-1,1.04-1.78,1.88-2.36s1.94-.96,3.3-1.16c1.35-.2,3.01-.25,4.97-.13,1.96.12,3.6.35,4.92.71,1.32.36,2.37.88,3.14,1.54.77.67,1.3,1.52,1.59,2.56s.39,2.29.3,3.74ZM810.54,465.05c.08-1.32-.11-2.38-.57-3.17-.46-.8-1.27-1.39-2.42-1.78-1.16-.39-2.76-.65-4.82-.77-2.04-.12-3.66-.06-4.86.19s-2.08.74-2.63,1.48c-.55.74-.86,1.76-.94,3.08s.11,2.38.57,3.17c.46.8,1.27,1.39,2.43,1.78,1.17.39,2.77.65,4.8.77,2.06.12,3.68.06,4.87-.19,1.19-.25,2.06-.74,2.61-1.48.55-.74.86-1.76.94-3.08Z"/>
    <path class="cls-2" d="M809.33,496.67l-18.95-2.35c-.67-.08-.97-.45-.89-1.11l.31-2.49c.04-.29.13-.51.29-.67.16-.16.38-.28.66-.36l14.98-4.99c.41-.12.87-.27,1.38-.45.51-.17.98-.29,1.39-.36l.06-.46c-.43-.01-.87-.04-1.31-.07-.45-.04-.89-.08-1.33-.14l-14.96-1.86.32-2.55,18.95,2.35c.68.08.97.46.89,1.14l-.3,2.4c-.04.29-.13.51-.29.67-.16.16-.38.28-.66.36l-14.61,4.83c-.43.16-.92.33-1.46.51-.54.18-1.08.34-1.6.49l-.06.49c.52.04,1.04.09,1.54.13s1.01.1,1.51.16l14.46,1.79-.31,2.52Z"/>
  </g>
  <g>
    <path class="cls-2" d="M385.79,789.56c1,.18,2.02.4,3.07.66,1.05.26,2.09.58,3.11.98l-.51,1.93c-.87-.18-1.84-.38-2.9-.58-1.06-.2-2.08-.39-3.06-.55-.76-.12-1.41-.2-1.96-.24-.55-.04-1.02.01-1.39.15-.38.14-.68.41-.91.83-.23.42-.4,1.01-.53,1.79-.19,1.17-.11,2.01.23,2.54s.97.98,1.87,1.36l4.12,1.78c1.57.66,2.58,1.52,3.02,2.59.44,1.07.53,2.42.27,4.06-.2,1.23-.5,2.2-.9,2.91-.4.71-.92,1.22-1.56,1.52-.64.3-1.42.46-2.34.47-.92,0-2-.09-3.23-.29-.69-.11-1.59-.29-2.7-.54-1.1-.24-2.36-.62-3.77-1.12l.51-1.96c1.2.24,2.16.43,2.9.58s1.36.27,1.89.36c.53.09,1.08.18,1.66.27,1.08.18,1.95.24,2.6.17.65-.06,1.14-.32,1.48-.77.34-.45.58-1.15.74-2.11.13-.82.15-1.47.04-1.95-.11-.48-.35-.87-.71-1.17-.36-.3-.83-.57-1.42-.82l-4.2-1.82c-1.47-.64-2.44-1.49-2.9-2.55-.47-1.06-.57-2.4-.3-4.02.2-1.23.5-2.19.9-2.89s.91-1.19,1.53-1.48c.62-.29,1.38-.42,2.25-.4.88.02,1.91.12,3.1.32Z"/>
    <path class="cls-2" d="M403.61,792.36c1.03.11,2.06.22,3.1.33,1.04.11,2.07.23,3.08.37,1.02.14,1.99.29,2.94.45l-.35,2.12-8.56-.9c-.64-.07-1.12.04-1.46.33-.33.29-.54.79-.61,1.51l-1.34,12.67c-.08.72.02,1.26.28,1.62.26.36.71.58,1.35.64l8.56.9-.1,2.11c-.95-.04-1.94-.1-2.96-.19-1.02-.09-2.05-.18-3.09-.28-1.04-.1-2.08-.2-3.11-.31-1.26-.13-2.22-.57-2.88-1.32-.66-.75-.94-1.69-.84-2.82l1.47-13.96c.14-1.15.61-2.02,1.42-2.6.8-.58,1.83-.81,3.09-.67ZM399.11,800.97l11.37,1.2-.23,2.19-11.37-1.2.23-2.19Z"/>
    <path class="cls-2" d="M422.3,793.99l-.99,21.41-2.7-.12.99-21.41,2.7.12ZM427,793.93c1.65.08,2.98.32,3.98.73,1,.41,1.71,1.07,2.13,1.98.42.91.6,2.17.52,3.79-.05,1.16-.23,2.12-.54,2.88-.31.76-.75,1.34-1.34,1.74-.59.4-1.36.64-2.32.72v.16c.34.1.68.29,1.01.56.33.28.63.63.9,1.07.27.44.46.96.58,1.57l1.77,6.86-2.92-.13-1.58-6.79c-.23-.82-.57-1.41-1.01-1.77-.44-.36-1.02-.56-1.75-.59-1.26-.06-2.36-.11-3.29-.17-.93-.05-1.71-.1-2.33-.15-.62-.05-1.12-.08-1.49-.1l.2-2.26,6.92.32c1.06.03,1.89-.06,2.52-.26.62-.2,1.08-.59,1.38-1.17.3-.58.47-1.39.52-2.45.05-1.06-.05-1.87-.29-2.46-.24-.58-.66-1-1.26-1.26-.6-.25-1.43-.41-2.48-.46-1.7-.08-3.16-.14-4.39-.17s-2.06-.06-2.5-.08l-.34-2.16c.79-.05,1.53-.07,2.21-.08s1.44,0,2.25.03,1.8.07,2.93.12Z"/>
    <path class="cls-2" d="M456.93,794.38l-6.16,20.76c-.08.21-.21.39-.4.55-.18.16-.4.24-.65.24l-2.76.04c-.27,0-.5-.07-.69-.22s-.32-.33-.38-.54l-6.83-20.55,2.83-.05,5.34,16.91c.11.39.22.78.35,1.16.12.38.22.77.31,1.16h.84c.1-.41.19-.8.29-1.2.1-.39.21-.79.32-1.19l4.76-17.04,2.83-.05Z"/>
    <path class="cls-2" d="M465.6,793.85l1.27,21.4-2.73.16-1.27-21.4,2.73-.16Z"/>
    <path class="cls-2" d="M481.25,792.14c.91-.09,1.69-.15,2.34-.18.65-.03,1.26-.02,1.81.01.56.04,1.13.1,1.72.18l-.06,2.1c-.62,0-1.2.01-1.73.02-.53.01-1.09.04-1.69.08s-1.31.1-2.13.19c-1.38.14-2.44.53-3.19,1.14-.75.62-1.23,1.58-1.43,2.87-.21,1.29-.2,3.02.02,5.18s.57,3.86,1.04,5.08c.47,1.22,1.13,2.06,1.99,2.51s1.98.61,3.36.46c1.32-.14,2.42-.28,3.31-.42s1.76-.32,2.62-.54l.49,2.01c-.86.34-1.75.61-2.68.83s-2.09.39-3.49.54c-2.04.21-3.71.03-5.01-.56-1.3-.58-2.31-1.65-3.02-3.2s-1.21-3.68-1.49-6.4c-.28-2.72-.24-4.91.14-6.57.38-1.66,1.14-2.92,2.3-3.75,1.15-.84,2.75-1.36,4.79-1.58Z"/>
    <path class="cls-2" d="M497.81,790.29c1.02-.17,2.05-.33,3.08-.5,1.03-.17,2.06-.32,3.07-.45,1.02-.13,2-.25,2.95-.34l.22,2.14-8.49,1.38c-.63.1-1.07.34-1.32.7-.25.37-.31.91-.19,1.62l2.04,12.57c.12.72.35,1.21.7,1.49.35.28.84.37,1.47.26l8.5-1.38.46,2.07c-.93.21-1.9.41-2.91.6s-2.03.37-3.06.54-2.06.35-3.08.52c-1.25.2-2.29.03-3.12-.52-.83-.55-1.35-1.38-1.56-2.5l-2.25-13.86c-.17-1.15.06-2.11.68-2.88.62-.77,1.55-1.26,2.8-1.46ZM495.73,799.79l11.29-1.83.35,2.18-11.29,1.83-.35-2.18Z"/>
  </g>
  <g>
    <path class="cls-2" d="M240.88,303.77c.71,0,1.39.02,2.06.06.67.04,1.31.11,1.94.2.63.09,1.23.22,1.82.38l-.27,2c-.63-.06-1.26-.11-1.89-.15s-1.25-.07-1.83-.08c-.59,0-1.14-.02-1.67-.02-1.13,0-2.09.11-2.86.32-.78.21-1.4.62-1.86,1.23-.47.61-.8,1.48-1.02,2.61-.21,1.13-.32,2.61-.32,4.43,0,2.06.14,3.7.42,4.93.28,1.22.76,2.11,1.43,2.65.67.55,1.56.82,2.67.82.77,0,1.47-.11,2.11-.33.64-.22,1.23-.51,1.79-.86.56-.35,1.1-.72,1.62-1.11l.36,1.64c-.36.42-.86.87-1.5,1.33-.64.47-1.38.86-2.23,1.18-.85.32-1.81.48-2.88.48-1.56,0-2.82-.39-3.8-1.17-.98-.78-1.69-1.97-2.14-3.58-.44-1.61-.67-3.66-.67-6.17,0-2.77.28-4.94.83-6.5.56-1.57,1.48-2.67,2.76-3.32,1.28-.65,3-.97,5.14-.97ZM247.25,312.99v12.1h-1.94l-.42-3.09-.24-.61v-8.4h2.61Z"/>
    <path class="cls-2" d="M254.16,310.32v10.37c-.02.93.15,1.59.52,1.97.36.38.97.58,1.82.58s1.65-.2,2.47-.59c.82-.39,1.8-.97,2.96-1.71l.33,1.79c-1.15.91-2.27,1.6-3.35,2.06-1.08.46-2.18.7-3.29.7-2.69,0-4.03-1.35-4.03-4.06v-11.1h2.58ZM264.23,310.32v14.76h-2.06l-.24-2.79-.27-.46v-11.52h2.58Z"/>
    <path class="cls-2" d="M270.96,304.04c.53,0,.79.26.79.79v1.73c0,.53-.26.79-.79.79h-1.21c-.53,0-.79-.26-.79-.79v-1.73c0-.53.26-.79.79-.79h1.21ZM271.62,310.32v14.76h-2.55v-14.76h2.55Z"/>
    <path class="cls-2" d="M281.38,309.95c.97,0,1.93.13,2.88.38.95.25,1.86.64,2.73,1.17l-.15,1.61c-.95-.28-1.79-.5-2.52-.67-.73-.16-1.51-.24-2.33-.24s-1.53.15-2.05.44c-.52.29-.89.83-1.14,1.62-.24.79-.36,1.91-.36,3.37s.12,2.59.35,3.4c.23.81.6,1.37,1.11,1.7.51.32,1.15.48,1.94.48.59,0,1.12-.08,1.59-.23.47-.15.98-.4,1.52-.74.54-.34,1.17-.78,1.9-1.3l.24,1.82c-.81.75-1.73,1.38-2.76,1.91-1.03.53-2.14.79-3.33.79-1.86,0-3.19-.66-3.99-1.97-.8-1.31-1.2-3.25-1.2-5.82,0-1.92.2-3.44.61-4.56.4-1.12,1.02-1.93,1.85-2.41.83-.49,1.87-.73,3.12-.73ZM289.08,303.86v21.22h-2l-.3-2.58-.27-.21v-10.13l.18-.45c-.08-.57-.13-1.11-.15-1.64-.02-.53-.03-1.08-.03-1.67v-4.55h2.58Z"/>
    <path class="cls-2" d="M295.85,304.04c.53,0,.79.26.79.79v1.73c0,.53-.26.79-.79.79h-1.21c-.53,0-.79-.26-.79-.79v-1.73c0-.53.26-.79.79-.79h1.21ZM296.51,310.32v14.76h-2.55v-14.76h2.55Z"/>
    <path class="cls-2" d="M303.55,310.32l.21,2.82.18.46v11.49h-2.58v-14.76h2.18ZM310.34,309.95c2.67,0,4,1.35,4,4.06v11.07h-2.58v-10.34c0-.99-.16-1.67-.48-2.05-.32-.37-.87-.56-1.64-.56-.91,0-1.82.22-2.73.67-.91.44-1.99,1.05-3.24,1.82l-.12-1.85c1.15-.89,2.29-1.58,3.43-2.08,1.13-.5,2.25-.74,3.37-.74Z"/>
    <path class="cls-2" d="M320.65,318.38l1.49.21c-.34.3-.58.67-.7,1.11-.12.44-.09.83.11,1.2.19.36.6.6,1.23.7l5.52.88c1.39.2,2.36.64,2.91,1.3.55.67.82,1.62.82,2.85,0,1.15-.22,2.06-.65,2.73s-1.17,1.14-2.2,1.42c-1.03.28-2.43.42-4.18.42-1.33,0-2.46-.08-3.37-.23-.91-.15-1.64-.4-2.2-.76-.56-.35-.95-.81-1.2-1.38s-.36-1.27-.36-2.12c0-.65.1-1.19.29-1.62.19-.43.49-.82.91-1.17.41-.34.96-.68,1.62-1l1.82-1,1.18.42-1.49,1.12c-.4.3-.74.6-1.02.89-.27.29-.48.61-.61.94-.13.33-.2.73-.2,1.2,0,.69.13,1.21.39,1.58s.73.61,1.4.74c.67.13,1.6.2,2.79.2s2.12-.07,2.77-.21c.66-.14,1.12-.39,1.38-.76s.39-.88.39-1.55c0-.51-.07-.89-.2-1.15-.13-.26-.38-.46-.74-.61-.36-.14-.9-.26-1.61-.36l-5.31-.73c-.63-.08-1.13-.28-1.5-.61-.37-.32-.63-.71-.77-1.15-.14-.44-.18-.89-.12-1.35.06-.45.21-.88.45-1.27.24-.39.56-.69.94-.89ZM324.83,309.95c1.58,0,2.82.16,3.74.48.92.32,1.58.83,1.97,1.52s.59,1.59.59,2.7-.2,1.96-.59,2.65-1.06,1.21-1.99,1.55c-.93.33-2.18.5-3.76.5s-2.82-.17-3.74-.5c-.92-.33-1.58-.84-1.97-1.53-.39-.69-.59-1.57-.59-2.64s.2-2.02.59-2.71c.39-.7,1.06-1.21,1.99-1.53.93-.32,2.18-.48,3.76-.48ZM324.8,311.92c-1.48,0-2.5.21-3.08.62-.58.41-.86,1.12-.86,2.11s.29,1.67.86,2.09c.58.42,1.6.64,3.08.64s2.53-.21,3.09-.64c.57-.42.85-1.12.85-2.09s-.28-1.69-.85-2.11c-.57-.41-1.6-.62-3.09-.62ZM332.86,310.32l-.15,1.42-3.76.3-1.06-1.73h4.97Z"/>
    <path class="cls-2" d="M337.38,321.5c.36,0,.61.07.74.21.13.14.2.39.2.76v1.94c0,.57-.05,1.12-.14,1.67s-.21,1.07-.36,1.56c-.15.49-.34.97-.56,1.44l-1.21-.36c.1-.63.18-1.2.23-1.73.05-.53.08-1.16.08-1.91-.48,0-.73-.28-.73-.85v-1.76c.02-.36.11-.62.27-.76.16-.14.4-.21.73-.21h.76Z"/>
    <path class="cls-2" d="M184.7,342.32l.18,2.82.27.46v11.49h-2.58v-14.76h2.12ZM190.89,341.95c1.25,0,2.21.34,2.88,1.02s1.01,1.69,1.03,3.05v11.07h-2.49v-10.34c0-.95-.19-1.62-.58-2.02s-.96-.59-1.73-.59c-.51,0-1,.08-1.47.24-.48.16-1,.42-1.58.79s-1.28.85-2.11,1.46l-.18-1.82c1.07-.95,2.11-1.66,3.12-2.14,1.01-.47,2.04-.71,3.09-.71ZM200.56,341.95c1.27,0,2.25.34,2.93,1.03.68.69,1.02,1.7,1.02,3.03v11.07h-2.55v-10.34c-.02-.91-.2-1.57-.55-1.99-.34-.41-.93-.62-1.76-.62-.53,0-1.03.09-1.5.26-.48.17-1,.44-1.56.8-.57.36-1.25.84-2.06,1.43l-.15-1.82c1.07-.95,2.11-1.66,3.12-2.14,1.01-.47,2.03-.71,3.06-.71Z"/>
    <path class="cls-2" d="M215.38,341.95c1.7,0,3.06.25,4.08.76,1.02.51,1.75,1.33,2.2,2.47.44,1.14.67,2.65.67,4.53s-.22,3.39-.67,4.53c-.44,1.14-1.18,1.97-2.2,2.47-1.02.5-2.38.76-4.08.76s-3.03-.25-4.05-.76c-1.02-.5-1.76-1.33-2.21-2.47s-.68-2.65-.68-4.53.23-3.39.68-4.53c.45-1.14,1.19-1.97,2.21-2.47,1.02-.5,2.37-.76,4.05-.76ZM215.38,344.14c-1.07,0-1.92.17-2.53.5-.62.33-1.06.9-1.32,1.71-.26.81-.39,1.93-.39,3.37s.13,2.56.39,3.37c.26.81.7,1.38,1.32,1.71.62.33,1.46.5,2.53.5s1.92-.17,2.55-.5,1.07-.9,1.33-1.71c.26-.81.39-1.93.39-3.37s-.13-2.56-.39-3.37c-.26-.81-.71-1.38-1.33-1.71s-1.48-.5-2.55-.5Z"/>
    <path class="cls-2" d="M228.54,342.32l.21,2.82.18.46v11.49h-2.58v-14.76h2.18ZM235.33,341.95c2.67,0,4,1.35,4,4.06v11.07h-2.58v-10.34c0-.99-.16-1.67-.48-2.05-.32-.37-.87-.56-1.64-.56-.91,0-1.82.22-2.73.67-.91.44-1.99,1.05-3.24,1.82l-.12-1.85c1.15-.89,2.29-1.58,3.43-2.08,1.13-.5,2.25-.74,3.37-.74Z"/>
    <path class="cls-2" d="M245.97,336.04c.53,0,.79.26.79.79v1.73c0,.53-.26.79-.79.79h-1.21c-.53,0-.79-.26-.79-.79v-1.73c0-.53.26-.79.79-.79h1.21ZM246.64,342.32v14.76h-2.55v-14.76h2.55Z"/>
    <path class="cls-2" d="M259.89,342.32v2.03h-9.94v-1.88l2.91-.15h7.03ZM255.19,337.95v15.07c0,.71.15,1.21.46,1.52.3.3.82.46,1.55.46h2.24l.3,1.97c-.32.08-.7.15-1.12.21-.42.06-.84.11-1.24.14-.4.03-.73.05-.97.05-1.23,0-2.17-.34-2.82-1.03s-.97-1.68-.97-2.97v-15.4h2.58Z"/>
    <path class="cls-2" d="M269.29,341.95c1.7,0,3.06.25,4.08.76,1.02.51,1.75,1.33,2.2,2.47.44,1.14.67,2.65.67,4.53s-.22,3.39-.67,4.53c-.44,1.14-1.18,1.97-2.2,2.47-1.02.5-2.38.76-4.08.76s-3.03-.25-4.05-.76c-1.02-.5-1.76-1.33-2.21-2.47s-.68-2.65-.68-4.53.23-3.39.68-4.53c.45-1.14,1.19-1.97,2.21-2.47,1.02-.5,2.37-.76,4.05-.76ZM269.29,344.14c-1.07,0-1.92.17-2.53.5-.62.33-1.06.9-1.32,1.71-.26.81-.39,1.93-.39,3.37s.13,2.56.39,3.37c.26.81.7,1.38,1.32,1.71.62.33,1.46.5,2.53.5s1.92-.17,2.55-.5,1.07-.9,1.33-1.71c.26-.81.39-1.93.39-3.37s-.13-2.56-.39-3.37c-.26-.81-.71-1.38-1.33-1.71s-1.48-.5-2.55-.5Z"/>
    <path class="cls-2" d="M282.26,342.32l.33,2.82.24.46v11.49h-2.58v-14.76h2ZM289.51,341.95l-.3,2.43h-.85c-.87,0-1.74.18-2.61.53s-1.93.85-3.18,1.5l-.21-1.61c1.09-.89,2.19-1.59,3.29-2.09,1.1-.5,2.17-.76,3.2-.76h.67Z"/>
    <path class="cls-2" d="M294.42,336.04c.53,0,.79.26.79.79v1.73c0,.53-.26.79-.79.79h-1.21c-.53,0-.79-.26-.79-.79v-1.73c0-.53.26-.79.79-.79h1.21ZM295.09,342.32v14.76h-2.55v-14.76h2.55Z"/>
    <path class="cls-2" d="M302.12,342.32l.21,2.82.18.46v11.49h-2.58v-14.76h2.18ZM308.91,341.95c2.67,0,4,1.35,4,4.06v11.07h-2.58v-10.34c0-.99-.16-1.67-.48-2.05-.32-.37-.87-.56-1.64-.56-.91,0-1.82.22-2.73.67-.91.44-1.99,1.05-3.24,1.82l-.12-1.85c1.15-.89,2.29-1.58,3.43-2.08,1.13-.5,2.25-.74,3.37-.74Z"/>
    <path class="cls-2" d="M319.22,350.38l1.49.21c-.34.3-.58.67-.7,1.11-.12.44-.09.83.11,1.2.19.36.6.6,1.23.7l5.52.88c1.39.2,2.36.64,2.91,1.3.55.67.82,1.62.82,2.85,0,1.15-.22,2.06-.65,2.73s-1.17,1.14-2.2,1.42c-1.03.28-2.43.42-4.18.42-1.33,0-2.46-.08-3.37-.23-.91-.15-1.64-.4-2.2-.76-.56-.35-.95-.81-1.2-1.38s-.36-1.27-.36-2.12c0-.65.1-1.19.29-1.62.19-.43.49-.82.91-1.17.41-.34.96-.68,1.62-1l1.82-1,1.18.42-1.49,1.12c-.4.3-.74.6-1.02.89-.27.29-.48.61-.61.94-.13.33-.2.73-.2,1.2,0,.69.13,1.21.39,1.58s.73.61,1.4.74c.67.13,1.6.2,2.79.2s2.12-.07,2.77-.21c.66-.14,1.12-.39,1.38-.76s.39-.88.39-1.55c0-.51-.07-.89-.2-1.15-.13-.26-.38-.46-.74-.61-.36-.14-.9-.26-1.61-.36l-5.31-.73c-.63-.08-1.13-.28-1.5-.61-.37-.32-.63-.71-.77-1.15-.14-.44-.18-.89-.12-1.35.06-.45.21-.88.45-1.27.24-.39.56-.69.94-.89ZM323.4,341.95c1.58,0,2.82.16,3.74.48.92.32,1.58.83,1.97,1.52s.59,1.59.59,2.7-.2,1.96-.59,2.65-1.06,1.21-1.99,1.55c-.93.33-2.18.5-3.76.5s-2.82-.17-3.74-.5c-.92-.33-1.58-.84-1.97-1.53-.39-.69-.59-1.57-.59-2.64s.2-2.02.59-2.71c.39-.7,1.06-1.21,1.99-1.53.93-.32,2.18-.48,3.76-.48ZM323.37,343.92c-1.48,0-2.5.21-3.08.62-.58.41-.86,1.12-.86,2.11s.29,1.67.86,2.09c.58.42,1.6.64,3.08.64s2.53-.21,3.09-.64c.57-.42.85-1.12.85-2.09s-.28-1.69-.85-2.11c-.57-.41-1.6-.62-3.09-.62ZM331.44,342.32l-.15,1.42-3.76.3-1.06-1.73h4.97Z"/>
    <path class="cls-2" d="M352.05,347.99l-.03,1.94-7.06.03c-.71.02-1.2.21-1.49.56-.28.35-.42.84-.42,1.47v.94c0,.77.18,1.33.55,1.68s.95.53,1.76.53c.57,0,1.21-.11,1.93-.32.72-.21,1.44-.54,2.17-.99.73-.44,1.39-1.01,2-1.7v1.91c-.22.28-.54.61-.96.99-.41.37-.91.74-1.49,1.09-.58.35-1.21.65-1.91.88-.7.23-1.45.35-2.26.35-.87,0-1.64-.16-2.3-.47-.67-.31-1.19-.78-1.56-1.39-.37-.62-.56-1.37-.56-2.26v-1.61c0-1.15.36-2.05,1.08-2.68.72-.64,1.72-.96,3.02-.96h7.55ZM348.2,341.95c1.09,0,2.02.15,2.77.44.76.29,1.33.78,1.71,1.47.38.69.58,1.63.58,2.82v10.4h-2.03l-.39-3.21-.18-.33v-6.85c0-.91-.21-1.56-.62-1.96s-1.21-.59-2.38-.59c-.77,0-1.73.04-2.9.12-1.16.08-2.31.17-3.44.27l-.24-1.91c.69-.12,1.44-.23,2.26-.33.82-.1,1.65-.18,2.5-.24.85-.06,1.64-.09,2.36-.09Z"/>
    <path class="cls-2" d="M360.06,342.32l.21,2.82.18.46v11.49h-2.58v-14.76h2.18ZM366.85,341.95c2.67,0,4,1.35,4,4.06v11.07h-2.58v-10.34c0-.99-.16-1.67-.48-2.05-.32-.37-.87-.56-1.64-.56-.91,0-1.82.22-2.73.67-.91.44-1.99,1.05-3.24,1.82l-.12-1.85c1.15-.89,2.29-1.58,3.43-2.08,1.13-.5,2.25-.74,3.37-.74Z"/>
    <path class="cls-2" d="M380.4,341.95c.97,0,1.93.13,2.88.38.95.25,1.86.64,2.73,1.17l-.15,1.61c-.95-.28-1.79-.5-2.52-.67-.73-.16-1.51-.24-2.33-.24s-1.53.15-2.05.44c-.52.29-.89.83-1.14,1.62-.24.79-.36,1.91-.36,3.37s.12,2.59.35,3.4c.23.81.6,1.37,1.11,1.7.51.32,1.15.48,1.94.48.59,0,1.12-.08,1.59-.23.47-.15.98-.4,1.52-.74.54-.34,1.17-.78,1.9-1.3l.24,1.82c-.81.75-1.73,1.38-2.76,1.91-1.03.53-2.14.79-3.33.79-1.86,0-3.19-.66-3.99-1.97-.8-1.31-1.2-3.25-1.2-5.82,0-1.92.2-3.44.61-4.56.4-1.12,1.02-1.93,1.85-2.41.83-.49,1.87-.73,3.12-.73ZM388.1,335.86v21.22h-2l-.3-2.58-.27-.21v-10.13l.18-.45c-.08-.57-.13-1.11-.15-1.64-.02-.53-.03-1.08-.03-1.67v-4.55h2.58Z"/>
    <path class="cls-2" d="M230.65,373.95c2.22,0,3.84.4,4.84,1.21,1,.81,1.5,2.01,1.5,3.61.02,1.31-.25,2.34-.82,3.08-.57.74-1.47,1.11-2.7,1.11h-8.61v-2h7.94c.67,0,1.1-.23,1.3-.68.2-.46.3-.96.3-1.5-.02-.95-.3-1.63-.85-2.03-.55-.4-1.48-.61-2.79-.61-1.07,0-1.92.16-2.53.47-.62.31-1.05.86-1.3,1.64-.25.78-.38,1.86-.38,3.26,0,1.58.16,2.78.47,3.61.31.83.81,1.39,1.5,1.7.69.3,1.6.46,2.73.46.79,0,1.65-.04,2.59-.11.94-.07,1.78-.16,2.53-.26l.27,1.73c-.47.18-1.04.33-1.71.45-.68.12-1.37.21-2.09.27-.72.06-1.36.09-1.93.09-1.7,0-3.06-.26-4.09-.77-1.03-.52-1.78-1.34-2.26-2.49-.48-1.14-.71-2.65-.71-4.53s.24-3.47.71-4.59c.47-1.12,1.21-1.92,2.21-2.4,1-.47,2.29-.71,3.87-.71Z"/>
    <path class="cls-2" d="M243.05,374.32l.21,2.82.18.46v11.49h-2.58v-14.76h2.18ZM249.84,373.95c2.67,0,4,1.35,4,4.06v11.07h-2.58v-10.34c0-.99-.16-1.67-.48-2.05-.32-.37-.87-.56-1.64-.56-.91,0-1.82.22-2.73.67-.91.44-1.99,1.05-3.24,1.82l-.12-1.85c1.15-.89,2.29-1.58,3.43-2.08,1.13-.5,2.25-.74,3.37-.74Z"/>
    <path class="cls-2" d="M260.15,382.38l1.49.21c-.34.3-.58.67-.7,1.11-.12.44-.09.83.11,1.2.19.36.6.6,1.23.7l5.52.88c1.39.2,2.36.64,2.91,1.3.55.67.82,1.62.82,2.85,0,1.15-.22,2.06-.65,2.73s-1.17,1.14-2.2,1.42c-1.03.28-2.43.42-4.18.42-1.33,0-2.46-.08-3.37-.23-.91-.15-1.64-.4-2.2-.76-.56-.35-.95-.81-1.2-1.38s-.36-1.27-.36-2.12c0-.65.1-1.19.29-1.62.19-.43.49-.82.91-1.17.41-.34.96-.68,1.62-1l1.82-1,1.18.42-1.49,1.12c-.4.3-.74.6-1.02.89-.27.29-.48.61-.61.94-.13.33-.2.73-.2,1.2,0,.69.13,1.21.39,1.58s.73.61,1.4.74c.67.13,1.6.2,2.79.2s2.12-.07,2.77-.21c.66-.14,1.12-.39,1.38-.76s.39-.88.39-1.55c0-.51-.07-.89-.2-1.15-.13-.26-.38-.46-.74-.61-.36-.14-.9-.26-1.61-.36l-5.31-.73c-.63-.08-1.13-.28-1.5-.61-.37-.32-.63-.71-.77-1.15-.14-.44-.18-.89-.12-1.35.06-.45.21-.88.45-1.27.24-.39.56-.69.94-.89ZM264.33,373.95c1.58,0,2.82.16,3.74.48.92.32,1.58.83,1.97,1.52s.59,1.59.59,2.7-.2,1.96-.59,2.65-1.06,1.21-1.99,1.55c-.93.33-2.18.5-3.76.5s-2.82-.17-3.74-.5c-.92-.33-1.58-.84-1.97-1.53-.39-.69-.59-1.57-.59-2.64s.2-2.02.59-2.71c.39-.7,1.06-1.21,1.99-1.53.93-.32,2.18-.48,3.76-.48ZM264.3,375.92c-1.48,0-2.5.21-3.08.62-.58.41-.86,1.12-.86,2.11s.29,1.67.86,2.09c.58.42,1.6.64,3.08.64s2.53-.21,3.09-.64c.57-.42.85-1.12.85-2.09s-.28-1.69-.85-2.11c-.57-.41-1.6-.62-3.09-.62ZM272.36,374.32l-.15,1.42-3.76.3-1.06-1.73h4.97Z"/>
    <path class="cls-2" d="M286.07,379.99l-.03,1.94-7.06.03c-.71.02-1.2.21-1.49.56-.28.35-.42.84-.42,1.47v.94c0,.77.18,1.33.55,1.68s.95.53,1.76.53c.57,0,1.21-.11,1.93-.32.72-.21,1.44-.54,2.17-.99.73-.44,1.39-1.01,2-1.7v1.91c-.22.28-.54.61-.96.99-.41.37-.91.74-1.49,1.09-.58.35-1.21.65-1.91.88-.7.23-1.45.35-2.26.35-.87,0-1.64-.16-2.3-.47-.67-.31-1.19-.78-1.56-1.39-.37-.62-.56-1.37-.56-2.26v-1.61c0-1.15.36-2.05,1.08-2.68.72-.64,1.72-.96,3.02-.96h7.55ZM282.22,373.95c1.09,0,2.02.15,2.77.44.76.29,1.33.78,1.71,1.47.38.69.58,1.63.58,2.82v10.4h-2.03l-.39-3.21-.18-.33v-6.85c0-.91-.21-1.56-.62-1.96s-1.21-.59-2.38-.59c-.77,0-1.73.04-2.9.12-1.16.08-2.31.17-3.44.27l-.24-1.91c.69-.12,1.44-.23,2.26-.33.82-.1,1.65-.18,2.5-.24.85-.06,1.64-.09,2.36-.09Z"/>
    <path class="cls-2" d="M293.56,382.38l1.49.21c-.34.3-.58.67-.7,1.11-.12.44-.09.83.11,1.2.19.36.6.6,1.23.7l5.52.88c1.39.2,2.36.64,2.91,1.3.55.67.82,1.62.82,2.85,0,1.15-.22,2.06-.65,2.73s-1.17,1.14-2.2,1.42c-1.03.28-2.43.42-4.18.42-1.33,0-2.46-.08-3.37-.23-.91-.15-1.64-.4-2.2-.76-.56-.35-.95-.81-1.2-1.38s-.36-1.27-.36-2.12c0-.65.1-1.19.29-1.62.19-.43.49-.82.91-1.17.41-.34.96-.68,1.62-1l1.82-1,1.18.42-1.49,1.12c-.4.3-.74.6-1.02.89-.27.29-.48.61-.61.94-.13.33-.2.73-.2,1.2,0,.69.13,1.21.39,1.58s.73.61,1.4.74c.67.13,1.6.2,2.79.2s2.12-.07,2.77-.21c.66-.14,1.12-.39,1.38-.76s.39-.88.39-1.55c0-.51-.07-.89-.2-1.15-.13-.26-.38-.46-.74-.61-.36-.14-.9-.26-1.61-.36l-5.31-.73c-.63-.08-1.13-.28-1.5-.61-.37-.32-.63-.71-.77-1.15-.14-.44-.18-.89-.12-1.35.06-.45.21-.88.45-1.27.24-.39.56-.69.94-.89ZM297.74,373.95c1.58,0,2.82.16,3.74.48.92.32,1.58.83,1.97,1.52s.59,1.59.59,2.7-.2,1.96-.59,2.65-1.06,1.21-1.99,1.55c-.93.33-2.18.5-3.76.5s-2.82-.17-3.74-.5c-.92-.33-1.58-.84-1.97-1.53-.39-.69-.59-1.57-.59-2.64s.2-2.02.59-2.71c.39-.7,1.06-1.21,1.99-1.53.93-.32,2.18-.48,3.76-.48ZM297.71,375.92c-1.48,0-2.5.21-3.08.62-.58.41-.86,1.12-.86,2.11s.29,1.67.86,2.09c.58.42,1.6.64,3.08.64s2.53-.21,3.09-.64c.57-.42.85-1.12.85-2.09s-.28-1.69-.85-2.11c-.57-.41-1.6-.62-3.09-.62ZM305.77,374.32l-.15,1.42-3.76.3-1.06-1.73h4.97Z"/>
    <path class="cls-2" d="M310.81,368.04c.53,0,.79.26.79.79v1.73c0,.53-.26.79-.79.79h-1.21c-.53,0-.79-.26-.79-.79v-1.73c0-.53.26-.79.79-.79h1.21ZM311.47,374.32v14.76h-2.55v-14.76h2.55Z"/>
    <path class="cls-2" d="M318.51,374.32l.21,2.82.18.46v11.49h-2.58v-14.76h2.18ZM325.3,373.95c2.67,0,4,1.35,4,4.06v11.07h-2.58v-10.34c0-.99-.16-1.67-.48-2.05-.32-.37-.87-.56-1.64-.56-.91,0-1.82.22-2.73.67-.91.44-1.99,1.05-3.24,1.82l-.12-1.85c1.15-.89,2.29-1.58,3.43-2.08,1.13-.5,2.25-.74,3.37-.74Z"/>
    <path class="cls-2" d="M335.61,382.38l1.49.21c-.34.3-.58.67-.7,1.11-.12.44-.09.83.11,1.2.19.36.6.6,1.23.7l5.52.88c1.39.2,2.36.64,2.91,1.3.55.67.82,1.62.82,2.85,0,1.15-.22,2.06-.65,2.73s-1.17,1.14-2.2,1.42c-1.03.28-2.43.42-4.18.42-1.33,0-2.46-.08-3.37-.23-.91-.15-1.64-.4-2.2-.76-.56-.35-.95-.81-1.2-1.38s-.36-1.27-.36-2.12c0-.65.1-1.19.29-1.62.19-.43.49-.82.91-1.17.41-.34.96-.68,1.62-1l1.82-1,1.18.42-1.49,1.12c-.4.3-.74.6-1.02.89-.27.29-.48.61-.61.94-.13.33-.2.73-.2,1.2,0,.69.13,1.21.39,1.58s.73.61,1.4.74c.67.13,1.6.2,2.79.2s2.12-.07,2.77-.21c.66-.14,1.12-.39,1.38-.76s.39-.88.39-1.55c0-.51-.07-.89-.2-1.15-.13-.26-.38-.46-.74-.61-.36-.14-.9-.26-1.61-.36l-5.31-.73c-.63-.08-1.13-.28-1.5-.61-.37-.32-.63-.71-.77-1.15-.14-.44-.18-.89-.12-1.35.06-.45.21-.88.45-1.27.24-.39.56-.69.94-.89ZM339.79,373.95c1.58,0,2.82.16,3.74.48.92.32,1.58.83,1.97,1.52s.59,1.59.59,2.7-.2,1.96-.59,2.65-1.06,1.21-1.99,1.55c-.93.33-2.18.5-3.76.5s-2.82-.17-3.74-.5c-.92-.33-1.58-.84-1.97-1.53-.39-.69-.59-1.57-.59-2.64s.2-2.02.59-2.71c.39-.7,1.06-1.21,1.99-1.53.93-.32,2.18-.48,3.76-.48ZM339.76,375.92c-1.48,0-2.5.21-3.08.62-.58.41-.86,1.12-.86,2.11s.29,1.67.86,2.09c.58.42,1.6.64,3.08.64s2.53-.21,3.09-.64c.57-.42.85-1.12.85-2.09s-.28-1.69-.85-2.11c-.57-.41-1.6-.62-3.09-.62ZM347.83,374.32l-.15,1.42-3.76.3-1.06-1.73h4.97Z"/>
  </g>
  <g>
    <path class="cls-2" d="M401.09,584.16c.73,0,1.09.38,1.09,1.12l.88,19.8h-2.67l-.76-18.71h-.64l-4.67,15.43c-.16.61-.55.91-1.15.91h-2.39c-.63,0-1.03-.3-1.21-.91l-4.67-15.43h-.61l-.73,18.71h-2.67l.82-19.8c.04-.75.41-1.12,1.12-1.12h3.03c.57,0,.94.3,1.12.91l3.91,12.76c.16.46.3.93.41,1.39s.24.94.38,1.43h.55c.14-.49.27-.96.39-1.43.12-.46.25-.95.39-1.46l3.91-12.7c.16-.61.55-.91,1.15-.91h3Z"/>
    <path class="cls-2" d="M418.46,595.99l-.03,1.94-7.06.03c-.71.02-1.2.21-1.49.56-.28.35-.42.84-.42,1.47v.94c0,.77.18,1.33.54,1.68.36.35.95.53,1.76.53.57,0,1.21-.11,1.92-.32s1.44-.54,2.17-.99c.73-.44,1.39-1.01,2-1.7v1.91c-.22.28-.54.61-.96.98-.41.38-.91.74-1.49,1.09s-1.21.65-1.91.88-1.45.35-2.26.35c-.87,0-1.64-.16-2.3-.47-.67-.31-1.19-.78-1.56-1.39-.37-.62-.56-1.37-.56-2.26v-1.61c0-1.15.36-2.05,1.08-2.68.72-.64,1.72-.96,3.02-.96h7.55ZM414.61,589.95c1.09,0,2.02.15,2.77.44.76.29,1.33.78,1.71,1.47.38.69.58,1.63.58,2.82v10.4h-2.03l-.39-3.21-.18-.33v-6.85c0-.91-.21-1.56-.62-1.96s-1.21-.59-2.38-.59c-.77,0-1.73.04-2.89.12-1.16.08-2.31.17-3.44.27l-.24-1.91c.69-.12,1.44-.23,2.26-.33.82-.1,1.65-.18,2.5-.24.85-.06,1.64-.09,2.36-.09Z"/>
    <path class="cls-2" d="M426.28,584.04c.53,0,.79.26.79.79v1.73c0,.53-.26.79-.79.79h-1.21c-.53,0-.79-.26-.79-.79v-1.73c0-.53.26-.79.79-.79h1.21ZM426.95,590.32v14.76h-2.55v-14.76h2.55Z"/>
    <path class="cls-2" d="M433.98,590.32l.21,2.82.18.46v11.49h-2.58v-14.76h2.18ZM440.77,589.95c2.67,0,4,1.35,4,4.06v11.07h-2.58v-10.34c0-.99-.16-1.67-.48-2.05-.32-.37-.87-.56-1.64-.56-.91,0-1.82.22-2.73.67-.91.45-1.99,1.05-3.24,1.82l-.12-1.85c1.15-.89,2.29-1.58,3.43-2.08s2.25-.74,3.37-.74Z"/>
    <path class="cls-2" d="M457.81,590.32v2.03h-9.94v-1.88l2.91-.15h7.03ZM453.11,585.95v15.07c0,.71.15,1.21.46,1.52s.82.46,1.55.46h2.24l.3,1.97c-.32.08-.7.15-1.12.21-.42.06-.84.11-1.24.14-.41.03-.73.05-.97.05-1.23,0-2.17-.34-2.82-1.03-.65-.69-.97-1.68-.97-2.97v-15.4h2.58Z"/>
    <path class="cls-2" d="M471.79,595.99l-.03,1.94-7.06.03c-.71.02-1.2.21-1.49.56-.28.35-.42.84-.42,1.47v.94c0,.77.18,1.33.54,1.68.36.35.95.53,1.76.53.57,0,1.21-.11,1.92-.32s1.44-.54,2.17-.99c.73-.44,1.39-1.01,2-1.7v1.91c-.22.28-.54.61-.96.98-.41.38-.91.74-1.49,1.09s-1.21.65-1.91.88-1.45.35-2.26.35c-.87,0-1.64-.16-2.3-.47-.67-.31-1.19-.78-1.56-1.39-.37-.62-.56-1.37-.56-2.26v-1.61c0-1.15.36-2.05,1.08-2.68.72-.64,1.72-.96,3.02-.96h7.55ZM467.94,589.95c1.09,0,2.02.15,2.77.44.76.29,1.33.78,1.71,1.47.38.69.58,1.63.58,2.82v10.4h-2.03l-.39-3.21-.18-.33v-6.85c0-.91-.21-1.56-.62-1.96s-1.21-.59-2.38-.59c-.77,0-1.73.04-2.89.12-1.16.08-2.31.17-3.44.27l-.24-1.91c.69-.12,1.44-.23,2.26-.33.82-.1,1.65-.18,2.5-.24.85-.06,1.64-.09,2.36-.09Z"/>
    <path class="cls-2" d="M479.61,584.04c.53,0,.79.26.79.79v1.73c0,.53-.26.79-.79.79h-1.21c-.53,0-.79-.26-.79-.79v-1.73c0-.53.26-.79.79-.79h1.21ZM480.28,590.32v14.76h-2.55v-14.76h2.55Z"/>
    <path class="cls-2" d="M487.31,590.32l.21,2.82.18.46v11.49h-2.58v-14.76h2.18ZM494.1,589.95c2.67,0,4,1.35,4,4.06v11.07h-2.58v-10.34c0-.99-.16-1.67-.49-2.05s-.87-.56-1.64-.56c-.91,0-1.82.22-2.73.67-.91.45-1.99,1.05-3.24,1.82l-.12-1.85c1.15-.89,2.29-1.58,3.43-2.08,1.13-.5,2.25-.74,3.37-.74Z"/>
    <path class="cls-2" d="M504.23,601.5c.36,0,.61.07.74.21.13.14.2.39.2.76v1.94c0,.57-.04,1.12-.14,1.67-.09.55-.21,1.07-.36,1.56-.15.49-.34.97-.56,1.44l-1.21-.36c.1-.63.18-1.2.23-1.73.05-.53.08-1.16.08-1.91-.48,0-.73-.28-.73-.85v-1.76c.02-.36.11-.62.27-.76.16-.14.4-.21.73-.21h.76Z"/>
    <path class="cls-2" d="M362.58,621.95c1.7,0,3.06.25,4.08.76,1.02.51,1.75,1.33,2.2,2.47.44,1.14.67,2.65.67,4.53s-.22,3.39-.67,4.53c-.45,1.14-1.18,1.96-2.2,2.47-1.02.5-2.38.76-4.08.76s-3.03-.25-4.05-.76c-1.02-.51-1.76-1.33-2.21-2.47-.45-1.14-.68-2.65-.68-4.53s.23-3.39.68-4.53c.46-1.14,1.19-1.96,2.21-2.47,1.02-.5,2.37-.76,4.05-.76ZM362.58,624.14c-1.07,0-1.92.17-2.53.5-.62.33-1.06.9-1.32,1.71s-.39,1.93-.39,3.37.13,2.56.39,3.37.7,1.38,1.32,1.71c.62.33,1.46.5,2.53.5s1.92-.17,2.55-.5c.63-.33,1.07-.9,1.33-1.71s.39-1.93.39-3.37-.13-2.56-.39-3.37-.71-1.38-1.33-1.71c-.63-.33-1.48-.5-2.55-.5Z"/>
    <path class="cls-2" d="M375.68,622.32l.27,3.06.18.39v9.46l-.12.36c.06.57.1,1.11.11,1.64,0,.53.01,1.08.01,1.67v4.28h-2.58v-20.86h2.12ZM382.02,621.95c1.8,0,3.09.66,3.88,1.99s1.18,3.27,1.18,5.84c0,1.9-.2,3.41-.61,4.53-.41,1.12-1.02,1.92-1.83,2.41-.82.48-1.86.73-3.14.73-.97,0-1.92-.13-2.87-.39-.94-.26-1.85-.67-2.74-1.21l.15-1.55c.95.26,1.79.48,2.52.65s1.5.26,2.3.26c.87,0,1.56-.15,2.08-.45.52-.3.89-.85,1.14-1.64s.36-1.9.36-3.33-.11-2.5-.33-3.3-.57-1.39-1.05-1.74c-.48-.35-1.11-.53-1.89-.53s-1.61.19-2.4.58c-.79.38-1.71.97-2.76,1.76l-.24-1.73c.54-.59,1.16-1.09,1.85-1.52.69-.42,1.41-.75,2.17-.98s1.5-.35,2.23-.35Z"/>
    <path class="cls-2" d="M399.51,622.32v2.03h-9.94v-1.88l2.91-.15h7.03ZM394.81,617.95v15.07c0,.71.15,1.21.46,1.52.3.3.82.46,1.55.46h2.24l.3,1.97c-.32.08-.7.15-1.12.21s-.84.11-1.24.14-.73.05-.97.05c-1.23,0-2.17-.34-2.82-1.03-.65-.69-.97-1.68-.97-2.97v-15.4h2.58Z"/>
    <path class="cls-2" d="M404.66,616.04c.53,0,.79.26.79.79v1.73c0,.53-.26.79-.79.79h-1.21c-.53,0-.79-.26-.79-.79v-1.73c0-.53.26-.79.79-.79h1.21ZM405.33,622.32v14.76h-2.55v-14.76h2.55Z"/>
    <path class="cls-2" d="M412.3,622.32l.18,2.82.27.46v11.49h-2.58v-14.76h2.12ZM418.49,621.95c1.25,0,2.21.34,2.88,1.02.67.68,1.01,1.69,1.03,3.05v11.07h-2.49v-10.34c0-.95-.19-1.62-.58-2.02s-.96-.59-1.73-.59c-.5,0-1,.08-1.47.24-.48.16-1,.42-1.58.79s-1.28.85-2.11,1.46l-.18-1.82c1.07-.95,2.11-1.66,3.12-2.14s2.04-.71,3.09-.71ZM428.16,621.95c1.27,0,2.25.34,2.93,1.03.68.69,1.02,1.7,1.02,3.03v11.07h-2.55v-10.34c-.02-.91-.2-1.57-.55-1.99s-.93-.62-1.76-.62c-.53,0-1.03.09-1.5.26s-1,.44-1.56.8c-.57.36-1.25.84-2.06,1.43l-.15-1.82c1.07-.95,2.11-1.66,3.12-2.14,1.01-.47,2.03-.71,3.06-.71Z"/>
    <path class="cls-2" d="M438.74,616.04c.53,0,.79.26.79.79v1.73c0,.53-.26.79-.79.79h-1.21c-.53,0-.79-.26-.79-.79v-1.73c0-.53.26-.79.79-.79h1.21ZM439.41,622.32v14.76h-2.55v-14.76h2.55Z"/>
    <path class="cls-2" d="M452.9,624.41l2.88.03-9.52,10.58-2.88-.03,9.52-10.58ZM455.87,634.99v2.09h-12.49v-2.09h12.49ZM455.78,622.32v2.12h-12.31v-2.12h12.31Z"/>
    <path class="cls-2" d="M465.75,621.95c2.22,0,3.83.4,4.84,1.21,1,.81,1.5,2.01,1.5,3.61.02,1.31-.25,2.34-.82,3.08-.57.74-1.47,1.11-2.7,1.11h-8.61v-2h7.94c.67,0,1.1-.23,1.3-.68.2-.46.3-.96.3-1.5-.02-.95-.3-1.63-.85-2.03-.55-.4-1.48-.61-2.79-.61-1.07,0-1.92.16-2.53.47-.62.31-1.05.86-1.3,1.64-.25.78-.38,1.86-.38,3.26,0,1.58.16,2.78.47,3.61s.81,1.39,1.5,1.7c.69.3,1.6.46,2.73.46.79,0,1.65-.04,2.59-.11.94-.07,1.78-.16,2.53-.26l.27,1.73c-.47.18-1.04.33-1.71.46-.68.12-1.38.21-2.09.27-.72.06-1.36.09-1.93.09-1.7,0-3.06-.26-4.09-.77-1.03-.52-1.78-1.34-2.26-2.49s-.71-2.65-.71-4.53.24-3.47.71-4.59c.47-1.12,1.21-1.92,2.21-2.39,1-.47,2.29-.71,3.87-.71Z"/>
    <path class="cls-2" d="M493.55,627.99l-.03,1.94-7.06.03c-.71.02-1.2.21-1.49.56-.28.35-.42.84-.42,1.47v.94c0,.77.18,1.33.54,1.68.36.35.95.53,1.76.53.57,0,1.21-.11,1.92-.32s1.44-.54,2.17-.99c.73-.44,1.39-1.01,2-1.7v1.91c-.22.28-.54.61-.96.98-.41.38-.91.74-1.49,1.09s-1.21.65-1.91.88-1.45.35-2.26.35c-.87,0-1.64-.16-2.3-.47-.67-.31-1.19-.78-1.56-1.39-.37-.62-.56-1.37-.56-2.26v-1.61c0-1.15.36-2.05,1.08-2.68.72-.64,1.72-.96,3.02-.96h7.55ZM489.7,621.95c1.09,0,2.02.15,2.77.44.76.29,1.33.78,1.71,1.47.38.69.58,1.63.58,2.82v10.4h-2.03l-.39-3.21-.18-.33v-6.85c0-.91-.21-1.56-.62-1.96s-1.21-.59-2.38-.59c-.77,0-1.73.04-2.89.12-1.16.08-2.31.17-3.44.27l-.24-1.91c.69-.12,1.44-.23,2.26-.33.82-.1,1.65-.18,2.5-.24.85-.06,1.64-.09,2.36-.09Z"/>
    <path class="cls-2" d="M501.56,622.32l.21,2.82.18.46v11.49h-2.58v-14.76h2.18ZM508.35,621.95c2.67,0,4,1.35,4,4.06v11.07h-2.58v-10.34c0-.99-.16-1.67-.49-2.05s-.87-.56-1.64-.56c-.91,0-1.82.22-2.73.67-.91.45-1.99,1.05-3.24,1.82l-.12-1.85c1.15-.89,2.29-1.58,3.43-2.08,1.13-.5,2.25-.74,3.37-.74Z"/>
    <path class="cls-2" d="M521.9,621.95c.97,0,1.93.13,2.88.38.95.25,1.86.64,2.73,1.17l-.15,1.61c-.95-.28-1.79-.5-2.52-.67-.73-.16-1.51-.24-2.33-.24s-1.53.15-2.05.44c-.51.29-.89.83-1.14,1.62-.24.79-.36,1.91-.36,3.37s.12,2.59.35,3.4c.23.81.6,1.38,1.11,1.7.5.32,1.15.49,1.94.49.59,0,1.12-.08,1.59-.23.47-.15.98-.4,1.52-.74.54-.34,1.17-.78,1.89-1.3l.24,1.82c-.81.75-1.73,1.38-2.76,1.91-1.03.53-2.14.79-3.33.79-1.86,0-3.19-.66-3.99-1.97-.8-1.31-1.2-3.25-1.2-5.82,0-1.92.2-3.44.61-4.56.4-1.12,1.02-1.93,1.85-2.41.83-.49,1.87-.73,3.12-.73ZM529.6,615.86v21.22h-2l-.3-2.58-.27-.21v-10.13l.18-.45c-.08-.57-.13-1.11-.15-1.64-.02-.53-.03-1.08-.03-1.67v-4.55h2.58Z"/>
    <path class="cls-2" d="M406.51,653.95c2.22,0,3.83.4,4.84,1.21,1,.81,1.5,2.01,1.5,3.61.02,1.31-.25,2.34-.82,3.08-.57.74-1.47,1.11-2.7,1.11h-8.61v-2h7.94c.67,0,1.1-.23,1.3-.68.2-.46.3-.96.3-1.5-.02-.95-.3-1.63-.85-2.03-.55-.4-1.48-.61-2.79-.61-1.07,0-1.92.16-2.53.47-.62.31-1.05.86-1.3,1.64-.25.78-.38,1.86-.38,3.26,0,1.58.16,2.78.47,3.61s.81,1.39,1.5,1.7c.69.3,1.6.46,2.73.46.79,0,1.65-.04,2.59-.11.94-.07,1.78-.16,2.53-.26l.27,1.73c-.47.18-1.04.33-1.71.46-.68.12-1.38.21-2.09.27-.72.06-1.36.09-1.93.09-1.7,0-3.06-.26-4.09-.77-1.03-.52-1.78-1.34-2.26-2.49s-.71-2.65-.71-4.53.24-3.47.71-4.59c.47-1.12,1.21-1.92,2.21-2.39,1-.47,2.29-.71,3.87-.71Z"/>
    <path class="cls-2" d="M429.77,654.32l-5.4,14.13c-.08.2-.2.36-.35.47-.15.11-.34.17-.56.17h-2.33c-.2,0-.38-.06-.54-.17-.16-.11-.28-.27-.36-.47l-5.4-14.13h2.76l3.64,10.34c.16.42.31.86.45,1.3.14.45.28.87.42,1.27h.39c.16-.42.32-.85.47-1.29s.3-.86.44-1.29l3.64-10.34h2.73Z"/>
    <path class="cls-2" d="M438.77,653.95c1.7,0,3.06.25,4.08.76,1.02.51,1.75,1.33,2.2,2.47.44,1.14.67,2.65.67,4.53s-.22,3.39-.67,4.53c-.45,1.14-1.18,1.96-2.2,2.47-1.02.5-2.38.76-4.08.76s-3.03-.25-4.05-.76c-1.02-.51-1.76-1.33-2.21-2.47-.45-1.14-.68-2.65-.68-4.53s.23-3.39.68-4.53c.46-1.14,1.19-1.96,2.21-2.47,1.02-.5,2.37-.76,4.05-.76ZM438.77,656.14c-1.07,0-1.92.17-2.53.5-.62.33-1.06.9-1.32,1.71s-.39,1.93-.39,3.37.13,2.56.39,3.37.7,1.38,1.32,1.71c.62.33,1.46.5,2.53.5s1.92-.17,2.55-.5c.63-.33,1.07-.9,1.33-1.71s.39-1.93.39-3.37-.13-2.56-.39-3.37-.71-1.38-1.33-1.71c-.63-.33-1.48-.5-2.55-.5Z"/>
    <path class="cls-2" d="M452.35,647.86l-.03,17.16c0,.65.18,1.14.53,1.47.35.33.85.5,1.5.5h1.42l.3,1.97c-.18.08-.44.15-.77.21-.33.06-.68.11-1.03.14-.35.03-.65.05-.89.05-1.09,0-1.97-.32-2.62-.97s-.99-1.58-.99-2.79v-17.74h2.58Z"/>
    <path class="cls-2" d="M471.21,654.32l-5.4,14.13c-.08.2-.2.36-.35.47-.15.11-.34.17-.56.17h-2.33c-.2,0-.38-.06-.55-.17-.16-.11-.28-.27-.36-.47l-5.4-14.13h2.76l3.64,10.34c.16.42.31.86.46,1.3.14.45.28.87.42,1.27h.39c.16-.42.32-.85.47-1.29s.3-.86.44-1.29l3.64-10.34h2.73Z"/>
    <path class="cls-2" d="M480.03,653.95c2.22,0,3.83.4,4.84,1.21,1,.81,1.5,2.01,1.5,3.61.02,1.31-.25,2.34-.82,3.08-.57.74-1.47,1.11-2.7,1.11h-8.61v-2h7.94c.67,0,1.1-.23,1.3-.68.2-.46.3-.96.3-1.5-.02-.95-.3-1.63-.85-2.03-.55-.4-1.48-.61-2.79-.61-1.07,0-1.92.16-2.53.47-.62.31-1.05.86-1.3,1.64-.25.78-.38,1.86-.38,3.26,0,1.58.16,2.78.47,3.61s.81,1.39,1.5,1.7c.69.3,1.6.46,2.73.46.79,0,1.65-.04,2.59-.11.94-.07,1.78-.16,2.53-.26l.27,1.73c-.47.18-1.04.33-1.71.46-.68.12-1.38.21-2.09.27-.72.06-1.36.09-1.93.09-1.7,0-3.06-.26-4.09-.77-1.03-.52-1.78-1.34-2.26-2.49s-.71-2.65-.71-4.53.24-3.47.71-4.59c.47-1.12,1.21-1.92,2.21-2.39,1-.47,2.29-.71,3.87-.71Z"/>
  </g>
  <g>
    <path class="cls-2" d="M566.9,303.77c.71,0,1.39.02,2.06.06.67.04,1.31.11,1.94.2.63.09,1.23.22,1.82.38l-.27,2c-.63-.06-1.26-.11-1.89-.15s-1.25-.07-1.83-.08c-.59,0-1.14-.02-1.67-.02-1.13,0-2.09.11-2.86.32-.78.21-1.4.62-1.87,1.23s-.8,1.48-1.02,2.61c-.21,1.13-.32,2.61-.32,4.43,0,2.06.14,3.7.42,4.93.28,1.22.76,2.11,1.43,2.65.67.55,1.56.82,2.67.82.77,0,1.47-.11,2.11-.33.64-.22,1.23-.51,1.79-.86s1.1-.72,1.62-1.11l.36,1.64c-.36.42-.86.87-1.5,1.33-.64.47-1.38.86-2.23,1.18-.85.32-1.81.48-2.88.48-1.56,0-2.82-.39-3.8-1.17s-1.69-1.97-2.14-3.58c-.45-1.61-.67-3.66-.67-6.17,0-2.77.28-4.94.83-6.5.56-1.57,1.48-2.67,2.76-3.32,1.28-.65,3-.97,5.14-.97ZM573.27,312.99v12.1h-1.94l-.42-3.09-.24-.61v-8.4h2.61Z"/>
    <path class="cls-2" d="M580.18,310.32v10.37c-.02.93.15,1.59.51,1.97.36.38.97.58,1.82.58s1.65-.2,2.47-.59,1.8-.97,2.96-1.71l.33,1.79c-1.15.91-2.27,1.6-3.35,2.06-1.08.46-2.18.7-3.29.7-2.69,0-4.03-1.35-4.03-4.06v-11.1h2.58ZM590.25,310.32v14.76h-2.06l-.24-2.79-.27-.46v-11.52h2.58Z"/>
    <path class="cls-2" d="M596.98,304.04c.53,0,.79.26.79.79v1.73c0,.53-.26.79-.79.79h-1.21c-.53,0-.79-.26-.79-.79v-1.73c0-.53.26-.79.79-.79h1.21ZM597.64,310.32v14.76h-2.55v-14.76h2.55Z"/>
    <path class="cls-2" d="M607.41,309.95c.97,0,1.93.13,2.88.38.95.25,1.86.64,2.73,1.17l-.15,1.61c-.95-.28-1.79-.5-2.52-.67-.73-.16-1.51-.24-2.33-.24s-1.53.15-2.05.44c-.51.29-.89.83-1.14,1.62-.24.79-.36,1.91-.36,3.37s.12,2.59.35,3.4c.23.81.6,1.37,1.11,1.7.51.32,1.15.48,1.94.48.59,0,1.12-.08,1.59-.23.47-.15.98-.4,1.52-.74.54-.34,1.17-.78,1.9-1.3l.24,1.82c-.81.75-1.73,1.38-2.76,1.91-1.03.53-2.14.79-3.33.79-1.86,0-3.19-.66-3.99-1.97-.8-1.31-1.2-3.25-1.2-5.82,0-1.92.2-3.44.61-4.56s1.02-1.93,1.85-2.41c.83-.49,1.87-.73,3.12-.73ZM615.11,303.86v21.22h-2l-.3-2.58-.27-.21v-10.13l.18-.45c-.08-.57-.13-1.11-.15-1.64-.02-.53-.03-1.08-.03-1.67v-4.55h2.58Z"/>
    <path class="cls-2" d="M621.87,304.04c.53,0,.79.26.79.79v1.73c0,.53-.26.79-.79.79h-1.21c-.53,0-.79-.26-.79-.79v-1.73c0-.53.26-.79.79-.79h1.21ZM622.53,310.32v14.76h-2.55v-14.76h2.55Z"/>
    <path class="cls-2" d="M629.57,310.32l.21,2.82.18.46v11.49h-2.58v-14.76h2.18ZM636.36,309.95c2.67,0,4,1.35,4,4.06v11.07h-2.58v-10.34c0-.99-.16-1.67-.48-2.05-.32-.37-.87-.56-1.64-.56-.91,0-1.82.22-2.73.67-.91.44-1.99,1.05-3.24,1.82l-.12-1.85c1.15-.89,2.29-1.58,3.43-2.08,1.13-.5,2.25-.74,3.37-.74Z"/>
    <path class="cls-2" d="M646.67,318.38l1.49.21c-.34.3-.58.67-.7,1.11-.12.44-.09.83.11,1.2.19.36.6.6,1.23.7l5.52.88c1.39.2,2.37.64,2.91,1.3.55.67.82,1.62.82,2.85,0,1.15-.22,2.06-.65,2.73s-1.17,1.14-2.2,1.42c-1.03.28-2.43.42-4.18.42-1.33,0-2.46-.08-3.37-.23-.91-.15-1.64-.4-2.2-.76s-.95-.81-1.2-1.38-.36-1.27-.36-2.12c0-.65.1-1.19.29-1.62.19-.43.49-.82.91-1.17s.96-.68,1.62-1l1.82-1,1.18.42-1.49,1.12c-.4.3-.74.6-1.02.89-.27.29-.47.61-.61.94s-.2.73-.2,1.2c0,.69.13,1.21.39,1.58.26.36.73.61,1.4.74.67.13,1.6.2,2.79.2s2.12-.07,2.77-.21c.66-.14,1.12-.39,1.38-.76s.39-.88.39-1.55c0-.51-.07-.89-.2-1.15-.13-.26-.38-.46-.74-.61-.36-.14-.9-.26-1.61-.36l-5.31-.73c-.63-.08-1.13-.28-1.5-.61-.37-.32-.63-.71-.77-1.15-.14-.44-.18-.89-.12-1.35.06-.45.21-.88.46-1.27.24-.39.56-.69.94-.89ZM650.85,309.95c1.58,0,2.82.16,3.74.48.92.32,1.58.83,1.97,1.52s.59,1.59.59,2.7-.2,1.96-.59,2.65-1.06,1.21-1.99,1.55c-.93.33-2.18.5-3.76.5s-2.83-.17-3.74-.5c-.92-.33-1.58-.84-1.97-1.53s-.59-1.57-.59-2.64.2-2.02.59-2.71,1.06-1.21,1.99-1.53c.93-.32,2.18-.48,3.76-.48ZM650.82,311.92c-1.48,0-2.5.21-3.08.62-.58.41-.86,1.12-.86,2.11s.29,1.67.86,2.09c.58.42,1.6.64,3.08.64s2.53-.21,3.09-.64.85-1.12.85-2.09-.28-1.69-.85-2.11c-.57-.41-1.6-.62-3.09-.62ZM658.88,310.32l-.15,1.42-3.76.3-1.06-1.73h4.97Z"/>
    <path class="cls-2" d="M663.4,321.5c.36,0,.61.07.74.21.13.14.2.39.2.76v1.94c0,.57-.05,1.12-.14,1.67s-.21,1.07-.36,1.56c-.15.49-.34.97-.56,1.44l-1.21-.36c.1-.63.18-1.2.23-1.73.05-.53.08-1.16.08-1.91-.49,0-.73-.28-.73-.85v-1.76c.02-.36.11-.62.27-.76.16-.14.4-.21.73-.21h.76Z"/>
    <path class="cls-2" d="M522.82,341.95c2.22,0,3.84.4,4.84,1.21,1,.81,1.5,2.01,1.5,3.61.02,1.31-.25,2.34-.82,3.08-.57.74-1.47,1.11-2.7,1.11h-8.61v-2h7.94c.67,0,1.1-.23,1.3-.68.2-.46.3-.96.3-1.5-.02-.95-.3-1.63-.85-2.03-.55-.4-1.48-.61-2.79-.61-1.07,0-1.92.16-2.53.47-.62.31-1.05.86-1.3,1.64-.25.78-.38,1.86-.38,3.26,0,1.58.16,2.78.47,3.61.31.83.81,1.39,1.5,1.7.69.3,1.6.46,2.73.46.79,0,1.65-.04,2.59-.11.94-.07,1.78-.16,2.53-.26l.27,1.73c-.47.18-1.04.33-1.71.45-.68.12-1.38.21-2.09.27-.72.06-1.36.09-1.93.09-1.7,0-3.06-.26-4.09-.77-1.03-.52-1.78-1.34-2.26-2.49-.47-1.14-.71-2.65-.71-4.53s.24-3.47.71-4.59,1.21-1.92,2.21-2.4c1-.47,2.29-.71,3.87-.71Z"/>
    <path class="cls-2" d="M538.98,341.95c.46,0,.98.02,1.54.06.57.04,1.15.11,1.76.2.61.09,1.2.2,1.77.33s1.11.28,1.59.44l-2.09,1.79c-.53-.16-1.06-.29-1.61-.39-.55-.1-1.07-.17-1.58-.21-.51-.04-.98-.05-1.43-.03-.97.02-1.75.2-2.33.53s-1.01.91-1.26,1.74c-.25.83-.38,2-.38,3.52,0,1.8.22,3.13.67,3.99.45.86,1.31,1.29,2.61,1.29.93,0,1.77-.2,2.53-.59.76-.39,1.62-.92,2.59-1.59l.33,1.7c-.63.57-1.28,1.06-1.97,1.47-.69.41-1.39.73-2.11.96s-1.46.33-2.23.33c-1.72,0-2.99-.62-3.82-1.85-.83-1.23-1.24-3.19-1.24-5.88,0-1.27.11-2.4.32-3.37.21-.97.57-1.78,1.08-2.44.51-.66,1.18-1.15,2.03-1.49.85-.33,1.92-.5,3.21-.5ZM543.07,342.89l2.58.09v20.19h-2.58l-.03-5.06c0-.65.02-1.23.06-1.74.04-.52.12-1.05.24-1.59l-.27-.42v-11.46Z"/>
    <path class="cls-2" d="M552.8,342.32v10.37c-.02.93.15,1.59.52,1.97.36.38.97.58,1.82.58s1.65-.2,2.47-.59,1.8-.97,2.96-1.71l.33,1.79c-1.15.91-2.27,1.6-3.35,2.06-1.08.46-2.18.7-3.29.7-2.69,0-4.03-1.35-4.03-4.06v-11.1h2.58ZM562.87,342.32v14.76h-2.06l-.24-2.79-.27-.46v-11.52h2.58Z"/>
    <path class="cls-2" d="M569.6,336.04c.53,0,.79.26.79.79v1.73c0,.53-.26.79-.79.79h-1.21c-.53,0-.79-.26-.79-.79v-1.73c0-.53.26-.79.79-.79h1.21ZM570.27,342.32v14.76h-2.55v-14.76h2.55Z"/>
    <path class="cls-2" d="M577.24,342.32l.27,3.06.18.39v9.46l-.12.36c.06.57.1,1.11.11,1.64,0,.53.02,1.08.02,1.67v4.27h-2.58v-20.86h2.12ZM583.58,341.95c1.8,0,3.09.66,3.88,1.99s1.18,3.27,1.18,5.84c0,1.9-.2,3.41-.61,4.53-.4,1.12-1.02,1.92-1.83,2.41-.82.48-1.87.73-3.14.73-.97,0-1.92-.13-2.87-.39-.94-.26-1.85-.67-2.74-1.21l.15-1.55c.95.26,1.79.48,2.52.65s1.5.26,2.3.26c.87,0,1.56-.15,2.08-.45.52-.3.89-.85,1.14-1.64.24-.79.36-1.9.36-3.33s-.11-2.5-.33-3.3c-.22-.81-.57-1.39-1.04-1.74-.48-.35-1.11-.53-1.9-.53s-1.61.19-2.4.58c-.79.38-1.71.97-2.76,1.76l-.24-1.73c.55-.59,1.16-1.09,1.85-1.52.69-.42,1.41-.75,2.17-.99s1.5-.35,2.23-.35Z"/>
    <path class="cls-2" d="M594.82,342.32l.27,3.06.18.39v9.46l-.12.36c.06.57.1,1.11.11,1.64,0,.53.02,1.08.02,1.67v4.27h-2.58v-20.86h2.12ZM601.16,341.95c1.8,0,3.09.66,3.88,1.99s1.18,3.27,1.18,5.84c0,1.9-.2,3.41-.61,4.53-.4,1.12-1.02,1.92-1.83,2.41-.82.48-1.87.73-3.14.73-.97,0-1.92-.13-2.87-.39-.94-.26-1.85-.67-2.74-1.21l.15-1.55c.95.26,1.79.48,2.52.65s1.5.26,2.3.26c.87,0,1.56-.15,2.08-.45.52-.3.89-.85,1.14-1.64.24-.79.36-1.9.36-3.33s-.11-2.5-.33-3.3c-.22-.81-.57-1.39-1.04-1.74-.48-.35-1.11-.53-1.9-.53s-1.61.19-2.4.58c-.79.38-1.71.97-2.76,1.76l-.24-1.73c.55-.59,1.16-1.09,1.85-1.52.69-.42,1.41-.75,2.17-.99s1.5-.35,2.23-.35Z"/>
    <path class="cls-2" d="M612.29,336.04c.53,0,.79.26.79.79v1.73c0,.53-.26.79-.79.79h-1.21c-.53,0-.79-.26-.79-.79v-1.73c0-.53.26-.79.79-.79h1.21ZM612.95,342.32v14.76h-2.55v-14.76h2.55Z"/>
    <path class="cls-2" d="M619.99,342.32l.21,2.82.18.46v11.49h-2.58v-14.76h2.18ZM626.78,341.95c2.67,0,4,1.35,4,4.06v11.07h-2.58v-10.34c0-.99-.16-1.67-.49-2.05s-.87-.56-1.64-.56c-.91,0-1.82.22-2.73.67-.91.44-1.99,1.05-3.24,1.82l-.12-1.85c1.15-.89,2.29-1.58,3.43-2.08,1.13-.5,2.25-.74,3.37-.74Z"/>
    <path class="cls-2" d="M637.09,350.38l1.49.21c-.34.3-.58.67-.7,1.11-.12.44-.09.83.11,1.2.19.36.6.6,1.23.7l5.52.88c1.39.2,2.36.64,2.91,1.3.54.67.82,1.62.82,2.85,0,1.15-.22,2.06-.65,2.73s-1.17,1.14-2.2,1.42c-1.03.28-2.43.42-4.18.42-1.33,0-2.46-.08-3.37-.23-.91-.15-1.64-.4-2.2-.76-.56-.35-.96-.81-1.2-1.38s-.36-1.27-.36-2.12c0-.65.1-1.19.29-1.62s.5-.82.91-1.17c.41-.34.96-.68,1.62-1l1.82-1,1.18.42-1.49,1.12c-.41.3-.74.6-1.02.89s-.48.61-.61.94c-.13.33-.2.73-.2,1.2,0,.69.13,1.21.39,1.58.26.36.73.61,1.39.74.67.13,1.6.2,2.79.2s2.12-.07,2.77-.21c.66-.14,1.12-.39,1.38-.76s.39-.88.39-1.55c0-.51-.07-.89-.2-1.15-.13-.26-.38-.46-.74-.61-.36-.14-.9-.26-1.61-.36l-5.31-.73c-.63-.08-1.13-.28-1.5-.61-.38-.32-.63-.71-.77-1.15-.14-.44-.18-.89-.12-1.35.06-.45.21-.88.45-1.27.24-.39.56-.69.94-.89ZM641.27,341.95c1.58,0,2.82.16,3.74.48.92.32,1.58.83,1.97,1.52s.59,1.59.59,2.7-.2,1.96-.59,2.65-1.06,1.21-1.99,1.55-2.18.5-3.76.5-2.82-.17-3.74-.5-1.58-.84-1.97-1.53c-.39-.69-.59-1.57-.59-2.64s.2-2.02.59-2.71c.39-.7,1.06-1.21,1.99-1.53.93-.32,2.18-.48,3.76-.48ZM641.24,343.92c-1.47,0-2.5.21-3.08.62-.58.41-.86,1.12-.86,2.11s.29,1.67.86,2.09,1.6.64,3.08.64,2.53-.21,3.09-.64c.56-.42.85-1.12.85-2.09s-.28-1.69-.85-2.11c-.57-.41-1.6-.62-3.09-.62ZM649.3,342.32l-.15,1.42-3.76.3-1.06-1.73h4.97Z"/>
    <path class="cls-2" d="M669.92,347.99l-.03,1.94-7.06.03c-.71.02-1.2.21-1.49.56-.28.35-.42.84-.42,1.47v.94c0,.77.18,1.33.54,1.68s.95.53,1.76.53c.57,0,1.21-.11,1.93-.32.72-.21,1.44-.54,2.17-.99.73-.44,1.39-1.01,2-1.7v1.91c-.22.28-.54.61-.96.99-.42.37-.91.74-1.49,1.09-.58.35-1.21.65-1.91.88-.7.23-1.45.35-2.26.35-.87,0-1.64-.16-2.3-.47-.67-.31-1.19-.78-1.56-1.39-.37-.62-.56-1.37-.56-2.26v-1.61c0-1.15.36-2.05,1.08-2.68.72-.64,1.72-.96,3.02-.96h7.55ZM666.07,341.95c1.09,0,2.02.15,2.77.44.76.29,1.33.78,1.71,1.47.38.69.58,1.63.58,2.82v10.4h-2.03l-.39-3.21-.18-.33v-6.85c0-.91-.21-1.56-.62-1.96s-1.21-.59-2.38-.59c-.77,0-1.73.04-2.89.12-1.16.08-2.31.17-3.44.27l-.24-1.91c.69-.12,1.44-.23,2.26-.33s1.65-.18,2.5-.24c.85-.06,1.64-.09,2.36-.09Z"/>
    <path class="cls-2" d="M677.92,342.32l.21,2.82.18.46v11.49h-2.58v-14.76h2.18ZM684.71,341.95c2.67,0,4,1.35,4,4.06v11.07h-2.58v-10.34c0-.99-.16-1.67-.48-2.05-.32-.37-.87-.56-1.64-.56-.91,0-1.82.22-2.73.67-.91.44-1.99,1.05-3.24,1.82l-.12-1.85c1.15-.89,2.29-1.58,3.43-2.08,1.13-.5,2.25-.74,3.37-.74Z"/>
    <path class="cls-2" d="M698.27,341.95c.97,0,1.93.13,2.88.38.95.25,1.86.64,2.73,1.17l-.15,1.61c-.95-.28-1.79-.5-2.52-.67-.73-.16-1.51-.24-2.33-.24s-1.53.15-2.05.44-.89.83-1.14,1.62c-.24.79-.36,1.91-.36,3.37s.12,2.59.35,3.4c.23.81.6,1.37,1.11,1.7.5.32,1.15.48,1.94.48.59,0,1.12-.08,1.59-.23.47-.15.98-.4,1.52-.74.54-.34,1.17-.78,1.9-1.3l.24,1.82c-.81.75-1.73,1.38-2.76,1.91s-2.14.79-3.33.79c-1.86,0-3.19-.66-3.99-1.97-.8-1.31-1.2-3.25-1.2-5.82,0-1.92.2-3.44.61-4.56.4-1.12,1.02-1.93,1.85-2.41.83-.49,1.87-.73,3.12-.73ZM705.97,335.86v21.22h-2l-.3-2.58-.27-.21v-10.13l.18-.45c-.08-.57-.13-1.11-.15-1.64-.02-.53-.03-1.08-.03-1.67v-4.55h2.58Z"/>
    <path class="cls-2" d="M520.24,368.04c.53,0,.79.26.79.79v1.73c0,.53-.26.79-.79.79h-1.21c-.53,0-.79-.26-.79-.79v-1.73c0-.53.26-.79.79-.79h1.21ZM520.91,374.32v14.76h-2.55v-14.76h2.55Z"/>
    <path class="cls-2" d="M527.88,374.32l.18,2.82.27.46v11.49h-2.58v-14.76h2.12ZM534.07,373.95c1.25,0,2.21.34,2.88,1.02s1.01,1.69,1.03,3.05v11.07h-2.49v-10.34c0-.95-.19-1.62-.58-2.02-.38-.39-.96-.59-1.73-.59-.51,0-1,.08-1.47.24-.47.16-1,.42-1.58.79s-1.28.85-2.11,1.46l-.18-1.82c1.07-.95,2.11-1.66,3.12-2.14,1.01-.47,2.04-.71,3.09-.71ZM543.74,373.95c1.27,0,2.25.34,2.93,1.03.68.69,1.02,1.7,1.02,3.03v11.07h-2.55v-10.34c-.02-.91-.2-1.57-.55-1.99-.34-.41-.93-.62-1.76-.62-.53,0-1.03.09-1.5.26-.47.17-1,.44-1.56.8-.57.36-1.25.84-2.06,1.43l-.15-1.82c1.07-.95,2.11-1.66,3.12-2.14,1.01-.47,2.03-.71,3.06-.71Z"/>
    <path class="cls-2" d="M554.44,374.32l.27,3.06.18.39v9.46l-.12.36c.06.57.1,1.11.11,1.64,0,.53.01,1.08.01,1.67v4.27h-2.58v-20.86h2.12ZM560.78,373.95c1.8,0,3.09.66,3.88,1.99s1.18,3.27,1.18,5.84c0,1.9-.2,3.41-.61,4.53-.41,1.12-1.02,1.92-1.83,2.41-.82.48-1.86.73-3.14.73-.97,0-1.93-.13-2.87-.39-.94-.26-1.86-.67-2.74-1.21l.15-1.55c.95.26,1.79.48,2.52.65s1.5.26,2.3.26c.87,0,1.56-.15,2.08-.45s.89-.85,1.14-1.64.36-1.9.36-3.33-.11-2.5-.33-3.3c-.22-.81-.57-1.39-1.05-1.74-.47-.35-1.11-.53-1.89-.53s-1.61.19-2.39.58c-.79.38-1.71.97-2.76,1.76l-.24-1.73c.54-.59,1.16-1.09,1.85-1.52.69-.42,1.41-.75,2.17-.99.76-.23,1.5-.35,2.23-.35Z"/>
    <path class="cls-2" d="M572.51,367.86l-.03,17.16c0,.65.18,1.14.53,1.47s.85.5,1.5.5h1.42l.3,1.97c-.18.08-.44.15-.77.21s-.68.11-1.03.14-.65.05-.89.05c-1.09,0-1.96-.32-2.62-.97-.66-.65-.99-1.58-.99-2.79v-17.74h2.58Z"/>
    <path class="cls-2" d="M584.97,373.95c2.22,0,3.84.4,4.84,1.21,1,.81,1.5,2.01,1.5,3.61.02,1.31-.25,2.34-.82,3.08-.57.74-1.47,1.11-2.7,1.11h-8.61v-2h7.94c.67,0,1.1-.23,1.3-.68.2-.46.3-.96.3-1.5-.02-.95-.3-1.63-.85-2.03-.55-.4-1.48-.61-2.79-.61-1.07,0-1.92.16-2.53.47-.62.31-1.05.86-1.3,1.64-.25.78-.38,1.86-.38,3.26,0,1.58.16,2.78.47,3.61.31.83.81,1.39,1.5,1.7.69.3,1.6.46,2.73.46.79,0,1.65-.04,2.59-.11.94-.07,1.78-.16,2.53-.26l.27,1.73c-.47.18-1.04.33-1.71.45-.68.12-1.38.21-2.09.27-.72.06-1.36.09-1.93.09-1.7,0-3.06-.26-4.09-.77-1.03-.52-1.78-1.34-2.26-2.49-.47-1.14-.71-2.65-.71-4.53s.24-3.47.71-4.59,1.21-1.92,2.21-2.4c1-.47,2.29-.71,3.87-.71Z"/>
    <path class="cls-2" d="M597.31,374.32l.18,2.82.27.46v11.49h-2.58v-14.76h2.12ZM603.5,373.95c1.25,0,2.21.34,2.88,1.02.67.68,1.01,1.69,1.03,3.05v11.07h-2.49v-10.34c0-.95-.19-1.62-.58-2.02s-.96-.59-1.73-.59c-.5,0-1,.08-1.47.24-.48.16-1,.42-1.58.79s-1.28.85-2.11,1.46l-.18-1.82c1.07-.95,2.11-1.66,3.12-2.14,1.01-.47,2.04-.71,3.09-.71ZM613.17,373.95c1.27,0,2.25.34,2.93,1.03.68.69,1.02,1.7,1.02,3.03v11.07h-2.55v-10.34c-.02-.91-.2-1.57-.54-1.99-.34-.41-.93-.62-1.76-.62-.53,0-1.03.09-1.5.26-.47.17-1,.44-1.56.8-.57.36-1.25.84-2.06,1.43l-.15-1.82c1.07-.95,2.11-1.66,3.12-2.14,1.01-.47,2.03-.71,3.06-.71Z"/>
    <path class="cls-2" d="M627.81,373.95c2.22,0,3.83.4,4.84,1.21,1,.81,1.5,2.01,1.5,3.61.02,1.31-.25,2.34-.82,3.08-.57.74-1.47,1.11-2.7,1.11h-8.61v-2h7.94c.67,0,1.1-.23,1.3-.68.2-.46.3-.96.3-1.5-.02-.95-.3-1.63-.85-2.03-.55-.4-1.48-.61-2.79-.61-1.07,0-1.92.16-2.53.47s-1.05.86-1.3,1.64c-.25.78-.38,1.86-.38,3.26,0,1.58.16,2.78.47,3.61.31.83.81,1.39,1.5,1.7s1.6.46,2.73.46c.79,0,1.65-.04,2.59-.11.94-.07,1.78-.16,2.53-.26l.27,1.73c-.46.18-1.04.33-1.71.45-.68.12-1.38.21-2.09.27-.72.06-1.36.09-1.93.09-1.7,0-3.06-.26-4.09-.77s-1.79-1.34-2.26-2.49c-.47-1.14-.71-2.65-.71-4.53s.24-3.47.71-4.59,1.21-1.92,2.21-2.4c1-.47,2.29-.71,3.87-.71Z"/>
    <path class="cls-2" d="M640.21,374.32l.21,2.82.18.46v11.49h-2.58v-14.76h2.18ZM647,373.95c2.67,0,4,1.35,4,4.06v11.07h-2.58v-10.34c0-.99-.16-1.67-.49-2.05s-.87-.56-1.64-.56c-.91,0-1.82.22-2.73.67-.91.44-1.99,1.05-3.24,1.82l-.12-1.85c1.15-.89,2.29-1.58,3.43-2.08,1.13-.5,2.25-.74,3.37-.74Z"/>
    <path class="cls-2" d="M664.04,374.32v2.03h-9.95v-1.88l2.91-.15h7.03ZM659.34,369.95v15.07c0,.71.15,1.21.46,1.52.3.3.82.46,1.54.46h2.24l.3,1.97c-.32.08-.7.15-1.12.21-.42.06-.84.11-1.24.14-.41.03-.73.05-.97.05-1.23,0-2.17-.34-2.82-1.03s-.97-1.68-.97-2.97v-15.4h2.58Z"/>
    <path class="cls-2" d="M669.19,368.04c.53,0,.79.26.79.79v1.73c0,.53-.26.79-.79.79h-1.21c-.53,0-.79-.26-.79-.79v-1.73c0-.53.26-.79.79-.79h1.21ZM669.86,374.32v14.76h-2.55v-14.76h2.55Z"/>
    <path class="cls-2" d="M676.89,374.32l.21,2.82.18.46v11.49h-2.58v-14.76h2.18ZM683.68,373.95c2.67,0,4,1.35,4,4.06v11.07h-2.58v-10.34c0-.99-.16-1.67-.49-2.05s-.87-.56-1.64-.56c-.91,0-1.82.22-2.73.67-.91.44-1.99,1.05-3.24,1.82l-.12-1.85c1.15-.89,2.29-1.58,3.43-2.08,1.13-.5,2.25-.74,3.37-.74Z"/>
    <path class="cls-2" d="M693.99,382.38l1.49.21c-.34.3-.58.67-.7,1.11-.12.44-.09.83.11,1.2.19.36.6.6,1.23.7l5.52.88c1.39.2,2.36.64,2.91,1.3.54.67.82,1.62.82,2.85,0,1.15-.22,2.06-.65,2.73s-1.17,1.14-2.2,1.42c-1.03.28-2.43.42-4.18.42-1.33,0-2.46-.08-3.37-.23-.91-.15-1.64-.4-2.2-.76-.56-.35-.96-.81-1.2-1.38s-.36-1.27-.36-2.12c0-.65.1-1.19.29-1.62s.5-.82.91-1.17c.41-.34.96-.68,1.62-1l1.82-1,1.18.42-1.49,1.12c-.41.3-.74.6-1.02.89s-.48.61-.61.94c-.13.33-.2.73-.2,1.2,0,.69.13,1.21.39,1.58.26.36.73.61,1.39.74.67.13,1.6.2,2.79.2s2.12-.07,2.77-.21c.66-.14,1.12-.39,1.38-.76s.39-.88.39-1.55c0-.51-.07-.89-.2-1.15-.13-.26-.38-.46-.74-.61-.36-.14-.9-.26-1.61-.36l-5.31-.73c-.63-.08-1.13-.28-1.5-.61-.38-.32-.63-.71-.77-1.15-.14-.44-.18-.89-.12-1.35.06-.45.21-.88.45-1.27.24-.39.56-.69.94-.89ZM698.18,373.95c1.58,0,2.82.16,3.74.48.92.32,1.58.83,1.97,1.52s.59,1.59.59,2.7-.2,1.96-.59,2.65-1.06,1.21-1.99,1.55-2.18.5-3.76.5-2.82-.17-3.74-.5-1.58-.84-1.97-1.53c-.39-.69-.59-1.57-.59-2.64s.2-2.02.59-2.71c.39-.7,1.06-1.21,1.99-1.53.93-.32,2.18-.48,3.76-.48ZM698.14,375.92c-1.47,0-2.5.21-3.08.62-.58.41-.86,1.12-.86,2.11s.29,1.67.86,2.09,1.6.64,3.08.64,2.53-.21,3.09-.64c.56-.42.85-1.12.85-2.09s-.28-1.69-.85-2.11c-.57-.41-1.6-.62-3.09-.62ZM706.21,374.32l-.15,1.42-3.76.3-1.06-1.73h4.97Z"/>
  </g>
  <path class="cls-10" d="M320.59,867.83C136.03,814.75,1,644.64,1,443,1,198.89,198.89,1,443,1s442,197.89,442,442c0,199.13-131.68,367.5-312.7,422.79"/>
</svg>