<svg width="31" height="29" viewBox="0 0 31 29" fill="none" xmlns="http://www.w3.org/2000/svg">
<path d="M7.97143 29L5.90476 26.8632L16.0905 16.2934L21.2571 21.6355L28.8964 13.7368L31 15.9118L21.2571 25.9474L16.0905 20.6053L7.97143 29ZM2.95238 27.4737C2.14048 27.4737 1.44544 27.1748 0.867262 26.577C0.289087 25.9792 0 25.2605 0 24.4211V3.05263C0 2.21316 0.289087 1.49452 0.867262 0.896711C1.44544 0.298904 2.14048 0 2.95238 0H23.619C24.431 0 25.126 0.298904 25.7042 0.896711C26.2823 1.49452 26.5714 2.21316 26.5714 3.05263V9.46316H2.95238V27.4737ZM2.95238 6.41053H23.619V3.05263H2.95238V6.41053Z" fill="#8ABB3F"/>
</svg>
