<svg width="28" height="23" viewBox="0 0 28 23" fill="none" xmlns="http://www.w3.org/2000/svg">
<path d="M27.3602 3.74579C28 6.19604 28 11.311 28 11.311C28 11.311 28 16.426 27.3602 18.8763C27.0046 20.2307 25.9644 21.2963 24.647 21.6565C22.2544 22.311 14 22.311 14 22.311C14 22.311 5.7498 22.311 3.353 21.6565C2.03 21.2908 0.9912 20.2265 0.6398 18.8763C4.17233e-08 16.426 0 11.311 0 11.311C0 11.311 4.17233e-08 6.19604 0.6398 3.74579C0.9954 2.39141 2.0356 1.32578 3.353 0.965535C5.7498 0.311035 14 0.311035 14 0.311035C14 0.311035 22.2544 0.311035 24.647 0.965535C25.97 1.33128 27.0088 2.39554 27.3602 3.74579ZM11.2 16.1235L19.6 11.311L11.2 6.49854V16.1235Z" fill="#D4D4ED"/>
</svg>
